<svg width="440" height="440" viewBox="0 0 440 440" fill="none" xmlns="http://www.w3.org/2000/svg">
<rect width="440" height="440" fill="white"/>
<g clip-path="url(#clip0)">
<path d="M305.781 261.48V347.391L320.152 370.811L321.245 372.593H377.947L379.093 261.48H305.781Z" fill="#E6E6E6"/>
<path opacity="0.1" d="M305.781 261.48V347.391L320.152 370.811L321.034 261.48H305.781Z" fill="black"/>
<path d="M168.895 259.189V345.101L154.525 368.52L153.431 370.301H96.7294L95.5837 259.189H168.895Z" fill="#E6E6E6"/>
<path opacity="0.1" d="M168.895 259.189V345.101L154.525 368.52L153.643 259.189H168.895Z" fill="black"/>
<path d="M396.275 257.471V262.625H88.1379V255.179L116.775 240.288H371.074L396.275 257.471Z" fill="#E6E6E6"/>
<path opacity="0.1" d="M396.275 257.471V262.625H88.1379V255.179L396.275 257.471Z" fill="black"/>
<path d="M132.24 283.244H118.493L112.766 279.235H138.54L132.24 283.244Z" fill="#3F3D56"/>
<path d="M132.24 299.854H118.493L112.766 295.845H138.54L132.24 299.854Z" fill="#3F3D56"/>
<path d="M132.24 323.337H118.493L112.766 319.327H138.54L132.24 323.337Z" fill="#3F3D56"/>
<path d="M132.24 346.819H118.493L112.766 342.81H138.54L132.24 346.819Z" fill="#3F3D56"/>
<path d="M342.437 285.535H356.183L361.91 281.526H336.137L342.437 285.535Z" fill="#3F3D56"/>
<path d="M342.437 302.145H356.183L361.91 298.135H336.137L342.437 302.145Z" fill="#3F3D56"/>
<path d="M342.437 325.627H356.183L361.91 321.618H336.137L342.437 325.627Z" fill="#3F3D56"/>
<path d="M342.437 349.11H356.183L361.91 345.101H336.137L342.437 349.11Z" fill="#3F3D56"/>
<path d="M351.798 140.94H236.076C235.501 140.94 234.932 141.053 234.401 141.273C233.87 141.493 233.388 141.815 232.981 142.221C232.575 142.628 232.253 143.11 232.033 143.641C231.813 144.172 231.7 144.742 231.7 145.316V223.269C231.7 223.844 231.813 224.413 232.033 224.944C232.253 225.475 232.575 225.958 232.981 226.364C233.388 226.77 233.87 227.093 234.401 227.313C234.932 227.533 235.501 227.646 236.076 227.646H280.005L278.359 238.153C278.359 238.153 268.954 243.15 275.567 243.297C282.18 243.444 313.335 243.297 313.335 243.297C313.335 243.297 319.361 243.297 309.808 238.006L308.26 227.646H351.798C352.372 227.646 352.942 227.533 353.473 227.313C354.004 227.093 354.486 226.77 354.892 226.364C355.299 225.958 355.621 225.475 355.841 224.944C356.061 224.413 356.174 223.844 356.174 223.269V145.316C356.174 144.742 356.061 144.172 355.841 143.641C355.621 143.11 355.299 142.628 354.892 142.221C354.486 141.815 354.004 141.493 353.473 141.273C352.942 141.053 352.372 140.94 351.798 140.94Z" fill="#3F3D56"/>
<path d="M351.986 145.569H235.888V210.525H351.986V145.569Z" fill="#F2F2F2"/>
<path d="M293.937 144.246C294.343 144.246 294.672 143.917 294.672 143.512C294.672 143.106 294.343 142.777 293.937 142.777C293.531 142.777 293.202 143.106 293.202 143.512C293.202 143.917 293.531 144.246 293.937 144.246Z" fill="#F2F2F2"/>
<path d="M293.937 224.486C295.479 224.486 296.729 223.236 296.729 221.694C296.729 220.152 295.479 218.902 293.937 218.902C292.395 218.902 291.145 220.152 291.145 221.694C291.145 223.236 292.395 224.486 293.937 224.486Z" fill="#F2F2F2"/>
<path d="M289.586 251.233V252.702H210.522V251.527L210.631 251.233L212.579 245.942H287.969L289.586 251.233Z" fill="#3F3D56"/>
<path d="M320.012 249.794C319.868 250.41 319.324 251.059 318.096 251.673C313.687 253.878 304.723 251.086 304.723 251.086C304.723 251.086 297.815 249.91 297.815 246.824C298.009 246.691 298.212 246.571 298.421 246.464C300.274 245.483 306.42 243.063 317.318 246.566C318.12 246.818 318.837 247.288 319.389 247.924C319.633 248.164 319.817 248.459 319.925 248.784C320.034 249.109 320.064 249.455 320.012 249.794Z" fill="#3F3D56"/>
<path opacity="0.1" d="M320.012 249.794C314.616 251.862 309.806 252.016 304.87 248.587C303.003 247.207 300.743 246.463 298.421 246.464C300.275 245.483 306.421 243.063 317.318 246.566C318.121 246.818 318.838 247.288 319.389 247.924C319.633 248.164 319.817 248.459 319.926 248.784C320.034 249.109 320.064 249.455 320.012 249.794Z" fill="black"/>
<path d="M313.246 248.587C314.301 248.587 315.157 248.324 315.157 247.999C315.157 247.675 314.301 247.412 313.246 247.412C312.191 247.412 311.336 247.675 311.336 247.999C311.336 248.324 312.191 248.587 313.246 248.587Z" fill="#F2F2F2"/>
<path opacity="0.1" d="M289.586 251.233V252.702H210.522V251.527L210.631 251.233H289.586Z" fill="black"/>
<path d="M109.961 85C109.158 84.9341 108.355 85.1136 107.657 85.5147C106.971 85.9841 106.539 86.8065 106.098 87.5718C104.412 90.5326 102.13 93.111 99.395 95.1436C97.4032 96.6028 94.871 98.4221 95.2117 101.112C95.3915 102.001 95.7197 102.853 96.1826 103.632C98.02 107.341 103.034 110.208 102.541 114.44C104.366 111.384 101.925 109.873 103.75 106.816C104.62 105.361 106.13 103.718 107.442 104.632C107.882 104.938 108.171 105.487 108.628 105.756C109.72 106.396 110.882 105.171 111.848 104.304C115.181 101.312 119.921 102.096 124.068 103.028C126.026 103.468 128.177 104.045 129.335 105.917C130.856 108.377 127.889 111.035 127.139 113.816C127.078 114.053 127.075 114.302 127.13 114.54C127.186 114.779 127.299 115 127.459 115.185C127.618 115.371 127.821 115.515 128.048 115.605C128.276 115.695 128.522 115.729 128.766 115.703C130.01 115.58 131.484 115.479 131.558 114.933C133.124 114.989 135.042 114.812 135.713 113.181C135.918 112.536 136.026 111.864 136.035 111.188C136.281 108.449 137.443 105.951 138.213 103.344C138.983 100.737 139.318 97.6827 138.019 95.3718C137.555 94.6029 136.981 93.9058 136.316 93.3026C128.942 86.1663 119.246 84.9894 109.961 85Z" fill="#2F2E41"/>
<path d="M104.145 119.786C104.145 119.786 105.749 133.151 99.8681 134.22C93.9877 135.289 105.214 153.465 105.214 153.465L131.943 156.672L125.528 135.289C125.528 135.289 121.252 133.685 123.925 122.993C126.597 112.302 104.145 119.786 104.145 119.786Z" fill="#FFB8B8"/>
<path d="M87.8398 349.391L89.9784 378.793H101.204L97.9972 349.391H87.8398Z" fill="#FFB8B8"/>
<path d="M170.166 293.794L171.77 318.385L184.066 313.039L179.254 292.725L170.166 293.794Z" fill="#FFB8B8"/>
<path d="M79.821 237.128C79.821 237.128 80.3556 268.134 83.5632 278.291C86.7707 288.448 86.2361 288.983 85.7015 290.586C85.1669 292.19 84.6323 291.121 84.6323 293.794C84.6323 296.467 83.5632 338.699 84.6323 342.441C85.7015 346.183 81.4248 352.598 84.6323 353.133C87.8399 353.668 102.808 353.133 103.343 349.925C103.877 346.718 99.0662 345.649 101.205 343.51C103.343 341.372 106.55 297.536 106.55 297.536L114.035 267.065L127.934 251.027H157.336L166.424 286.31C166.424 286.31 162.682 296.467 165.355 296.467C168.028 296.467 184.065 299.674 184.065 287.913C184.065 276.152 178.72 241.404 177.65 240.335C176.581 239.266 178.185 235.524 176.581 233.92C174.977 232.316 156.267 221.09 149.317 218.952C142.368 216.813 132.619 214.268 132.619 214.268L79.821 237.128Z" fill="#2F2E41"/>
<path d="M184.065 308.762C184.065 308.762 176.047 306.089 172.304 314.108C168.562 322.127 170.166 324.265 170.166 324.265C170.166 324.265 182.462 328.542 184.6 326.404C185.53 325.473 188.484 325.15 191.525 325.082C196.157 324.978 197.389 318.425 193.015 316.9C192.884 316.854 192.752 316.815 192.619 316.781C188.342 315.712 184.065 308.762 184.065 308.762Z" fill="#2F2E41"/>
<path d="M116.173 128.607C125.03 128.607 132.21 121.426 132.21 112.569C132.21 103.712 125.03 96.5314 116.173 96.5314C107.316 96.5314 100.135 103.712 100.135 112.569C100.135 121.426 107.316 128.607 116.173 128.607Z" fill="#FFB8B8"/>
<path d="M95.3241 140.902C95.3241 140.902 121.519 146.248 127.934 137.695C134.349 129.141 137.022 161.751 137.022 161.751L140.229 195.965L135.418 214.675C135.418 214.675 110.293 234.989 102.274 236.593C94.255 238.197 81.9595 239.266 81.9595 239.266C81.9595 239.266 85.7016 179.927 85.7016 178.858C85.7016 177.789 95.3241 140.902 95.3241 140.902Z" fill="#6C63FF"/>
<path d="M103.291 130.876C103.291 130.876 97.4625 127.537 95.8587 130.745C94.255 133.953 79.2865 141.971 77.6828 141.971C76.079 141.971 80.8903 186.342 78.752 191.688C76.6136 197.034 66.4565 236.059 72.3369 239.266C78.2174 242.474 73.9407 236.059 79.8211 244.077C85.7016 252.096 114.569 252.096 116.173 248.889C117.777 245.681 103.343 221.625 106.016 199.172C108.689 176.719 112.966 145.713 109.223 141.437C105.481 137.16 103.291 130.876 103.291 130.876Z" fill="#2F2E41"/>
<path d="M122.588 134.487L123.333 131.924C123.333 131.924 145.575 139.298 146.645 144.11C147.714 148.921 147.179 182.6 143.437 185.273C139.695 187.946 134.349 192.222 138.091 198.637C141.833 205.052 146.11 212.002 149.317 212.537C152.525 213.071 158.405 216.813 156.802 220.555C155.198 224.298 135.953 217.348 135.953 217.348C135.953 217.348 123.123 207.725 123.657 192.757C124.192 177.788 122.588 134.487 122.588 134.487Z" fill="#2F2E41"/>
<path d="M141.298 197.568L128.468 221.625C128.468 221.625 109.758 240.87 120.45 243.008C131.141 245.146 137.022 225.367 137.022 225.367L150.921 205.587L141.298 197.568Z" fill="#FFB8B8"/>
<path d="M110.742 89.1962C110.096 89.1483 109.448 89.2739 108.866 89.56C108.341 89.9441 107.907 90.4408 107.598 91.0139C106.172 93.1588 104.313 94.9817 102.141 96.3657C100.52 97.397 98.4583 98.6829 98.7357 100.584C98.8863 101.222 99.1543 101.826 99.5261 102.365C101.027 105.013 101.624 108.078 101.228 111.096L105.686 104.616C106.394 103.587 107.624 102.426 108.692 103.072C109.05 103.288 109.285 103.676 109.657 103.866C110.546 104.319 111.492 103.453 112.279 102.84C114.992 100.725 118.85 101.279 122.226 101.938C123.82 102.249 125.571 102.657 126.513 103.98C128.079 106.178 126.444 109.354 127.358 111.893C127.614 111.714 127.831 111.486 127.997 111.221C128.162 110.956 128.273 110.661 128.323 110.353C129.598 110.392 131.159 110.267 131.705 109.115C131.872 108.663 131.96 108.187 131.967 107.705C132.168 105.77 133.114 104.004 133.741 102.162C134.368 100.319 134.64 98.1603 133.582 96.5269C133.195 95.9735 132.728 95.4806 132.196 95.0644C126.193 90.0205 118.301 89.1887 110.742 89.1962Z" fill="#2F2E41"/>
<path d="M141.299 141.971L146.279 143.293C146.279 143.293 157.871 172.977 155.198 193.292C152.525 213.606 150.921 209.329 150.921 209.329C150.921 209.329 146.645 199.707 137.022 201.845L141.299 141.971Z" fill="#2F2E41"/>
<path d="M88.5806 374.907C87.2915 376.659 87.5499 379.163 86.408 381.014C85.4182 382.619 83.5527 383.46 82.3146 384.882C81.9195 385.355 81.5674 385.861 81.2622 386.396C80.1137 388.32 79.1802 390.786 80.3113 392.72C81.2212 394.275 83.1338 394.884 84.8879 395.298C87.105 395.822 89.4086 396.241 91.6512 395.841C93.8939 395.44 96.0857 394.067 96.8853 391.934C97.0425 391.398 97.2293 390.87 97.445 390.355C98.6605 387.962 102.473 387.936 103.717 385.558C104.588 383.893 103.788 381.881 102.988 380.182L100.544 374.991C99.7336 373.269 96.4467 374.259 94.7332 373.846C92.4984 373.308 90.1883 372.715 88.5806 374.907Z" fill="#2F2E41"/>
<path d="M70.7332 208.26L93.1858 243.008C93.1858 243.008 107.085 260.65 111.362 252.631C115.638 244.612 96.3933 231.247 96.3933 231.247L81.9595 204.518L70.7332 208.26Z" fill="#FFB8B8"/>
<path d="M81.9593 143.04L77.6826 141.971C77.6826 141.971 69.1292 144.644 66.9909 155.87C64.8526 167.097 66.4563 212.002 69.1292 212.537C71.8022 213.071 82.3308 204.718 84.0161 206.489C85.7014 208.26 80.3556 199.172 81.9593 194.361C83.563 189.549 81.9593 143.04 81.9593 143.04Z" fill="#2F2E41"/>
<path d="M282.948 166.903H269.131V170.229H282.948V166.903Z" fill="#6C63FF"/>
<path d="M330.796 166.903H325.935V170.229H330.796V166.903Z" fill="#6C63FF"/>
<path d="M340.519 166.903H335.657V170.229H340.519V166.903Z" fill="#6C63FF"/>
<path d="M320.817 166.903H287.81V170.229H320.817V166.903Z" fill="#6C63FF"/>
<path d="M265.549 188.396H251.732V191.722H265.549V188.396Z" fill="#6C63FF"/>
<path d="M313.397 188.396H308.535V191.722H313.397V188.396Z" fill="#6C63FF"/>
<path d="M323.12 188.396H318.258V191.722H323.12V188.396Z" fill="#6C63FF"/>
<path d="M303.418 188.396H270.411V191.722H303.418V188.396Z" fill="#6C63FF"/>
<path d="M322.608 174.323H308.791V177.649H322.608V174.323Z" fill="#6C63FF"/>
<path d="M341.287 174.323H327.47V177.649H341.287V174.323Z" fill="#6C63FF"/>
<path d="M256.594 174.323H251.732V177.649H256.594V174.323Z" fill="#6C63FF"/>
<path d="M266.317 174.323H261.455V177.649H266.317V174.323Z" fill="#6C63FF"/>
<path d="M304.186 174.323H271.178V177.649H304.186V174.323Z" fill="#6C63FF"/>
<path d="M293.951 181.487H280.134V184.814H293.951V181.487Z" fill="#6C63FF"/>
<path d="M275.272 181.487H261.455V184.814H275.272V181.487Z" fill="#6C63FF"/>
<path d="M256.594 181.487H251.732V184.814H256.594V181.487Z" fill="#6C63FF"/>
<path d="M341.287 181.487H336.425V184.814H341.287V181.487Z" fill="#6C63FF"/>
<path d="M331.564 181.487H298.556V184.814H331.564V181.487Z" fill="#6C63FF"/>
</g>
<defs>
<clipPath id="clip0">
<rect width="330.275" height="311" fill="white" transform="translate(66 85)"/>
</clipPath>
</defs>
</svg>
