<svg width="440" height="440" viewBox="0 0 440 440" fill="none" xmlns="http://www.w3.org/2000/svg">
<g clip-path="url(#clip0)">
<rect width="440" height="440" fill="white"/>
<g clip-path="url(#clip1)">
<path d="M272.575 119.917H220.777C219.997 119.917 219.248 119.607 218.696 119.055C218.145 118.503 217.834 117.755 217.834 116.974C217.834 116.194 218.145 115.445 218.696 114.893C219.248 114.341 219.997 114.031 220.777 114.031H272.575C273.355 114.031 274.104 114.341 274.656 114.893C275.208 115.445 275.518 116.194 275.518 116.974C275.518 117.755 275.208 118.503 274.656 119.055C274.104 119.607 273.355 119.917 272.575 119.917V119.917Z" fill="#CCCCCC"/>
<path d="M312.6 140.519H220.777C219.997 140.519 219.248 140.209 218.696 139.657C218.145 139.105 217.834 138.356 217.834 137.576C217.834 136.795 218.145 136.046 218.696 135.495C219.248 134.943 219.997 134.633 220.777 134.633H312.6C313.38 134.633 314.129 134.943 314.681 135.495C315.233 136.046 315.543 136.795 315.543 137.576C315.543 138.356 315.233 139.105 314.681 139.657C314.129 140.209 313.38 140.519 312.6 140.519Z" fill="#CCCCCC"/>
<path d="M289.644 161.12H220.777C219.997 161.12 219.248 160.81 218.696 160.258C218.145 159.706 217.834 158.957 217.834 158.177C217.834 157.396 218.145 156.648 218.696 156.096C219.248 155.544 219.997 155.234 220.777 155.234H289.644C290.425 155.234 291.173 155.544 291.725 156.096C292.277 156.648 292.587 157.396 292.587 158.177C292.587 158.957 292.277 159.706 291.725 160.258C291.173 160.81 290.425 161.12 289.644 161.12Z" fill="#CCCCCC"/>
<path d="M312.6 181.721H220.777C219.997 181.721 219.248 181.411 218.696 180.859C218.145 180.307 217.834 179.559 217.834 178.778C217.834 177.997 218.145 177.249 218.696 176.697C219.248 176.145 219.997 175.835 220.777 175.835H312.6C313.38 175.835 314.129 176.145 314.681 176.697C315.233 177.249 315.543 177.997 315.543 178.778C315.543 179.559 315.233 180.307 314.681 180.859C314.129 181.411 313.38 181.721 312.6 181.721V181.721Z" fill="#CCCCCC"/>
<path d="M100.881 199.388C129.966 199.388 153.544 175.81 153.544 146.726C153.544 117.641 129.966 94.063 100.881 94.063C71.7963 94.063 48.2185 117.641 48.2185 146.726C48.2185 175.81 71.7963 199.388 100.881 199.388Z" fill="#6C63FF"/>
<path d="M103.824 97.0352H97.9382V91.1492H103.824V97.0352ZM99.1154 95.858H102.647V92.3264H99.1154V95.858Z" fill="#3F3D56"/>
<path d="M133.981 93.5037H102.785V94.6809H133.981V93.5037Z" fill="#3F3D56"/>
<path d="M133.981 95.3178C134.658 95.3178 135.207 94.7689 135.207 94.0919C135.207 93.4148 134.658 92.866 133.981 92.866C133.304 92.866 132.755 93.4148 132.755 94.0919C132.755 94.7689 133.304 95.3178 133.981 95.3178Z" fill="#3F3D56"/>
<path d="M98.6651 93.5037H68.0576V94.6809H98.6651V93.5037Z" fill="#3F3D56"/>
<path d="M68.0575 95.3178C68.7345 95.3178 69.2834 94.7689 69.2834 94.0919C69.2834 93.4148 68.7345 92.866 68.0575 92.866C67.3804 92.866 66.8315 93.4148 66.8315 94.0919C66.8315 94.7689 67.3804 95.3178 68.0575 95.3178Z" fill="#3F3D56"/>
<path d="M156.348 149.53H150.462V143.644H156.348V149.53ZM151.64 148.353H155.171V144.821H151.64V148.353Z" fill="#3F3D56"/>
<path d="M153.994 149.08H152.817V179.688H153.994V149.08Z" fill="#3F3D56"/>
<path d="M153.405 180.914C154.082 180.914 154.631 180.365 154.631 179.688C154.631 179.011 154.082 178.462 153.405 178.462C152.728 178.462 152.179 179.011 152.179 179.688C152.179 180.365 152.728 180.914 153.405 180.914Z" fill="#3F3D56"/>
<path d="M153.994 113.764H152.817V144.371H153.994V113.764Z" fill="#3F3D56"/>
<path d="M153.405 114.99C154.082 114.99 154.631 114.441 154.631 113.764C154.631 113.087 154.082 112.538 153.405 112.538C152.728 112.538 152.179 113.087 152.179 113.764C152.179 114.441 152.728 114.99 153.405 114.99Z" fill="#3F3D56"/>
<path d="M50.9883 149.53H45.1023V143.644H50.9883V149.53ZM46.2795 148.353H49.8111V144.821H46.2795V148.353Z" fill="#3F3D56"/>
<path d="M48.6338 149.08H47.4565V179.688H48.6338V149.08Z" fill="#3F3D56"/>
<path d="M48.045 180.914C48.7221 180.914 49.2709 180.365 49.2709 179.688C49.2709 179.011 48.7221 178.462 48.045 178.462C47.368 178.462 46.8191 179.011 46.8191 179.688C46.8191 180.365 47.368 180.914 48.045 180.914Z" fill="#3F3D56"/>
<path d="M48.6338 112.587H47.4565V144.371H48.6338V112.587Z" fill="#3F3D56"/>
<path d="M48.045 114.99C48.7221 114.99 49.2709 114.441 49.2709 113.764C49.2709 113.087 48.7221 112.538 48.045 112.538C47.368 112.538 46.8191 113.087 46.8191 113.764C46.8191 114.441 47.368 114.99 48.045 114.99Z" fill="#3F3D56"/>
<path d="M103.824 202.395H97.9382V196.509H103.824V202.395ZM99.1154 201.218H102.647V197.686H99.1154V201.218Z" fill="#3F3D56"/>
<path d="M134.57 198.864H103.374V200.041H134.57V198.864Z" fill="#3F3D56"/>
<path d="M133.981 200.678C134.658 200.678 135.207 200.13 135.207 199.452C135.207 198.775 134.658 198.227 133.981 198.227C133.304 198.227 132.755 198.775 132.755 199.452C132.755 200.13 133.304 200.678 133.981 200.678Z" fill="#3F3D56"/>
<path d="M98.6651 198.864H68.0576V200.041H98.6651V198.864Z" fill="#3F3D56"/>
<path d="M68.0575 200.678C68.7345 200.678 69.2834 200.13 69.2834 199.452C69.2834 198.775 68.7345 198.227 68.0575 198.227C67.3804 198.227 66.8315 198.775 66.8315 199.452C66.8315 200.13 67.3804 200.678 68.0575 200.678Z" fill="#3F3D56"/>
<path d="M343.796 243.524H23.0063C20.3534 243.521 17.8099 242.466 15.9341 240.59C14.0582 238.714 13.003 236.171 13 233.518V74.0063C13.003 71.3534 14.0582 68.81 15.9341 66.9341C17.8099 65.0582 20.3534 64.003 23.0063 64H343.796C346.449 64.003 348.992 65.0582 350.868 66.9341C352.744 68.81 353.799 71.3534 353.802 74.0063V233.518C353.799 236.171 352.744 238.714 350.868 240.59C348.992 242.466 346.449 243.521 343.796 243.524V243.524ZM23.0063 65.1772C20.6655 65.1799 18.4213 66.1109 16.7661 67.7661C15.1109 69.4213 14.1799 71.6655 14.1772 74.0063V233.518C14.1799 235.859 15.1109 238.103 16.7661 239.758C18.4213 241.414 20.6655 242.345 23.0063 242.347H343.796C346.137 242.345 348.381 241.414 350.036 239.758C351.691 238.103 352.622 235.859 352.625 233.518V74.0063C352.622 71.6655 351.691 69.4213 350.036 67.7661C348.381 66.1109 346.137 65.1799 343.796 65.1772H23.0063Z" fill="#3F3D56"/>
<path d="M207.239 119.917C208.865 119.917 210.182 118.6 210.182 116.974C210.182 115.349 208.865 114.031 207.239 114.031C205.614 114.031 204.296 115.349 204.296 116.974C204.296 118.6 205.614 119.917 207.239 119.917Z" fill="#CCCCCC"/>
<path d="M207.239 140.519C208.865 140.519 210.182 139.201 210.182 137.576C210.182 135.95 208.865 134.633 207.239 134.633C205.614 134.633 204.296 135.95 204.296 137.576C204.296 139.201 205.614 140.519 207.239 140.519Z" fill="#CCCCCC"/>
<path d="M207.239 161.12C208.865 161.12 210.182 159.802 210.182 158.177C210.182 156.551 208.865 155.234 207.239 155.234C205.614 155.234 204.296 156.551 204.296 158.177C204.296 159.802 205.614 161.12 207.239 161.12Z" fill="#CCCCCC"/>
<path d="M207.239 181.721C208.865 181.721 210.182 180.403 210.182 178.778C210.182 177.153 208.865 175.835 207.239 175.835C205.614 175.835 204.296 177.153 204.296 178.778C204.296 180.403 205.614 181.721 207.239 181.721Z" fill="#CCCCCC"/>
<path d="M270.843 204.693H252.869C252.282 204.692 251.719 204.459 251.304 204.044C250.889 203.629 250.656 203.066 250.655 202.479V181.269C250.656 180.682 250.889 180.119 251.304 179.704C251.719 179.289 252.282 179.056 252.869 179.055H270.843C271.43 179.056 271.993 179.289 272.408 179.704C272.823 180.119 273.056 180.682 273.057 181.269V202.479C273.056 203.066 272.823 203.629 272.408 204.044C271.993 204.459 271.43 204.692 270.843 204.693V204.693Z" fill="#FF6584"/>
<path d="M433.546 419.517H435.212C435.377 419.386 435.505 419.213 435.583 419.017C435.677 418.793 435.766 418.564 435.866 418.34C448.758 387.167 469.207 359.693 495.368 338.396C495.505 338.298 495.613 338.166 495.683 338.013C495.752 337.86 495.779 337.692 495.762 337.525C495.728 337.302 495.636 337.091 495.496 336.915C495.355 336.739 495.17 336.603 494.96 336.522C494.749 336.44 494.521 336.415 494.298 336.449C494.076 336.484 493.866 336.577 493.69 336.718C483.32 345.164 473.807 354.612 465.29 364.924C451.966 380.993 441.182 399.007 433.311 418.34C433.305 418.358 433.299 418.369 433.294 418.387C433.199 418.576 433.173 418.791 433.219 418.997C433.265 419.203 433.381 419.387 433.546 419.517Z" fill="white"/>
<path d="M375.197 288.867C375.199 287.091 375.906 285.387 377.162 284.131C378.418 282.875 380.122 282.168 381.898 282.166C381.963 282.166 382.027 282.169 382.091 282.173L402.815 265.655L387.963 250.803C387.353 250.195 386.869 249.473 386.538 248.678C386.207 247.883 386.037 247.03 386.036 246.169C386.035 245.307 386.204 244.454 386.533 243.658C386.863 242.862 387.346 242.139 387.955 241.53C388.564 240.921 389.287 240.438 390.083 240.109C390.879 239.78 391.732 239.611 392.593 239.612C393.454 239.612 394.307 239.783 395.102 240.114C395.898 240.445 396.62 240.929 397.228 241.539L421.098 265.41L388.596 289.048C388.549 290.809 387.81 292.48 386.54 293.701C385.269 294.921 383.569 295.592 381.808 295.568C380.046 295.545 378.365 294.828 377.127 293.574C375.89 292.32 375.197 290.629 375.197 288.867V288.867Z" fill="#FFB8B8"/>
<path d="M350.87 411.306L343.862 408.689L350.619 380.411L360.963 384.273L350.87 411.306Z" fill="#FFB8B8"/>
<path d="M339.302 404.705L353.12 409.864L349.943 418.374L327.916 410.151L328.028 409.85C328.841 407.672 330.485 405.907 332.6 404.943C334.714 403.978 337.125 403.892 339.302 404.705V404.705Z" fill="#2F2E41"/>
<path d="M413.923 411.411H406.442L402.883 382.556L413.925 382.556L413.923 411.411Z" fill="#FFB8B8"/>
<path d="M400.777 409.274H415.526V418.358H392.014V418.036C392.014 416.886 392.241 415.746 392.681 414.683C393.122 413.62 393.767 412.654 394.581 411.84C395.394 411.027 396.36 410.381 397.423 409.941C398.486 409.501 399.626 409.274 400.777 409.274V409.274Z" fill="#2F2E41"/>
<path d="M404.012 400.441C403.736 400.176 403.522 399.853 403.384 399.497C403.245 399.14 403.186 398.758 403.209 398.376C404.544 376.339 392.929 336.281 389.337 324.529C389.241 324.201 389.062 323.904 388.819 323.664C388.575 323.424 388.274 323.251 387.945 323.159C387.609 323.063 387.254 323.053 386.913 323.13C386.572 323.207 386.256 323.368 385.993 323.598C366.592 340.498 360.802 388.178 359.838 397.564C359.802 397.915 359.696 398.254 359.527 398.564C359.358 398.873 359.128 399.145 358.852 399.364C358.576 399.583 358.259 399.745 357.92 399.84C357.58 399.935 357.225 399.961 356.876 399.917L347.192 398.707C346.827 398.661 346.476 398.54 346.161 398.351C345.845 398.163 345.573 397.91 345.36 397.611C345.147 397.311 345 396.97 344.926 396.61C344.852 396.25 344.854 395.878 344.932 395.519L370.322 278.127L370.337 278.056L370.384 278C376.523 270.632 394.312 273.501 395.067 273.627L395.145 273.64L395.206 273.691C418.05 292.634 416.892 380.444 416.428 397.854C416.41 398.5 416.156 399.117 415.715 399.589C415.273 400.06 414.675 400.355 414.032 400.416L406.101 401.171C406.017 401.179 405.932 401.183 405.848 401.183C405.163 401.184 404.504 400.918 404.012 400.441V400.441Z" fill="#2F2E41"/>
<path d="M390.586 226.365C398.57 226.365 405.043 219.893 405.043 211.909C405.043 203.924 398.57 197.452 390.586 197.452C382.602 197.452 376.129 203.924 376.129 211.909C376.129 219.893 382.602 226.365 390.586 226.365Z" fill="#FFB8B8"/>
<path d="M404.782 239.135C404.782 239.135 391.357 223.27 380.373 236.084C373.306 244.329 369.568 254.914 369.89 265.769L370.305 279.714L395.628 275.748L404.782 239.135Z" fill="#6C63FF"/>
<path d="M388.243 214.41L382.032 207.092C380.431 205.207 378.757 203.153 378.53 200.689C378.282 197.989 379.924 195.365 382.17 193.845C384.415 192.325 387.172 191.752 389.875 191.543C394.889 191.153 400.165 191.982 404.287 194.863C408.408 197.744 411.105 202.946 410.1 207.874C409.309 211.754 406.393 215.47 407.526 219.264C408.766 223.416 413.852 224.69 418.004 225.928C424.973 228.005 431.628 232.096 435.28 238.385C438.933 244.674 438.917 253.345 434.048 258.748C430.895 262.246 426.14 264.015 421.439 264.281C416.737 264.547 412.057 263.44 407.599 261.925C403.492 260.53 399.43 258.736 396.197 255.845C392.964 252.955 390.635 248.818 390.736 244.482C390.832 240.35 393.045 236.586 393.955 232.554C394.672 229.178 394.484 225.673 393.409 222.393C392.334 219.113 390.412 216.175 387.836 213.878" fill="#2F2E41"/>
<path d="M372.892 344.961H354.918C354.331 344.961 353.768 344.727 353.353 344.312C352.938 343.897 352.705 343.335 352.704 342.748V321.537C352.705 320.95 352.938 320.388 353.353 319.973C353.768 319.558 354.331 319.324 354.918 319.323H372.892C373.479 319.324 374.041 319.558 374.456 319.973C374.871 320.388 375.105 320.95 375.105 321.537V342.748C375.105 343.335 374.871 343.897 374.456 344.312C374.041 344.727 373.479 344.961 372.892 344.961V344.961Z" fill="#6C63FF"/>
<path d="M367.565 326.82C366.707 325.482 366.366 323.877 366.605 322.306C366.843 320.735 367.646 319.304 368.862 318.281L378.7 240.766C378.913 239.11 379.721 237.588 380.974 236.484C382.226 235.38 383.838 234.77 385.507 234.767L385.599 234.767C386.596 234.781 387.578 235.011 388.477 235.442C389.376 235.873 390.17 236.495 390.805 237.264C391.439 238.034 391.898 238.932 392.149 239.897C392.401 240.862 392.44 241.87 392.262 242.851L378.43 319.405L378.432 319.409C379.011 320.198 379.406 321.105 379.589 322.066C379.772 323.026 379.739 324.016 379.492 324.962C379.244 325.908 378.789 326.787 378.158 327.535C377.528 328.282 376.739 328.88 375.849 329.284C375.012 329.664 374.103 329.86 373.184 329.857C372.068 329.862 370.969 329.586 369.987 329.056C369.005 328.525 368.172 327.756 367.565 326.82Z" fill="#FFB8B8"/>
<path d="M465.341 419.517H314.07C313.913 419.517 313.764 419.455 313.653 419.345C313.543 419.235 313.481 419.085 313.481 418.929C313.481 418.773 313.543 418.623 313.653 418.512C313.764 418.402 313.913 418.34 314.07 418.34H465.341C465.497 418.34 465.647 418.402 465.757 418.512C465.868 418.623 465.93 418.773 465.93 418.929C465.93 419.085 465.868 419.235 465.757 419.345C465.647 419.455 465.497 419.517 465.341 419.517Z" fill="#3F3D56"/>
</g>
</g>
<defs>
<clipPath id="clip0">
<rect width="440" height="440" fill="white"/>
</clipPath>
<clipPath id="clip1">
<rect width="551.092" height="355.517" fill="white" transform="translate(13 64)"/>
</clipPath>
</defs>
</svg>
