<svg width="440" height="440" viewBox="0 0 440 440" fill="none" xmlns="http://www.w3.org/2000/svg">
<rect width="440" height="440" fill="white"/>
<g clip-path="url(#clip0)">
<path d="M293.712 131.658C272.26 104.405 236.725 87.0959 200.785 71.0814C97.1552 24.9049 18.7696 33.2219 56.3048 131.658H293.712Z" fill="#3F3D56"/>
<path d="M128.134 265.499C145.402 293.231 165.713 313.387 200.785 313.387C237.634 313.387 270.372 294.597 291.08 265.499H128.134Z" fill="#3F3D56"/>
<path opacity="0.1" d="M35.6462 179.607C39.5678 174.863 43.9956 170.403 49.3996 167.457C54.8036 164.511 61.3135 163.204 67.2138 164.956C71.6183 166.264 75.3726 169.141 78.8471 172.147C85.9658 178.307 92.5299 185.359 100.926 189.616C109.323 193.872 120.387 194.666 127.518 188.522C133.163 183.659 135.569 175.236 142.31 172.061C148.954 168.933 156.659 172.292 163.401 175.204C172.558 179.158 182.033 182.327 191.725 184.679C198.282 186.27 205.036 187.489 211.753 186.849C218.469 186.21 225.21 183.521 229.591 178.39" fill="black"/>
<path opacity="0.1" d="M131.832 207.03C135.753 202.286 140.181 197.827 145.585 194.88C150.989 191.934 157.499 190.627 163.4 192.379C167.804 193.687 171.558 196.564 175.033 199.57C182.151 205.73 188.716 212.782 197.112 217.039C205.509 221.295 216.572 222.09 223.704 215.945C229.349 211.082 231.755 202.659 238.495 199.485C245.14 196.356 252.844 199.716 259.587 202.627C268.743 206.581 278.219 209.75 287.911 212.102C294.468 213.693 301.222 214.912 307.938 214.273C314.655 213.633 321.396 210.944 325.777 205.813" fill="black"/>
<path d="M38.5114 176.332C42.4329 171.589 46.8607 167.129 52.2647 164.183C57.6687 161.236 64.1786 159.929 70.079 161.681C74.4835 162.989 78.2377 165.866 81.7122 168.873C88.8309 175.032 95.3951 182.085 103.792 186.341C112.188 190.597 123.252 191.392 130.384 185.247C136.028 180.384 138.434 171.961 145.175 168.787C151.819 165.658 159.524 169.018 166.266 171.93C175.423 175.883 184.898 179.053 194.59 181.405C201.147 182.995 207.901 184.215 214.618 183.575C221.334 182.935 228.075 180.246 232.456 175.115" fill="#3F3D56"/>
<path d="M135.516 202.528C139.437 197.784 143.865 193.324 149.269 190.378C154.673 187.432 161.183 186.124 167.083 187.876C171.488 189.184 175.242 192.062 178.716 195.068C185.835 201.228 192.399 208.28 200.796 212.536C209.192 216.793 220.256 217.587 227.388 211.443C233.032 206.58 235.439 198.156 242.179 194.982C248.824 191.853 256.528 195.213 263.27 198.125C272.427 202.078 281.902 205.248 291.595 207.6C298.151 209.191 304.905 210.41 311.622 209.77C318.338 209.131 325.08 206.442 329.46 201.31" fill="#3F3D56"/>
<path opacity="0.1" d="M35.4277 159.081C40.4008 159.081 44.4323 155.05 44.4323 150.077C44.4323 145.103 40.4008 141.072 35.4277 141.072C30.4546 141.072 26.4231 145.103 26.4231 150.077C26.4231 155.05 30.4546 159.081 35.4277 159.081Z" fill="black"/>
<path d="M38.7021 154.988C43.6752 154.988 47.7067 150.956 47.7067 145.983C47.7067 141.01 43.6752 136.979 38.7021 136.979C33.729 136.979 29.6975 141.01 29.6975 145.983C29.6975 150.956 33.729 154.988 38.7021 154.988Z" fill="#6C63FF"/>
<path opacity="0.1" d="M314.294 169.859H331.2C332.354 163.189 332.354 156.371 331.2 149.702H314.294C316.199 156.286 316.199 163.275 314.294 169.859Z" fill="black"/>
<path d="M316.75 166.584H333.656C334.81 159.915 334.81 153.097 333.656 146.428H316.75C318.655 153.012 318.655 160.001 316.75 166.584Z" fill="#6C63FF"/>
<path d="M52.6445 297.876C66.7079 340.201 61.7688 379.941 61.7688 379.941C61.7688 379.941 34.0285 351.059 19.9651 308.735C5.90171 266.41 10.8408 226.67 10.8408 226.67C10.8408 226.67 38.5811 255.552 52.6445 297.876Z" fill="#6C63FF"/>
<path d="M70.8931 297.876C56.8297 340.201 61.7688 379.941 61.7688 379.941C61.7688 379.941 89.5091 351.059 103.572 308.735C117.636 266.41 112.697 226.67 112.697 226.67C112.697 226.67 84.9565 255.552 70.8931 297.876Z" fill="#6C63FF"/>
<path d="M76.5573 298.334C77.5 342.924 61.0499 379.435 61.0499 379.435C61.0499 379.435 43.0715 343.652 42.1289 299.062C41.1862 254.472 57.6363 217.961 57.6363 217.961C57.6363 217.961 75.6147 253.744 76.5573 298.334Z" fill="#3F3D56"/>
<path d="M61.0406 382.121C83.0057 382.121 100.812 381.144 100.812 379.938C100.812 378.733 83.0057 377.756 61.0406 377.756C39.0755 377.756 21.2693 378.733 21.2693 379.938C21.2693 381.144 39.0755 382.121 61.0406 382.121Z" fill="#3F3D56"/>
<path d="M59.3432 263.292C61.754 263.292 63.7083 261.338 63.7083 258.927C63.7083 256.516 61.754 254.562 59.3432 254.562C56.9324 254.562 54.978 256.516 54.978 258.927C54.978 261.338 56.9324 263.292 59.3432 263.292Z" fill="#6C63FF"/>
<path d="M50.8553 296.273C52.1946 296.273 53.2803 295.187 53.2803 293.848C53.2803 292.509 52.1946 291.423 50.8553 291.423C49.5159 291.423 48.4302 292.509 48.4302 293.848C48.4302 295.187 49.5159 296.273 50.8553 296.273Z" fill="#6C63FF"/>
<path d="M21.2693 272.265C22.6087 272.265 23.6944 271.179 23.6944 269.84C23.6944 268.5 22.6087 267.415 21.2693 267.415C19.93 267.415 18.8442 268.5 18.8442 269.84C18.8442 271.179 19.93 272.265 21.2693 272.265Z" fill="#3F3D56"/>
<path d="M106.875 248.741C108.214 248.741 109.3 247.656 109.3 246.316C109.3 244.977 108.214 243.891 106.875 243.891C105.535 243.891 104.45 244.977 104.45 246.316C104.45 247.656 105.535 248.741 106.875 248.741Z" fill="#3F3D56"/>
<path d="M33.8797 295.06C35.219 295.06 36.3048 293.975 36.3048 292.635C36.3048 291.296 35.219 290.21 33.8797 290.21C32.5403 290.21 31.4546 291.296 31.4546 292.635C31.4546 293.975 32.5403 295.06 33.8797 295.06Z" fill="#3F3D56"/>
<path d="M84.8066 280.995C86.1459 280.995 87.2316 279.909 87.2316 278.57C87.2316 277.231 86.1459 276.145 84.8066 276.145C83.4672 276.145 82.3815 277.231 82.3815 278.57C82.3815 279.909 83.4672 280.995 84.8066 280.995Z" fill="#3F3D56"/>
<path d="M35.3348 330.709C36.6741 330.709 37.7598 329.623 37.7598 328.284C37.7598 326.945 36.6741 325.859 35.3348 325.859C33.9954 325.859 32.9097 326.945 32.9097 328.284C32.9097 329.623 33.9954 330.709 35.3348 330.709Z" fill="#3F3D56"/>
<path d="M87.2316 316.886C88.5709 316.886 89.6567 315.8 89.6567 314.461C89.6567 313.122 88.5709 312.036 87.2316 312.036C85.8923 312.036 84.8065 313.122 84.8065 314.461C84.8065 315.8 85.8923 316.886 87.2316 316.886Z" fill="#3F3D56"/>
<path d="M63.7082 319.311C65.0475 319.311 66.1332 318.225 66.1332 316.886C66.1332 315.547 65.0475 314.461 63.7082 314.461C62.3688 314.461 61.2831 315.547 61.2831 316.886C61.2831 318.225 62.3688 319.311 63.7082 319.311Z" fill="#6C63FF"/>
<path opacity="0.1" d="M289.184 181.239H272.278C271.124 174.569 271.124 167.751 272.278 161.082H289.184C287.279 167.666 287.279 174.655 289.184 181.239Z" fill="black"/>
<path d="M291.64 178.783H274.734C273.58 172.114 273.58 165.296 274.734 158.626H291.64C289.735 165.21 289.735 172.199 291.64 178.783Z" fill="#FF6584"/>
<path d="M408.389 362.413L411.933 373.689L400.979 374.655L401.946 362.413H408.389Z" fill="#FFB9B9"/>
<path d="M355.233 371.111V386.575H342.669L346.212 371.111H355.233Z" fill="#FFB9B9"/>
<path d="M400.013 258.678L405.168 307.646C405.168 307.646 411.611 350.815 410.322 357.581C409.033 364.346 410.644 365.312 410.644 365.312H400.979C400.979 365.312 401.302 361.124 399.369 359.191C397.436 357.258 398.402 351.46 398.402 351.46L373.918 276.719L360.065 318.599C360.065 318.599 357.81 364.668 357.488 365.312C357.166 365.957 356.199 374.655 356.199 374.655H344.28C344.28 374.655 345.89 369.5 343.635 367.89C341.38 366.279 339.447 367.568 341.38 364.668C343.313 361.769 343.957 358.225 343.313 356.614C342.669 355.003 342.669 348.56 342.669 348.56C342.669 348.56 343.635 261.577 349.112 258.678C354.589 255.779 400.013 258.678 400.013 258.678Z" fill="#2F2E41"/>
<path d="M351.828 378.379C351.828 378.379 357.337 377.553 357.337 377.828C357.337 378.104 363.947 396.007 357.337 395.731C350.727 395.456 325.663 391.875 327.315 385.265C328.968 378.655 337.231 380.583 337.231 380.583L344.667 376.451L351.828 378.379Z" fill="#2F2E41"/>
<path d="M406.064 372.675C406.064 372.675 400.556 371.848 400.556 372.124C400.556 372.399 393.945 390.302 400.556 390.027C407.166 389.751 432.23 386.171 430.578 379.56C428.925 372.95 420.662 374.878 420.662 374.878L413.225 370.747L406.064 372.675Z" fill="#2F2E41"/>
<path d="M381.607 302.292H361.478C360.105 294.351 360.105 286.233 361.478 278.292H381.607C379.34 286.131 379.34 294.452 381.607 302.292Z" fill="#6C63FF"/>
<path d="M373.509 166.648C380.51 166.648 386.186 160.972 386.186 153.97C386.186 146.968 380.51 141.292 373.509 141.292C366.507 141.292 360.831 146.968 360.831 153.97C360.831 160.972 366.507 166.648 373.509 166.648Z" fill="#FFB9B9"/>
<path d="M383.583 152.366C383.583 152.366 385.838 174.917 388.737 176.528C391.637 178.139 366.509 179.749 366.509 179.749C366.509 179.749 372.63 159.131 370.697 157.198C368.764 155.265 383.583 152.366 383.583 152.366Z" fill="#FFB9B9"/>
<path d="M356.522 175.883C356.522 175.883 365.542 167.185 375.851 168.796C386.16 170.407 393.57 172.34 393.57 172.34C393.57 172.34 409.356 180.716 409.678 187.481C410 194.246 403.879 219.697 403.879 219.697C403.879 219.697 400.98 261.255 400.657 261.255C400.335 261.255 346.213 260.611 346.213 260.611L356.2 206.488L356.522 175.883Z" fill="#3F3D56"/>
<path d="M358.629 253.404C360.716 253.968 364.315 253.189 368.071 251.958C374.772 249.758 381.972 246.114 381.972 246.114C381.972 246.114 405.168 236.771 411.933 231.939C418.698 227.107 414.188 207.777 414.188 207.777L403.879 210.999L404.523 222.919L379.073 239.349C375.074 239.724 371.125 240.517 367.291 241.716C363.007 243.124 358.844 245.318 357.34 248.688C357.105 249.202 356.939 249.745 356.844 250.302C356.538 252.08 357.259 253.031 358.629 253.404Z" fill="#FFB9B9"/>
<path opacity="0.15" d="M357.34 248.688C357.788 250.357 358.223 251.945 358.628 253.404C360.716 253.968 364.315 253.188 368.071 251.958L367.291 241.716C363.007 243.124 358.844 245.318 357.34 248.688Z" fill="black"/>
<path d="M361.998 201.656L363.931 218.73L367.137 260.86C367.137 260.86 384.871 282.196 374.885 282.84C364.898 283.484 359.421 261.9 359.421 261.9C359.421 261.9 349.434 227.751 349.756 220.663C350.078 213.576 349.756 201.656 349.756 201.656H361.998Z" fill="#FFB9B9"/>
<path d="M359.191 152.555C358.86 152.423 358.552 152.237 358.28 152.006C357.588 151.334 357.704 150.196 358.005 149.28C358.305 148.363 358.744 147.416 358.529 146.476C358.429 146.037 358.19 145.637 358.122 145.193C357.96 144.136 358.803 143.174 359.735 142.652C360.668 142.13 361.741 141.874 362.622 141.269C363.974 140.343 364.721 138.709 366.093 137.813C367.435 136.937 369.141 136.91 370.744 136.912L375.528 136.917C378.029 136.92 380.777 137.013 382.638 138.683C383.204 139.191 383.652 139.82 384.225 140.32C385.38 141.326 386.938 141.728 388.22 142.566C389.177 143.207 389.96 144.075 390.497 145.094C391.034 146.113 391.309 147.249 391.296 148.401C391.251 150.524 390.216 152.586 390.485 154.693C390.666 156.106 391.428 157.464 391.228 158.874C390.99 160.547 389.456 161.745 387.882 162.36C386.309 162.976 384.594 163.197 383.063 163.911C381.813 164.494 380.507 165.424 379.19 165.016C378.076 164.671 377.464 163.494 377.065 162.397C376.598 161.115 376.255 159.791 376.041 158.444C375.88 157.436 375.774 156.368 375.182 155.536C374.835 155.084 374.377 154.728 373.853 154.502C373.329 154.276 372.756 154.187 372.189 154.245C369.605 154.472 368.15 158.872 365.775 157.832C364.596 157.316 363.691 155.771 362.748 154.929C361.68 153.974 360.483 153.175 359.191 152.555Z" fill="#2F2E41"/>
<path d="M405.812 184.582C405.812 184.582 412.255 186.837 414.832 195.857C417.409 204.878 416.443 210.999 416.443 210.999L402.912 213.254L405.812 184.582Z" fill="#3F3D56"/>
<path d="M362.965 175.239C362.965 175.239 351.367 172.662 349.756 183.615C348.749 190.983 348.21 198.408 348.146 205.844C348.146 205.844 359.099 200.69 363.931 205.844L362.965 175.239Z" fill="#3F3D56"/>
</g>
<defs>
<clipPath id="clip0">
<rect width="420.656" height="351.734" fill="white" transform="translate(10 44)"/>
</clipPath>
</defs>
</svg>
