<svg width="456" height="681" viewBox="0 0 456 681" fill="none" xmlns="http://www.w3.org/2000/svg">
<g clip-path="url(#clip0)">
<rect x="0.0952148" width="455.548" height="680.642" rx="26.7969" fill="black" fill-opacity="0.5"/>
<rect x="25.5522" y="26.7969" width="401.954" height="401.954" fill="white"/>
<g clip-path="url(#clip1)">
<path opacity="0.5" d="M417.96 112.156H38V342.843H417.96V112.156Z" fill="url(#paint0_linear)"/>
<path d="M414.635 116.123H41.3252V338.873H414.635V116.123Z" fill="white"/>
<path d="M252.68 152.22H58.4238V158.871H252.68V152.22Z" fill="#F5F5F5"/>
<path opacity="0.5" d="M155.311 166.781C161.517 166.781 166.547 161.751 166.547 155.545C166.547 149.34 161.517 144.31 155.311 144.31C149.106 144.31 144.076 149.34 144.076 155.545C144.076 161.751 149.106 166.781 155.311 166.781Z" fill="url(#paint1_linear)"/>
<path opacity="0.5" d="M95.6605 197.051C101.866 197.051 106.896 192.021 106.896 185.816C106.896 179.61 101.866 174.58 95.6605 174.58C89.4552 174.58 84.4248 179.61 84.4248 185.816C84.4248 192.021 89.4552 197.051 95.6605 197.051Z" fill="url(#paint2_linear)"/>
<path opacity="0.5" d="M222.974 227.767C229.18 227.767 234.21 222.737 234.21 216.532C234.21 210.326 229.18 205.296 222.974 205.296C216.769 205.296 211.739 210.326 211.739 216.532C211.739 222.737 216.769 227.767 222.974 227.767Z" fill="url(#paint3_linear)"/>
<path opacity="0.5" d="M132.608 258.038C138.814 258.038 143.844 253.007 143.844 246.802C143.844 240.597 138.814 235.566 132.608 235.566C126.403 235.566 121.373 240.597 121.373 246.802C121.373 253.007 126.403 258.038 132.608 258.038Z" fill="url(#paint4_linear)"/>
<path opacity="0.5" d="M74.2933 288.308C80.4986 288.308 85.5289 283.277 85.5289 277.072C85.5289 270.867 80.4986 265.836 74.2933 265.836C68.088 265.836 63.0576 270.867 63.0576 277.072C63.0576 283.277 68.088 288.308 74.2933 288.308Z" fill="url(#paint5_linear)"/>
<path opacity="0.5" d="M192.259 318.578C198.464 318.578 203.495 313.548 203.495 307.343C203.495 301.137 198.464 296.107 192.259 296.107C186.054 296.107 181.023 301.137 181.023 307.343C181.023 313.548 186.054 318.578 192.259 318.578Z" fill="url(#paint6_linear)"/>
<path opacity="0.5" d="M155.311 164.092C160.031 164.092 163.858 160.266 163.858 155.545C163.858 150.825 160.031 146.999 155.311 146.999C150.591 146.999 146.764 150.825 146.764 155.545C146.764 160.266 150.591 164.092 155.311 164.092Z" fill="#6C63FF"/>
<path d="M252.68 182.615H58.4238V189.266H252.68V182.615Z" fill="#F5F5F5"/>
<path opacity="0.5" d="M95.4693 194.487C100.19 194.487 104.016 190.661 104.016 185.94C104.016 181.22 100.19 177.394 95.4693 177.394C90.749 177.394 86.9224 181.22 86.9224 185.94C86.9224 190.661 90.749 194.487 95.4693 194.487Z" fill="#6C63FF"/>
<path d="M252.68 213.015H58.4238V219.665H252.68V213.015Z" fill="#F5F5F5"/>
<path d="M222.756 224.887C227.477 224.887 231.303 221.06 231.303 216.34C231.303 211.62 227.477 207.793 222.756 207.793C218.036 207.793 214.209 211.62 214.209 216.34C214.209 221.06 218.036 224.887 222.756 224.887Z" fill="#6C63FF"/>
<path d="M252.68 243.41H58.4238V250.06H252.68V243.41Z" fill="#F5F5F5"/>
<path d="M132.515 255.282C137.235 255.282 141.062 251.455 141.062 246.735C141.062 242.015 137.235 238.188 132.515 238.188C127.794 238.188 123.968 242.015 123.968 246.735C123.968 251.455 127.794 255.282 132.515 255.282Z" fill="#6C63FF"/>
<path d="M252.68 273.809H58.4238V280.46H252.68V273.809Z" fill="#F5F5F5"/>
<path opacity="0.5" d="M74.0972 285.682C78.8176 285.682 82.6442 281.855 82.6442 277.135C82.6442 272.414 78.8176 268.588 74.0972 268.588C69.3769 268.588 65.5503 272.414 65.5503 277.135C65.5503 281.855 69.3769 285.682 74.0972 285.682Z" fill="#6C63FF"/>
<path d="M252.68 304.204H58.4238V310.855H252.68V304.204Z" fill="#F5F5F5"/>
<path d="M192.361 316.077C197.082 316.077 200.908 312.25 200.908 307.53C200.908 302.81 197.082 298.983 192.361 298.983C187.641 298.983 183.814 302.81 183.814 307.53C183.814 312.25 187.641 316.077 192.361 316.077Z" fill="#6C63FF"/>
<path opacity="0.5" d="M310.144 234.048H279.749V254.677H310.144V234.048Z" fill="url(#paint7_linear)"/>
<path opacity="0.5" d="M350.992 234.048H320.597V254.677H350.992V234.048Z" fill="url(#paint8_linear)"/>
<path opacity="0.5" d="M391.839 234.048H361.444V254.677H391.839V234.048Z" fill="url(#paint9_linear)"/>
<path opacity="0.5" d="M310.144 265.396H279.749V286.024H310.144V265.396Z" fill="url(#paint10_linear)"/>
<path opacity="0.5" d="M350.992 265.396H320.597V286.024H350.992V265.396Z" fill="url(#paint11_linear)"/>
<path opacity="0.5" d="M391.839 265.396H361.444V286.024H391.839V265.396Z" fill="url(#paint12_linear)"/>
<path opacity="0.5" d="M310.144 296.739H279.749V317.368H310.144V296.739Z" fill="url(#paint13_linear)"/>
<path opacity="0.5" d="M350.992 296.739H320.597V317.368H350.992V296.739Z" fill="url(#paint14_linear)"/>
<path opacity="0.5" d="M391.839 296.739H361.444V317.368H391.839V296.739Z" fill="url(#paint15_linear)"/>
<path d="M308.248 235.334H281.65V253.381H308.248V235.334Z" fill="#6C63FF"/>
<path d="M349.095 235.334H322.497V253.381H349.095V235.334Z" fill="#6C63FF"/>
<path opacity="0.5" d="M389.938 235.334H363.34V253.381H389.938V235.334Z" fill="#6C63FF"/>
<path d="M308.248 266.683H281.65V284.729H308.248V266.683Z" fill="#6C63FF"/>
<path d="M349.095 266.683H322.497V284.729H349.095V266.683Z" fill="#6C63FF"/>
<path opacity="0.5" d="M389.938 266.683H363.34V284.729H389.938V266.683Z" fill="#6C63FF"/>
<path d="M308.248 298.03H281.65V316.077H308.248V298.03Z" fill="#6C63FF"/>
<path opacity="0.5" d="M349.095 298.03H322.497V316.077H349.095V298.03Z" fill="#6C63FF"/>
<path opacity="0.5" d="M389.938 298.03H363.34V316.077H389.938V298.03Z" fill="#3AD29F"/>
<path opacity="0.5" d="M204.234 357.4C201.563 357.4 199.582 357.845 198.175 360.294H140.911V354.124C140.911 352.521 138.863 353.122 137.514 353.122H136.397C135.061 353.122 133.948 352.521 133.948 354.124V355.499H69.6327C66.303 355.499 64.9808 358.419 64.5268 362.217C64.5268 362.119 64.5001 362.025 64.4912 361.927C64.4689 362.199 64.4556 362.475 64.4556 362.751V366.904C64.4556 371.231 65.9869 374.734 69.6371 374.734H133.953V376.822C133.953 378.425 135.048 377.824 136.401 377.824H137.519C138.854 377.824 140.915 378.425 140.915 376.822V370.732H198.531C198.79 371.116 199.079 371.479 199.395 371.819C201.861 373.069 201.897 373.345 204.153 373.345L221.808 372.633V358.375L204.234 357.4Z" fill="url(#paint16_linear)"/>
<path d="M200.432 361.197H112.091V369.744H200.432V361.197Z" fill="#E6E6E6"/>
<path opacity="0.03" d="M197.525 365.475C197.529 367.002 197.994 368.491 198.86 369.749H199.973V361.202H198.86C197.994 362.459 197.529 363.949 197.525 365.475Z" fill="black"/>
<path d="M221.332 371.284L205.582 373.065C203.575 373.065 201.65 372.268 200.231 370.848C198.812 369.429 198.015 367.504 198.015 365.497C198.015 363.49 198.812 361.565 200.231 360.146C201.65 358.727 203.575 357.93 205.582 357.93L221.332 359.679V371.284Z" fill="#E6E6E6"/>
<path opacity="0.05" d="M198.847 366.9H111.597V369.273H198.847C199.542 370.293 200.476 371.128 201.568 371.704C202.66 372.281 203.876 372.581 205.11 372.58L220.86 370.839V368.467L205.11 370.216C203.875 370.217 202.658 369.915 201.567 369.337C200.475 368.759 199.541 367.922 198.847 366.9Z" fill="black"/>
<path d="M71.3865 357.275H135.395V373.025H71.3865C69.7927 373.025 68.2641 372.392 67.1371 371.265C66.0101 370.138 65.377 368.609 65.377 367.015V363.272C65.3805 361.68 66.0152 360.155 67.1418 359.031C68.2685 357.907 69.795 357.275 71.3865 357.275Z" fill="#6C63FF"/>
<path d="M137.834 353.776H136.454C135.225 353.776 134.229 354.773 134.229 356.002V374.881C134.229 376.11 135.225 377.107 136.454 377.107H137.834C139.064 377.107 140.06 376.11 140.06 374.881V356.002C140.06 354.773 139.064 353.776 137.834 353.776Z" fill="#6C63FF"/>
<path opacity="0.05" d="M134.229 357.275H133.062V373.025H134.229V357.275Z" fill="black"/>
<path opacity="0.05" d="M128.976 360.191H75.3125V361.358H128.976V360.191Z" fill="black"/>
<path opacity="0.05" d="M128.976 364.273H75.3125V365.44H128.976V364.273Z" fill="black"/>
<path opacity="0.05" d="M128.976 368.36H75.3125V369.526H128.976V368.36Z" fill="black"/>
<path opacity="0.05" d="M137.687 372.357H136.606C135.976 372.357 135.373 372.107 134.928 371.662C134.483 371.217 134.233 370.614 134.233 369.985V368.275H71.8091C70.2255 368.275 68.6979 367.689 67.5208 366.629C66.3438 365.57 65.6006 364.112 65.4345 362.537C65.4109 362.762 65.399 362.988 65.3989 363.214V366.138C65.3989 367.839 66.0743 369.469 67.2764 370.671C68.4786 371.873 70.109 372.549 71.8091 372.549H134.228V374.258C134.228 374.887 134.478 375.491 134.923 375.936C135.368 376.381 135.972 376.631 136.601 376.631H137.683C138.312 376.631 138.916 376.381 139.361 375.936C139.806 375.491 140.056 374.887 140.056 374.258V369.985C140.056 370.613 139.806 371.216 139.362 371.661C138.918 372.106 138.316 372.356 137.687 372.357Z" fill="black"/>
<path d="M346.718 68.1528L334.472 75.2263V78.2845V89.3688V92.4315L346.718 99.5005L358.964 92.4315V89.3688V78.2845V75.2263L346.718 68.1528Z" fill="url(#paint17_linear)"/>
<path opacity="0.5" d="M346.718 85.8836C346.037 85.8834 345.37 85.6901 344.795 85.3261C344.22 84.962 343.76 84.4422 343.468 83.827C343.76 83.2121 344.22 82.6926 344.795 82.3288C345.371 81.9651 346.037 81.772 346.718 81.772C347.398 81.772 348.065 81.9651 348.64 82.3288C349.216 82.6926 349.676 83.2121 349.968 83.827C349.676 84.4422 349.216 84.962 348.641 85.3261C348.065 85.6901 347.399 85.8834 346.718 85.8836Z" fill="url(#paint18_linear)"/>
<path d="M346.718 72.0884L335.318 78.6677V91.8309L346.718 98.4058L358.119 91.8265V78.6722L346.718 72.0884ZM346.718 88.559C346.061 88.559 345.418 88.364 344.871 87.9986C344.324 87.6332 343.898 87.1139 343.646 86.5063C343.394 85.8987 343.329 85.2301 343.457 84.585C343.585 83.94 343.902 83.3475 344.367 82.8824C344.832 82.4174 345.424 82.1007 346.07 81.9724C346.715 81.844 347.383 81.9099 347.991 82.1616C348.598 82.4133 349.118 82.8395 349.483 83.3863C349.849 83.9332 350.044 84.5761 350.044 85.2338C350.046 85.6719 349.962 86.1063 349.796 86.5118C349.629 86.9173 349.385 87.2859 349.076 87.5966C348.767 87.9073 348.4 88.1538 347.995 88.322C347.59 88.4903 347.156 88.5769 346.718 88.5768V88.559Z" fill="#E6E6E6"/>
<path d="M346.718 69.2393L335.318 75.8186V88.9818L346.718 95.5612L358.119 88.9818V75.8231L346.718 69.2393ZM346.718 85.7099C346.061 85.7099 345.418 85.515 344.871 85.1498C344.325 84.7846 343.898 84.2655 343.647 83.6582C343.395 83.0508 343.329 82.3825 343.457 81.7375C343.584 81.0926 343.901 80.5001 344.365 80.0349C344.83 79.5696 345.422 79.2526 346.067 79.1238C346.712 78.995 347.38 79.0602 347.988 79.3112C348.595 79.5622 349.115 79.9877 349.481 80.534C349.847 81.0802 350.043 81.7227 350.044 82.3802C350.046 82.8187 349.963 83.2535 349.797 83.6595C349.631 84.0656 349.387 84.4348 349.077 84.7459C348.768 85.0571 348.401 85.304 347.996 85.4725C347.591 85.641 347.157 85.7277 346.718 85.7277V85.7099Z" fill="white"/>
<path d="M314.899 68.1528L302.648 75.2263V78.2845V89.3688V92.4315L314.899 99.5005L327.145 92.4315V89.3688V78.2845V75.2263L314.899 68.1528Z" fill="url(#paint19_linear)"/>
<path opacity="0.5" d="M314.899 85.8836C314.218 85.8834 313.551 85.6901 312.976 85.3261C312.401 84.962 311.94 84.4422 311.649 83.827C311.941 83.2121 312.401 82.6926 312.976 82.3288C313.551 81.9651 314.218 81.772 314.899 81.772C315.579 81.772 316.246 81.9651 316.821 82.3288C317.396 82.6926 317.856 83.2121 318.148 83.827C317.857 84.4422 317.397 84.962 316.821 85.3261C316.246 85.6901 315.579 85.8834 314.899 85.8836Z" fill="url(#paint20_linear)"/>
<path d="M314.898 72.0884L303.498 78.6677V91.8309L314.898 98.4058L326.299 91.8265V78.6722L314.898 72.0884ZM314.898 88.559C314.241 88.559 313.598 88.364 313.051 87.9986C312.504 87.6332 312.078 87.1139 311.826 86.5063C311.575 85.8987 311.509 85.2301 311.637 84.585C311.765 83.94 312.082 83.3475 312.547 82.8824C313.012 82.4174 313.605 82.1007 314.25 81.9724C314.895 81.844 315.563 81.9099 316.171 82.1616C316.779 82.4133 317.298 82.8395 317.663 83.3863C318.029 83.9332 318.224 84.5761 318.224 85.2338C318.226 85.6719 318.142 86.1063 317.976 86.5118C317.81 86.9173 317.565 87.2859 317.256 87.5966C316.947 87.9073 316.58 88.1538 316.175 88.322C315.77 88.4903 315.337 88.5769 314.898 88.5768V88.559Z" fill="#E6E6E6"/>
<path d="M314.898 69.2393L303.498 75.8186V88.9818L314.898 95.5612L326.299 88.9818V75.8231L314.898 69.2393ZM314.898 85.7099C314.241 85.7099 313.598 85.5149 313.051 85.1495C312.504 84.7841 312.078 84.2648 311.826 83.6572C311.575 83.0495 311.509 82.3809 311.637 81.7359C311.765 81.0908 312.082 80.4983 312.547 80.0333C313.012 79.5682 313.605 79.2515 314.25 79.1232C314.895 78.9949 315.563 79.0608 316.171 79.3125C316.779 79.5641 317.298 79.9904 317.663 80.5372C318.029 81.084 318.224 81.7269 318.224 82.3846C318.226 82.8228 318.142 83.2571 317.976 83.6626C317.81 84.0681 317.565 84.4368 317.256 84.7475C316.947 85.0582 316.58 85.3047 316.175 85.4729C315.77 85.6411 315.337 85.7277 314.898 85.7277V85.7099Z" fill="white"/>
<path d="M328.195 66.7285L315.949 73.802V76.8602V87.9445V91.0027L328.195 98.0762L340.442 91.0027V87.9445V76.8602V73.802L328.195 66.7285Z" fill="url(#paint21_linear)"/>
<path opacity="0.5" d="M328.195 84.4588C327.515 84.4586 326.848 84.2653 326.273 83.9013C325.697 83.5372 325.237 83.0174 324.946 82.4022C325.238 81.7873 325.698 81.2678 326.273 80.904C326.848 80.5403 327.515 80.3472 328.195 80.3472C328.876 80.3472 329.543 80.5403 330.118 80.904C330.693 81.2678 331.153 81.7873 331.445 82.4022C331.154 83.0174 330.693 83.5372 330.118 83.9013C329.543 84.2653 328.876 84.4586 328.195 84.4588Z" fill="url(#paint22_linear)"/>
<path d="M328.195 70.6636L316.795 77.2429V90.3928L328.195 96.9721L339.596 90.3928V77.2474L328.195 70.6636ZM328.195 87.1342C327.538 87.1342 326.895 86.9392 326.348 86.5738C325.801 86.2084 325.375 85.6891 325.123 85.0815C324.871 84.4739 324.806 83.8053 324.934 83.1602C325.062 82.5152 325.379 81.9227 325.844 81.4576C326.309 80.9926 326.902 80.6759 327.547 80.5475C328.192 80.4192 328.86 80.4851 329.468 80.7368C330.075 80.9885 330.595 81.4147 330.96 81.9615C331.326 82.5084 331.521 83.1513 331.521 83.8089C331.523 84.2471 331.439 84.6814 331.273 85.0869C331.107 85.4924 330.862 85.8611 330.553 86.1718C330.244 86.4825 329.877 86.729 329.472 86.8972C329.067 87.0655 328.633 87.1521 328.195 87.152V87.1342Z" fill="#E6E6E6"/>
<path d="M328.195 67.8145L316.795 74.3938V87.557L328.195 94.1364L339.596 87.557V74.3983L328.195 67.8145ZM328.195 84.2851C327.538 84.2851 326.895 84.0901 326.348 83.7247C325.801 83.3593 325.375 82.84 325.123 82.2324C324.871 81.6247 324.806 80.9561 324.934 80.3111C325.062 79.666 325.379 79.0735 325.844 78.6085C326.309 78.1434 326.902 77.8267 327.547 77.6984C328.192 77.5701 328.86 77.636 329.468 77.8877C330.075 78.1393 330.595 78.5655 330.96 79.1124C331.326 79.6592 331.521 80.3021 331.521 80.9598C331.523 81.398 331.439 81.8323 331.273 82.2378C331.107 82.6433 330.862 83.012 330.553 83.3227C330.244 83.6334 329.877 83.8799 329.472 84.0481C329.067 84.2163 328.633 84.3029 328.195 84.3029V84.2851Z" fill="white"/>
<path opacity="0.5" d="M109.719 98.5525V60.5542H267.401" stroke="#3AD29F" stroke-width="1.33546" stroke-miterlimit="10" stroke-dasharray="5.34 5.34"/>
<path opacity="0.5" d="M282.839 66.9687C286.512 66.9687 289.489 63.9911 289.489 60.3181C289.489 56.645 286.512 53.6675 282.839 53.6675C279.166 53.6675 276.188 56.645 276.188 60.3181C276.188 63.9911 279.166 66.9687 282.839 66.9687Z" stroke="#3AD29F" stroke-width="1.33546" stroke-miterlimit="10" stroke-dasharray="5.34 5.34"/>
<path opacity="0.5" d="M399.914 356.447V394.446H242.228" stroke="#3AD29F" stroke-width="1.33546" stroke-miterlimit="10" stroke-dasharray="5.34 5.34"/>
<path opacity="0.5" d="M226.794 401.332C230.467 401.332 233.444 398.355 233.444 394.682C233.444 391.009 230.467 388.031 226.794 388.031C223.121 388.031 220.143 391.009 220.143 394.682C220.143 398.355 223.121 401.332 226.794 401.332Z" stroke="#3AD29F" stroke-width="1.33546" stroke-miterlimit="10" stroke-dasharray="5.34 5.34"/>
<path d="M312.869 171.429C322.491 171.429 330.292 163.628 330.292 154.005C330.292 144.383 322.491 136.582 312.869 136.582C303.246 136.582 295.445 144.383 295.445 154.005C295.445 163.628 303.246 171.429 312.869 171.429Z" fill="url(#paint23_linear)"/>
<path d="M312.869 170.338C321.889 170.338 329.201 163.025 329.201 154.005C329.201 144.985 321.889 137.672 312.869 137.672C303.848 137.672 296.536 144.985 296.536 154.005C296.536 163.025 303.848 170.338 312.869 170.338Z" fill="white"/>
<path d="M312.868 155.096C313.471 155.096 313.959 154.608 313.959 154.005C313.959 153.403 313.471 152.915 312.868 152.915C312.266 152.915 311.778 153.403 311.778 154.005C311.778 154.608 312.266 155.096 312.868 155.096Z" fill="#333333"/>
<path d="M312.869 154.005L322.666 144.208" stroke="#333333" stroke-width="1.33546" stroke-miterlimit="10"/>
<path opacity="0.05" d="M315.7 153.569C315.699 156.267 316.366 158.923 317.644 161.299C318.921 163.676 320.767 165.698 323.018 167.186C325.084 165.604 326.743 163.551 327.855 161.199C328.967 158.846 329.5 156.262 329.411 153.661C329.322 151.06 328.612 148.518 327.341 146.248C326.07 143.977 324.275 142.042 322.105 140.606C320.113 142.128 318.498 144.09 317.387 146.338C316.276 148.587 315.698 151.061 315.7 153.569Z" fill="black"/>
<path d="M358.72 171.429C368.342 171.429 376.143 163.628 376.143 154.005C376.143 144.383 368.342 136.582 358.72 136.582C349.097 136.582 341.296 144.383 341.296 154.005C341.296 163.628 349.097 171.429 358.72 171.429Z" fill="url(#paint24_linear)"/>
<path d="M358.719 170.338C367.74 170.338 375.052 163.025 375.052 154.005C375.052 144.985 367.74 137.672 358.719 137.672C349.699 137.672 342.387 144.985 342.387 154.005C342.387 163.025 349.699 170.338 358.719 170.338Z" fill="white"/>
<path d="M358.72 155.096C359.322 155.096 359.81 154.608 359.81 154.005C359.81 153.403 359.322 152.915 358.72 152.915C358.117 152.915 357.629 153.403 357.629 154.005C357.629 154.608 358.117 155.096 358.72 155.096Z" fill="#333333"/>
<path d="M358.719 154.005L368.517 144.208" stroke="#333333" stroke-width="1.33546" stroke-miterlimit="10"/>
<path opacity="0.05" d="M361.551 153.569C361.55 156.267 362.218 158.923 363.495 161.299C364.772 163.676 366.618 165.698 368.869 167.186C370.935 165.604 372.594 163.551 373.706 161.199C374.818 158.846 375.351 156.262 375.262 153.661C375.173 151.06 374.463 148.518 373.192 146.248C371.922 143.977 370.126 142.042 367.957 140.606C365.964 142.128 364.349 144.09 363.238 146.338C362.127 148.587 361.549 151.061 361.551 153.569Z" fill="black"/>
<path d="M312.869 212.383C322.491 212.383 330.292 204.582 330.292 194.959C330.292 185.337 322.491 177.536 312.869 177.536C303.246 177.536 295.445 185.337 295.445 194.959C295.445 204.582 303.246 212.383 312.869 212.383Z" fill="url(#paint25_linear)"/>
<path d="M312.869 211.292C321.889 211.292 329.201 203.979 329.201 194.959C329.201 185.939 321.889 178.626 312.869 178.626C303.848 178.626 296.536 185.939 296.536 194.959C296.536 203.979 303.848 211.292 312.869 211.292Z" fill="white"/>
<path d="M312.868 196.05C313.471 196.05 313.959 195.562 313.959 194.959C313.959 194.357 313.471 193.869 312.868 193.869C312.266 193.869 311.778 194.357 311.778 194.959C311.778 195.562 312.266 196.05 312.868 196.05Z" fill="#333333"/>
<path d="M312.869 194.959L302.452 205.376" stroke="#333333" stroke-width="1.33546" stroke-miterlimit="10"/>
<path opacity="0.05" d="M315.7 194.523C315.699 197.221 316.366 199.877 317.644 202.253C318.921 204.63 320.767 206.652 323.018 208.14C325.084 206.558 326.743 204.505 327.855 202.153C328.967 199.8 329.5 197.216 329.411 194.615C329.322 192.014 328.612 189.473 327.341 187.202C326.07 184.931 324.275 182.997 322.105 181.56C320.113 183.082 318.498 185.044 317.387 187.292C316.276 189.541 315.698 192.015 315.7 194.523Z" fill="black"/>
<path d="M358.72 212.383C368.342 212.383 376.143 204.582 376.143 194.959C376.143 185.337 368.342 177.536 358.72 177.536C349.097 177.536 341.296 185.337 341.296 194.959C341.296 204.582 349.097 212.383 358.72 212.383Z" fill="url(#paint26_linear)"/>
<path d="M358.719 211.292C367.74 211.292 375.052 203.979 375.052 194.959C375.052 185.939 367.74 178.626 358.719 178.626C349.699 178.626 342.387 185.939 342.387 194.959C342.387 203.979 349.699 211.292 358.719 211.292Z" fill="white"/>
<path d="M358.72 196.05C359.322 196.05 359.81 195.562 359.81 194.959C359.81 194.357 359.322 193.869 358.72 193.869C358.117 193.869 357.629 194.357 357.629 194.959C357.629 195.562 358.117 196.05 358.72 196.05Z" fill="#333333"/>
<path d="M358.719 194.959L368.517 185.162" stroke="#333333" stroke-width="1.33546" stroke-miterlimit="10"/>
<path opacity="0.05" d="M361.551 194.523C361.55 197.221 362.218 199.877 363.495 202.253C364.772 204.63 366.618 206.652 368.869 208.14C370.935 206.558 372.594 204.505 373.706 202.153C374.818 199.8 375.351 197.216 375.262 194.615C375.173 192.014 374.463 189.473 373.192 187.202C371.922 184.931 370.126 182.997 367.957 181.56C365.964 183.082 364.349 185.044 363.238 187.292C362.127 189.541 361.549 192.015 361.551 194.523Z" fill="black"/>
</g>
<rect x="25.5522" y="451.528" width="403.294" height="58.9532" rx="13.3985" fill="white"/>
<path d="M146.471 467.5C148.85 467.5 150.93 467.961 152.709 468.883C154.51 469.783 155.892 471.091 156.857 472.806C157.843 474.499 158.336 476.482 158.336 478.755C158.336 481.027 157.843 482.999 156.857 484.671C155.892 486.344 154.51 487.63 152.709 488.53C150.93 489.409 148.85 489.849 146.471 489.849H139.171V467.5H146.471ZM146.471 486.858C149.086 486.858 151.09 486.151 152.484 484.736C153.877 483.321 154.574 481.327 154.574 478.755C154.574 476.161 153.877 474.135 152.484 472.677C151.09 471.219 149.086 470.491 146.471 470.491H142.837V486.858H146.471ZM160.748 480.909C160.748 479.13 161.112 477.554 161.841 476.182C162.591 474.81 163.599 473.749 164.864 472.999C166.15 472.227 167.565 471.841 169.108 471.841C170.502 471.841 171.713 472.12 172.742 472.677C173.792 473.213 174.628 473.888 175.25 474.703V472.131H178.948V489.849H175.25V487.212C174.628 488.048 173.782 488.745 172.71 489.302C171.638 489.859 170.416 490.138 169.044 490.138C167.522 490.138 166.128 489.752 164.864 488.98C163.599 488.187 162.591 487.094 161.841 485.7C161.112 484.286 160.748 482.688 160.748 480.909ZM175.25 480.973C175.25 479.752 174.993 478.69 174.478 477.79C173.985 476.89 173.331 476.204 172.517 475.732C171.702 475.26 170.823 475.025 169.88 475.025C168.937 475.025 168.058 475.26 167.243 475.732C166.429 476.182 165.764 476.857 165.249 477.758C164.756 478.637 164.51 479.687 164.51 480.909C164.51 482.131 164.756 483.203 165.249 484.125C165.764 485.047 166.429 485.754 167.243 486.247C168.079 486.719 168.958 486.955 169.88 486.955C170.823 486.955 171.702 486.719 172.517 486.247C173.331 485.776 173.985 485.089 174.478 484.189C174.993 483.267 175.25 482.195 175.25 480.973ZM190.194 490.138C188.801 490.138 187.547 489.892 186.432 489.398C185.339 488.884 184.47 488.198 183.827 487.34C183.184 486.462 182.841 485.486 182.798 484.414H186.593C186.657 485.165 187.011 485.797 187.654 486.311C188.318 486.805 189.144 487.051 190.13 487.051C191.159 487.051 191.952 486.858 192.509 486.472C193.088 486.065 193.378 485.55 193.378 484.929C193.378 484.264 193.056 483.771 192.413 483.45C191.791 483.128 190.794 482.774 189.422 482.388C188.093 482.024 187.011 481.67 186.175 481.327C185.339 480.984 184.61 480.459 183.988 479.752C183.388 479.044 183.088 478.112 183.088 476.954C183.088 476.011 183.366 475.153 183.924 474.381C184.481 473.588 185.274 472.967 186.303 472.516C187.354 472.066 188.554 471.841 189.905 471.841C191.92 471.841 193.538 472.356 194.76 473.385C196.004 474.392 196.668 475.775 196.754 477.533H193.088C193.024 476.74 192.702 476.107 192.124 475.636C191.545 475.164 190.762 474.928 189.776 474.928C188.811 474.928 188.072 475.11 187.557 475.475C187.043 475.839 186.786 476.322 186.786 476.922C186.786 477.393 186.957 477.79 187.3 478.112C187.643 478.433 188.061 478.69 188.554 478.883C189.047 479.055 189.776 479.28 190.741 479.559C192.027 479.902 193.078 480.255 193.892 480.62C194.728 480.963 195.446 481.477 196.047 482.163C196.647 482.849 196.958 483.76 196.979 484.897C196.979 485.904 196.701 486.805 196.143 487.598C195.586 488.391 194.793 489.013 193.764 489.463C192.756 489.913 191.566 490.138 190.194 490.138ZM210.105 471.841C211.455 471.841 212.656 472.131 213.706 472.709C214.778 473.288 215.614 474.146 216.214 475.282C216.836 476.418 217.147 477.79 217.147 479.398V489.849H213.513V479.944C213.513 478.358 213.117 477.147 212.324 476.311C211.53 475.453 210.448 475.025 209.076 475.025C207.704 475.025 206.61 475.453 205.796 476.311C205.003 477.147 204.606 478.358 204.606 479.944V489.849H200.94V466.053H204.606V474.189C205.228 473.438 206.01 472.859 206.953 472.452C207.918 472.045 208.969 471.841 210.105 471.841ZM225.489 474.767C226.11 473.91 226.957 473.213 228.029 472.677C229.122 472.12 230.334 471.841 231.663 471.841C233.228 471.841 234.643 472.216 235.907 472.967C237.172 473.717 238.169 474.789 238.898 476.182C239.627 477.554 239.991 479.13 239.991 480.909C239.991 482.688 239.627 484.286 238.898 485.7C238.169 487.094 237.162 488.187 235.875 488.98C234.61 489.752 233.206 490.138 231.663 490.138C230.291 490.138 229.069 489.87 227.997 489.334C226.947 488.798 226.11 488.112 225.489 487.276V489.849H221.823V466.053H225.489V474.767ZM236.261 480.909C236.261 479.687 236.004 478.637 235.489 477.758C234.996 476.857 234.332 476.182 233.496 475.732C232.681 475.26 231.802 475.025 230.859 475.025C229.937 475.025 229.058 475.26 228.222 475.732C227.407 476.204 226.743 476.89 226.228 477.79C225.735 478.69 225.489 479.752 225.489 480.973C225.489 482.195 225.735 483.267 226.228 484.189C226.743 485.089 227.407 485.776 228.222 486.247C229.058 486.719 229.937 486.955 230.859 486.955C231.802 486.955 232.681 486.719 233.496 486.247C234.332 485.754 234.996 485.047 235.489 484.125C236.004 483.203 236.261 482.131 236.261 480.909ZM251.302 490.138C249.63 490.138 248.118 489.763 246.768 489.013C245.417 488.241 244.356 487.169 243.584 485.797C242.812 484.403 242.427 482.796 242.427 480.973C242.427 479.173 242.823 477.576 243.616 476.182C244.41 474.789 245.492 473.717 246.864 472.967C248.236 472.216 249.769 471.841 251.463 471.841C253.156 471.841 254.689 472.216 256.061 472.967C257.433 473.717 258.515 474.789 259.309 476.182C260.102 477.576 260.498 479.173 260.498 480.973C260.498 482.774 260.091 484.371 259.276 485.765C258.462 487.158 257.347 488.241 255.932 489.013C254.539 489.763 252.995 490.138 251.302 490.138ZM251.302 486.955C252.245 486.955 253.124 486.729 253.939 486.279C254.775 485.829 255.45 485.154 255.964 484.253C256.479 483.353 256.736 482.26 256.736 480.973C256.736 479.687 256.49 478.605 255.997 477.726C255.503 476.825 254.85 476.15 254.035 475.7C253.22 475.25 252.341 475.025 251.398 475.025C250.455 475.025 249.576 475.25 248.761 475.7C247.968 476.15 247.336 476.825 246.864 477.726C246.393 478.605 246.157 479.687 246.157 480.973C246.157 482.881 246.639 484.361 247.604 485.411C248.59 486.44 249.823 486.955 251.302 486.955ZM262.9 480.909C262.9 479.13 263.265 477.554 263.994 476.182C264.744 474.81 265.752 473.749 267.016 472.999C268.303 472.227 269.718 471.841 271.261 471.841C272.654 471.841 273.866 472.12 274.895 472.677C275.945 473.213 276.781 473.888 277.403 474.703V472.131H281.101V489.849H277.403V487.212C276.781 488.048 275.934 488.745 274.863 489.302C273.791 489.859 272.569 490.138 271.197 490.138C269.675 490.138 268.281 489.752 267.016 488.98C265.752 488.187 264.744 487.094 263.994 485.7C263.265 484.286 262.9 482.688 262.9 480.909ZM277.403 480.973C277.403 479.752 277.146 478.69 276.631 477.79C276.138 476.89 275.484 476.204 274.67 475.732C273.855 475.26 272.976 475.025 272.033 475.025C271.09 475.025 270.211 475.26 269.396 475.732C268.581 476.182 267.917 476.857 267.402 477.758C266.909 478.637 266.663 479.687 266.663 480.909C266.663 482.131 266.909 483.203 267.402 484.125C267.917 485.047 268.581 485.754 269.396 486.247C270.232 486.719 271.111 486.955 272.033 486.955C272.976 486.955 273.855 486.719 274.67 486.247C275.484 485.776 276.138 485.089 276.631 484.189C277.146 483.267 277.403 482.195 277.403 480.973ZM289.582 474.703C290.118 473.803 290.825 473.106 291.704 472.613C292.604 472.098 293.665 471.841 294.887 471.841V475.636H293.955C292.519 475.636 291.425 476 290.675 476.729C289.946 477.458 289.582 478.723 289.582 480.523V489.849H285.916V472.131H289.582V474.703ZM297.035 480.909C297.035 479.13 297.399 477.554 298.128 476.182C298.879 474.81 299.886 473.749 301.151 472.999C302.437 472.227 303.863 471.841 305.428 471.841C306.585 471.841 307.722 472.098 308.836 472.613C309.973 473.106 310.873 473.77 311.538 474.607V466.053H315.236V489.849H311.538V487.18C310.937 488.037 310.101 488.745 309.029 489.302C307.979 489.859 306.768 490.138 305.396 490.138C303.852 490.138 302.437 489.752 301.151 488.98C299.886 488.187 298.879 487.094 298.128 485.7C297.399 484.286 297.035 482.688 297.035 480.909ZM311.538 480.973C311.538 479.752 311.28 478.69 310.766 477.79C310.273 476.89 309.619 476.204 308.804 475.732C307.99 475.26 307.111 475.025 306.167 475.025C305.224 475.025 304.345 475.26 303.531 475.732C302.716 476.182 302.051 476.857 301.537 477.758C301.044 478.637 300.797 479.687 300.797 480.909C300.797 482.131 301.044 483.203 301.537 484.125C302.051 485.047 302.716 485.754 303.531 486.247C304.367 486.719 305.246 486.955 306.167 486.955C307.111 486.955 307.99 486.719 308.804 486.247C309.619 485.776 310.273 485.089 310.766 484.189C311.28 483.267 311.538 482.195 311.538 480.973Z" fill="#1F536F"/>
<rect x="25.5522" y="530.579" width="403.294" height="121.926" rx="13.3985" fill="white"/>
<path d="M61.8567 551.696V553.282H57.7835V566.638H55.8327V553.282H51.7382V551.696H61.8567ZM70.089 554.676C70.9751 554.676 71.7754 554.868 72.49 555.254C73.2046 555.626 73.762 556.19 74.1622 556.948C74.5766 557.705 74.7838 558.627 74.7838 559.713V566.638H72.8545V559.992C72.8545 558.82 72.5615 557.927 71.9755 557.312C71.3896 556.684 70.5892 556.369 69.5745 556.369C68.5455 556.369 67.7237 556.691 67.1092 557.334C66.509 557.977 66.2088 558.913 66.2088 560.142V566.638H64.258V550.774H66.2088V556.562C66.5947 555.962 67.1235 555.497 67.7952 555.169C68.4812 554.84 69.2458 554.676 70.089 554.676ZM77.2416 560.721C77.2416 559.52 77.4846 558.47 77.9705 557.57C78.4564 556.655 79.121 555.948 79.9642 555.447C80.8217 554.947 81.7721 554.697 82.8154 554.697C83.8444 554.697 84.7376 554.919 85.4951 555.362C86.2525 555.805 86.8171 556.362 87.1886 557.034V554.89H89.1609V566.638H87.1886V564.451C86.8028 565.137 86.224 565.709 85.4522 566.166C84.6947 566.609 83.8087 566.831 82.7939 566.831C81.7507 566.831 80.8074 566.573 79.9642 566.059C79.121 565.544 78.4564 564.823 77.9705 563.894C77.4846 562.965 77.2416 561.907 77.2416 560.721ZM87.1886 560.742C87.1886 559.856 87.01 559.085 86.6527 558.427C86.2954 557.77 85.8095 557.269 85.195 556.926C84.5947 556.569 83.9301 556.391 83.2013 556.391C82.4724 556.391 81.8078 556.562 81.2076 556.905C80.6073 557.248 80.1285 557.748 79.7713 558.406C79.414 559.063 79.2353 559.835 79.2353 560.721C79.2353 561.621 79.414 562.407 79.7713 563.079C80.1285 563.736 80.6073 564.244 81.2076 564.601C81.8078 564.944 82.4724 565.116 83.2013 565.116C83.9301 565.116 84.5947 564.944 85.195 564.601C85.8095 564.244 86.2954 563.736 86.6527 563.079C87.01 562.407 87.1886 561.628 87.1886 560.742ZM94.8372 556.498V563.422C94.8372 563.994 94.9586 564.401 95.2016 564.644C95.4446 564.873 95.8662 564.987 96.4664 564.987H97.9027V566.638H96.1448C95.0587 566.638 94.244 566.388 93.701 565.887C93.1579 565.387 92.8863 564.565 92.8863 563.422V556.498H91.3643V554.89H92.8863V551.932H94.8372V554.89H97.9027V556.498H94.8372ZM100.567 551.696H102.732L100.674 556.562H99.3017L100.567 551.696ZM109.115 566.831C108.214 566.831 107.407 566.681 106.692 566.38C105.978 566.066 105.413 565.637 104.999 565.094C104.584 564.537 104.356 563.901 104.313 563.186H106.328C106.385 563.772 106.657 564.251 107.142 564.623C107.643 564.994 108.293 565.18 109.093 565.18C109.836 565.18 110.422 565.016 110.851 564.687C111.28 564.358 111.494 563.944 111.494 563.444C111.494 562.929 111.266 562.55 110.808 562.307C110.351 562.05 109.644 561.8 108.686 561.557C107.814 561.328 107.1 561.1 106.542 560.871C105.999 560.628 105.528 560.278 105.127 559.821C104.741 559.349 104.549 558.734 104.549 557.977C104.549 557.377 104.727 556.826 105.084 556.326C105.442 555.826 105.949 555.433 106.607 555.147C107.264 554.847 108.014 554.697 108.857 554.697C110.158 554.697 111.208 555.026 112.009 555.683C112.809 556.341 113.238 557.241 113.295 558.384H111.344C111.301 557.77 111.051 557.277 110.594 556.905C110.151 556.533 109.551 556.348 108.793 556.348C108.093 556.348 107.535 556.498 107.121 556.798C106.707 557.098 106.499 557.491 106.499 557.977C106.499 558.363 106.621 558.684 106.864 558.942C107.121 559.185 107.435 559.385 107.807 559.542C108.193 559.685 108.722 559.849 109.393 560.035C110.237 560.264 110.923 560.492 111.451 560.721C111.98 560.935 112.43 561.264 112.802 561.707C113.188 562.15 113.388 562.729 113.402 563.444C113.402 564.087 113.224 564.665 112.866 565.18C112.509 565.694 112.002 566.102 111.344 566.402C110.701 566.688 109.958 566.831 109.115 566.831ZM124.251 556.498V563.422C124.251 563.994 124.372 564.401 124.615 564.644C124.858 564.873 125.28 564.987 125.88 564.987H127.317V566.638H125.559C124.472 566.638 123.658 566.388 123.115 565.887C122.572 565.387 122.3 564.565 122.3 563.422V556.498H120.778V554.89H122.3V551.932H124.251V554.89H127.317V556.498H124.251ZM135.511 554.676C136.397 554.676 137.198 554.868 137.912 555.254C138.627 555.626 139.184 556.19 139.584 556.948C139.999 557.705 140.206 558.627 140.206 559.713V566.638H138.277V559.992C138.277 558.82 137.984 557.927 137.398 557.312C136.812 556.684 136.011 556.369 134.997 556.369C133.968 556.369 133.146 556.691 132.531 557.334C131.931 557.977 131.631 558.913 131.631 560.142V566.638H129.68V550.774H131.631V556.562C132.017 555.962 132.546 555.497 133.217 555.169C133.903 554.84 134.668 554.676 135.511 554.676ZM154.111 560.314C154.111 560.685 154.09 561.078 154.047 561.493H144.657C144.729 562.65 145.122 563.558 145.837 564.215C146.565 564.858 147.444 565.18 148.473 565.18C149.317 565.18 150.017 564.987 150.574 564.601C151.146 564.201 151.546 563.672 151.775 563.015H153.876C153.561 564.144 152.932 565.066 151.989 565.78C151.046 566.48 149.874 566.831 148.473 566.831C147.359 566.831 146.358 566.581 145.472 566.08C144.6 565.58 143.914 564.873 143.414 563.958C142.914 563.029 142.664 561.957 142.664 560.742C142.664 559.528 142.907 558.463 143.393 557.548C143.879 556.634 144.557 555.933 145.429 555.447C146.315 554.947 147.33 554.697 148.473 554.697C149.588 554.697 150.574 554.94 151.432 555.426C152.289 555.912 152.947 556.583 153.404 557.441C153.876 558.284 154.111 559.242 154.111 560.314ZM152.096 559.906C152.096 559.163 151.932 558.527 151.603 557.998C151.275 557.455 150.824 557.048 150.253 556.776C149.695 556.491 149.074 556.348 148.388 556.348C147.401 556.348 146.558 556.662 145.858 557.291C145.172 557.92 144.779 558.792 144.679 559.906H152.096ZM176.529 554.676C177.444 554.676 178.258 554.868 178.973 555.254C179.688 555.626 180.252 556.19 180.667 556.948C181.081 557.705 181.288 558.627 181.288 559.713V566.638H179.359V559.992C179.359 558.82 179.066 557.927 178.48 557.312C177.908 556.684 177.129 556.369 176.143 556.369C175.128 556.369 174.321 556.698 173.721 557.355C173.121 557.998 172.82 558.934 172.82 560.164V566.638H170.891V559.992C170.891 558.82 170.598 557.927 170.012 557.312C169.44 556.684 168.662 556.369 167.675 556.369C166.661 556.369 165.853 556.698 165.253 557.355C164.653 557.998 164.353 558.934 164.353 560.164V566.638H162.402V554.89H164.353V556.583C164.738 555.969 165.253 555.497 165.896 555.169C166.553 554.84 167.275 554.676 168.061 554.676C169.047 554.676 169.919 554.897 170.677 555.34C171.434 555.783 171.999 556.433 172.37 557.291C172.699 556.462 173.242 555.819 173.999 555.362C174.757 554.904 175.6 554.676 176.529 554.676ZM183.759 560.721C183.759 559.52 184.002 558.47 184.488 557.57C184.974 556.655 185.639 555.948 186.482 555.447C187.339 554.947 188.29 554.697 189.333 554.697C190.362 554.697 191.255 554.919 192.013 555.362C192.77 555.805 193.335 556.362 193.706 557.034V554.89H195.679V566.638H193.706V564.451C193.321 565.137 192.742 565.709 191.97 566.166C191.213 566.609 190.326 566.831 189.312 566.831C188.268 566.831 187.325 566.573 186.482 566.059C185.639 565.544 184.974 564.823 184.488 563.894C184.002 562.965 183.759 561.907 183.759 560.721ZM193.706 560.742C193.706 559.856 193.528 559.085 193.17 558.427C192.813 557.77 192.327 557.269 191.713 556.926C191.112 556.569 190.448 556.391 189.719 556.391C188.99 556.391 188.326 556.562 187.725 556.905C187.125 557.248 186.646 557.748 186.289 558.406C185.932 559.063 185.753 559.835 185.753 560.721C185.753 561.621 185.932 562.407 186.289 563.079C186.646 563.736 187.125 564.244 187.725 564.601C188.326 564.944 188.99 565.116 189.719 565.116C190.448 565.116 191.112 564.944 191.713 564.601C192.327 564.244 192.813 563.736 193.17 563.079C193.528 562.407 193.706 561.628 193.706 560.742ZM199.983 552.982C199.611 552.982 199.297 552.853 199.04 552.596C198.782 552.339 198.654 552.024 198.654 551.653C198.654 551.281 198.782 550.967 199.04 550.71C199.297 550.452 199.611 550.324 199.983 550.324C200.34 550.324 200.64 550.452 200.883 550.71C201.141 550.967 201.269 551.281 201.269 551.653C201.269 552.024 201.141 552.339 200.883 552.596C200.64 552.853 200.34 552.982 199.983 552.982ZM200.926 554.89V566.638H198.975V554.89H200.926ZM209.975 554.676C211.404 554.676 212.562 555.111 213.448 555.983C214.334 556.841 214.777 558.084 214.777 559.713V566.638H212.847V559.992C212.847 558.82 212.554 557.927 211.969 557.312C211.383 556.684 210.582 556.369 209.568 556.369C208.539 556.369 207.717 556.691 207.102 557.334C206.502 557.977 206.202 558.913 206.202 560.142V566.638H204.251V554.89H206.202V556.562C206.588 555.962 207.109 555.497 207.767 555.169C208.438 554.84 209.174 554.676 209.975 554.676ZM227.838 566.831C226.937 566.831 226.13 566.681 225.415 566.38C224.701 566.066 224.136 565.637 223.722 565.094C223.307 564.537 223.079 563.901 223.036 563.186H225.051C225.108 563.772 225.379 564.251 225.865 564.623C226.366 564.994 227.016 565.18 227.816 565.18C228.559 565.18 229.145 565.016 229.574 564.687C230.003 564.358 230.217 563.944 230.217 563.444C230.217 562.929 229.989 562.55 229.531 562.307C229.074 562.05 228.366 561.8 227.409 561.557C226.537 561.328 225.823 561.1 225.265 560.871C224.722 560.628 224.25 560.278 223.85 559.821C223.464 559.349 223.271 558.734 223.271 557.977C223.271 557.377 223.45 556.826 223.807 556.326C224.165 555.826 224.672 555.433 225.329 555.147C225.987 554.847 226.737 554.697 227.58 554.697C228.881 554.697 229.931 555.026 230.732 555.683C231.532 556.341 231.961 557.241 232.018 558.384H230.067C230.024 557.77 229.774 557.277 229.317 556.905C228.874 556.533 228.274 556.348 227.516 556.348C226.816 556.348 226.258 556.498 225.844 556.798C225.429 557.098 225.222 557.491 225.222 557.977C225.222 558.363 225.344 558.684 225.587 558.942C225.844 559.185 226.158 559.385 226.53 559.542C226.916 559.685 227.445 559.849 228.116 560.035C228.96 560.264 229.646 560.492 230.174 560.721C230.703 560.935 231.153 561.264 231.525 561.707C231.911 562.15 232.111 562.729 232.125 563.444C232.125 564.087 231.947 564.665 231.589 565.18C231.232 565.694 230.725 566.102 230.067 566.402C229.424 566.688 228.681 566.831 227.838 566.831ZM234.15 560.742C234.15 559.528 234.393 558.47 234.879 557.57C235.365 556.655 236.037 555.948 236.894 555.447C237.766 554.947 238.759 554.697 239.874 554.697C241.317 554.697 242.504 555.047 243.433 555.747C244.376 556.448 244.998 557.42 245.298 558.663H243.197C242.997 557.948 242.604 557.384 242.018 556.969C241.446 556.555 240.731 556.348 239.874 556.348C238.759 556.348 237.859 556.734 237.173 557.505C236.487 558.263 236.144 559.342 236.144 560.742C236.144 562.157 236.487 563.251 237.173 564.022C237.859 564.794 238.759 565.18 239.874 565.18C240.731 565.18 241.446 564.98 242.018 564.58C242.589 564.18 242.982 563.608 243.197 562.865H245.298C244.983 564.065 244.354 565.03 243.411 565.759C242.468 566.473 241.289 566.831 239.874 566.831C238.759 566.831 237.766 566.581 236.894 566.08C236.037 565.58 235.365 564.873 234.879 563.958C234.393 563.043 234.15 561.971 234.15 560.742ZM249.851 556.798C250.194 556.126 250.68 555.605 251.309 555.233C251.952 554.861 252.731 554.676 253.646 554.676V556.691H253.131C250.945 556.691 249.851 557.877 249.851 560.249V566.638H247.901V554.89H249.851V556.798ZM266.617 560.314C266.617 560.685 266.595 561.078 266.552 561.493H257.163C257.234 562.65 257.627 563.558 258.342 564.215C259.071 564.858 259.95 565.18 260.979 565.18C261.822 565.18 262.522 564.987 263.079 564.601C263.651 564.201 264.051 563.672 264.28 563.015H266.381C266.066 564.144 265.438 565.066 264.494 565.78C263.551 566.48 262.379 566.831 260.979 566.831C259.864 566.831 258.863 566.581 257.977 566.08C257.106 565.58 256.42 564.873 255.919 563.958C255.419 563.029 255.169 561.957 255.169 560.742C255.169 559.528 255.412 558.463 255.898 557.548C256.384 556.634 257.063 555.933 257.934 555.447C258.821 554.947 259.835 554.697 260.979 554.697C262.093 554.697 263.079 554.94 263.937 555.426C264.794 555.912 265.452 556.583 265.909 557.441C266.381 558.284 266.617 559.242 266.617 560.314ZM264.602 559.906C264.602 559.163 264.437 558.527 264.108 557.998C263.78 557.455 263.33 557.048 262.758 556.776C262.201 556.491 261.579 556.348 260.893 556.348C259.907 556.348 259.063 556.662 258.363 557.291C257.677 557.92 257.284 558.792 257.184 559.906H264.602ZM279.91 560.314C279.91 560.685 279.889 561.078 279.846 561.493H270.456C270.528 562.65 270.921 563.558 271.636 564.215C272.364 564.858 273.243 565.18 274.272 565.18C275.116 565.18 275.816 564.987 276.373 564.601C276.945 564.201 277.345 563.672 277.574 563.015H279.675C279.36 564.144 278.731 565.066 277.788 565.78C276.845 566.48 275.673 566.831 274.272 566.831C273.158 566.831 272.157 566.581 271.271 566.08C270.399 565.58 269.713 564.873 269.213 563.958C268.713 563.029 268.463 561.957 268.463 560.742C268.463 559.528 268.706 558.463 269.192 557.548C269.678 556.634 270.356 555.933 271.228 555.447C272.114 554.947 273.129 554.697 274.272 554.697C275.387 554.697 276.373 554.94 277.231 555.426C278.088 555.912 278.746 556.583 279.203 557.441C279.675 558.284 279.91 559.242 279.91 560.314ZM277.895 559.906C277.895 559.163 277.731 558.527 277.402 557.998C277.074 557.455 276.623 557.048 276.052 556.776C275.494 556.491 274.873 556.348 274.187 556.348C273.2 556.348 272.357 556.662 271.657 557.291C270.971 557.92 270.578 558.792 270.478 559.906H277.895ZM288.209 554.676C289.638 554.676 290.796 555.111 291.682 555.983C292.568 556.841 293.011 558.084 293.011 559.713V566.638H291.082V559.992C291.082 558.82 290.789 557.927 290.203 557.312C289.617 556.684 288.817 556.369 287.802 556.369C286.773 556.369 285.951 556.691 285.337 557.334C284.736 557.977 284.436 558.913 284.436 560.142V566.638H282.485V554.89H284.436V556.562C284.822 555.962 285.344 555.497 286.001 555.169C286.673 554.84 287.409 554.676 288.209 554.676ZM317.563 554.89L313.897 566.638H311.882L309.052 557.312L306.222 566.638H304.207L300.52 554.89H302.513L305.215 564.751L308.13 554.89H310.124L312.975 564.773L315.633 554.89H317.563ZM325.33 554.676C326.216 554.676 327.016 554.868 327.731 555.254C328.445 555.626 329.003 556.19 329.403 556.948C329.817 557.705 330.025 558.627 330.025 559.713V566.638H328.095V559.992C328.095 558.82 327.802 557.927 327.216 557.312C326.63 556.684 325.83 556.369 324.815 556.369C323.786 556.369 322.964 556.691 322.35 557.334C321.75 557.977 321.45 558.913 321.45 560.142V566.638H319.499V550.774H321.45V556.562C321.835 555.962 322.364 555.497 323.036 555.169C323.722 554.84 324.487 554.676 325.33 554.676ZM343.93 560.314C343.93 560.685 343.909 561.078 343.866 561.493H334.476C334.547 562.65 334.94 563.558 335.655 564.215C336.384 564.858 337.263 565.18 338.292 565.18C339.135 565.18 339.835 564.987 340.393 564.601C340.964 564.201 341.365 563.672 341.593 563.015H343.694C343.38 564.144 342.751 565.066 341.808 565.78C340.864 566.48 339.692 566.831 338.292 566.831C337.177 566.831 336.177 566.581 335.291 566.08C334.419 565.58 333.733 564.873 333.233 563.958C332.732 563.029 332.482 561.957 332.482 560.742C332.482 559.528 332.725 558.463 333.211 557.548C333.697 556.634 334.376 555.933 335.248 555.447C336.134 554.947 337.149 554.697 338.292 554.697C339.407 554.697 340.393 554.94 341.25 555.426C342.108 555.912 342.765 556.583 343.223 557.441C343.694 558.284 343.93 559.242 343.93 560.314ZM341.915 559.906C341.915 559.163 341.75 558.527 341.422 557.998C341.093 557.455 340.643 557.048 340.071 556.776C339.514 556.491 338.892 556.348 338.206 556.348C337.22 556.348 336.377 556.662 335.676 557.291C334.99 557.92 334.597 558.792 334.497 559.906H341.915ZM348.456 556.798C348.799 556.126 349.285 555.605 349.914 555.233C350.557 554.861 351.336 554.676 352.25 554.676V556.691H351.736C349.549 556.691 348.456 557.877 348.456 560.249V566.638H346.505V554.89H348.456V556.798ZM365.221 560.314C365.221 560.685 365.2 561.078 365.157 561.493H355.767C355.838 562.65 356.231 563.558 356.946 564.215C357.675 564.858 358.554 565.18 359.583 565.18C360.426 565.18 361.126 564.987 361.684 564.601C362.255 564.201 362.656 563.672 362.884 563.015H364.985C364.671 564.144 364.042 565.066 363.099 565.78C362.155 566.48 360.983 566.831 359.583 566.831C358.468 566.831 357.468 566.581 356.582 566.08C355.71 565.58 355.024 564.873 354.524 563.958C354.023 563.029 353.773 561.957 353.773 560.742C353.773 559.528 354.016 558.463 354.502 557.548C354.988 556.634 355.667 555.933 356.539 555.447C357.425 554.947 358.44 554.697 359.583 554.697C360.698 554.697 361.684 554.94 362.541 555.426C363.399 555.912 364.056 556.583 364.514 557.441C364.985 558.284 365.221 559.242 365.221 560.314ZM363.206 559.906C363.206 559.163 363.041 558.527 362.713 557.998C362.384 557.455 361.934 557.048 361.362 556.776C360.805 556.491 360.183 556.348 359.497 556.348C358.511 556.348 357.668 556.662 356.968 557.291C356.282 557.92 355.888 558.792 355.788 559.906H363.206ZM55.0395 588.498V595.422C55.0395 595.994 55.161 596.401 55.404 596.644C55.6469 596.873 56.0685 596.987 56.6688 596.987H58.1051V598.638H56.3472C55.2611 598.638 54.4464 598.388 53.9033 597.887C53.3603 597.387 53.0887 596.565 53.0887 595.422V588.498H51.5667V586.89H53.0887V583.932H55.0395V586.89H58.1051V588.498H55.0395ZM66.2998 586.676C67.1859 586.676 67.9862 586.868 68.7008 587.254C69.4154 587.626 69.9727 588.19 70.3729 588.948C70.7874 589.705 70.9946 590.627 70.9946 591.713V598.638H69.0652V591.992C69.0652 590.82 68.7722 589.927 68.1863 589.312C67.6003 588.684 66.8 588.369 65.7853 588.369C64.7563 588.369 63.9345 588.691 63.32 589.334C62.7197 589.977 62.4196 590.913 62.4196 592.142V598.638H60.4688V582.774H62.4196V588.562C62.8055 587.962 63.3342 587.497 64.006 587.169C64.692 586.84 65.4566 586.676 66.2998 586.676ZM84.9 592.314C84.9 592.685 84.8786 593.078 84.8357 593.493H75.4461C75.5175 594.65 75.9105 595.558 76.6251 596.215C77.354 596.858 78.2329 597.18 79.2619 597.18C80.1052 597.18 80.8054 596.987 81.3628 596.601C81.9345 596.201 82.3347 595.672 82.5633 595.015H84.6642C84.3498 596.144 83.721 597.066 82.7777 597.78C81.8344 598.48 80.6625 598.831 79.2619 598.831C78.1472 598.831 77.1468 598.581 76.2607 598.08C75.3889 597.58 74.7029 596.873 74.2027 595.958C73.7025 595.029 73.4524 593.957 73.4524 592.742C73.4524 591.528 73.6953 590.463 74.1812 589.548C74.6672 588.634 75.346 587.933 76.2178 587.447C77.1039 586.947 78.1186 586.697 79.2619 586.697C80.3767 586.697 81.3628 586.94 82.2203 587.426C83.0778 587.912 83.7352 588.583 84.1926 589.441C84.6642 590.284 84.9 591.242 84.9 592.314ZM82.8849 591.906C82.8849 591.163 82.7205 590.527 82.3918 589.998C82.0631 589.455 81.6129 589.048 81.0413 588.776C80.4839 588.491 79.8622 588.348 79.1762 588.348C78.1901 588.348 77.3469 588.662 76.6466 589.291C75.9606 589.92 75.5675 590.792 75.4675 591.906H82.8849ZM97.3492 598.831C96.4488 598.831 95.6413 598.681 94.9268 598.38C94.2122 598.066 93.6476 597.637 93.2332 597.094C92.8187 596.537 92.5901 595.901 92.5472 595.186H94.5623C94.6195 595.772 94.891 596.251 95.3769 596.623C95.8772 596.994 96.5274 597.18 97.3278 597.18C98.0709 597.18 98.6569 597.016 99.0856 596.687C99.5144 596.358 99.7288 595.944 99.7288 595.444C99.7288 594.929 99.5001 594.55 99.0428 594.307C98.5854 594.05 97.878 593.8 96.9204 593.557C96.0487 593.328 95.3341 593.1 94.7767 592.871C94.2336 592.628 93.762 592.278 93.3618 591.821C92.9759 591.349 92.783 590.734 92.783 589.977C92.783 589.377 92.9616 588.826 93.3189 588.326C93.6762 587.826 94.1836 587.433 94.841 587.147C95.4984 586.847 96.2487 586.697 97.0919 586.697C98.3925 586.697 99.4429 587.026 100.243 587.683C101.044 588.341 101.472 589.241 101.53 590.384H99.5787C99.5358 589.77 99.2857 589.277 98.8284 588.905C98.3853 588.533 97.7851 588.348 97.0276 588.348C96.3273 588.348 95.77 588.498 95.3555 588.798C94.941 589.098 94.7338 589.491 94.7338 589.977C94.7338 590.363 94.8553 590.684 95.0983 590.942C95.3555 591.185 95.6699 591.385 96.0415 591.542C96.4274 591.685 96.9562 591.849 97.6279 592.035C98.4711 592.264 99.1571 592.492 99.6859 592.721C100.215 592.935 100.665 593.264 101.036 593.707C101.422 594.15 101.622 594.729 101.637 595.444C101.637 596.087 101.458 596.665 101.101 597.18C100.743 597.694 100.236 598.102 99.5787 598.402C98.9356 598.688 98.1924 598.831 97.3492 598.831ZM106.77 588.498V595.422C106.77 595.994 106.892 596.401 107.135 596.644C107.378 596.873 107.799 596.987 108.399 596.987H109.836V598.638H108.078C106.992 598.638 106.177 598.388 105.634 597.887C105.091 597.387 104.819 596.565 104.819 595.422V588.498H103.297V586.89H104.819V583.932H106.77V586.89H109.836V588.498H106.77ZM122.618 586.89V598.638H120.667V596.901C120.296 597.502 119.774 597.973 119.102 598.316C118.445 598.645 117.716 598.809 116.916 598.809C116.001 598.809 115.179 598.623 114.45 598.252C113.721 597.866 113.143 597.294 112.714 596.537C112.299 595.779 112.092 594.858 112.092 593.771V586.89H114.022V593.514C114.022 594.672 114.315 595.565 114.901 596.194C115.486 596.808 116.287 597.116 117.302 597.116C118.345 597.116 119.167 596.794 119.767 596.151C120.367 595.508 120.667 594.572 120.667 593.343V586.89H122.618ZM125.183 592.721C125.183 591.52 125.426 590.47 125.912 589.57C126.398 588.655 127.062 587.948 127.906 587.447C128.763 586.947 129.721 586.697 130.778 586.697C131.693 586.697 132.543 586.911 133.329 587.34C134.115 587.755 134.716 588.305 135.13 588.991V582.774H137.102V598.638H135.13V596.43C134.744 597.13 134.172 597.709 133.415 598.166C132.658 598.609 131.771 598.831 130.757 598.831C129.713 598.831 128.763 598.573 127.906 598.059C127.062 597.544 126.398 596.823 125.912 595.894C125.426 594.965 125.183 593.907 125.183 592.721ZM135.13 592.742C135.13 591.856 134.951 591.085 134.594 590.427C134.237 589.77 133.751 589.269 133.136 588.926C132.536 588.569 131.872 588.391 131.143 588.391C130.414 588.391 129.749 588.562 129.149 588.905C128.549 589.248 128.07 589.748 127.713 590.406C127.355 591.063 127.177 591.835 127.177 592.721C127.177 593.621 127.355 594.407 127.713 595.079C128.07 595.736 128.549 596.244 129.149 596.601C129.749 596.944 130.414 597.116 131.143 597.116C131.872 597.116 132.536 596.944 133.136 596.601C133.751 596.244 134.237 595.736 134.594 595.079C134.951 594.407 135.13 593.628 135.13 592.742ZM151.118 592.314C151.118 592.685 151.096 593.078 151.053 593.493H141.664C141.735 594.65 142.128 595.558 142.843 596.215C143.572 596.858 144.451 597.18 145.48 597.18C146.323 597.18 147.023 596.987 147.581 596.601C148.152 596.201 148.552 595.672 148.781 595.015H150.882C150.567 596.144 149.939 597.066 148.995 597.78C148.052 598.48 146.88 598.831 145.48 598.831C144.365 598.831 143.364 598.581 142.478 598.08C141.607 597.58 140.921 596.873 140.42 595.958C139.92 595.029 139.67 593.957 139.67 592.742C139.67 591.528 139.913 590.463 140.399 589.548C140.885 588.634 141.564 587.933 142.436 587.447C143.322 586.947 144.336 586.697 145.48 586.697C146.594 586.697 147.581 586.94 148.438 587.426C149.296 587.912 149.953 588.583 150.41 589.441C150.882 590.284 151.118 591.242 151.118 592.314ZM149.103 591.906C149.103 591.163 148.938 590.527 148.61 589.998C148.281 589.455 147.831 589.048 147.259 588.776C146.702 588.491 146.08 588.348 145.394 588.348C144.408 588.348 143.565 588.662 142.864 589.291C142.178 589.92 141.785 590.792 141.685 591.906H149.103ZM159.417 586.676C160.846 586.676 162.003 587.111 162.889 587.983C163.776 588.841 164.219 590.084 164.219 591.713V598.638H162.289V591.992C162.289 590.82 161.996 589.927 161.41 589.312C160.824 588.684 160.024 588.369 159.009 588.369C157.98 588.369 157.158 588.691 156.544 589.334C155.944 589.977 155.644 590.913 155.644 592.142V598.638H153.693V586.89H155.644V588.562C156.029 587.962 156.551 587.497 157.209 587.169C157.88 586.84 158.616 586.676 159.417 586.676ZM169.785 588.498V595.422C169.785 595.994 169.906 596.401 170.149 596.644C170.392 596.873 170.814 596.987 171.414 596.987H172.85V598.638H171.092C170.006 598.638 169.192 598.388 168.649 597.887C168.106 597.387 167.834 596.565 167.834 595.422V588.498H166.312V586.89H167.834V583.932H169.785V586.89H172.85V588.498H169.785ZM185.088 598.831C184.188 598.831 183.38 598.681 182.666 598.38C181.951 598.066 181.387 597.637 180.972 597.094C180.558 596.537 180.329 595.901 180.286 595.186H182.301C182.358 595.772 182.63 596.251 183.116 596.623C183.616 596.994 184.266 597.18 185.067 597.18C185.81 597.18 186.396 597.016 186.825 596.687C187.253 596.358 187.468 595.944 187.468 595.444C187.468 594.929 187.239 594.55 186.782 594.307C186.324 594.05 185.617 593.8 184.659 593.557C183.788 593.328 183.073 593.1 182.516 592.871C181.973 592.628 181.501 592.278 181.101 591.821C180.715 591.349 180.522 590.734 180.522 589.977C180.522 589.377 180.701 588.826 181.058 588.326C181.415 587.826 181.923 587.433 182.58 587.147C183.237 586.847 183.988 586.697 184.831 586.697C186.131 586.697 187.182 587.026 187.982 587.683C188.783 588.341 189.211 589.241 189.269 590.384H187.318C187.275 589.77 187.025 589.277 186.567 588.905C186.124 588.533 185.524 588.348 184.767 588.348C184.066 588.348 183.509 588.498 183.094 588.798C182.68 589.098 182.473 589.491 182.473 589.977C182.473 590.363 182.594 590.684 182.837 590.942C183.094 591.185 183.409 591.385 183.78 591.542C184.166 591.685 184.695 591.849 185.367 592.035C186.21 592.264 186.896 592.492 187.425 592.721C187.954 592.935 188.404 593.264 188.775 593.707C189.161 594.15 189.361 594.729 189.376 595.444C189.376 596.087 189.197 596.665 188.84 597.18C188.482 597.694 187.975 598.102 187.318 598.402C186.675 598.688 185.931 598.831 185.088 598.831ZM202.848 592.314C202.848 592.685 202.827 593.078 202.784 593.493H193.394C193.466 594.65 193.859 595.558 194.573 596.215C195.302 596.858 196.181 597.18 197.21 597.18C198.053 597.18 198.754 596.987 199.311 596.601C199.883 596.201 200.283 595.672 200.512 595.015H202.613C202.298 596.144 201.669 597.066 200.726 597.78C199.783 598.48 198.611 598.831 197.21 598.831C196.096 598.831 195.095 598.581 194.209 598.08C193.337 597.58 192.651 596.873 192.151 595.958C191.651 595.029 191.401 593.957 191.401 592.742C191.401 591.528 191.644 590.463 192.13 589.548C192.615 588.634 193.294 587.933 194.166 587.447C195.052 586.947 196.067 586.697 197.21 586.697C198.325 586.697 199.311 586.94 200.169 587.426C201.026 587.912 201.684 588.583 202.141 589.441C202.613 590.284 202.848 591.242 202.848 592.314ZM200.833 591.906C200.833 591.163 200.669 590.527 200.34 589.998C200.011 589.455 199.561 589.048 198.99 588.776C198.432 588.491 197.811 588.348 197.125 588.348C196.138 588.348 195.295 588.662 194.595 589.291C193.909 589.92 193.516 590.792 193.416 591.906H200.833ZM216.142 592.314C216.142 592.685 216.121 593.078 216.078 593.493H206.688C206.76 594.65 207.153 595.558 207.867 596.215C208.596 596.858 209.475 597.18 210.504 597.18C211.347 597.18 212.048 596.987 212.605 596.601C213.177 596.201 213.577 595.672 213.805 595.015H215.906C215.592 596.144 214.963 597.066 214.02 597.78C213.077 598.48 211.905 598.831 210.504 598.831C209.389 598.831 208.389 598.581 207.503 598.08C206.631 597.58 205.945 596.873 205.445 595.958C204.945 595.029 204.694 593.957 204.694 592.742C204.694 591.528 204.937 590.463 205.423 589.548C205.909 588.634 206.588 587.933 207.46 587.447C208.346 586.947 209.361 586.697 210.504 586.697C211.619 586.697 212.605 586.94 213.462 587.426C214.32 587.912 214.977 588.583 215.435 589.441C215.906 590.284 216.142 591.242 216.142 592.314ZM214.127 591.906C214.127 591.163 213.963 590.527 213.634 589.998C213.305 589.455 212.855 589.048 212.283 588.776C211.726 588.491 211.104 588.348 210.418 588.348C209.432 588.348 208.589 588.662 207.889 589.291C207.203 589.92 206.81 590.792 206.71 591.906H214.127ZM222.876 598.831C221.976 598.831 221.168 598.681 220.454 598.38C219.739 598.066 219.174 597.637 218.76 597.094C218.346 596.537 218.117 595.901 218.074 595.186H220.089C220.146 595.772 220.418 596.251 220.904 596.623C221.404 596.994 222.054 597.18 222.855 597.18C223.598 597.18 224.184 597.016 224.612 596.687C225.041 596.358 225.256 595.944 225.256 595.444C225.256 594.929 225.027 594.55 224.57 594.307C224.112 594.05 223.405 593.8 222.447 593.557C221.575 593.328 220.861 593.1 220.304 592.871C219.76 592.628 219.289 592.278 218.889 591.821C218.503 591.349 218.31 590.734 218.31 589.977C218.31 589.377 218.488 588.826 218.846 588.326C219.203 587.826 219.71 587.433 220.368 587.147C221.025 586.847 221.776 586.697 222.619 586.697C223.919 586.697 224.97 587.026 225.77 587.683C226.57 588.341 226.999 589.241 227.056 590.384H225.106C225.063 589.77 224.813 589.277 224.355 588.905C223.912 588.533 223.312 588.348 222.554 588.348C221.854 588.348 221.297 588.498 220.882 588.798C220.468 589.098 220.261 589.491 220.261 589.977C220.261 590.363 220.382 590.684 220.625 590.942C220.882 591.185 221.197 591.385 221.568 591.542C221.954 591.685 222.483 591.849 223.155 592.035C223.998 592.264 224.684 592.492 225.213 592.721C225.742 592.935 226.192 593.264 226.563 593.707C226.949 594.15 227.149 594.729 227.164 595.444C227.164 596.087 226.985 596.665 226.628 597.18C226.27 597.694 225.763 598.102 225.106 598.402C224.462 598.688 223.719 598.831 222.876 598.831ZM238.012 588.498V595.422C238.012 595.994 238.134 596.401 238.377 596.644C238.62 596.873 239.041 596.987 239.642 596.987H241.078V598.638H239.32C238.234 598.638 237.419 598.388 236.876 597.887C236.333 597.387 236.061 596.565 236.061 595.422V588.498H234.539V586.89H236.061V583.932H238.012V586.89H241.078V588.498H238.012ZM249.273 586.676C250.159 586.676 250.959 586.868 251.674 587.254C252.388 587.626 252.945 588.19 253.346 588.948C253.76 589.705 253.967 590.627 253.967 591.713V598.638H252.038V591.992C252.038 590.82 251.745 589.927 251.159 589.312C250.573 588.684 249.773 588.369 248.758 588.369C247.729 588.369 246.907 588.691 246.293 589.334C245.692 589.977 245.392 590.913 245.392 592.142V598.638H243.441V582.774H245.392V588.562C245.778 587.962 246.307 587.497 246.979 587.169C247.665 586.84 248.429 586.676 249.273 586.676ZM267.873 592.314C267.873 592.685 267.851 593.078 267.808 593.493H258.419C258.49 594.65 258.883 595.558 259.598 596.215C260.327 596.858 261.206 597.18 262.235 597.18C263.078 597.18 263.778 596.987 264.336 596.601C264.907 596.201 265.307 595.672 265.536 595.015H267.637C267.323 596.144 266.694 597.066 265.75 597.78C264.807 598.48 263.635 598.831 262.235 598.831C261.12 598.831 260.12 598.581 259.233 598.08C258.362 597.58 257.676 596.873 257.175 595.958C256.675 595.029 256.425 593.957 256.425 592.742C256.425 591.528 256.668 590.463 257.154 589.548C257.64 588.634 258.319 587.933 259.191 587.447C260.077 586.947 261.091 586.697 262.235 586.697C263.349 586.697 264.336 586.94 265.193 587.426C266.051 587.912 266.708 588.583 267.165 589.441C267.637 590.284 267.873 591.242 267.873 592.314ZM265.858 591.906C265.858 591.163 265.693 590.527 265.365 589.998C265.036 589.455 264.586 589.048 264.014 588.776C263.457 588.491 262.835 588.348 262.149 588.348C261.163 588.348 260.32 588.662 259.619 589.291C258.933 589.92 258.54 590.792 258.44 591.906H265.858ZM275.434 592.742C275.434 591.528 275.677 590.47 276.163 589.57C276.649 588.655 277.321 587.948 278.178 587.447C279.05 586.947 280.043 586.697 281.158 586.697C282.601 586.697 283.788 587.047 284.717 587.747C285.66 588.448 286.282 589.42 286.582 590.663H284.481C284.281 589.948 283.888 589.384 283.302 588.969C282.73 588.555 282.015 588.348 281.158 588.348C280.043 588.348 279.143 588.734 278.457 589.505C277.771 590.263 277.428 591.342 277.428 592.742C277.428 594.157 277.771 595.251 278.457 596.022C279.143 596.794 280.043 597.18 281.158 597.18C282.015 597.18 282.73 596.98 283.302 596.58C283.873 596.18 284.266 595.608 284.481 594.865H286.582C286.267 596.065 285.638 597.03 284.695 597.759C283.752 598.473 282.573 598.831 281.158 598.831C280.043 598.831 279.05 598.581 278.178 598.08C277.321 597.58 276.649 596.873 276.163 595.958C275.677 595.043 275.434 593.971 275.434 592.742ZM294.308 598.831C293.208 598.831 292.207 598.581 291.307 598.08C290.421 597.58 289.721 596.873 289.206 595.958C288.706 595.029 288.456 593.957 288.456 592.742C288.456 591.542 288.713 590.484 289.228 589.57C289.756 588.641 290.471 587.933 291.371 587.447C292.272 586.947 293.279 586.697 294.394 586.697C295.509 586.697 296.516 586.947 297.417 587.447C298.317 587.933 299.025 588.634 299.539 589.548C300.068 590.463 300.332 591.528 300.332 592.742C300.332 593.957 300.061 595.029 299.518 595.958C298.989 596.873 298.267 597.58 297.352 598.08C296.438 598.581 295.423 598.831 294.308 598.831ZM294.308 597.116C295.009 597.116 295.666 596.951 296.281 596.623C296.895 596.294 297.388 595.801 297.76 595.143C298.146 594.486 298.339 593.686 298.339 592.742C298.339 591.799 298.153 590.999 297.781 590.341C297.41 589.684 296.924 589.198 296.323 588.884C295.723 588.555 295.073 588.391 294.373 588.391C293.658 588.391 293.001 588.555 292.4 588.884C291.814 589.198 291.343 589.684 290.985 590.341C290.628 590.999 290.45 591.799 290.45 592.742C290.45 593.7 290.621 594.507 290.964 595.165C291.321 595.822 291.793 596.315 292.379 596.644C292.965 596.958 293.608 597.116 294.308 597.116ZM313.316 586.89V598.638H311.365V596.901C310.993 597.502 310.472 597.973 309.8 598.316C309.143 598.645 308.414 598.809 307.613 598.809C306.699 598.809 305.877 598.623 305.148 598.252C304.419 597.866 303.84 597.294 303.412 596.537C302.997 595.779 302.79 594.858 302.79 593.771V586.89H304.719V593.514C304.719 594.672 305.012 595.565 305.598 596.194C306.184 596.808 306.985 597.116 307.999 597.116C309.043 597.116 309.864 596.794 310.465 596.151C311.065 595.508 311.365 594.572 311.365 593.343V586.89H313.316ZM318.56 588.798C318.903 588.126 319.389 587.605 320.018 587.233C320.661 586.861 321.44 586.676 322.355 586.676V588.691H321.84C319.654 588.691 318.56 589.877 318.56 592.249V598.638H316.61V586.89H318.56V588.798ZM328.766 598.831C327.865 598.831 327.058 598.681 326.343 598.38C325.629 598.066 325.064 597.637 324.65 597.094C324.235 596.537 324.007 595.901 323.964 595.186H325.979C326.036 595.772 326.308 596.251 326.793 596.623C327.294 596.994 327.944 597.18 328.744 597.18C329.487 597.18 330.073 597.016 330.502 596.687C330.931 596.358 331.145 595.944 331.145 595.444C331.145 594.929 330.917 594.55 330.459 594.307C330.002 594.05 329.295 593.8 328.337 593.557C327.465 593.328 326.751 593.1 326.193 592.871C325.65 592.628 325.179 592.278 324.778 591.821C324.392 591.349 324.2 590.734 324.2 589.977C324.2 589.377 324.378 588.826 324.735 588.326C325.093 587.826 325.6 587.433 326.258 587.147C326.915 586.847 327.665 586.697 328.508 586.697C329.809 586.697 330.859 587.026 331.66 587.683C332.46 588.341 332.889 589.241 332.946 590.384H330.995C330.952 589.77 330.702 589.277 330.245 588.905C329.802 588.533 329.202 588.348 328.444 588.348C327.744 588.348 327.187 588.498 326.772 588.798C326.358 589.098 326.15 589.491 326.15 589.977C326.15 590.363 326.272 590.684 326.515 590.942C326.772 591.185 327.086 591.385 327.458 591.542C327.844 591.685 328.373 591.849 329.044 592.035C329.888 592.264 330.574 592.492 331.102 592.721C331.631 592.935 332.081 593.264 332.453 593.707C332.839 594.15 333.039 594.729 333.053 595.444C333.053 596.087 332.875 596.665 332.517 597.18C332.16 597.694 331.653 598.102 330.995 598.402C330.352 598.688 329.609 598.831 328.766 598.831ZM346.526 592.314C346.526 592.685 346.504 593.078 346.462 593.493H337.072C337.143 594.65 337.536 595.558 338.251 596.215C338.98 596.858 339.859 597.18 340.888 597.18C341.731 597.18 342.431 596.987 342.989 596.601C343.56 596.201 343.961 595.672 344.189 595.015H346.29C345.976 596.144 345.347 597.066 344.404 597.78C343.46 598.48 342.288 598.831 340.888 598.831C339.773 598.831 338.773 598.581 337.887 598.08C337.015 597.58 336.329 596.873 335.829 595.958C335.328 595.029 335.078 593.957 335.078 592.742C335.078 591.528 335.321 590.463 335.807 589.548C336.293 588.634 336.972 587.933 337.844 587.447C338.73 586.947 339.745 586.697 340.888 586.697C342.003 586.697 342.989 586.94 343.846 587.426C344.704 587.912 345.361 588.583 345.818 589.441C346.29 590.284 346.526 591.242 346.526 592.314ZM344.511 591.906C344.511 591.163 344.346 590.527 344.018 589.998C343.689 589.455 343.239 589.048 342.667 588.776C342.11 588.491 341.488 588.348 340.802 588.348C339.816 588.348 338.973 588.662 338.272 589.291C337.586 589.92 337.193 590.792 337.093 591.906H344.511ZM353.26 598.831C352.359 598.831 351.552 598.681 350.837 598.38C350.123 598.066 349.558 597.637 349.144 597.094C348.729 596.537 348.501 595.901 348.458 595.186H350.473C350.53 595.772 350.802 596.251 351.288 596.623C351.788 596.994 352.438 597.18 353.238 597.18C353.982 597.18 354.567 597.016 354.996 596.687C355.425 596.358 355.639 595.944 355.639 595.444C355.639 594.929 355.411 594.55 354.953 594.307C354.496 594.05 353.789 593.8 352.831 593.557C351.959 593.328 351.245 593.1 350.687 592.871C350.144 592.628 349.673 592.278 349.272 591.821C348.887 591.349 348.694 590.734 348.694 589.977C348.694 589.377 348.872 588.826 349.23 588.326C349.587 587.826 350.094 587.433 350.752 587.147C351.409 586.847 352.159 586.697 353.003 586.697C354.303 586.697 355.354 587.026 356.154 587.683C356.954 588.341 357.383 589.241 357.44 590.384H355.489C355.446 589.77 355.196 589.277 354.739 588.905C354.296 588.533 353.696 588.348 352.938 588.348C352.238 588.348 351.681 588.498 351.266 588.798C350.852 589.098 350.644 589.491 350.644 589.977C350.644 590.363 350.766 590.684 351.009 590.942C351.266 591.185 351.581 591.385 351.952 591.542C352.338 591.685 352.867 591.849 353.538 592.035C354.382 592.264 355.068 592.492 355.596 592.721C356.125 592.935 356.575 593.264 356.947 593.707C357.333 594.15 357.533 594.729 357.547 595.444C357.547 596.087 357.369 596.665 357.011 597.18C356.654 597.694 356.147 598.102 355.489 598.402C354.846 598.688 354.103 598.831 353.26 598.831ZM51.9311 624.721C51.9311 623.52 52.1741 622.47 52.66 621.57C53.1459 620.655 53.8104 619.948 54.6537 619.447C55.5112 618.947 56.4616 618.697 57.5049 618.697C58.5339 618.697 59.4271 618.919 60.1845 619.362C60.942 619.805 61.5065 620.362 61.8781 621.034V618.89H63.8504V630.638H61.8781V628.451C61.4922 629.137 60.9134 629.709 60.1417 630.166C59.3842 630.609 58.4981 630.831 57.4834 630.831C56.4401 630.831 55.4969 630.573 54.6537 630.059C53.8104 629.544 53.1459 628.823 52.66 627.894C52.1741 626.965 51.9311 625.907 51.9311 624.721ZM61.8781 624.742C61.8781 623.856 61.6995 623.085 61.3422 622.427C60.9849 621.77 60.499 621.269 59.8844 620.926C59.2842 620.569 58.6196 620.391 57.8907 620.391C57.1619 620.391 56.4973 620.562 55.897 620.905C55.2968 621.248 54.818 621.748 54.4607 622.406C54.1034 623.063 53.9248 623.835 53.9248 624.721C53.9248 625.621 54.1034 626.407 54.4607 627.079C54.818 627.736 55.2968 628.244 55.897 628.601C56.4973 628.944 57.1619 629.116 57.8907 629.116C58.6196 629.116 59.2842 628.944 59.8844 628.601C60.499 628.244 60.9849 627.736 61.3422 627.079C61.6995 626.407 61.8781 625.628 61.8781 624.742ZM72.8709 618.676C74.3 618.676 75.4577 619.111 76.3438 619.983C77.2298 620.841 77.6729 622.084 77.6729 623.713V630.638H75.7435V623.992C75.7435 622.82 75.4505 621.927 74.8646 621.312C74.2786 620.684 73.4783 620.369 72.4636 620.369C71.4346 620.369 70.6128 620.691 69.9982 621.334C69.398 621.977 69.0979 622.913 69.0979 624.142V630.638H67.1471V618.89H69.0979V620.562C69.4837 619.962 70.0054 619.497 70.6628 619.169C71.3345 618.84 72.0705 618.676 72.8709 618.676ZM80.1307 624.721C80.1307 623.52 80.3736 622.47 80.8595 621.57C81.3455 620.655 82.01 619.948 82.8532 619.447C83.7107 618.947 84.6683 618.697 85.7259 618.697C86.6405 618.697 87.4909 618.911 88.2769 619.34C89.063 619.755 89.6632 620.305 90.0777 620.991V614.774H92.0499V630.638H90.0777V628.43C89.6918 629.13 89.1201 629.709 88.3627 630.166C87.6052 630.609 86.7191 630.831 85.7044 630.831C84.6611 630.831 83.7107 630.573 82.8532 630.059C82.01 629.544 81.3455 628.823 80.8595 627.894C80.3736 626.965 80.1307 625.907 80.1307 624.721ZM90.0777 624.742C90.0777 623.856 89.899 623.085 89.5417 622.427C89.1845 621.77 88.6985 621.269 88.084 620.926C87.4837 620.569 86.8192 620.391 86.0903 620.391C85.3614 620.391 84.6969 620.562 84.0966 620.905C83.4964 621.248 83.0176 621.748 82.6603 622.406C82.303 623.063 82.1244 623.835 82.1244 624.721C82.1244 625.621 82.303 626.407 82.6603 627.079C83.0176 627.736 83.4964 628.244 84.0966 628.601C84.6969 628.944 85.3614 629.116 86.0903 629.116C86.8192 629.116 87.4837 628.944 88.084 628.601C88.6985 628.244 89.1845 627.736 89.5417 627.079C89.899 626.407 90.0777 625.628 90.0777 624.742ZM100.333 624.742C100.333 623.528 100.576 622.47 101.062 621.57C101.548 620.655 102.22 619.948 103.077 619.447C103.949 618.947 104.942 618.697 106.057 618.697C107.5 618.697 108.687 619.047 109.615 619.747C110.559 620.448 111.18 621.42 111.481 622.663H109.38C109.18 621.948 108.787 621.384 108.201 620.969C107.629 620.555 106.914 620.348 106.057 620.348C104.942 620.348 104.042 620.734 103.356 621.505C102.67 622.263 102.327 623.342 102.327 624.742C102.327 626.157 102.67 627.251 103.356 628.022C104.042 628.794 104.942 629.18 106.057 629.18C106.914 629.18 107.629 628.98 108.201 628.58C108.772 628.18 109.165 627.608 109.38 626.865H111.481C111.166 628.065 110.537 629.03 109.594 629.759C108.651 630.473 107.472 630.831 106.057 630.831C104.942 630.831 103.949 630.581 103.077 630.08C102.22 629.58 101.548 628.873 101.062 627.958C100.576 627.043 100.333 625.971 100.333 624.742ZM124.502 618.89V630.638H122.551V628.901C122.18 629.502 121.658 629.973 120.986 630.316C120.329 630.645 119.6 630.809 118.8 630.809C117.885 630.809 117.063 630.623 116.334 630.252C115.606 629.866 115.027 629.294 114.598 628.537C114.184 627.779 113.976 626.858 113.976 625.771V618.89H115.906V625.514C115.906 626.672 116.199 627.565 116.785 628.194C117.371 628.808 118.171 629.116 119.186 629.116C120.229 629.116 121.051 628.794 121.651 628.151C122.251 627.508 122.551 626.572 122.551 625.343V618.89H124.502ZM129.747 620.798C130.09 620.126 130.576 619.605 131.205 619.233C131.848 618.861 132.627 618.676 133.541 618.676V620.691H133.027C130.84 620.691 129.747 621.877 129.747 624.249V630.638H127.796V618.89H129.747V620.798ZM137.744 620.798C138.087 620.126 138.573 619.605 139.202 619.233C139.845 618.861 140.624 618.676 141.538 618.676V620.691H141.024C138.837 620.691 137.744 621.877 137.744 624.249V630.638H135.793V618.89H137.744V620.798ZM154.509 624.314C154.509 624.685 154.488 625.078 154.445 625.493H145.055C145.127 626.65 145.52 627.558 146.234 628.215C146.963 628.858 147.842 629.18 148.871 629.18C149.714 629.18 150.415 628.987 150.972 628.601C151.544 628.201 151.944 627.672 152.173 627.015H154.273C153.959 628.144 153.33 629.066 152.387 629.78C151.444 630.48 150.272 630.831 148.871 630.831C147.756 630.831 146.756 630.581 145.87 630.08C144.998 629.58 144.312 628.873 143.812 627.958C143.312 627.029 143.062 625.957 143.062 624.742C143.062 623.528 143.305 622.463 143.79 621.548C144.276 620.634 144.955 619.933 145.827 619.447C146.713 618.947 147.728 618.697 148.871 618.697C149.986 618.697 150.972 618.94 151.83 619.426C152.687 619.912 153.344 620.583 153.802 621.441C154.273 622.284 154.509 623.242 154.509 624.314ZM152.494 623.906C152.494 623.163 152.33 622.527 152.001 621.998C151.672 621.455 151.222 621.048 150.65 620.776C150.093 620.491 149.471 620.348 148.785 620.348C147.799 620.348 146.956 620.662 146.256 621.291C145.57 621.92 145.177 622.792 145.077 623.906H152.494ZM162.808 618.676C164.237 618.676 165.395 619.111 166.281 619.983C167.167 620.841 167.61 622.084 167.61 623.713V630.638H165.681V623.992C165.681 622.82 165.388 621.927 164.802 621.312C164.216 620.684 163.415 620.369 162.401 620.369C161.372 620.369 160.55 620.691 159.935 621.334C159.335 621.977 159.035 622.913 159.035 624.142V630.638H157.084V618.89H159.035V620.562C159.421 619.962 159.943 619.497 160.6 619.169C161.272 618.84 162.008 618.676 162.808 618.676ZM173.176 620.498V627.422C173.176 627.994 173.298 628.401 173.541 628.644C173.784 628.873 174.205 628.987 174.806 628.987H176.242V630.638H174.484C173.398 630.638 172.583 630.388 172.04 629.887C171.497 629.387 171.225 628.565 171.225 627.422V620.498H169.703V618.89H171.225V615.932H173.176V618.89H176.242V620.498H173.176ZM185.894 610.444L180.02 634.282H178.091L183.943 610.444H185.894ZM193.581 620.498H191.116V630.638H189.165V620.498H187.643V618.89H189.165V618.054C189.165 616.739 189.501 615.781 190.173 615.181C190.859 614.567 191.952 614.259 193.453 614.259V615.889C192.595 615.889 191.988 616.06 191.631 616.403C191.288 616.732 191.116 617.282 191.116 618.054V618.89H193.581V620.498ZM206.275 618.89V630.638H204.324V628.901C203.952 629.502 203.431 629.973 202.759 630.316C202.101 630.645 201.373 630.809 200.572 630.809C199.658 630.809 198.836 630.623 198.107 630.252C197.378 629.866 196.799 629.294 196.371 628.537C195.956 627.779 195.749 626.858 195.749 625.771V618.89H197.678V625.514C197.678 626.672 197.971 627.565 198.557 628.194C199.143 628.808 199.943 629.116 200.958 629.116C202.001 629.116 202.823 628.794 203.423 628.151C204.024 627.508 204.324 626.572 204.324 625.343V618.89H206.275ZM211.948 620.498V627.422C211.948 627.994 212.07 628.401 212.313 628.644C212.555 628.873 212.977 628.987 213.577 628.987H215.014V630.638H213.256C212.17 630.638 211.355 630.388 210.812 629.887C210.269 629.387 209.997 628.565 209.997 627.422V620.498H208.475V618.89H209.997V615.932H211.948V618.89H215.014V620.498H211.948ZM227.796 618.89V630.638H225.845V628.901C225.474 629.502 224.952 629.973 224.28 630.316C223.623 630.645 222.894 630.809 222.094 630.809C221.179 630.809 220.357 630.623 219.628 630.252C218.899 629.866 218.321 629.294 217.892 628.537C217.477 627.779 217.27 626.858 217.27 625.771V618.89H219.199V625.514C219.199 626.672 219.492 627.565 220.078 628.194C220.664 628.808 221.465 629.116 222.479 629.116C223.523 629.116 224.344 628.794 224.945 628.151C225.545 627.508 225.845 626.572 225.845 625.343V618.89H227.796ZM233.041 620.798C233.384 620.126 233.87 619.605 234.498 619.233C235.141 618.861 235.92 618.676 236.835 618.676V620.691H236.321C234.134 620.691 233.041 621.877 233.041 624.249V630.638H231.09V618.89H233.041V620.798ZM249.806 624.314C249.806 624.685 249.784 625.078 249.741 625.493H240.352C240.423 626.65 240.816 627.558 241.531 628.215C242.26 628.858 243.139 629.18 244.168 629.18C245.011 629.18 245.711 628.987 246.269 628.601C246.84 628.201 247.24 627.672 247.469 627.015H249.57C249.256 628.144 248.627 629.066 247.683 629.78C246.74 630.48 245.568 630.831 244.168 630.831C243.053 630.831 242.053 630.581 241.166 630.08C240.295 629.58 239.609 628.873 239.108 627.958C238.608 627.029 238.358 625.957 238.358 624.742C238.358 623.528 238.601 622.463 239.087 621.548C239.573 620.634 240.252 619.933 241.124 619.447C242.01 618.947 243.024 618.697 244.168 618.697C245.282 618.697 246.269 618.94 247.126 619.426C247.984 619.912 248.641 620.583 249.098 621.441C249.57 622.284 249.806 623.242 249.806 624.314ZM247.791 623.906C247.791 623.163 247.626 622.527 247.298 621.998C246.969 621.455 246.519 621.048 245.947 620.776C245.39 620.491 244.768 620.348 244.082 620.348C243.096 620.348 242.253 620.662 241.552 621.291C240.866 621.92 240.473 622.792 240.373 623.906H247.791ZM263.927 618.676C264.813 618.676 265.613 618.868 266.328 619.254C267.043 619.626 267.6 620.19 268 620.948C268.415 621.705 268.622 622.627 268.622 623.713V630.638H266.693V623.992C266.693 622.82 266.4 621.927 265.814 621.312C265.228 620.684 264.427 620.369 263.413 620.369C262.384 620.369 261.562 620.691 260.947 621.334C260.347 621.977 260.047 622.913 260.047 624.142V630.638H258.096V614.774H260.047V620.562C260.433 619.962 260.962 619.497 261.633 619.169C262.319 618.84 263.084 618.676 263.927 618.676ZM276.932 630.831C275.832 630.831 274.831 630.581 273.931 630.08C273.045 629.58 272.344 628.873 271.83 627.958C271.33 627.029 271.08 625.957 271.08 624.742C271.08 623.542 271.337 622.484 271.851 621.57C272.38 620.641 273.095 619.933 273.995 619.447C274.896 618.947 275.903 618.697 277.018 618.697C278.133 618.697 279.14 618.947 280.041 619.447C280.941 619.933 281.648 620.634 282.163 621.548C282.692 622.463 282.956 623.528 282.956 624.742C282.956 625.957 282.685 627.029 282.141 627.958C281.613 628.873 280.891 629.58 279.976 630.08C279.062 630.581 278.047 630.831 276.932 630.831ZM276.932 629.116C277.632 629.116 278.29 628.951 278.904 628.623C279.519 628.294 280.012 627.801 280.384 627.143C280.769 626.486 280.962 625.686 280.962 624.742C280.962 623.799 280.777 622.999 280.405 622.341C280.033 621.684 279.548 621.198 278.947 620.884C278.347 620.555 277.697 620.391 276.996 620.391C276.282 620.391 275.624 620.555 275.024 620.884C274.438 621.198 273.967 621.684 273.609 622.341C273.252 622.999 273.073 623.799 273.073 624.742C273.073 625.7 273.245 626.507 273.588 627.165C273.945 627.822 274.417 628.315 275.003 628.644C275.589 628.958 276.232 629.116 276.932 629.116ZM299.648 618.676C300.563 618.676 301.378 618.868 302.092 619.254C302.807 619.626 303.371 620.19 303.786 620.948C304.2 621.705 304.408 622.627 304.408 623.713V630.638H302.478V623.992C302.478 622.82 302.185 621.927 301.599 621.312C301.028 620.684 300.249 620.369 299.262 620.369C298.248 620.369 297.44 620.698 296.84 621.355C296.24 621.998 295.94 622.934 295.94 624.164V630.638H294.01V623.992C294.01 622.82 293.717 621.927 293.131 621.312C292.56 620.684 291.781 620.369 290.795 620.369C289.78 620.369 288.972 620.698 288.372 621.355C287.772 621.998 287.472 622.934 287.472 624.164V630.638H285.521V618.89H287.472V620.583C287.858 619.969 288.372 619.497 289.015 619.169C289.673 618.84 290.395 618.676 291.181 618.676C292.167 618.676 293.038 618.897 293.796 619.34C294.553 619.783 295.118 620.433 295.489 621.291C295.818 620.462 296.361 619.819 297.119 619.362C297.876 618.904 298.719 618.676 299.648 618.676ZM318.326 624.314C318.326 624.685 318.305 625.078 318.262 625.493H308.872C308.944 626.65 309.337 627.558 310.051 628.215C310.78 628.858 311.659 629.18 312.688 629.18C313.531 629.18 314.232 628.987 314.789 628.601C315.361 628.201 315.761 627.672 315.99 627.015H318.091C317.776 628.144 317.147 629.066 316.204 629.78C315.261 630.48 314.089 630.831 312.688 630.831C311.574 630.831 310.573 630.581 309.687 630.08C308.815 629.58 308.129 628.873 307.629 627.958C307.129 627.029 306.879 625.957 306.879 624.742C306.879 623.528 307.122 622.463 307.608 621.548C308.093 620.634 308.772 619.933 309.644 619.447C310.53 618.947 311.545 618.697 312.688 618.697C313.803 618.697 314.789 618.94 315.647 619.426C316.504 619.912 317.162 620.583 317.619 621.441C318.091 622.284 318.326 623.242 318.326 624.314ZM316.311 623.906C316.311 623.163 316.147 622.527 315.818 621.998C315.489 621.455 315.039 621.048 314.468 620.776C313.91 620.491 313.289 620.348 312.603 620.348C311.616 620.348 310.773 620.662 310.073 621.291C309.387 621.92 308.994 622.792 308.894 623.906H316.311ZM336.551 618.89L332.885 630.638H330.87L328.04 621.312L325.21 630.638H323.195L319.508 618.89H321.502L324.203 628.751L327.118 618.89H329.112L331.963 628.773L334.621 618.89H336.551ZM343.61 630.831C342.51 630.831 341.51 630.581 340.609 630.08C339.723 629.58 339.023 628.873 338.508 627.958C338.008 627.029 337.758 625.957 337.758 624.742C337.758 623.542 338.015 622.484 338.53 621.57C339.059 620.641 339.773 619.933 340.673 619.447C341.574 618.947 342.581 618.697 343.696 618.697C344.811 618.697 345.818 618.947 346.719 619.447C347.619 619.933 348.327 620.634 348.841 621.548C349.37 622.463 349.634 623.528 349.634 624.742C349.634 625.957 349.363 627.029 348.82 627.958C348.291 628.873 347.569 629.58 346.655 630.08C345.74 630.581 344.725 630.831 343.61 630.831ZM343.61 629.116C344.311 629.116 344.968 628.951 345.583 628.623C346.197 628.294 346.69 627.801 347.062 627.143C347.448 626.486 347.641 625.686 347.641 624.742C347.641 623.799 347.455 622.999 347.083 622.341C346.712 621.684 346.226 621.198 345.626 620.884C345.025 620.555 344.375 620.391 343.675 620.391C342.96 620.391 342.303 620.555 341.702 620.884C341.117 621.198 340.645 621.684 340.288 622.341C339.93 622.999 339.752 623.799 339.752 624.742C339.752 625.7 339.923 626.507 340.266 627.165C340.623 627.822 341.095 628.315 341.681 628.644C342.267 628.958 342.91 629.116 343.61 629.116ZM354.15 620.798C354.493 620.126 354.979 619.605 355.608 619.233C356.251 618.861 357.03 618.676 357.945 618.676V620.691H357.43C355.243 620.691 354.15 621.877 354.15 624.249V630.638H352.199V618.89H354.15V620.798ZM366.756 630.638L362.147 625.45V630.638H360.197V614.774H362.147V624.099L366.671 618.89H369.393L363.862 624.742L369.415 630.638H366.756ZM375.388 630.831C374.488 630.831 373.68 630.681 372.966 630.38C372.251 630.066 371.687 629.637 371.272 629.094C370.858 628.537 370.629 627.901 370.586 627.186H372.601C372.659 627.772 372.93 628.251 373.416 628.623C373.916 628.994 374.566 629.18 375.367 629.18C376.11 629.18 376.696 629.016 377.125 628.687C377.553 628.358 377.768 627.944 377.768 627.444C377.768 626.929 377.539 626.55 377.082 626.307C376.624 626.05 375.917 625.8 374.959 625.557C374.088 625.328 373.373 625.1 372.816 624.871C372.273 624.628 371.801 624.278 371.401 623.821C371.015 623.349 370.822 622.734 370.822 621.977C370.822 621.377 371.001 620.826 371.358 620.326C371.715 619.826 372.223 619.433 372.88 619.147C373.537 618.847 374.288 618.697 375.131 618.697C376.432 618.697 377.482 619.026 378.282 619.683C379.083 620.341 379.511 621.241 379.569 622.384H377.618C377.575 621.77 377.325 621.277 376.867 620.905C376.424 620.533 375.824 620.348 375.067 620.348C374.366 620.348 373.809 620.498 373.395 620.798C372.98 621.098 372.773 621.491 372.773 621.977C372.773 622.363 372.894 622.684 373.137 622.942C373.395 623.185 373.709 623.385 374.081 623.542C374.466 623.685 374.995 623.849 375.667 624.035C376.51 624.264 377.196 624.492 377.725 624.721C378.254 624.935 378.704 625.264 379.075 625.707C379.461 626.15 379.661 626.729 379.676 627.444C379.676 628.087 379.497 628.665 379.14 629.18C378.782 629.694 378.275 630.102 377.618 630.402C376.975 630.688 376.231 630.831 375.388 630.831ZM383.051 630.766C382.68 630.766 382.365 630.638 382.108 630.38C381.851 630.123 381.722 629.809 381.722 629.437C381.722 629.066 381.851 628.751 382.108 628.494C382.365 628.237 382.68 628.108 383.051 628.108C383.409 628.108 383.709 628.237 383.952 628.494C384.209 628.751 384.338 629.066 384.338 629.437C384.338 629.809 384.209 630.123 383.952 630.38C383.709 630.638 383.409 630.766 383.051 630.766Z" fill="black" fill-opacity="0.8"/>
</g>
<defs>
<linearGradient id="paint0_linear" x1="227.982" y1="342.843" x2="227.982" y2="112.156" gradientUnits="userSpaceOnUse">
<stop stop-color="#808080" stop-opacity="0.25"/>
<stop offset="0.54" stop-color="#808080" stop-opacity="0.12"/>
<stop offset="1" stop-color="#808080" stop-opacity="0.1"/>
</linearGradient>
<linearGradient id="paint1_linear" x1="6065.94" y1="5887.98" x2="6065.94" y2="4753.63" gradientUnits="userSpaceOnUse">
<stop stop-color="#808080" stop-opacity="0.25"/>
<stop offset="0.54" stop-color="#808080" stop-opacity="0.12"/>
<stop offset="1" stop-color="#808080" stop-opacity="0.1"/>
</linearGradient>
<linearGradient id="paint2_linear" x1="2995.14" y1="7446.3" x2="2995.14" y2="6311.95" gradientUnits="userSpaceOnUse">
<stop stop-color="#808080" stop-opacity="0.25"/>
<stop offset="0.54" stop-color="#808080" stop-opacity="0.12"/>
<stop offset="1" stop-color="#808080" stop-opacity="0.1"/>
</linearGradient>
<linearGradient id="paint3_linear" x1="9549.25" y1="9027.54" x2="9549.25" y2="7893.19" gradientUnits="userSpaceOnUse">
<stop stop-color="#808080" stop-opacity="0.25"/>
<stop offset="0.54" stop-color="#808080" stop-opacity="0.12"/>
<stop offset="1" stop-color="#808080" stop-opacity="0.1"/>
</linearGradient>
<linearGradient id="paint4_linear" x1="4897.2" y1="10585.9" x2="4897.2" y2="9451.51" gradientUnits="userSpaceOnUse">
<stop stop-color="#808080" stop-opacity="0.25"/>
<stop offset="0.54" stop-color="#808080" stop-opacity="0.12"/>
<stop offset="1" stop-color="#808080" stop-opacity="0.1"/>
</linearGradient>
<linearGradient id="paint5_linear" x1="1895.14" y1="12144.2" x2="1895.14" y2="11009.8" gradientUnits="userSpaceOnUse">
<stop stop-color="#808080" stop-opacity="0.25"/>
<stop offset="0.54" stop-color="#808080" stop-opacity="0.12"/>
<stop offset="1" stop-color="#808080" stop-opacity="0.1"/>
</linearGradient>
<linearGradient id="paint6_linear" x1="7968.01" y1="13702.5" x2="7968.01" y2="12568.1" gradientUnits="userSpaceOnUse">
<stop stop-color="#808080" stop-opacity="0.25"/>
<stop offset="0.54" stop-color="#808080" stop-opacity="0.12"/>
<stop offset="1" stop-color="#808080" stop-opacity="0.1"/>
</linearGradient>
<linearGradient id="paint7_linear" x1="17824.1" y1="9579.53" x2="17824.1" y2="8623.82" gradientUnits="userSpaceOnUse">
<stop stop-color="#808080" stop-opacity="0.25"/>
<stop offset="0.54" stop-color="#808080" stop-opacity="0.12"/>
<stop offset="1" stop-color="#808080" stop-opacity="0.1"/>
</linearGradient>
<linearGradient id="paint8_linear" x1="20654" y1="9579.53" x2="20654" y2="8623.82" gradientUnits="userSpaceOnUse">
<stop stop-color="#808080" stop-opacity="0.25"/>
<stop offset="0.54" stop-color="#808080" stop-opacity="0.12"/>
<stop offset="1" stop-color="#808080" stop-opacity="0.1"/>
</linearGradient>
<linearGradient id="paint9_linear" x1="23483.9" y1="9579.53" x2="23483.9" y2="8623.82" gradientUnits="userSpaceOnUse">
<stop stop-color="#808080" stop-opacity="0.25"/>
<stop offset="0.54" stop-color="#808080" stop-opacity="0.12"/>
<stop offset="1" stop-color="#808080" stop-opacity="0.1"/>
</linearGradient>
<linearGradient id="paint10_linear" x1="17824.1" y1="11063.5" x2="17824.1" y2="10107.8" gradientUnits="userSpaceOnUse">
<stop stop-color="#808080" stop-opacity="0.25"/>
<stop offset="0.54" stop-color="#808080" stop-opacity="0.12"/>
<stop offset="1" stop-color="#808080" stop-opacity="0.1"/>
</linearGradient>
<linearGradient id="paint11_linear" x1="20654" y1="11063.5" x2="20654" y2="10107.8" gradientUnits="userSpaceOnUse">
<stop stop-color="#808080" stop-opacity="0.25"/>
<stop offset="0.54" stop-color="#808080" stop-opacity="0.12"/>
<stop offset="1" stop-color="#808080" stop-opacity="0.1"/>
</linearGradient>
<linearGradient id="paint12_linear" x1="23483.9" y1="11063.5" x2="23483.9" y2="10107.8" gradientUnits="userSpaceOnUse">
<stop stop-color="#808080" stop-opacity="0.25"/>
<stop offset="0.54" stop-color="#808080" stop-opacity="0.12"/>
<stop offset="1" stop-color="#808080" stop-opacity="0.1"/>
</linearGradient>
<linearGradient id="paint13_linear" x1="17824.1" y1="12547.5" x2="17824.1" y2="11591.6" gradientUnits="userSpaceOnUse">
<stop stop-color="#808080" stop-opacity="0.25"/>
<stop offset="0.54" stop-color="#808080" stop-opacity="0.12"/>
<stop offset="1" stop-color="#808080" stop-opacity="0.1"/>
</linearGradient>
<linearGradient id="paint14_linear" x1="20654" y1="12547.5" x2="20654" y2="11591.6" gradientUnits="userSpaceOnUse">
<stop stop-color="#808080" stop-opacity="0.25"/>
<stop offset="0.54" stop-color="#808080" stop-opacity="0.12"/>
<stop offset="1" stop-color="#808080" stop-opacity="0.1"/>
</linearGradient>
<linearGradient id="paint15_linear" x1="23483.9" y1="12547.5" x2="23483.9" y2="11591.6" gradientUnits="userSpaceOnUse">
<stop stop-color="#808080" stop-opacity="0.25"/>
<stop offset="0.54" stop-color="#808080" stop-opacity="0.12"/>
<stop offset="1" stop-color="#808080" stop-opacity="0.1"/>
</linearGradient>
<linearGradient id="paint16_linear" x1="36671" y1="19292.7" x2="92293.6" y2="19292.7" gradientUnits="userSpaceOnUse">
<stop stop-color="#808080" stop-opacity="0.25"/>
<stop offset="0.54" stop-color="#808080" stop-opacity="0.12"/>
<stop offset="1" stop-color="#808080" stop-opacity="0.1"/>
</linearGradient>
<linearGradient id="paint17_linear" x1="17320.1" y1="3342.73" x2="17320.1" y2="1135.23" gradientUnits="userSpaceOnUse">
<stop stop-color="#808080" stop-opacity="0.25"/>
<stop offset="0.54" stop-color="#808080" stop-opacity="0.12"/>
<stop offset="1" stop-color="#808080" stop-opacity="0.1"/>
</linearGradient>
<linearGradient id="paint18_linear" x1="5976.56" y1="623.971" x2="5976.56" y2="585.98" gradientUnits="userSpaceOnUse">
<stop stop-color="#808080" stop-opacity="0.25"/>
<stop offset="0.54" stop-color="#808080" stop-opacity="0.12"/>
<stop offset="1" stop-color="#808080" stop-opacity="0.1"/>
</linearGradient>
<linearGradient id="paint19_linear" x1="15540.4" y1="3342.73" x2="15540.4" y2="1135.23" gradientUnits="userSpaceOnUse">
<stop stop-color="#808080" stop-opacity="0.25"/>
<stop offset="0.54" stop-color="#808080" stop-opacity="0.12"/>
<stop offset="1" stop-color="#808080" stop-opacity="0.1"/>
</linearGradient>
<linearGradient id="paint20_linear" x1="5480.16" y1="623.971" x2="5480.16" y2="585.98" gradientUnits="userSpaceOnUse">
<stop stop-color="#808080" stop-opacity="0.25"/>
<stop offset="0.54" stop-color="#808080" stop-opacity="0.12"/>
<stop offset="1" stop-color="#808080" stop-opacity="0.1"/>
</linearGradient>
<linearGradient id="paint21_linear" x1="16282.5" y1="3240.99" x2="16282.5" y2="1033.49" gradientUnits="userSpaceOnUse">
<stop stop-color="#808080" stop-opacity="0.25"/>
<stop offset="0.54" stop-color="#808080" stop-opacity="0.12"/>
<stop offset="1" stop-color="#808080" stop-opacity="0.1"/>
</linearGradient>
<linearGradient id="paint22_linear" x1="5687.59" y1="609.389" x2="5687.59" y2="571.398" gradientUnits="userSpaceOnUse">
<stop stop-color="#808080" stop-opacity="0.25"/>
<stop offset="0.54" stop-color="#808080" stop-opacity="0.12"/>
<stop offset="1" stop-color="#808080" stop-opacity="0.1"/>
</linearGradient>
<linearGradient id="paint23_linear" x1="21812.2" y1="9407.17" x2="21812.2" y2="6679.73" gradientUnits="userSpaceOnUse">
<stop stop-color="#808080" stop-opacity="0.25"/>
<stop offset="0.54" stop-color="#808080" stop-opacity="0.12"/>
<stop offset="1" stop-color="#808080" stop-opacity="0.1"/>
</linearGradient>
<linearGradient id="paint24_linear" x1="25447.2" y1="9407.17" x2="25447.2" y2="6679.73" gradientUnits="userSpaceOnUse">
<stop stop-color="#808080" stop-opacity="0.25"/>
<stop offset="0.54" stop-color="#808080" stop-opacity="0.12"/>
<stop offset="1" stop-color="#808080" stop-opacity="0.1"/>
</linearGradient>
<linearGradient id="paint25_linear" x1="21812.2" y1="12654" x2="21812.2" y2="9926.56" gradientUnits="userSpaceOnUse">
<stop stop-color="#808080" stop-opacity="0.25"/>
<stop offset="0.54" stop-color="#808080" stop-opacity="0.12"/>
<stop offset="1" stop-color="#808080" stop-opacity="0.1"/>
</linearGradient>
<linearGradient id="paint26_linear" x1="25447.2" y1="12654" x2="25447.2" y2="9926.56" gradientUnits="userSpaceOnUse">
<stop stop-color="#808080" stop-opacity="0.25"/>
<stop offset="0.54" stop-color="#808080" stop-opacity="0.12"/>
<stop offset="1" stop-color="#808080" stop-opacity="0.1"/>
</linearGradient>
<clipPath id="clip0">
<rect width="455.548" height="680.642" fill="white" transform="translate(0.0952148)"/>
</clipPath>
<clipPath id="clip1">
<rect width="379.96" height="349" fill="white" transform="translate(38 53)"/>
</clipPath>
</defs>
</svg>
