<svg width="456" height="681" viewBox="0 0 456 681" fill="none" xmlns="http://www.w3.org/2000/svg">
<g clip-path="url(#clip0)">
<rect width="455.548" height="680.642" rx="26.7969" fill="black" fill-opacity="0.5"/>
<rect x="25.457" y="26.7969" width="401.954" height="401.954" fill="white"/>
<g clip-path="url(#clip1)">
<path d="M300.898 150.917H298.482C298.005 150.917 297.619 151.304 297.619 151.781V184.209C297.619 184.685 298.005 185.072 298.482 185.072H300.898C301.374 185.072 301.761 184.685 301.761 184.209V151.781C301.761 151.304 301.374 150.917 300.898 150.917Z" fill="#3F3D56"/>
<path d="M285.166 87H175.998C167.886 87 161.31 93.5804 161.31 101.698V354.066C161.31 362.183 167.886 368.764 175.998 368.764H285.166C293.277 368.764 299.853 362.183 299.853 354.066V101.698C299.853 93.5804 293.277 87 285.166 87Z" fill="#3F3D56"/>
<path d="M280.57 94.3389H264.678V96.252C264.678 97.4428 264.443 98.6219 263.988 99.7221C263.532 100.822 262.865 101.822 262.023 102.664C261.181 103.505 260.182 104.173 259.082 104.628C257.983 105.083 256.804 105.317 255.614 105.317H205.072C203.882 105.317 202.704 105.083 201.604 104.628C200.505 104.173 199.506 103.505 198.664 102.664C197.822 101.822 197.154 100.822 196.699 99.7221C196.243 98.6219 196.009 97.4428 196.009 96.252V94.3389H181.129C178.211 94.3389 175.412 95.4989 173.349 97.5638C171.285 99.6288 170.126 102.429 170.126 105.35V350.433C170.126 353.353 171.285 356.154 173.349 358.219C175.412 360.283 178.211 361.444 181.129 361.444H280.57C283.488 361.444 286.287 360.283 288.351 358.219C290.414 356.154 291.573 353.353 291.573 350.433V105.368C291.576 103.921 291.293 102.487 290.741 101.149C290.189 99.811 289.379 98.5949 288.357 97.5705C287.335 96.5461 286.121 95.7333 284.785 95.1788C283.449 94.6243 282.017 94.3389 280.57 94.3389Z" fill="white"/>
<path d="M235.107 95.4146H218.676C217.871 95.4146 217.218 96.0677 217.218 96.8734V97.8848C217.218 98.6905 217.871 99.3436 218.676 99.3436H235.107C235.912 99.3436 236.565 98.6905 236.565 97.8848V96.8734C236.565 96.0677 235.912 95.4146 235.107 95.4146Z" fill="#E6E8EC"/>
<path d="M241.72 99.6104C242.952 99.6104 243.95 98.6115 243.95 97.3792C243.95 96.1469 242.952 95.1479 241.72 95.1479C240.489 95.1479 239.491 96.1469 239.491 97.3792C239.491 98.6115 240.489 99.6104 241.72 99.6104Z" fill="#E6E8EC"/>
<path d="M231.428 257.567C245.902 257.567 257.636 245.825 257.636 231.341C257.636 216.856 245.902 205.114 231.428 205.114C216.953 205.114 205.219 216.856 205.219 231.341C205.219 245.825 216.953 257.567 231.428 257.567Z" fill="white"/>
<path d="M265.899 227.679C265.899 234.612 263.844 241.389 259.995 247.153C256.146 252.917 250.675 257.41 244.274 260.063C237.873 262.716 230.83 263.409 224.035 262.057C217.241 260.704 210.999 257.365 206.101 252.463C201.202 247.561 197.866 241.315 196.515 234.515C195.163 227.715 195.857 220.668 198.509 214.263C201.16 207.858 205.65 202.383 211.41 198.532C217.171 194.68 223.943 192.625 230.871 192.625C235.471 192.625 240.026 193.532 244.276 195.294C248.526 197.055 252.387 199.637 255.64 202.893C258.893 206.148 261.473 210.012 263.233 214.265C264.993 218.518 265.899 223.076 265.899 227.679ZM226.822 246.233L252.806 220.231C253.016 220.021 253.183 219.772 253.297 219.498C253.411 219.223 253.47 218.929 253.47 218.632C253.47 218.334 253.411 218.04 253.297 217.766C253.183 217.491 253.016 217.242 252.806 217.032L249.609 213.856C249.4 213.646 249.151 213.479 248.877 213.365C248.603 213.251 248.309 213.192 248.013 213.192C247.716 213.192 247.422 213.251 247.149 213.365C246.875 213.479 246.626 213.646 246.416 213.856L225.224 235.064L215.329 225.138C214.904 224.715 214.329 224.478 213.73 224.478C213.131 224.478 212.556 224.715 212.132 225.138L208.935 228.356C208.512 228.781 208.275 229.356 208.275 229.956C208.275 230.555 208.512 231.131 208.935 231.556L223.626 246.252C223.836 246.462 224.085 246.629 224.359 246.743C224.633 246.857 224.927 246.916 225.224 246.916C225.521 246.916 225.816 246.857 226.09 246.743C226.364 246.629 226.613 246.462 226.823 246.252L226.822 246.233Z" fill="#6C63FF"/>
<path d="M165.648 142.548H165.285C164.809 142.548 164.422 142.935 164.422 143.412V151.793C164.422 152.269 164.809 152.656 165.285 152.656H165.648C166.124 152.656 166.51 152.269 166.51 151.793V143.412C166.51 142.935 166.124 142.548 165.648 142.548Z" fill="#3F3D56"/>
<path d="M165.837 161.056H165.209C164.733 161.056 164.347 161.443 164.347 161.919V177.784C164.347 178.261 164.733 178.648 165.209 178.648H165.837C166.313 178.648 166.7 178.261 166.7 177.784V161.919C166.7 161.443 166.313 161.056 165.837 161.056Z" fill="#3F3D56"/>
<path d="M165.761 184.803H165.247C164.771 184.803 164.384 185.189 164.384 185.666V201.682C164.384 202.159 164.771 202.545 165.247 202.545H165.761C166.238 202.545 166.624 202.159 166.624 201.682V185.666C166.624 185.189 166.238 184.803 165.761 184.803Z" fill="#3F3D56"/>
<path d="M136.633 231.72C136.693 231.778 136.77 231.815 136.853 231.826C136.935 231.836 137.019 231.82 137.091 231.779C136.937 231.781 136.782 231.762 136.633 231.72Z" fill="url(#paint0_linear)"/>
<path d="M153.948 238.498L153.496 240.961L153.147 242.846L152.513 246.294L146.361 250.603C146.361 250.603 145.807 250.128 144.892 249.38C142.371 247.303 137.073 243.073 133.182 240.803C132.182 240.164 131.099 239.665 129.964 239.319L153.948 238.498Z" fill="#FEB9B9"/>
<path d="M149.435 240.331C149.435 240.331 156.607 241.563 157.028 238.498C157.448 235.433 153.336 233.776 149.851 233.57C146.367 233.364 125.453 234.802 125.453 234.802C125.453 234.802 121.764 239.725 135.087 240.55L149.435 240.331Z" fill="#3F3D56"/>
<path d="M165.12 139.189H127.6V183.71H165.12V139.189Z" fill="#2F2E41"/>
<path opacity="0.1" d="M165.12 139.391H127.6V183.912H165.12V139.391Z" fill="black"/>
<path d="M83.6273 215.402C83.0095 215.558 82.2199 216.156 81.3418 217.021C77.5604 220.767 72.1446 229.559 72.1446 229.559C65.2204 221.305 72.8825 214.784 76.1486 212.543C76.9426 212.001 77.4761 211.702 77.4761 211.702L83.6273 215.402Z" fill="#FEB9B9"/>
<path d="M153.536 153.24C153.536 153.24 155.382 166.165 161.737 169.242C168.093 172.32 153.536 178.072 153.536 178.072L133.65 170.68C133.65 170.68 144.927 166.986 142.671 156.112L153.536 153.24Z" fill="#FEB9B9"/>
<path d="M132.214 230.997L131.764 233.453L131.399 235.345L130.764 238.792L124.613 243.098C124.613 243.098 124.059 242.627 123.144 241.879C120.623 239.801 115.325 235.572 111.429 233.301C110.428 232.662 109.345 232.163 108.21 231.817L132.214 230.997Z" fill="#FEB9B9"/>
<path d="M126.893 234.025C126.893 234.025 133.329 234.071 133.717 230.997C134.104 227.923 130.209 226.276 126.893 226.069C123.576 225.863 103.428 227.397 103.428 227.397C103.428 227.397 100.57 233.202 113.243 234.025L126.893 234.025Z" fill="#2F2E41"/>
<path d="M172.023 282.312C171.741 282.174 171.46 282.031 171.182 281.892L170.426 280.937L160.506 268.349V268.568C160.439 270.67 159.725 287.328 154.154 288.867C148.208 290.507 141.036 290.919 137.767 279.84C134.498 268.762 128.524 244.553 122.389 243.115L131.515 235.627C131.515 235.627 137.557 242.699 140.018 249.468C139.926 249.047 135.754 229.539 139.178 226.087H169.117C169.117 226.087 173.738 239.26 176.906 245.785C179.372 250.851 183.074 262.83 185.457 270.936C187.816 278.94 179.527 286.008 172.023 282.312Z" fill="#3F3D56"/>
<path opacity="0.1" d="M171.17 229.765C166.548 232.502 146.259 231.388 139.659 230.942L137.86 230.812C137.667 230.812 137.89 230.703 137.89 230.703L138.074 228.84L142.995 216.327L169.338 201.04C168.804 202.65 168.628 205.114 168.67 207.935C168.792 217 171.17 229.765 171.17 229.765Z" fill="black"/>
<path d="M171.17 229.147C166.548 231.884 146.259 230.77 139.658 230.325L137.86 230.198L137.562 230.173L137.889 230.089L139.511 229.669L142.994 215.718L169.338 200.435C168.804 202.045 168.627 204.509 168.67 207.33C168.792 216.387 171.17 229.147 171.17 229.147Z" fill="#EFEFEF"/>
<path opacity="0.1" d="M168.653 207.322C163.296 208.558 151.507 212.185 146.978 220.944C143.957 226.776 141.415 229.277 139.642 230.324L137.843 230.198C137.855 230.162 137.865 230.126 137.873 230.089L139.494 229.668L142.977 215.718L169.321 200.435C168.794 202.037 168.611 204.501 168.653 207.322Z" fill="black"/>
<path opacity="0.1" d="M77.4759 211.711L83.6271 215.403C83.0093 215.559 82.2198 216.157 81.3417 217.022C80.829 215.525 77.6123 213.435 76.1484 212.544C76.9422 212.01 77.4759 211.711 77.4759 211.711Z" fill="black"/>
<path opacity="0.1" d="M136.747 230.438C136.68 230.473 136.603 230.486 136.528 230.476C136.452 230.465 136.382 230.431 136.327 230.379C136.464 230.419 136.605 230.439 136.747 230.438Z" fill="black"/>
<path d="M150.667 168.422C150.667 168.422 145.129 169.036 141.235 164.933C141.235 164.933 124.848 169.654 119.299 180.321C113.749 190.987 76.0225 211.917 76.0225 211.917C76.0225 211.917 82.5854 215.609 81.9676 217.454L106.778 203.092C106.778 203.092 115.601 196.735 118.05 195.297C120.5 193.859 134.046 185.038 136.915 209.042C139.785 233.045 136.915 230.173 136.915 230.173C136.915 230.173 141.016 231.611 146.961 220.12C152.906 208.629 171.356 205.964 171.356 205.964L172.381 193.863C172.381 193.863 176.04 185.841 173.221 182.511C172.367 181.525 171.799 180.324 171.578 179.038C171.112 175.965 171.578 170.844 178.107 166.589C188.153 160.022 192.048 154.69 192.048 154.69C192.048 154.69 192.253 150.789 186.103 148.943C179.952 147.097 154.94 137.044 154.94 137.044L154.099 140.534L173.834 154.472C173.834 154.472 163.994 162.46 156.188 162.267C156.188 162.267 157.637 168.216 150.667 168.422Z" fill="#6C63FF"/>
<path opacity="0.1" d="M154.465 158.866C153.98 157.221 153.601 155.547 153.33 153.854L142.465 156.726C142.944 158.802 142.859 160.968 142.217 163C144.439 163.593 146.786 163.517 148.964 162.782C151.143 162.046 153.056 160.684 154.465 158.866Z" fill="black"/>
<path d="M145.44 162.78C151.893 162.78 157.125 157.545 157.125 151.088C157.125 144.63 151.893 139.395 145.44 139.395C138.987 139.395 133.755 144.63 133.755 151.088C133.755 157.545 138.987 162.78 145.44 162.78Z" fill="#FEB9B9"/>
<path opacity="0.1" d="M158.15 245.254C158.15 245.254 164.914 258.591 162.864 262.69L158.15 245.254Z" fill="black"/>
<path d="M151.654 124.082C154.897 124.452 157.977 125.844 161.17 126.605C161.968 126.853 162.818 126.885 163.632 126.697C164.872 126.315 165.88 125.016 167.166 125.053C167.957 125.079 168.657 125.617 169.309 126.134C170.353 126.934 171.336 127.811 172.25 128.757C174.451 131.15 175.817 134.37 177.825 136.973C179.833 139.576 182.697 142.627 185.55 141.434C183.609 149.002 177.556 153.736 170.678 154.207C167.935 154.396 165.124 153.825 162.468 154.628C161.807 154.899 161.109 155.069 160.397 155.132C158.867 155.132 157.636 153.728 156.682 152.361C154.447 149.149 152.678 145.504 150.162 142.574C149.321 141.602 148.351 140.682 147.174 140.505C145.998 140.329 144.918 140.892 143.872 141.434C142.145 142.33 140.381 143.255 139.041 144.798C137.7 146.341 136.856 148.62 137.41 150.684C137.708 151.803 138.39 152.812 138.402 153.98C138.427 155.847 136.78 157.21 136.456 159.026C136.383 159.789 136.357 160.555 136.376 161.321C136.234 163.809 134.606 165.845 132.911 167.414C132.247 168.019 131.517 168.675 131.323 169.612C131.192 170.256 131.323 170.932 131.239 171.584C130.991 173.199 129.381 174.019 127.957 174.229C126.293 174.476 124.593 174.274 123.033 173.645C125.025 172.702 126.251 170.021 125.789 167.62C125.155 164.29 121.81 161.897 122.098 158.509C122.255 157.469 122.566 156.459 123.022 155.511C123.751 153.68 124.28 151.776 124.602 149.831C124.854 148.33 124.976 146.737 124.505 145.303C124.085 144 123.207 142.961 122.463 141.86C121.455 140.361 120.659 138.729 120.098 137.012C119.894 136.502 119.817 135.951 119.872 135.406C120.04 134.761 120.399 134.182 120.901 133.745C122.729 131.822 124.682 129.826 127.132 129.275C128.301 129.081 129.49 129.036 130.67 129.141C132.722 129.205 134.777 129.118 136.816 128.88C138.497 128.682 141.337 128.708 142.762 127.619C144.089 126.601 144.837 125.323 146.471 124.676C148.126 124.062 149.905 123.858 151.656 124.083L151.654 124.082Z" fill="#2F2E41"/>
<path d="M368.766 368.064C378.127 368.064 385.716 366.78 385.716 365.195C385.716 363.611 378.127 362.327 368.766 362.327C359.405 362.327 351.816 363.611 351.816 365.195C351.816 366.78 359.405 368.064 368.766 368.064Z" fill="#6C63FF"/>
<path d="M375.776 360.505C376.549 359.873 377.112 359.021 377.391 358.062C377.601 357.097 377.188 355.951 376.26 355.578C375.223 355.181 374.113 355.903 373.276 356.628C372.438 357.353 371.472 358.185 370.371 358.029C370.938 357.516 371.362 356.866 371.602 356.141C371.843 355.415 371.891 354.64 371.743 353.891C371.694 353.58 371.561 353.288 371.36 353.047C370.786 352.431 369.74 352.693 369.054 353.182C366.862 354.721 366.251 357.705 366.238 360.382C366.014 359.416 366.204 358.408 366.196 357.429C366.187 356.451 365.922 355.318 365.083 354.801C364.565 354.523 363.984 354.387 363.397 354.405C362.411 354.367 361.314 354.468 360.64 355.189C359.797 356.083 360.025 357.585 360.75 358.564C361.475 359.542 362.583 360.171 363.604 360.85C364.419 361.337 365.114 362.002 365.638 362.795C365.701 362.906 365.751 363.023 365.788 363.145H371.947C373.336 362.442 374.623 361.554 375.775 360.506L375.776 360.505Z" fill="#6C63FF"/>
<path d="M138.318 369.329C144.495 369.329 149.503 368.482 149.503 367.436C149.503 366.391 144.495 365.543 138.318 365.543C132.14 365.543 127.132 366.391 127.132 367.436C127.132 368.482 132.14 369.329 138.318 369.329Z" fill="#EFEFEF"/>
<path d="M142.944 364.341C143.454 363.924 143.825 363.362 144.009 362.729C144.09 362.411 144.061 362.076 143.925 361.778C143.789 361.479 143.556 361.236 143.264 361.089C142.579 360.827 141.848 361.304 141.294 361.782C140.741 362.261 140.103 362.81 139.378 362.707C139.751 362.368 140.031 361.939 140.189 361.46C140.348 360.982 140.38 360.47 140.282 359.976C140.249 359.771 140.162 359.578 140.028 359.419C139.652 359.013 138.96 359.185 138.507 359.508C137.06 360.526 136.657 362.492 136.649 364.26C136.501 363.623 136.626 362.957 136.621 362.312C136.615 361.666 136.44 360.92 135.886 360.577C135.545 360.394 135.161 360.304 134.773 360.316C134.123 360.291 133.399 360.358 132.954 360.834C132.398 361.424 132.548 362.415 133.026 363.061C133.505 363.707 134.236 364.122 134.91 364.569C135.448 364.89 135.907 365.328 136.254 365.85C136.295 365.924 136.329 366.001 136.354 366.082H140.418C141.334 365.617 142.184 365.031 142.944 364.339V364.341Z" fill="#EFEFEF"/>
<path d="M75.0569 369.329C81.2347 369.329 86.2428 368.482 86.2428 367.436C86.2428 366.391 81.2347 365.543 75.0569 365.543C68.8792 365.543 63.8711 366.391 63.8711 367.436C63.8711 368.482 68.8792 369.329 75.0569 369.329Z" fill="#EFEFEF"/>
<path d="M79.6835 364.341C80.1933 363.924 80.5647 363.362 80.7488 362.729C80.8299 362.411 80.8002 362.076 80.6647 361.778C80.5291 361.479 80.2958 361.236 80.0033 361.089C79.3189 360.827 78.5873 361.304 78.0339 361.782C77.4805 362.261 76.8432 362.81 76.1173 362.707C76.4909 362.368 76.7706 361.939 76.929 361.46C77.0875 360.982 77.1193 360.47 77.0214 359.976C76.9888 359.771 76.9013 359.578 76.7682 359.419C76.3915 359.013 75.6999 359.185 75.2467 359.508C73.8002 360.526 73.3967 362.492 73.3884 364.26C73.2411 363.623 73.3662 362.957 73.3605 362.312C73.3549 361.666 73.1797 360.92 72.626 360.577C72.2844 360.394 71.9006 360.304 71.5132 360.316C70.8622 360.291 70.139 360.358 69.6937 360.834C69.1373 361.424 69.2876 362.415 69.766 363.061C70.2445 363.707 70.976 364.122 71.6496 364.569C72.1879 364.89 72.6472 365.328 72.9933 365.85C73.0349 365.924 73.0685 366.001 73.0935 366.082H77.1577C78.0741 365.617 78.9237 365.031 79.6835 364.339V364.341Z" fill="#EFEFEF"/>
<path d="M398 368.249H58V368.935H398V368.249Z" fill="#2F2E41"/>
<path d="M381.404 106.046C381.404 106.046 345.91 103.903 350.092 128.791C350.092 128.791 349.249 133.19 353.245 135.185C353.245 135.185 353.308 133.342 356.887 133.971C358.161 134.182 359.456 134.244 360.744 134.156C362.482 134.042 364.136 133.365 365.457 132.228C365.457 132.228 375.434 128.103 379.313 111.787C379.313 111.787 382.183 108.227 382.069 107.311L376.08 109.871C376.08 109.871 378.128 114.195 376.501 117.787C376.501 117.787 376.307 110.026 375.156 110.195C374.925 110.229 372.046 111.692 372.046 111.692C372.046 111.692 375.565 119.221 372.91 124.697C372.91 124.697 373.917 115.417 370.945 112.236L366.73 114.7C366.73 114.7 370.844 122.478 368.054 128.827C368.054 128.827 368.769 119.091 365.84 115.299L362.021 118.281C362.021 118.281 365.887 125.945 363.531 131.211C363.531 131.211 363.223 119.88 361.195 119.024C361.195 119.024 357.852 121.977 357.342 123.183C357.342 123.183 359.989 128.751 358.345 131.687C358.345 131.687 357.338 124.137 356.511 124.094C356.511 124.094 353.181 129.097 352.836 132.531C352.836 132.531 352.979 127.431 355.706 123.622C355.706 123.622 352.486 124.175 350.605 126.261C350.605 126.261 351.124 122.726 356.528 122.414C356.528 122.414 359.281 118.618 360.014 118.39C360.014 118.39 354.644 117.937 351.385 119.385C351.385 119.385 354.252 116.049 361.001 117.567L364.773 114.484C364.773 114.484 357.7 113.518 354.699 114.585C354.699 114.585 358.151 111.632 365.789 113.784L369.895 111.329C369.895 111.329 363.863 110.029 360.272 110.485C360.272 110.485 364.065 108.439 371.101 110.658L374.051 109.339C374.051 109.339 369.634 108.47 368.34 108.331C367.045 108.191 366.978 107.837 366.978 107.837C369.777 107.37 372.65 107.69 375.278 108.761C375.278 108.761 381.509 106.438 381.404 106.046Z" fill="#6C63FF"/>
<path d="M332.772 92.8699C332.772 92.8699 316.754 91.9037 318.626 103.15C318.626 103.15 318.249 105.137 320.05 106.039C320.05 106.039 320.08 105.195 321.698 105.487C322.273 105.583 322.858 105.612 323.439 105.571C324.226 105.519 324.973 105.211 325.568 104.693C325.568 104.693 330.078 102.829 331.832 95.4555C331.832 95.4555 333.126 93.8485 333.075 93.435L330.369 94.5907C330.369 94.5907 331.292 96.5438 330.567 98.1677C330.567 98.1677 330.478 94.662 329.96 94.7427C329.854 94.7427 328.552 95.4212 328.552 95.4212C328.552 95.4212 330.145 98.8252 328.944 101.297C328.944 101.297 329.399 97.1043 328.055 95.6658L326.149 96.7967C326.149 96.7967 328.008 100.31 326.748 103.179C326.748 103.179 327.073 98.7796 325.749 97.067L324.025 98.4169C324.025 98.4169 325.77 101.88 324.708 104.26C324.708 104.26 324.564 99.1388 323.649 98.7509C323.649 98.7509 322.14 100.084 321.908 100.632C321.908 100.632 323.105 103.163 322.364 104.475C322.364 104.475 321.908 101.062 321.521 101.045C321.521 101.045 320.016 103.307 319.86 104.841C319.935 103.41 320.383 102.022 321.158 100.817C320.29 100.982 319.488 101.397 318.852 102.011C318.852 102.011 319.089 100.412 321.529 100.273C321.529 100.273 322.794 98.5564 323.106 98.4509C323.106 98.4509 320.678 98.2484 319.207 98.9032C319.207 98.9032 320.501 97.3972 323.548 98.0807L325.235 96.6885C325.235 96.6885 322.036 96.2626 320.68 96.7323C320.68 96.7323 322.24 95.3993 325.692 96.3696L327.547 95.2602C327.547 95.2602 324.82 94.674 323.197 94.8833C323.197 94.8833 324.913 93.9593 328.091 94.9587L329.419 94.3638C329.419 94.3638 327.423 93.9714 326.835 93.9081C326.247 93.8447 326.219 93.6845 326.219 93.6845C327.485 93.4739 328.784 93.6199 329.971 94.1063C329.971 94.1063 332.822 93.0456 332.772 92.8699Z" fill="#3F3D56"/>
<path d="M85.7524 264.553C85.7524 264.553 69.7342 263.587 71.6057 274.833C71.6057 274.833 71.229 276.82 73.0304 277.722C73.0304 277.722 73.0598 276.879 74.6785 277.17C75.2533 277.266 75.8377 277.295 76.4192 277.254C77.2055 277.202 77.9532 276.894 78.5479 276.376C78.5479 276.376 83.0582 274.512 84.8118 267.139C84.8118 267.139 86.1058 265.532 86.0549 265.118L83.3487 266.274C83.3487 266.274 84.272 268.227 83.5468 269.851C83.5468 269.851 83.4583 266.345 82.9399 266.426C82.8345 266.426 81.5318 267.104 81.5318 267.104C81.5318 267.104 83.1253 270.508 81.924 272.98C81.924 272.98 82.379 268.787 81.0346 267.349L79.1292 268.48C79.1292 268.48 80.9882 271.994 79.7278 274.862C79.7278 274.862 80.0525 270.463 78.7288 268.75L77.0046 270.1C77.0046 270.1 78.7499 273.563 77.6876 275.943C77.6876 275.943 77.5444 270.822 76.6294 270.434C76.6294 270.434 75.1203 271.767 74.8883 272.315C74.8883 272.315 76.0854 274.846 75.3437 276.158C75.3437 276.158 74.8883 272.746 74.5007 272.728C74.5007 272.728 72.9957 274.99 72.8398 276.524C72.9151 275.093 73.3627 273.706 74.1383 272.5C73.2698 272.665 72.4684 273.08 71.8325 273.694C71.8325 273.694 72.0687 272.095 74.5093 271.956C74.5093 271.956 75.7739 270.24 76.0858 270.134C76.0858 270.134 73.658 269.932 72.1866 270.586C72.1866 270.586 73.4805 269.08 76.5285 269.764L78.2146 268.372C78.2146 268.372 75.0164 267.946 73.6602 268.415C73.6602 268.415 75.2198 267.082 78.6723 268.053L80.5272 266.943C80.5272 266.943 77.7998 266.357 76.177 266.566C76.177 266.566 77.8925 265.642 81.0711 266.642L82.399 266.047C82.399 266.047 80.4025 265.654 79.8148 265.591C79.2272 265.528 79.1993 265.368 79.1993 265.368C80.4647 265.157 81.7637 265.303 82.9509 265.789C82.9509 265.789 85.8017 264.729 85.7524 264.553Z" fill="#3F3D56"/>
</g>
<rect x="25.457" y="451.528" width="403.294" height="58.9532" rx="13.3985" fill="white"/>
<path d="M143.715 470.458V477.018H151.433V480.009H143.715V486.858H152.397V489.849H140.049V467.468H152.397V470.458H143.715ZM165.852 471.841C167.246 471.841 168.489 472.131 169.582 472.709C170.697 473.288 171.565 474.146 172.187 475.282C172.809 476.418 173.119 477.79 173.119 479.398V489.849H169.486V479.944C169.486 478.358 169.089 477.147 168.296 476.311C167.503 475.453 166.42 475.025 165.048 475.025C163.676 475.025 162.583 475.453 161.768 476.311C160.975 477.147 160.578 478.358 160.578 479.944V489.849H156.913V472.131H160.578V474.156C161.179 473.427 161.94 472.859 162.862 472.452C163.805 472.045 164.802 471.841 165.852 471.841ZM181.461 474.703C181.997 473.803 182.705 473.106 183.584 472.613C184.484 472.098 185.545 471.841 186.767 471.841V475.636H185.835C184.398 475.636 183.305 476 182.555 476.729C181.826 477.458 181.461 478.723 181.461 480.523V489.849H177.795V472.131H181.461V474.703ZM197.822 490.138C196.15 490.138 194.639 489.763 193.288 489.013C191.937 488.241 190.876 487.169 190.105 485.797C189.333 484.403 188.947 482.796 188.947 480.973C188.947 479.173 189.343 477.576 190.137 476.182C190.93 474.789 192.012 473.717 193.384 472.967C194.756 472.216 196.289 471.841 197.983 471.841C199.676 471.841 201.209 472.216 202.581 472.967C203.953 473.717 205.036 474.789 205.829 476.182C206.622 477.576 207.019 479.173 207.019 480.973C207.019 482.774 206.611 484.371 205.797 485.765C204.982 487.158 203.867 488.241 202.453 489.013C201.059 489.763 199.516 490.138 197.822 490.138ZM197.822 486.955C198.765 486.955 199.644 486.729 200.459 486.279C201.295 485.829 201.97 485.154 202.485 484.253C202.999 483.353 203.256 482.26 203.256 480.973C203.256 479.687 203.01 478.605 202.517 477.726C202.024 476.825 201.37 476.15 200.555 475.7C199.741 475.25 198.862 475.025 197.918 475.025C196.975 475.025 196.096 475.25 195.282 475.7C194.488 476.15 193.856 476.825 193.384 477.726C192.913 478.605 192.677 479.687 192.677 480.973C192.677 482.881 193.159 484.361 194.124 485.411C195.11 486.44 196.343 486.955 197.822 486.955ZM214.308 466.053V489.849H210.643V466.053H214.308ZM222.787 466.053V489.849H219.121V466.053H222.787ZM234.731 480.909C234.731 479.13 235.096 477.554 235.825 476.182C236.575 474.81 237.582 473.749 238.847 472.999C240.133 472.227 241.559 471.841 243.124 471.841C244.282 471.841 245.418 472.098 246.533 472.613C247.669 473.106 248.569 473.77 249.234 474.607V466.053H252.932V489.849H249.234V487.18C248.633 488.037 247.797 488.745 246.725 489.302C245.675 489.859 244.464 490.138 243.092 490.138C241.548 490.138 240.133 489.752 238.847 488.98C237.582 488.187 236.575 487.094 235.825 485.7C235.096 484.286 234.731 482.688 234.731 480.909ZM249.234 480.973C249.234 479.752 248.976 478.69 248.462 477.79C247.969 476.89 247.315 476.204 246.5 475.732C245.686 475.26 244.807 475.025 243.864 475.025C242.92 475.025 242.041 475.26 241.227 475.732C240.412 476.182 239.748 476.857 239.233 477.758C238.74 478.637 238.493 479.687 238.493 480.909C238.493 482.131 238.74 483.203 239.233 484.125C239.748 485.047 240.412 485.754 241.227 486.247C242.063 486.719 242.942 486.955 243.864 486.955C244.807 486.955 245.686 486.719 246.5 486.247C247.315 485.776 247.969 485.089 248.462 484.189C248.976 483.267 249.234 482.195 249.234 480.973ZM265.432 490.138C263.76 490.138 262.248 489.763 260.898 489.013C259.547 488.241 258.486 487.169 257.714 485.797C256.943 484.403 256.557 482.796 256.557 480.973C256.557 479.173 256.953 477.576 257.747 476.182C258.54 474.789 259.622 473.717 260.994 472.967C262.366 472.216 263.899 471.841 265.593 471.841C267.286 471.841 268.819 472.216 270.191 472.967C271.563 473.717 272.646 474.789 273.439 476.182C274.232 477.576 274.629 479.173 274.629 480.973C274.629 482.774 274.221 484.371 273.407 485.765C272.592 487.158 271.477 488.241 270.062 489.013C268.669 489.763 267.125 490.138 265.432 490.138ZM265.432 486.955C266.375 486.955 267.254 486.729 268.069 486.279C268.905 485.829 269.58 485.154 270.095 484.253C270.609 483.353 270.866 482.26 270.866 480.973C270.866 479.687 270.62 478.605 270.127 477.726C269.634 476.825 268.98 476.15 268.165 475.7C267.351 475.25 266.472 475.025 265.528 475.025C264.585 475.025 263.706 475.25 262.892 475.7C262.098 476.15 261.466 476.825 260.994 477.726C260.523 478.605 260.287 479.687 260.287 480.973C260.287 482.881 260.769 484.361 261.734 485.411C262.72 486.44 263.953 486.955 265.432 486.955ZM287.192 471.841C288.585 471.841 289.829 472.131 290.922 472.709C292.037 473.288 292.905 474.146 293.527 475.282C294.148 476.418 294.459 477.79 294.459 479.398V489.849H290.826V479.944C290.826 478.358 290.429 477.147 289.636 476.311C288.843 475.453 287.76 475.025 286.388 475.025C285.016 475.025 283.923 475.453 283.108 476.311C282.315 477.147 281.918 478.358 281.918 479.944V489.849H278.252V472.131H281.918V474.156C282.519 473.427 283.28 472.859 284.201 472.452C285.145 472.045 286.141 471.841 287.192 471.841ZM315.374 480.555C315.374 481.22 315.331 481.82 315.246 482.356H301.708C301.815 483.771 302.34 484.907 303.283 485.765C304.227 486.622 305.384 487.051 306.756 487.051C308.729 487.051 310.122 486.226 310.937 484.575H314.892C314.356 486.204 313.38 487.544 311.966 488.595C310.572 489.624 308.836 490.138 306.756 490.138C305.063 490.138 303.541 489.763 302.19 489.013C300.861 488.241 299.811 487.169 299.039 485.797C298.288 484.403 297.913 482.796 297.913 480.973C297.913 479.151 298.278 477.554 299.007 476.182C299.757 474.789 300.797 473.717 302.126 472.967C303.476 472.216 305.02 471.841 306.756 471.841C308.428 471.841 309.918 472.206 311.226 472.934C312.534 473.663 313.552 474.692 314.281 476.021C315.01 477.329 315.374 478.84 315.374 480.555ZM311.548 479.398C311.526 478.047 311.044 476.965 310.101 476.15C309.157 475.335 307.989 474.928 306.595 474.928C305.331 474.928 304.248 475.335 303.348 476.15C302.447 476.943 301.911 478.026 301.74 479.398H311.548Z" fill="#1F536F"/>
<rect x="25.457" y="530.579" width="403.294" height="121.926" rx="13.3985" fill="white"/>
<path d="M64.0767 551.696V566.638H62.1259V559.863H54.5156V566.638H52.5648V551.696H54.5156V558.256H62.1259V551.696H64.0767ZM78.1265 560.314C78.1265 560.685 78.1051 561.078 78.0622 561.493H68.6726C68.744 562.65 69.137 563.558 69.8516 564.215C70.5805 564.858 71.4594 565.18 72.4884 565.18C73.3316 565.18 74.0319 564.987 74.5893 564.601C75.161 564.201 75.5611 563.672 75.7898 563.015H77.8907C77.5763 564.144 76.9474 565.066 76.0042 565.78C75.0609 566.48 73.889 566.831 72.4884 566.831C71.3737 566.831 70.3733 566.581 69.4872 566.08C68.6154 565.58 67.9294 564.873 67.4292 563.958C66.929 563.029 66.6789 561.957 66.6789 560.742C66.6789 559.528 66.9218 558.463 67.4077 557.548C67.8937 556.634 68.5725 555.933 69.4443 555.447C70.3304 554.947 71.3451 554.697 72.4884 554.697C73.6032 554.697 74.5893 554.94 75.4468 555.426C76.3043 555.912 76.9617 556.583 77.4191 557.441C77.8907 558.284 78.1265 559.242 78.1265 560.314ZM76.1114 559.906C76.1114 559.163 75.947 558.527 75.6183 557.998C75.2896 557.455 74.8394 557.048 74.2677 556.776C73.7104 556.491 73.0887 556.348 72.4027 556.348C71.4166 556.348 70.5733 556.662 69.8731 557.291C69.1871 557.92 68.794 558.792 68.694 559.906H76.1114ZM87.9903 546.444L82.1164 570.282H80.187L86.0395 546.444H87.9903ZM95.0558 566.831C94.1554 566.831 93.3479 566.681 92.6334 566.38C91.9188 566.066 91.3542 565.637 90.9398 565.094C90.5253 564.537 90.2967 563.901 90.2538 563.186H92.2689C92.3261 563.772 92.5976 564.251 93.0835 564.623C93.5838 564.994 94.234 565.18 95.0344 565.18C95.7775 565.18 96.3635 565.016 96.7922 564.687C97.221 564.358 97.4354 563.944 97.4354 563.444C97.4354 562.929 97.2067 562.55 96.7494 562.307C96.292 562.05 95.5846 561.8 94.627 561.557C93.7553 561.328 93.0407 561.1 92.4833 560.871C91.9402 560.628 91.4686 560.278 91.0684 559.821C90.6825 559.349 90.4896 558.734 90.4896 557.977C90.4896 557.377 90.6682 556.826 91.0255 556.326C91.3828 555.826 91.8902 555.433 92.5476 555.147C93.205 554.847 93.9553 554.697 94.7985 554.697C96.0991 554.697 97.1495 555.026 97.9499 555.683C98.7502 556.341 99.1789 557.241 99.2361 558.384H97.2853C97.2424 557.77 96.9923 557.277 96.535 556.905C96.0919 556.533 95.4917 556.348 94.7342 556.348C94.0339 556.348 93.4766 556.498 93.0621 556.798C92.6476 557.098 92.4404 557.491 92.4404 557.977C92.4404 558.363 92.5619 558.684 92.8049 558.942C93.0621 559.185 93.3765 559.385 93.7481 559.542C94.134 559.685 94.6628 559.849 95.3345 560.035C96.1777 560.264 96.8637 560.492 97.3925 560.721C97.9213 560.935 98.3715 561.264 98.7431 561.707C99.1289 562.15 99.329 562.729 99.3433 563.444C99.3433 564.087 99.1647 564.665 98.8074 565.18C98.4501 565.694 97.9427 566.102 97.2853 566.402C96.6422 566.688 95.899 566.831 95.0558 566.831ZM107.928 554.676C108.814 554.676 109.615 554.868 110.329 555.254C111.044 555.626 111.601 556.19 112.001 556.948C112.416 557.705 112.623 558.627 112.623 559.713V566.638H110.694V559.992C110.694 558.82 110.401 557.927 109.815 557.312C109.229 556.684 108.428 556.369 107.414 556.369C106.385 556.369 105.563 556.691 104.948 557.334C104.348 557.977 104.048 558.913 104.048 560.142V566.638H102.097V550.774H104.048V556.562C104.434 555.962 104.963 555.497 105.634 555.169C106.32 554.84 107.085 554.676 107.928 554.676ZM126.528 560.314C126.528 560.685 126.507 561.078 126.464 561.493H117.074C117.146 562.65 117.539 563.558 118.254 564.215C118.982 564.858 119.861 565.18 120.89 565.18C121.734 565.18 122.434 564.987 122.991 564.601C123.563 564.201 123.963 563.672 124.192 563.015H126.293C125.978 564.144 125.349 565.066 124.406 565.78C123.463 566.48 122.291 566.831 120.89 566.831C119.776 566.831 118.775 566.581 117.889 566.08C117.017 565.58 116.331 564.873 115.831 563.958C115.331 563.029 115.081 561.957 115.081 560.742C115.081 559.528 115.324 558.463 115.81 557.548C116.296 556.634 116.974 555.933 117.846 555.447C118.732 554.947 119.747 554.697 120.89 554.697C122.005 554.697 122.991 554.94 123.849 555.426C124.706 555.912 125.364 556.583 125.821 557.441C126.293 558.284 126.528 559.242 126.528 560.314ZM124.513 559.906C124.513 559.163 124.349 558.527 124.02 557.998C123.692 557.455 123.241 557.048 122.67 556.776C122.112 556.491 121.491 556.348 120.805 556.348C119.818 556.348 118.975 556.662 118.275 557.291C117.589 557.92 117.196 558.792 117.096 559.906H124.513ZM134.09 560.742C134.09 559.528 134.333 558.47 134.819 557.57C135.305 556.655 135.976 555.948 136.834 555.447C137.706 554.947 138.699 554.697 139.814 554.697C141.257 554.697 142.443 555.047 143.372 555.747C144.316 556.448 144.937 557.42 145.237 558.663H143.137C142.936 557.948 142.543 557.384 141.957 556.969C141.386 556.555 140.671 556.348 139.814 556.348C138.699 556.348 137.799 556.734 137.113 557.505C136.427 558.263 136.084 559.342 136.084 560.742C136.084 562.157 136.427 563.251 137.113 564.022C137.799 564.794 138.699 565.18 139.814 565.18C140.671 565.18 141.386 564.98 141.957 564.58C142.529 564.18 142.922 563.608 143.137 562.865H145.237C144.923 564.065 144.294 565.03 143.351 565.759C142.408 566.473 141.229 566.831 139.814 566.831C138.699 566.831 137.706 566.581 136.834 566.08C135.976 565.58 135.305 564.873 134.819 563.958C134.333 563.043 134.09 561.971 134.09 560.742ZM149.791 556.798C150.134 556.126 150.62 555.605 151.249 555.233C151.892 554.861 152.671 554.676 153.586 554.676V556.691H153.071C150.885 556.691 149.791 557.877 149.791 560.249V566.638H147.84V554.89H149.791V556.798ZM166.556 560.314C166.556 560.685 166.535 561.078 166.492 561.493H157.102C157.174 562.65 157.567 563.558 158.281 564.215C159.01 564.858 159.889 565.18 160.918 565.18C161.761 565.18 162.462 564.987 163.019 564.601C163.591 564.201 163.991 563.672 164.22 563.015H166.321C166.006 564.144 165.377 565.066 164.434 565.78C163.491 566.48 162.319 566.831 160.918 566.831C159.804 566.831 158.803 566.581 157.917 566.08C157.045 565.58 156.359 564.873 155.859 563.958C155.359 563.029 155.109 561.957 155.109 560.742C155.109 559.528 155.352 558.463 155.838 557.548C156.323 556.634 157.002 555.933 157.874 555.447C158.76 554.947 159.775 554.697 160.918 554.697C162.033 554.697 163.019 554.94 163.877 555.426C164.734 555.912 165.392 556.583 165.849 557.441C166.321 558.284 166.556 559.242 166.556 560.314ZM164.541 559.906C164.541 559.163 164.377 558.527 164.048 557.998C163.719 557.455 163.269 557.048 162.698 556.776C162.14 556.491 161.519 556.348 160.833 556.348C159.846 556.348 159.003 556.662 158.303 557.291C157.617 557.92 157.224 558.792 157.124 559.906H164.541ZM168.402 560.721C168.402 559.52 168.645 558.47 169.131 557.57C169.617 556.655 170.282 555.948 171.125 555.447C171.983 554.947 172.933 554.697 173.976 554.697C175.005 554.697 175.898 554.919 176.656 555.362C177.413 555.805 177.978 556.362 178.35 557.034V554.89H180.322V566.638H178.35V564.451C177.964 565.137 177.385 565.709 176.613 566.166C175.856 566.609 174.97 566.831 173.955 566.831C172.912 566.831 171.968 566.573 171.125 566.059C170.282 565.544 169.617 564.823 169.131 563.894C168.645 562.965 168.402 561.907 168.402 560.721ZM178.35 560.742C178.35 559.856 178.171 559.085 177.814 558.427C177.456 557.77 176.97 557.269 176.356 556.926C175.756 556.569 175.091 556.391 174.362 556.391C173.633 556.391 172.969 556.562 172.368 556.905C171.768 557.248 171.289 557.748 170.932 558.406C170.575 559.063 170.396 559.835 170.396 560.721C170.396 561.621 170.575 562.407 170.932 563.079C171.289 563.736 171.768 564.244 172.368 564.601C172.969 564.944 173.633 565.116 174.362 565.116C175.091 565.116 175.756 564.944 176.356 564.601C176.97 564.244 177.456 563.736 177.814 563.079C178.171 562.407 178.35 561.628 178.35 560.742ZM185.998 556.498V563.422C185.998 563.994 186.119 564.401 186.362 564.644C186.605 564.873 187.027 564.987 187.627 564.987H189.064V566.638H187.306C186.22 566.638 185.405 566.388 184.862 565.887C184.319 565.387 184.047 564.565 184.047 563.422V556.498H182.525V554.89H184.047V551.932H185.998V554.89H189.064V556.498H185.998ZM202.146 560.314C202.146 560.685 202.125 561.078 202.082 561.493H192.692C192.764 562.65 193.157 563.558 193.871 564.215C194.6 564.858 195.479 565.18 196.508 565.18C197.351 565.18 198.051 564.987 198.609 564.601C199.18 564.201 199.581 563.672 199.809 563.015H201.91C201.596 564.144 200.967 565.066 200.024 565.78C199.08 566.48 197.909 566.831 196.508 566.831C195.393 566.831 194.393 566.581 193.507 566.08C192.635 565.58 191.949 564.873 191.449 563.958C190.948 563.029 190.698 561.957 190.698 560.742C190.698 559.528 190.941 558.463 191.427 557.548C191.913 556.634 192.592 555.933 193.464 555.447C194.35 554.947 195.365 554.697 196.508 554.697C197.623 554.697 198.609 554.94 199.466 555.426C200.324 555.912 200.981 556.583 201.439 557.441C201.91 558.284 202.146 559.242 202.146 560.314ZM200.131 559.906C200.131 559.163 199.967 558.527 199.638 557.998C199.309 557.455 198.859 557.048 198.287 556.776C197.73 556.491 197.108 556.348 196.422 556.348C195.436 556.348 194.593 556.662 193.893 557.291C193.207 557.92 192.814 558.792 192.713 559.906H200.131ZM208.88 566.831C207.98 566.831 207.172 566.681 206.457 566.38C205.743 566.066 205.178 565.637 204.764 565.094C204.349 564.537 204.121 563.901 204.078 563.186H206.093C206.15 563.772 206.422 564.251 206.908 564.623C207.408 564.994 208.058 565.18 208.858 565.18C209.602 565.18 210.188 565.016 210.616 564.687C211.045 564.358 211.259 563.944 211.259 563.444C211.259 562.929 211.031 562.55 210.573 562.307C210.116 562.05 209.409 561.8 208.451 561.557C207.579 561.328 206.865 561.1 206.307 560.871C205.764 560.628 205.293 560.278 204.893 559.821C204.507 559.349 204.314 558.734 204.314 557.977C204.314 557.377 204.492 556.826 204.85 556.326C205.207 555.826 205.714 555.433 206.372 555.147C207.029 554.847 207.779 554.697 208.623 554.697C209.923 554.697 210.974 555.026 211.774 555.683C212.574 556.341 213.003 557.241 213.06 558.384H211.109C211.067 557.77 210.816 557.277 210.359 556.905C209.916 556.533 209.316 556.348 208.558 556.348C207.858 556.348 207.301 556.498 206.886 556.798C206.472 557.098 206.265 557.491 206.265 557.977C206.265 558.363 206.386 558.684 206.629 558.942C206.886 559.185 207.201 559.385 207.572 559.542C207.958 559.685 208.487 559.849 209.159 560.035C210.002 560.264 210.688 560.492 211.217 560.721C211.745 560.935 212.196 561.264 212.567 561.707C212.953 562.15 213.153 562.729 213.167 563.444C213.167 564.087 212.989 564.665 212.631 565.18C212.274 565.694 211.767 566.102 211.109 566.402C210.466 566.688 209.723 566.831 208.88 566.831ZM220.908 560.721C220.908 559.52 221.151 558.47 221.637 557.57C222.123 556.655 222.787 555.948 223.63 555.447C224.488 554.947 225.438 554.697 226.481 554.697C227.51 554.697 228.404 554.919 229.161 555.362C229.919 555.805 230.483 556.362 230.855 557.034V554.89H232.827V566.638H230.855V564.451C230.469 565.137 229.89 565.709 229.118 566.166C228.361 566.609 227.475 566.831 226.46 566.831C225.417 566.831 224.473 566.573 223.63 566.059C222.787 565.544 222.123 564.823 221.637 563.894C221.151 562.965 220.908 561.907 220.908 560.721ZM230.855 560.742C230.855 559.856 230.676 559.085 230.319 558.427C229.962 557.77 229.476 557.269 228.861 556.926C228.261 556.569 227.596 556.391 226.867 556.391C226.138 556.391 225.474 556.562 224.874 556.905C224.273 557.248 223.795 557.748 223.437 558.406C223.08 559.063 222.901 559.835 222.901 560.721C222.901 561.621 223.08 562.407 223.437 563.079C223.795 563.736 224.273 564.244 224.874 564.601C225.474 564.944 226.138 565.116 226.867 565.116C227.596 565.116 228.261 564.944 228.861 564.601C229.476 564.244 229.962 563.736 230.319 563.079C230.676 562.407 230.855 561.628 230.855 560.742ZM241.847 554.676C243.277 554.676 244.434 555.111 245.32 555.983C246.206 556.841 246.649 558.084 246.649 559.713V566.638H244.72V559.992C244.72 558.82 244.427 557.927 243.841 557.312C243.255 556.684 242.455 556.369 241.44 556.369C240.411 556.369 239.589 556.691 238.975 557.334C238.375 557.977 238.074 558.913 238.074 560.142V566.638H236.124V554.89H238.074V556.562C238.46 555.962 238.982 555.497 239.639 555.169C240.311 554.84 241.047 554.676 241.847 554.676ZM265.97 554.89V566.638H264.019V564.901C263.648 565.502 263.126 565.973 262.454 566.316C261.797 566.645 261.068 566.809 260.268 566.809C259.353 566.809 258.531 566.623 257.802 566.252C257.074 565.866 256.495 565.294 256.066 564.537C255.651 563.779 255.444 562.858 255.444 561.771V554.89H257.374V561.514C257.374 562.672 257.667 563.565 258.253 564.194C258.839 564.808 259.639 565.116 260.654 565.116C261.697 565.116 262.519 564.794 263.119 564.151C263.719 563.508 264.019 562.572 264.019 561.343V554.89H265.97ZM273.423 566.831C272.522 566.831 271.715 566.681 271 566.38C270.286 566.066 269.721 565.637 269.307 565.094C268.892 564.537 268.664 563.901 268.621 563.186H270.636C270.693 563.772 270.965 564.251 271.451 564.623C271.951 564.994 272.601 565.18 273.401 565.18C274.145 565.18 274.73 565.016 275.159 564.687C275.588 564.358 275.802 563.944 275.802 563.444C275.802 562.929 275.574 562.55 275.116 562.307C274.659 562.05 273.952 561.8 272.994 561.557C272.122 561.328 271.408 561.1 270.85 560.871C270.307 560.628 269.836 560.278 269.435 559.821C269.05 559.349 268.857 558.734 268.857 557.977C268.857 557.377 269.035 556.826 269.393 556.326C269.75 555.826 270.257 555.433 270.915 555.147C271.572 554.847 272.322 554.697 273.166 554.697C274.466 554.697 275.517 555.026 276.317 555.683C277.117 556.341 277.546 557.241 277.603 558.384H275.652C275.609 557.77 275.359 557.277 274.902 556.905C274.459 556.533 273.859 556.348 273.101 556.348C272.401 556.348 271.844 556.498 271.429 556.798C271.015 557.098 270.807 557.491 270.807 557.977C270.807 558.363 270.929 558.684 271.172 558.942C271.429 559.185 271.744 559.385 272.115 559.542C272.501 559.685 273.03 559.849 273.701 560.035C274.545 560.264 275.231 560.492 275.76 560.721C276.288 560.935 276.738 561.264 277.11 561.707C277.496 562.15 277.696 562.729 277.71 563.444C277.71 564.087 277.532 564.665 277.174 565.18C276.817 565.694 276.31 566.102 275.652 566.402C275.009 566.688 274.266 566.831 273.423 566.831ZM291.183 560.314C291.183 560.685 291.162 561.078 291.119 561.493H281.729C281.8 562.65 282.194 563.558 282.908 564.215C283.637 564.858 284.516 565.18 285.545 565.18C286.388 565.18 287.088 564.987 287.646 564.601C288.217 564.201 288.618 563.672 288.846 563.015H290.947C290.633 564.144 290.004 565.066 289.061 565.78C288.117 566.48 286.945 566.831 285.545 566.831C284.43 566.831 283.43 566.581 282.544 566.08C281.672 565.58 280.986 564.873 280.486 563.958C279.985 563.029 279.735 561.957 279.735 560.742C279.735 559.528 279.978 558.463 280.464 557.548C280.95 556.634 281.629 555.933 282.501 555.447C283.387 554.947 284.402 554.697 285.545 554.697C286.66 554.697 287.646 554.94 288.503 555.426C289.361 555.912 290.018 556.583 290.476 557.441C290.947 558.284 291.183 559.242 291.183 560.314ZM289.168 559.906C289.168 559.163 289.003 558.527 288.675 557.998C288.346 557.455 287.896 557.048 287.324 556.776C286.767 556.491 286.145 556.348 285.459 556.348C284.473 556.348 283.63 556.662 282.93 557.291C282.244 557.92 281.851 558.792 281.75 559.906H289.168ZM295.709 556.798C296.052 556.126 296.538 555.605 297.167 555.233C297.81 554.861 298.589 554.676 299.503 554.676V556.691H298.989C296.802 556.691 295.709 557.877 295.709 560.249V566.638H293.758V554.89H295.709V556.798ZM306.742 560.721C306.742 559.52 306.985 558.47 307.47 557.57C307.956 556.655 308.621 555.948 309.464 555.447C310.322 554.947 311.272 554.697 312.315 554.697C313.344 554.697 314.238 554.919 314.995 555.362C315.753 555.805 316.317 556.362 316.689 557.034V554.89H318.661V566.638H316.689V564.451C316.303 565.137 315.724 565.709 314.952 566.166C314.195 566.609 313.309 566.831 312.294 566.831C311.251 566.831 310.307 566.573 309.464 566.059C308.621 565.544 307.956 564.823 307.47 563.894C306.985 562.965 306.742 561.907 306.742 560.721ZM316.689 560.742C316.689 559.856 316.51 559.085 316.153 558.427C315.795 557.77 315.309 557.269 314.695 556.926C314.095 556.569 313.43 556.391 312.701 556.391C311.972 556.391 311.308 556.562 310.708 556.905C310.107 557.248 309.629 557.748 309.271 558.406C308.914 559.063 308.735 559.835 308.735 560.721C308.735 561.621 308.914 562.407 309.271 563.079C309.629 563.736 310.107 564.244 310.708 564.601C311.308 564.944 311.972 565.116 312.701 565.116C313.43 565.116 314.095 564.944 314.695 564.601C315.309 564.244 315.795 563.736 316.153 563.079C316.51 562.407 316.689 561.628 316.689 560.742ZM327.681 554.676C329.111 554.676 330.268 555.111 331.154 555.983C332.04 556.841 332.483 558.084 332.483 559.713V566.638H330.554V559.992C330.554 558.82 330.261 557.927 329.675 557.312C329.089 556.684 328.289 556.369 327.274 556.369C326.245 556.369 325.423 556.691 324.809 557.334C324.209 557.977 323.908 558.913 323.908 560.142V566.638H321.958V554.89H323.908V556.562C324.294 555.962 324.816 555.497 325.473 555.169C326.145 554.84 326.881 554.676 327.681 554.676ZM334.941 560.721C334.941 559.52 335.184 558.47 335.67 557.57C336.156 556.655 336.821 555.948 337.664 555.447C338.521 554.947 339.479 554.697 340.536 554.697C341.451 554.697 342.301 554.911 343.087 555.34C343.874 555.755 344.474 556.305 344.888 556.991V550.774H346.86V566.638H344.888V564.43C344.502 565.13 343.931 565.709 343.173 566.166C342.416 566.609 341.53 566.831 340.515 566.831C339.472 566.831 338.521 566.573 337.664 566.059C336.821 565.544 336.156 564.823 335.67 563.894C335.184 562.965 334.941 561.907 334.941 560.721ZM344.888 560.742C344.888 559.856 344.71 559.085 344.352 558.427C343.995 557.77 343.509 557.269 342.895 556.926C342.294 556.569 341.63 556.391 340.901 556.391C340.172 556.391 339.507 556.562 338.907 556.905C338.307 557.248 337.828 557.748 337.471 558.406C337.114 559.063 336.935 559.835 336.935 560.721C336.935 561.621 337.114 562.407 337.471 563.079C337.828 563.736 338.307 564.244 338.907 564.601C339.507 564.944 340.172 565.116 340.901 565.116C341.63 565.116 342.294 564.944 342.895 564.601C343.509 564.244 343.995 563.736 344.352 563.079C344.71 562.407 344.888 561.628 344.888 560.742ZM58.3958 586.676C59.2818 586.676 60.0822 586.868 60.7968 587.254C61.5114 587.626 62.0687 588.19 62.4689 588.948C62.8834 589.705 63.0906 590.627 63.0906 591.713V598.638H61.1612V591.992C61.1612 590.82 60.8682 589.927 60.2823 589.312C59.6963 588.684 58.896 588.369 57.8813 588.369C56.8523 588.369 56.0305 588.691 55.4159 589.334C54.8157 589.977 54.5156 590.913 54.5156 592.142V598.638H52.5648V582.774H54.5156V588.562C54.9014 587.962 55.4302 587.497 56.1019 587.169C56.7879 586.84 57.5526 586.676 58.3958 586.676ZM67.2848 584.982C66.9132 584.982 66.5988 584.853 66.3416 584.596C66.0843 584.339 65.9557 584.024 65.9557 583.653C65.9557 583.281 66.0843 582.967 66.3416 582.71C66.5988 582.452 66.9132 582.324 67.2848 582.324C67.6421 582.324 67.9422 582.452 68.1852 582.71C68.4424 582.967 68.5711 583.281 68.5711 583.653C68.5711 584.024 68.4424 584.339 68.1852 584.596C67.9422 584.853 67.6421 584.982 67.2848 584.982ZM68.2281 586.89V598.638H66.2772V586.89H68.2281ZM75.7118 598.831C74.8114 598.831 74.0039 598.681 73.2893 598.38C72.5747 598.066 72.0102 597.637 71.5958 597.094C71.1813 596.537 70.9526 595.901 70.9098 595.186H72.9249C72.9821 595.772 73.2536 596.251 73.7395 596.623C74.2397 596.994 74.89 597.18 75.6903 597.18C76.4335 597.18 77.0195 597.016 77.4482 596.687C77.877 596.358 78.0913 595.944 78.0913 595.444C78.0913 594.929 77.8627 594.55 77.4053 594.307C76.948 594.05 76.2406 593.8 75.283 593.557C74.4112 593.328 73.6966 593.1 73.1393 592.871C72.5962 592.628 72.1246 592.278 71.7244 591.821C71.3385 591.349 71.1456 590.734 71.1456 589.977C71.1456 589.377 71.3242 588.826 71.6815 588.326C72.0388 587.826 72.5462 587.433 73.2036 587.147C73.861 586.847 74.6113 586.697 75.4545 586.697C76.7551 586.697 77.8055 587.026 78.6058 587.683C79.4062 588.341 79.8349 589.241 79.8921 590.384H77.9413C77.8984 589.77 77.6483 589.277 77.191 588.905C76.7479 588.533 76.1477 588.348 75.3902 588.348C74.6899 588.348 74.1325 588.498 73.7181 588.798C73.3036 589.098 73.0964 589.491 73.0964 589.977C73.0964 590.363 73.2179 590.684 73.4608 590.942C73.7181 591.185 74.0325 591.385 74.4041 591.542C74.79 591.685 75.3187 591.849 75.9905 592.035C76.8337 592.264 77.5197 592.492 78.0485 592.721C78.5773 592.935 79.0274 593.264 79.399 593.707C79.7849 594.15 79.985 594.729 79.9993 595.444C79.9993 596.087 79.8206 596.665 79.4633 597.18C79.106 597.694 78.5987 598.102 77.9413 598.402C77.2981 598.688 76.555 598.831 75.7118 598.831ZM90.0419 578.444L84.168 602.282H82.2387L88.0911 578.444H90.0419ZM98.7796 586.676C99.6656 586.676 100.466 586.868 101.181 587.254C101.895 587.626 102.453 588.19 102.853 588.948C103.267 589.705 103.474 590.627 103.474 591.713V598.638H101.545V591.992C101.545 590.82 101.252 589.927 100.666 589.312C100.08 588.684 99.2798 588.369 98.2651 588.369C97.2361 588.369 96.4143 588.691 95.7997 589.334C95.1995 589.977 94.8994 590.913 94.8994 592.142V598.638H92.9486V582.774H94.8994V588.562C95.2852 587.962 95.814 587.497 96.4857 587.169C97.1717 586.84 97.9364 586.676 98.7796 586.676ZM117.38 592.314C117.38 592.685 117.358 593.078 117.316 593.493H107.926C107.997 594.65 108.39 595.558 109.105 596.215C109.834 596.858 110.713 597.18 111.742 597.18C112.585 597.18 113.285 596.987 113.843 596.601C114.414 596.201 114.814 595.672 115.043 595.015H117.144C116.83 596.144 116.201 597.066 115.257 597.78C114.314 598.48 113.142 598.831 111.742 598.831C110.627 598.831 109.627 598.581 108.74 598.08C107.869 597.58 107.183 596.873 106.682 595.958C106.182 595.029 105.932 593.957 105.932 592.742C105.932 591.528 106.175 590.463 106.661 589.548C107.147 588.634 107.826 587.933 108.698 587.447C109.584 586.947 110.598 586.697 111.742 586.697C112.856 586.697 113.843 586.94 114.7 587.426C115.558 587.912 116.215 588.583 116.672 589.441C117.144 590.284 117.38 591.242 117.38 592.314ZM115.365 591.906C115.365 591.163 115.2 590.527 114.872 589.998C114.543 589.455 114.093 589.048 113.521 588.776C112.964 588.491 112.342 588.348 111.656 588.348C110.67 588.348 109.827 588.662 109.126 589.291C108.44 589.92 108.047 590.792 107.947 591.906H115.365ZM121.906 588.798C122.249 588.126 122.735 587.605 123.363 587.233C124.007 586.861 124.785 586.676 125.7 586.676V588.691H125.186C122.999 588.691 121.906 589.877 121.906 592.249V598.638H119.955V586.89H121.906V588.798ZM144.386 592.314C144.386 592.685 144.365 593.078 144.322 593.493H134.932C135.004 594.65 135.397 595.558 136.111 596.215C136.84 596.858 137.719 597.18 138.748 597.18C139.591 597.18 140.292 596.987 140.849 596.601C141.421 596.201 141.821 595.672 142.049 595.015H144.15C143.836 596.144 143.207 597.066 142.264 597.78C141.321 598.48 140.149 598.831 138.748 598.831C137.633 598.831 136.633 598.581 135.747 598.08C134.875 597.58 134.189 596.873 133.689 595.958C133.189 595.029 132.938 593.957 132.938 592.742C132.938 591.528 133.181 590.463 133.667 589.548C134.153 588.634 134.832 587.933 135.704 587.447C136.59 586.947 137.605 586.697 138.748 586.697C139.863 586.697 140.849 586.94 141.706 587.426C142.564 587.912 143.221 588.583 143.679 589.441C144.15 590.284 144.386 591.242 144.386 592.314ZM142.371 591.906C142.371 591.163 142.207 590.527 141.878 589.998C141.549 589.455 141.099 589.048 140.527 588.776C139.97 588.491 139.348 588.348 138.662 588.348C137.676 588.348 136.833 588.662 136.133 589.291C135.447 589.92 135.054 590.792 134.954 591.906H142.371ZM152.685 586.676C154.114 586.676 155.272 587.111 156.158 587.983C157.044 588.841 157.487 590.084 157.487 591.713V598.638H155.558V591.992C155.558 590.82 155.265 589.927 154.679 589.312C154.093 588.684 153.292 588.369 152.278 588.369C151.249 588.369 150.427 588.691 149.812 589.334C149.212 589.977 148.912 590.913 148.912 592.142V598.638H146.961V586.89H148.912V588.562C149.298 587.962 149.819 587.497 150.477 587.169C151.149 586.84 151.885 586.676 152.685 586.676ZM162.624 588.798C162.967 588.126 163.453 587.605 164.082 587.233C164.725 586.861 165.504 586.676 166.419 586.676V588.691H165.904C163.718 588.691 162.624 589.877 162.624 592.249V598.638H160.674V586.89H162.624V588.798ZM173.794 598.831C172.694 598.831 171.693 598.581 170.793 598.08C169.907 597.58 169.207 596.873 168.692 595.958C168.192 595.029 167.942 593.957 167.942 592.742C167.942 591.542 168.199 590.484 168.714 589.57C169.242 588.641 169.957 587.933 170.857 587.447C171.758 586.947 172.765 586.697 173.88 586.697C174.995 586.697 176.002 586.947 176.903 587.447C177.803 587.933 178.511 588.634 179.025 589.548C179.554 590.463 179.818 591.528 179.818 592.742C179.818 593.957 179.547 595.029 179.004 595.958C178.475 596.873 177.753 597.58 176.838 598.08C175.924 598.581 174.909 598.831 173.794 598.831ZM173.794 597.116C174.495 597.116 175.152 596.951 175.767 596.623C176.381 596.294 176.874 595.801 177.246 595.143C177.632 594.486 177.825 593.686 177.825 592.742C177.825 591.799 177.639 590.999 177.267 590.341C176.896 589.684 176.41 589.198 175.809 588.884C175.209 588.555 174.559 588.391 173.859 588.391C173.144 588.391 172.487 588.555 171.886 588.884C171.3 589.198 170.829 589.684 170.472 590.341C170.114 590.999 169.936 591.799 169.936 592.742C169.936 593.7 170.107 594.507 170.45 595.165C170.807 595.822 171.279 596.315 171.865 596.644C172.451 596.958 173.094 597.116 173.794 597.116ZM184.334 582.774V598.638H182.383V582.774H184.334ZM189.61 582.774V598.638H187.659V582.774H189.61ZM199.657 584.982C199.286 584.982 198.971 584.853 198.714 584.596C198.457 584.339 198.328 584.024 198.328 583.653C198.328 583.281 198.457 582.967 198.714 582.71C198.971 582.452 199.286 582.324 199.657 582.324C200.015 582.324 200.315 582.452 200.558 582.71C200.815 582.967 200.944 583.281 200.944 583.653C200.944 584.024 200.815 584.339 200.558 584.596C200.315 584.853 200.015 584.982 199.657 584.982ZM200.601 586.89V598.638H198.65V586.89H200.601ZM208.084 598.831C207.184 598.831 206.377 598.681 205.662 598.38C204.947 598.066 204.383 597.637 203.968 597.094C203.554 596.537 203.325 595.901 203.282 595.186H205.298C205.355 595.772 205.626 596.251 206.112 596.623C206.612 596.994 207.263 597.18 208.063 597.18C208.806 597.18 209.392 597.016 209.821 596.687C210.25 596.358 210.464 595.944 210.464 595.444C210.464 594.929 210.235 594.55 209.778 594.307C209.321 594.05 208.613 593.8 207.656 593.557C206.784 593.328 206.069 593.1 205.512 592.871C204.969 592.628 204.497 592.278 204.097 591.821C203.711 591.349 203.518 590.734 203.518 589.977C203.518 589.377 203.697 588.826 204.054 588.326C204.411 587.826 204.919 587.433 205.576 587.147C206.234 586.847 206.984 586.697 207.827 586.697C209.128 586.697 210.178 587.026 210.978 587.683C211.779 588.341 212.208 589.241 212.265 590.384H210.314C210.271 589.77 210.021 589.277 209.564 588.905C209.121 588.533 208.52 588.348 207.763 588.348C207.063 588.348 206.505 588.498 206.091 588.798C205.676 589.098 205.469 589.491 205.469 589.977C205.469 590.363 205.59 590.684 205.833 590.942C206.091 591.185 206.405 591.385 206.777 591.542C207.163 591.685 207.691 591.849 208.363 592.035C209.206 592.264 209.892 592.492 210.421 592.721C210.95 592.935 211.4 593.264 211.772 593.707C212.158 594.15 212.358 594.729 212.372 595.444C212.372 596.087 212.193 596.665 211.836 597.18C211.479 597.694 210.971 598.102 210.314 598.402C209.671 598.688 208.928 598.831 208.084 598.831ZM220.112 592.721C220.112 591.52 220.355 590.47 220.841 589.57C221.327 588.655 221.992 587.948 222.835 587.447C223.692 586.947 224.65 586.697 225.707 586.697C226.622 586.697 227.472 586.911 228.258 587.34C229.044 587.755 229.645 588.305 230.059 588.991V582.774H232.031V598.638H230.059V596.43C229.673 597.13 229.102 597.709 228.344 598.166C227.587 598.609 226.701 598.831 225.686 598.831C224.643 598.831 223.692 598.573 222.835 598.059C221.992 597.544 221.327 596.823 220.841 595.894C220.355 594.965 220.112 593.907 220.112 592.721ZM230.059 592.742C230.059 591.856 229.881 591.085 229.523 590.427C229.166 589.77 228.68 589.269 228.066 588.926C227.465 588.569 226.801 588.391 226.072 588.391C225.343 588.391 224.678 588.562 224.078 588.905C223.478 589.248 222.999 589.748 222.642 590.406C222.285 591.063 222.106 591.835 222.106 592.721C222.106 593.621 222.285 594.407 222.642 595.079C222.999 595.736 223.478 596.244 224.078 596.601C224.678 596.944 225.343 597.116 226.072 597.116C226.801 597.116 227.465 596.944 228.066 596.601C228.68 596.244 229.166 595.736 229.523 595.079C229.881 594.407 230.059 593.628 230.059 592.742ZM240.452 598.831C239.351 598.831 238.351 598.581 237.45 598.08C236.564 597.58 235.864 596.873 235.35 595.958C234.849 595.029 234.599 593.957 234.599 592.742C234.599 591.542 234.857 590.484 235.371 589.57C235.9 588.641 236.614 587.933 237.515 587.447C238.415 586.947 239.423 586.697 240.537 586.697C241.652 586.697 242.66 586.947 243.56 587.447C244.461 587.933 245.168 588.634 245.682 589.548C246.211 590.463 246.476 591.528 246.476 592.742C246.476 593.957 246.204 595.029 245.661 595.958C245.132 596.873 244.411 597.58 243.496 598.08C242.581 598.581 241.566 598.831 240.452 598.831ZM240.452 597.116C241.152 597.116 241.809 596.951 242.424 596.623C243.039 596.294 243.532 595.801 243.903 595.143C244.289 594.486 244.482 593.686 244.482 592.742C244.482 591.799 244.296 590.999 243.925 590.341C243.553 589.684 243.067 589.198 242.467 588.884C241.867 588.555 241.216 588.391 240.516 588.391C239.801 588.391 239.144 588.555 238.544 588.884C237.958 589.198 237.486 589.684 237.129 590.341C236.772 590.999 236.593 591.799 236.593 592.742C236.593 593.7 236.764 594.507 237.107 595.165C237.465 595.822 237.936 596.315 238.522 596.644C239.108 596.958 239.751 597.116 240.452 597.116ZM254.764 586.676C256.194 586.676 257.351 587.111 258.237 587.983C259.123 588.841 259.566 590.084 259.566 591.713V598.638H257.637V591.992C257.637 590.82 257.344 589.927 256.758 589.312C256.172 588.684 255.372 588.369 254.357 588.369C253.328 588.369 252.506 588.691 251.892 589.334C251.292 589.977 250.991 590.913 250.991 592.142V598.638H249.041V586.89H250.991V588.562C251.377 587.962 251.899 587.497 252.556 587.169C253.228 586.84 253.964 586.676 254.764 586.676ZM273.472 592.314C273.472 592.685 273.45 593.078 273.408 593.493H264.018C264.089 594.65 264.482 595.558 265.197 596.215C265.926 596.858 266.805 597.18 267.834 597.18C268.677 597.18 269.377 596.987 269.935 596.601C270.506 596.201 270.907 595.672 271.135 595.015H273.236C272.922 596.144 272.293 597.066 271.35 597.78C270.406 598.48 269.234 598.831 267.834 598.831C266.719 598.831 265.719 598.581 264.833 598.08C263.961 597.58 263.275 596.873 262.775 595.958C262.274 595.029 262.024 593.957 262.024 592.742C262.024 591.528 262.267 590.463 262.753 589.548C263.239 588.634 263.918 587.933 264.79 587.447C265.676 586.947 266.69 586.697 267.834 586.697C268.949 586.697 269.935 586.94 270.792 587.426C271.65 587.912 272.307 588.583 272.764 589.441C273.236 590.284 273.472 591.242 273.472 592.314ZM271.457 591.906C271.457 591.163 271.292 590.527 270.964 589.998C270.635 589.455 270.185 589.048 269.613 588.776C269.056 588.491 268.434 588.348 267.748 588.348C266.762 588.348 265.919 588.662 265.218 589.291C264.532 589.92 264.139 590.792 264.039 591.906H271.457ZM276.669 598.766C276.297 598.766 275.983 598.638 275.725 598.38C275.468 598.123 275.339 597.809 275.339 597.437C275.339 597.066 275.468 596.751 275.725 596.494C275.983 596.237 276.297 596.108 276.669 596.108C277.026 596.108 277.326 596.237 277.569 596.494C277.826 596.751 277.955 597.066 277.955 597.437C277.955 597.809 277.826 598.123 277.569 598.38C277.326 598.638 277.026 598.766 276.669 598.766ZM291.001 598.788C290.015 598.788 289.129 598.616 288.343 598.273C287.571 597.916 286.964 597.43 286.52 596.816C286.077 596.187 285.849 595.465 285.834 594.65H287.914C287.985 595.351 288.271 595.944 288.771 596.43C289.286 596.901 290.029 597.137 291.001 597.137C291.93 597.137 292.659 596.908 293.188 596.451C293.731 595.979 294.002 595.379 294.002 594.65C294.002 594.079 293.845 593.614 293.531 593.257C293.216 592.9 292.823 592.628 292.351 592.442C291.88 592.256 291.244 592.056 290.444 591.842C289.457 591.585 288.664 591.327 288.064 591.07C287.478 590.813 286.971 590.413 286.542 589.87C286.127 589.312 285.92 588.569 285.92 587.64C285.92 586.826 286.127 586.104 286.542 585.475C286.956 584.846 287.535 584.36 288.278 584.017C289.036 583.674 289.9 583.503 290.872 583.503C292.273 583.503 293.416 583.853 294.302 584.553C295.203 585.254 295.71 586.182 295.824 587.34H293.681C293.609 586.768 293.309 586.268 292.78 585.839C292.251 585.396 291.551 585.175 290.679 585.175C289.865 585.175 289.2 585.389 288.686 585.818C288.171 586.233 287.914 586.818 287.914 587.576C287.914 588.119 288.064 588.562 288.364 588.905C288.679 589.248 289.057 589.512 289.5 589.698C289.958 589.87 290.594 590.07 291.408 590.298C292.394 590.57 293.188 590.842 293.788 591.113C294.388 591.37 294.903 591.778 295.331 592.335C295.76 592.878 295.974 593.621 295.974 594.565C295.974 595.293 295.781 595.979 295.396 596.623C295.01 597.266 294.438 597.787 293.681 598.188C292.923 598.588 292.03 598.788 291.001 598.788ZM303.969 598.831C302.868 598.831 301.868 598.581 300.968 598.08C300.081 597.58 299.381 596.873 298.867 595.958C298.366 595.029 298.116 593.957 298.116 592.742C298.116 591.542 298.374 590.484 298.888 589.57C299.417 588.641 300.131 587.933 301.032 587.447C301.932 586.947 302.94 586.697 304.055 586.697C305.169 586.697 306.177 586.947 307.077 587.447C307.978 587.933 308.685 588.634 309.2 589.548C309.728 590.463 309.993 591.528 309.993 592.742C309.993 593.957 309.721 595.029 309.178 595.958C308.649 596.873 307.928 597.58 307.013 598.08C306.098 598.581 305.084 598.831 303.969 598.831ZM303.969 597.116C304.669 597.116 305.327 596.951 305.941 596.623C306.556 596.294 307.049 595.801 307.42 595.143C307.806 594.486 307.999 593.686 307.999 592.742C307.999 591.799 307.813 590.999 307.442 590.341C307.07 589.684 306.584 589.198 305.984 588.884C305.384 588.555 304.733 588.391 304.033 588.391C303.319 588.391 302.661 588.555 302.061 588.884C301.475 589.198 301.003 589.684 300.646 590.341C300.289 590.999 300.11 591.799 300.11 592.742C300.11 593.7 300.282 594.507 300.625 595.165C300.982 595.822 301.453 596.315 302.039 596.644C302.625 596.958 303.269 597.116 303.969 597.116ZM326.685 586.676C327.6 586.676 328.414 586.868 329.129 587.254C329.844 587.626 330.408 588.19 330.822 588.948C331.237 589.705 331.444 590.627 331.444 591.713V598.638H329.515V591.992C329.515 590.82 329.222 589.927 328.636 589.312C328.064 588.684 327.285 588.369 326.299 588.369C325.284 588.369 324.477 588.698 323.877 589.355C323.276 589.998 322.976 590.934 322.976 592.164V598.638H321.047V591.992C321.047 590.82 320.754 589.927 320.168 589.312C319.596 588.684 318.817 588.369 317.831 588.369C316.817 588.369 316.009 588.698 315.409 589.355C314.809 589.998 314.509 590.934 314.509 592.164V598.638H312.558V586.89H314.509V588.583C314.894 587.969 315.409 587.497 316.052 587.169C316.709 586.84 317.431 586.676 318.217 586.676C319.203 586.676 320.075 586.897 320.833 587.34C321.59 587.783 322.155 588.433 322.526 589.291C322.855 588.462 323.398 587.819 324.155 587.362C324.913 586.904 325.756 586.676 326.685 586.676ZM345.363 592.314C345.363 592.685 345.342 593.078 345.299 593.493H335.909C335.981 594.65 336.374 595.558 337.088 596.215C337.817 596.858 338.696 597.18 339.725 597.18C340.568 597.18 341.268 596.987 341.826 596.601C342.397 596.201 342.798 595.672 343.026 595.015H345.127C344.813 596.144 344.184 597.066 343.241 597.78C342.297 598.48 341.126 598.831 339.725 598.831C338.61 598.831 337.61 598.581 336.724 598.08C335.852 597.58 335.166 596.873 334.666 595.958C334.165 595.029 333.915 593.957 333.915 592.742C333.915 591.528 334.158 590.463 334.644 589.548C335.13 588.634 335.809 587.933 336.681 587.447C337.567 586.947 338.582 586.697 339.725 586.697C340.84 586.697 341.826 586.94 342.683 587.426C343.541 587.912 344.198 588.583 344.656 589.441C345.127 590.284 345.363 591.242 345.363 592.314ZM343.348 591.906C343.348 591.163 343.184 590.527 342.855 589.998C342.526 589.455 342.076 589.048 341.504 588.776C340.947 588.491 340.325 588.348 339.639 588.348C338.653 588.348 337.81 588.662 337.11 589.291C336.424 589.92 336.031 590.792 335.931 591.906H343.348ZM354.661 584.982C354.289 584.982 353.975 584.853 353.718 584.596C353.46 584.339 353.332 584.024 353.332 583.653C353.332 583.281 353.46 582.967 353.718 582.71C353.975 582.452 354.289 582.324 354.661 582.324C355.018 582.324 355.318 582.452 355.561 582.71C355.819 582.967 355.947 583.281 355.947 583.653C355.947 584.024 355.819 584.339 355.561 584.596C355.318 584.853 355.018 584.982 354.661 584.982ZM355.604 586.89V598.638H353.653V586.89H355.604ZM364.653 586.676C366.082 586.676 367.24 587.111 368.126 587.983C369.012 588.841 369.455 590.084 369.455 591.713V598.638H367.525V591.992C367.525 590.82 367.232 589.927 366.646 589.312C366.061 588.684 365.26 588.369 364.245 588.369C363.216 588.369 362.395 588.691 361.78 589.334C361.18 589.977 360.88 590.913 360.88 592.142V598.638H358.929V586.89H360.88V588.562C361.266 587.962 361.787 587.497 362.445 587.169C363.116 586.84 363.852 586.676 364.653 586.676ZM377.422 588.498H374.957V598.638H373.006V588.498H371.484V586.89H373.006V586.054C373.006 584.739 373.342 583.781 374.013 583.181C374.699 582.567 375.793 582.259 377.293 582.259V583.889C376.436 583.889 375.828 584.06 375.471 584.403C375.128 584.732 374.957 585.282 374.957 586.054V586.89H377.422V588.498ZM384.82 598.831C383.72 598.831 382.719 598.581 381.819 598.08C380.933 597.58 380.232 596.873 379.718 595.958C379.218 595.029 378.968 593.957 378.968 592.742C378.968 591.542 379.225 590.484 379.739 589.57C380.268 588.641 380.983 587.933 381.883 587.447C382.784 586.947 383.791 586.697 384.906 586.697C386.021 586.697 387.028 586.947 387.929 587.447C388.829 587.933 389.536 588.634 390.051 589.548C390.58 590.463 390.844 591.528 390.844 592.742C390.844 593.957 390.573 595.029 390.029 595.958C389.501 596.873 388.779 597.58 387.864 598.08C386.95 598.581 385.935 598.831 384.82 598.831ZM384.82 597.116C385.52 597.116 386.178 596.951 386.792 596.623C387.407 596.294 387.9 595.801 388.272 595.143C388.657 594.486 388.85 593.686 388.85 592.742C388.85 591.799 388.665 590.999 388.293 590.341C387.921 589.684 387.436 589.198 386.835 588.884C386.235 588.555 385.585 588.391 384.884 588.391C384.17 588.391 383.512 588.555 382.912 588.884C382.326 589.198 381.855 589.684 381.497 590.341C381.14 590.999 380.961 591.799 380.961 592.742C380.961 593.7 381.133 594.507 381.476 595.165C381.833 595.822 382.305 596.315 382.891 596.644C383.477 596.958 384.12 597.116 384.82 597.116ZM51.8359 624.721C51.8359 623.52 52.0788 622.47 52.5648 621.57C53.0507 620.655 53.7152 619.948 54.5584 619.447C55.4159 618.947 56.3663 618.697 57.4096 618.697C58.4386 618.697 59.3319 618.919 60.0893 619.362C60.8468 619.805 61.4113 620.362 61.7829 621.034V618.89H63.7551V630.638H61.7829V628.451C61.397 629.137 60.8182 629.709 60.0465 630.166C59.289 630.609 58.4029 630.831 57.3882 630.831C56.3449 630.831 55.4017 630.573 54.5584 630.059C53.7152 629.544 53.0507 628.823 52.5648 627.894C52.0788 626.965 51.8359 625.907 51.8359 624.721ZM61.7829 624.742C61.7829 623.856 61.6042 623.085 61.247 622.427C60.8897 621.77 60.4037 621.269 59.7892 620.926C59.189 620.569 58.5244 620.391 57.7955 620.391C57.0666 620.391 56.4021 620.562 55.8018 620.905C55.2016 621.248 54.7228 621.748 54.3655 622.406C54.0082 623.063 53.8296 623.835 53.8296 624.721C53.8296 625.621 54.0082 626.407 54.3655 627.079C54.7228 627.736 55.2016 628.244 55.8018 628.601C56.4021 628.944 57.0666 629.116 57.7955 629.116C58.5244 629.116 59.189 628.944 59.7892 628.601C60.4037 628.244 60.8897 627.736 61.247 627.079C61.6042 626.407 61.7829 625.628 61.7829 624.742ZM69.0027 621.077C69.4028 620.376 69.9888 619.805 70.7605 619.362C71.5323 618.919 72.4112 618.697 73.3974 618.697C74.4549 618.697 75.4053 618.947 76.2485 619.447C77.0918 619.948 77.7563 620.655 78.2422 621.57C78.7282 622.47 78.9711 623.52 78.9711 624.721C78.9711 625.907 78.7282 626.965 78.2422 627.894C77.7563 628.823 77.0846 629.544 76.2271 630.059C75.3839 630.573 74.4406 630.831 73.3974 630.831C72.3826 630.831 71.4894 630.609 70.7177 630.166C69.9602 629.723 69.3885 629.159 69.0027 628.473V630.638H67.0518V614.774H69.0027V621.077ZM76.9774 624.721C76.9774 623.835 76.7988 623.063 76.4415 622.406C76.0842 621.748 75.5983 621.248 74.9837 620.905C74.3835 620.562 73.7189 620.391 72.99 620.391C72.2755 620.391 71.6109 620.569 70.9963 620.926C70.3961 621.269 69.9102 621.777 69.5386 622.449C69.1813 623.106 69.0027 623.871 69.0027 624.742C69.0027 625.628 69.1813 626.407 69.5386 627.079C69.9102 627.736 70.3961 628.244 70.9963 628.601C71.6109 628.944 72.2755 629.116 72.99 629.116C73.7189 629.116 74.3835 628.944 74.9837 628.601C75.5983 628.244 76.0842 627.736 76.4415 627.079C76.7988 626.407 76.9774 625.621 76.9774 624.721ZM86.6625 630.831C85.562 630.831 84.5616 630.581 83.6612 630.08C82.7752 629.58 82.0749 628.873 81.5604 627.958C81.0602 627.029 80.81 625.957 80.81 624.742C80.81 623.542 81.0673 622.484 81.5818 621.57C82.1106 620.641 82.8252 619.933 83.7256 619.447C84.6259 618.947 85.6335 618.697 86.7482 618.697C87.863 618.697 88.8706 618.947 89.7709 619.447C90.6713 619.933 91.3788 620.634 91.8933 621.548C92.422 622.463 92.6864 623.528 92.6864 624.742C92.6864 625.957 92.4149 627.029 91.8718 627.958C91.343 628.873 90.6213 629.58 89.7066 630.08C88.792 630.581 87.7772 630.831 86.6625 630.831ZM86.6625 629.116C87.3628 629.116 88.0202 628.951 88.6348 628.623C89.2493 628.294 89.7424 627.801 90.1139 627.143C90.4998 626.486 90.6928 625.686 90.6928 624.742C90.6928 623.799 90.507 622.999 90.1354 622.341C89.7638 621.684 89.2779 621.198 88.6776 620.884C88.0774 620.555 87.4271 620.391 86.7268 620.391C86.0122 620.391 85.3548 620.555 84.7546 620.884C84.1686 621.198 83.697 621.684 83.3397 622.341C82.9824 622.999 82.8037 623.799 82.8037 624.742C82.8037 625.7 82.9752 626.507 83.3182 627.165C83.6755 627.822 84.1472 628.315 84.7331 628.644C85.3191 628.958 85.9622 629.116 86.6625 629.116ZM105.67 618.89V630.638H103.719V628.901C103.348 629.502 102.826 629.973 102.154 630.316C101.497 630.645 100.768 630.809 99.9677 630.809C99.053 630.809 98.2312 630.623 97.5024 630.252C96.7735 629.866 96.1947 629.294 95.7659 628.537C95.3515 627.779 95.1442 626.858 95.1442 625.771V618.89H97.0736V625.514C97.0736 626.672 97.3666 627.565 97.9525 628.194C98.5385 628.808 99.3388 629.116 100.354 629.116C101.397 629.116 102.219 628.794 102.819 628.151C103.419 627.508 103.719 626.572 103.719 625.343V618.89H105.67ZM111.343 620.498V627.422C111.343 627.994 111.465 628.401 111.708 628.644C111.951 628.873 112.372 628.987 112.973 628.987H114.409V630.638H112.651C111.565 630.638 110.75 630.388 110.207 629.887C109.664 629.387 109.393 628.565 109.393 627.422V620.498H107.871V618.89H109.393V615.932H111.343V618.89H114.409V620.498H111.343ZM124.868 620.498V627.422C124.868 627.994 124.989 628.401 125.232 628.644C125.475 628.873 125.897 628.987 126.497 628.987H127.933V630.638H126.175C125.089 630.638 124.274 630.388 123.731 629.887C123.188 629.387 122.917 628.565 122.917 627.422V620.498H121.395V618.89H122.917V615.932H124.868V618.89H127.933V620.498H124.868ZM136.128 618.676C137.014 618.676 137.814 618.868 138.529 619.254C139.243 619.626 139.801 620.19 140.201 620.948C140.615 621.705 140.823 622.627 140.823 623.713V630.638H138.893V623.992C138.893 622.82 138.6 621.927 138.014 621.312C137.428 620.684 136.628 620.369 135.613 620.369C134.584 620.369 133.762 620.691 133.148 621.334C132.548 621.977 132.248 622.913 132.248 624.142V630.638H130.297V614.774H132.248V620.562C132.633 619.962 133.162 619.497 133.834 619.169C134.52 618.84 135.285 618.676 136.128 618.676ZM154.728 624.314C154.728 624.685 154.707 625.078 154.664 625.493H145.274C145.346 626.65 145.739 627.558 146.453 628.215C147.182 628.858 148.061 629.18 149.09 629.18C149.933 629.18 150.633 628.987 151.191 628.601C151.762 628.201 152.163 627.672 152.391 627.015H154.492C154.178 628.144 153.549 629.066 152.606 629.78C151.662 630.48 150.491 630.831 149.09 630.831C147.975 630.831 146.975 630.581 146.089 630.08C145.217 629.58 144.531 628.873 144.031 627.958C143.53 627.029 143.28 625.957 143.28 624.742C143.28 623.528 143.523 622.463 144.009 621.548C144.495 620.634 145.174 619.933 146.046 619.447C146.932 618.947 147.947 618.697 149.09 618.697C150.205 618.697 151.191 618.94 152.048 619.426C152.906 619.912 153.563 620.583 154.021 621.441C154.492 622.284 154.728 623.242 154.728 624.314ZM152.713 623.906C152.713 623.163 152.549 622.527 152.22 621.998C151.891 621.455 151.441 621.048 150.869 620.776C150.312 620.491 149.69 620.348 149.004 620.348C148.018 620.348 147.175 620.662 146.475 621.291C145.789 621.92 145.396 622.792 145.296 623.906H152.713ZM162.289 624.742C162.289 623.528 162.532 622.47 163.018 621.57C163.504 620.655 164.176 619.948 165.033 619.447C165.905 618.947 166.899 618.697 168.013 618.697C169.457 618.697 170.643 619.047 171.572 619.747C172.515 620.448 173.137 621.42 173.437 622.663H171.336C171.136 621.948 170.743 621.384 170.157 620.969C169.585 620.555 168.871 620.348 168.013 620.348C166.899 620.348 165.998 620.734 165.312 621.505C164.626 622.263 164.283 623.342 164.283 624.742C164.283 626.157 164.626 627.251 165.312 628.022C165.998 628.794 166.899 629.18 168.013 629.18C168.871 629.18 169.585 628.98 170.157 628.58C170.729 628.18 171.122 627.608 171.336 626.865H173.437C173.123 628.065 172.494 629.03 171.55 629.759C170.607 630.473 169.428 630.831 168.013 630.831C166.899 630.831 165.905 630.581 165.033 630.08C164.176 629.58 163.504 628.873 163.018 627.958C162.532 627.043 162.289 625.971 162.289 624.742ZM186.459 618.89V630.638H184.508V628.901C184.136 629.502 183.615 629.973 182.943 630.316C182.285 630.645 181.557 630.809 180.756 630.809C179.842 630.809 179.02 630.623 178.291 630.252C177.562 629.866 176.983 629.294 176.554 628.537C176.14 627.779 175.933 626.858 175.933 625.771V618.89H177.862V625.514C177.862 626.672 178.155 627.565 178.741 628.194C179.327 628.808 180.127 629.116 181.142 629.116C182.185 629.116 183.007 628.794 183.607 628.151C184.208 627.508 184.508 626.572 184.508 625.343V618.89H186.459ZM191.703 620.798C192.046 620.126 192.532 619.605 193.161 619.233C193.804 618.861 194.583 618.676 195.498 618.676V620.691H194.983C192.797 620.691 191.703 621.877 191.703 624.249V630.638H189.752V618.89H191.703V620.798ZM199.7 620.798C200.043 620.126 200.529 619.605 201.158 619.233C201.801 618.861 202.58 618.676 203.495 618.676V620.691H202.98C200.794 620.691 199.7 621.877 199.7 624.249V630.638H197.75V618.89H199.7V620.798ZM206.754 616.982C206.383 616.982 206.068 616.853 205.811 616.596C205.554 616.339 205.425 616.024 205.425 615.653C205.425 615.281 205.554 614.967 205.811 614.71C206.068 614.452 206.383 614.324 206.754 614.324C207.112 614.324 207.412 614.452 207.655 614.71C207.912 614.967 208.041 615.281 208.041 615.653C208.041 616.024 207.912 616.339 207.655 616.596C207.412 616.853 207.112 616.982 206.754 616.982ZM207.698 618.89V630.638H205.747V618.89H207.698ZM210.294 624.742C210.294 623.528 210.537 622.47 211.023 621.57C211.508 620.655 212.18 619.948 213.038 619.447C213.909 618.947 214.903 618.697 216.017 618.697C217.461 618.697 218.647 619.047 219.576 619.747C220.519 620.448 221.141 621.42 221.441 622.663H219.34C219.14 621.948 218.747 621.384 218.161 620.969C217.59 620.555 216.875 620.348 216.017 620.348C214.903 620.348 214.002 620.734 213.316 621.505C212.63 622.263 212.287 623.342 212.287 624.742C212.287 626.157 212.63 627.251 213.316 628.022C214.002 628.794 214.903 629.18 216.017 629.18C216.875 629.18 217.59 628.98 218.161 628.58C218.733 628.18 219.126 627.608 219.34 626.865H221.441C221.127 628.065 220.498 629.03 219.555 629.759C218.611 630.473 217.432 630.831 216.017 630.831C214.903 630.831 213.909 630.581 213.038 630.08C212.18 629.58 211.508 628.873 211.023 627.958C210.537 627.043 210.294 625.971 210.294 624.742ZM234.463 618.89V630.638H232.512V628.901C232.14 629.502 231.619 629.973 230.947 630.316C230.29 630.645 229.561 630.809 228.76 630.809C227.846 630.809 227.024 630.623 226.295 630.252C225.566 629.866 224.987 629.294 224.559 628.537C224.144 627.779 223.937 626.858 223.937 625.771V618.89H225.866V625.514C225.866 626.672 226.159 627.565 226.745 628.194C227.331 628.808 228.132 629.116 229.146 629.116C230.19 629.116 231.011 628.794 231.612 628.151C232.212 627.508 232.512 626.572 232.512 625.343V618.89H234.463ZM239.707 614.774V630.638H237.757V614.774H239.707ZM253.451 618.89V630.638H251.5V628.901C251.128 629.502 250.607 629.973 249.935 630.316C249.278 630.645 248.549 630.809 247.749 630.809C246.834 630.809 246.012 630.623 245.283 630.252C244.554 629.866 243.976 629.294 243.547 628.537C243.132 627.779 242.925 626.858 242.925 625.771V618.89H244.854V625.514C244.854 626.672 245.147 627.565 245.733 628.194C246.319 628.808 247.12 629.116 248.134 629.116C249.178 629.116 249.999 628.794 250.6 628.151C251.2 627.508 251.5 626.572 251.5 625.343V618.89H253.451ZM270.872 618.676C271.787 618.676 272.601 618.868 273.316 619.254C274.031 619.626 274.595 620.19 275.01 620.948C275.424 621.705 275.631 622.627 275.631 623.713V630.638H273.702V623.992C273.702 622.82 273.409 621.927 272.823 621.312C272.251 620.684 271.472 620.369 270.486 620.369C269.471 620.369 268.664 620.698 268.064 621.355C267.464 621.998 267.163 622.934 267.163 624.164V630.638H265.234V623.992C265.234 622.82 264.941 621.927 264.355 621.312C263.783 620.684 263.005 620.369 262.018 620.369C261.004 620.369 260.196 620.698 259.596 621.355C258.996 621.998 258.696 622.934 258.696 624.164V630.638H256.745V618.89H258.696V620.583C259.081 619.969 259.596 619.497 260.239 619.169C260.896 618.84 261.618 618.676 262.404 618.676C263.39 618.676 264.262 618.897 265.02 619.34C265.777 619.783 266.342 620.433 266.713 621.291C267.042 620.462 267.585 619.819 268.342 619.362C269.1 618.904 269.943 618.676 270.872 618.676ZM285.554 616.982C285.183 616.982 284.868 616.853 284.611 616.596C284.354 616.339 284.225 616.024 284.225 615.653C284.225 615.281 284.354 614.967 284.611 614.71C284.868 614.452 285.183 614.324 285.554 614.324C285.911 614.324 286.212 614.452 286.454 614.71C286.712 614.967 286.84 615.281 286.84 615.653C286.84 616.024 286.712 616.339 286.454 616.596C286.212 616.853 285.911 616.982 285.554 616.982ZM286.497 618.89V630.638H284.547V618.89H286.497ZM293.981 630.831C293.081 630.831 292.273 630.681 291.559 630.38C290.844 630.066 290.28 629.637 289.865 629.094C289.451 628.537 289.222 627.901 289.179 627.186H291.194C291.251 627.772 291.523 628.251 292.009 628.623C292.509 628.994 293.159 629.18 293.96 629.18C294.703 629.18 295.289 629.016 295.718 628.687C296.146 628.358 296.361 627.944 296.361 627.444C296.361 626.929 296.132 626.55 295.675 626.307C295.217 626.05 294.51 625.8 293.552 625.557C292.681 625.328 291.966 625.1 291.409 624.871C290.865 624.628 290.394 624.278 289.994 623.821C289.608 623.349 289.415 622.734 289.415 621.977C289.415 621.377 289.594 620.826 289.951 620.326C290.308 619.826 290.815 619.433 291.473 619.147C292.13 618.847 292.881 618.697 293.724 618.697C295.024 618.697 296.075 619.026 296.875 619.683C297.675 620.341 298.104 621.241 298.161 622.384H296.211C296.168 621.77 295.918 621.277 295.46 620.905C295.017 620.533 294.417 620.348 293.66 620.348C292.959 620.348 292.402 620.498 291.987 620.798C291.573 621.098 291.366 621.491 291.366 621.977C291.366 622.363 291.487 622.684 291.73 622.942C291.987 623.185 292.302 623.385 292.673 623.542C293.059 623.685 293.588 623.849 294.26 624.035C295.103 624.264 295.789 624.492 296.318 624.721C296.847 624.935 297.297 625.264 297.668 625.707C298.054 626.15 298.254 626.729 298.269 627.444C298.269 628.087 298.09 628.665 297.733 629.18C297.375 629.694 296.868 630.102 296.211 630.402C295.567 630.688 294.824 630.831 293.981 630.831ZM310.897 630.831C309.996 630.831 309.189 630.681 308.474 630.38C307.76 630.066 307.195 629.637 306.781 629.094C306.366 628.537 306.138 627.901 306.095 627.186H308.11C308.167 627.772 308.438 628.251 308.924 628.623C309.425 628.994 310.075 629.18 310.875 629.18C311.618 629.18 312.204 629.016 312.633 628.687C313.062 628.358 313.276 627.944 313.276 627.444C313.276 626.929 313.048 626.55 312.59 626.307C312.133 626.05 311.425 625.8 310.468 625.557C309.596 625.328 308.882 625.1 308.324 624.871C307.781 624.628 307.309 624.278 306.909 623.821C306.523 623.349 306.33 622.734 306.33 621.977C306.33 621.377 306.509 620.826 306.866 620.326C307.224 619.826 307.731 619.433 308.388 619.147C309.046 618.847 309.796 618.697 310.639 618.697C311.94 618.697 312.99 619.026 313.791 619.683C314.591 620.341 315.02 621.241 315.077 622.384H313.126C313.083 621.77 312.833 621.277 312.376 620.905C311.933 620.533 311.333 620.348 310.575 620.348C309.875 620.348 309.317 620.498 308.903 620.798C308.488 621.098 308.281 621.491 308.281 621.977C308.281 622.363 308.403 622.684 308.646 622.942C308.903 623.185 309.217 623.385 309.589 623.542C309.975 623.685 310.504 623.849 311.175 624.035C312.019 624.264 312.705 624.492 313.233 624.721C313.762 624.935 314.212 625.264 314.584 625.707C314.97 626.15 315.17 626.729 315.184 627.444C315.184 628.087 315.006 628.665 314.648 629.18C314.291 629.694 313.784 630.102 313.126 630.402C312.483 630.688 311.74 630.831 310.897 630.831ZM328.657 624.314C328.657 624.685 328.635 625.078 328.593 625.493H319.203C319.274 626.65 319.667 627.558 320.382 628.215C321.111 628.858 321.99 629.18 323.019 629.18C323.862 629.18 324.562 628.987 325.12 628.601C325.691 628.201 326.091 627.672 326.32 627.015H328.421C328.107 628.144 327.478 629.066 326.534 629.78C325.591 630.48 324.419 630.831 323.019 630.831C321.904 630.831 320.904 630.581 320.017 630.08C319.146 629.58 318.46 628.873 317.959 627.958C317.459 627.029 317.209 625.957 317.209 624.742C317.209 623.528 317.452 622.463 317.938 621.548C318.424 620.634 319.103 619.933 319.975 619.447C320.861 618.947 321.875 618.697 323.019 618.697C324.133 618.697 325.12 618.94 325.977 619.426C326.835 619.912 327.492 620.583 327.949 621.441C328.421 622.284 328.657 623.242 328.657 624.314ZM326.642 623.906C326.642 623.163 326.477 622.527 326.149 621.998C325.82 621.455 325.37 621.048 324.798 620.776C324.241 620.491 323.619 620.348 322.933 620.348C321.947 620.348 321.104 620.662 320.403 621.291C319.717 621.92 319.324 622.792 319.224 623.906H326.642ZM341.951 624.314C341.951 624.685 341.929 625.078 341.886 625.493H332.497C332.568 626.65 332.961 627.558 333.676 628.215C334.405 628.858 335.284 629.18 336.313 629.18C337.156 629.18 337.856 628.987 338.413 628.601C338.985 628.201 339.385 627.672 339.614 627.015H341.715C341.4 628.144 340.772 629.066 339.828 629.78C338.885 630.48 337.713 630.831 336.313 630.831C335.198 630.831 334.197 630.581 333.311 630.08C332.439 629.58 331.753 628.873 331.253 627.958C330.753 627.029 330.503 625.957 330.503 624.742C330.503 623.528 330.746 622.463 331.232 621.548C331.718 620.634 332.397 619.933 333.268 619.447C334.154 618.947 335.169 618.697 336.313 618.697C337.427 618.697 338.413 618.94 339.271 619.426C340.128 619.912 340.786 620.583 341.243 621.441C341.715 622.284 341.951 623.242 341.951 624.314ZM339.935 623.906C339.935 623.163 339.771 622.527 339.442 621.998C339.114 621.455 338.663 621.048 338.092 620.776C337.534 620.491 336.913 620.348 336.227 620.348C335.241 620.348 334.397 620.662 333.697 621.291C333.011 621.92 332.618 622.792 332.518 623.906H339.935ZM350.249 618.676C351.679 618.676 352.836 619.111 353.722 619.983C354.608 620.841 355.051 622.084 355.051 623.713V630.638H353.122V623.992C353.122 622.82 352.829 621.927 352.243 621.312C351.657 620.684 350.857 620.369 349.842 620.369C348.813 620.369 347.991 620.691 347.377 621.334C346.777 621.977 346.476 622.913 346.476 624.142V630.638H344.526V618.89H346.476V620.562C346.862 619.962 347.384 619.497 348.041 619.169C348.713 618.84 349.449 618.676 350.249 618.676ZM358.86 630.766C358.488 630.766 358.174 630.638 357.917 630.38C357.659 630.123 357.531 629.809 357.531 629.437C357.531 629.066 357.659 628.751 357.917 628.494C358.174 628.237 358.488 628.108 358.86 628.108C359.217 628.108 359.517 628.237 359.76 628.494C360.017 628.751 360.146 629.066 360.146 629.437C360.146 629.809 360.017 630.123 359.76 630.38C359.517 630.638 359.217 630.766 358.86 630.766Z" fill="black" fill-opacity="0.8"/>
</g>
<defs>
<linearGradient id="paint0_linear" x1="136.865" y1="231.829" x2="136.865" y2="231.72" gradientUnits="userSpaceOnUse">
<stop stop-color="#808080" stop-opacity="0.251"/>
<stop offset="0.54" stop-color="#808080" stop-opacity="0.122"/>
<stop offset="1" stop-color="#808080" stop-opacity="0.102"/>
</linearGradient>
<clipPath id="clip0">
<rect width="455.548" height="680.642" fill="white"/>
</clipPath>
<clipPath id="clip1">
<rect width="340" height="282.329" fill="white" transform="translate(58 87)"/>
</clipPath>
</defs>
</svg>
