<svg width="457" height="681" viewBox="0 0 457 681" fill="none" xmlns="http://www.w3.org/2000/svg">
<g clip-path="url(#clip0)">
<rect x="0.334961" width="455.787" height="681" rx="26.811" fill="black" fill-opacity="0.5"/>
<rect x="25.8057" y="26.811" width="402.165" height="402.165" fill="white"/>
<g clip-path="url(#clip1)">
<path d="M299.157 96H51V240.599H299.157V96Z" fill="url(#paint0_linear)"/>
<path d="M296.293 98.3862H54.3403V105.783H296.293V98.3862Z" fill="#F5F5F5"/>
<path d="M296.293 105.783H54.3403V236.781H296.293V105.783Z" fill="white"/>
<path d="M59.8762 104.065C61.0358 104.065 61.9759 103.125 61.9759 101.966C61.9759 100.806 61.0358 99.8657 59.8762 99.8657C58.7165 99.8657 57.7764 100.806 57.7764 101.966C57.7764 103.125 58.7165 104.065 59.8762 104.065Z" fill="url(#paint1_linear)"/>
<path d="M64.6486 104.065C65.8083 104.065 66.7484 103.125 66.7484 101.966C66.7484 100.806 65.8083 99.8657 64.6486 99.8657C63.4889 99.8657 62.5488 100.806 62.5488 101.966C62.5488 103.125 63.4889 104.065 64.6486 104.065Z" fill="url(#paint2_linear)"/>
<path d="M69.4211 104.065C70.5808 104.065 71.5209 103.125 71.5209 101.966C71.5209 100.806 70.5808 99.8657 69.4211 99.8657C68.2614 99.8657 67.3213 100.806 67.3213 101.966C67.3213 103.125 68.2614 104.065 69.4211 104.065Z" fill="url(#paint3_linear)"/>
<path d="M59.8762 103.683C60.825 103.683 61.5942 102.914 61.5942 101.965C61.5942 101.016 60.825 100.247 59.8762 100.247C58.9274 100.247 58.1582 101.016 58.1582 101.965C58.1582 102.914 58.9274 103.683 59.8762 103.683Z" fill="#FF5252"/>
<path d="M64.6008 103.683C65.5497 103.683 66.3188 102.914 66.3188 101.965C66.3188 101.016 65.5497 100.247 64.6008 100.247C63.652 100.247 62.8828 101.016 62.8828 101.965C62.8828 102.914 63.652 103.683 64.6008 103.683Z" fill="#FFFF00"/>
<path d="M69.3254 103.683C70.2743 103.683 71.0434 102.914 71.0434 101.965C71.0434 101.016 70.2743 100.247 69.3254 100.247C68.3766 100.247 67.6074 101.016 67.6074 101.965C67.6074 102.914 68.3766 103.683 69.3254 103.683Z" fill="#69F0AE"/>
<path d="M248.872 116.1H106.509V186.54H248.872V116.1Z" fill="url(#paint4_linear)"/>
<path d="M247.389 117.583H107.992V184.316H247.389V117.583Z" fill="#6C63FF"/>
<path d="M115.407 126.481V174.677" stroke="white" stroke-width="0.359365" stroke-linecap="round" stroke-linejoin="round"/>
<path d="M115.036 178.014H238.121" stroke="white" stroke-width="0.359365" stroke-linecap="round" stroke-linejoin="round"/>
<path opacity="0.3" d="M129.124 129.076H224.775" stroke="white" stroke-width="0.359365" stroke-linecap="round" stroke-linejoin="round"/>
<path opacity="0.3" d="M129.124 140.198H224.775" stroke="white" stroke-width="0.359365" stroke-linecap="round" stroke-linejoin="round"/>
<path opacity="0.3" d="M129.124 151.32H224.775" stroke="white" stroke-width="0.359365" stroke-linecap="round" stroke-linejoin="round"/>
<path opacity="0.3" d="M129.124 162.442H224.775" stroke="white" stroke-width="0.359365" stroke-linecap="round" stroke-linejoin="round"/>
<path opacity="0.2" d="M135.426 178.013V151.32C135.426 151.32 133.202 139.827 155.817 140.198C176.384 137.28 176.384 128.79 176.384 128.79C176.384 128.79 195.3 126.733 196.26 146.858C196.328 148.517 196.772 150.139 197.558 151.601C198.344 153.064 199.453 154.328 200.799 155.299C208.593 160.796 215.36 149.844 218.472 140.198V178.013H135.426Z" fill="white"/>
<path d="M153.963 142.794C155.602 142.794 156.929 141.466 156.929 139.828C156.929 138.19 155.602 136.862 153.963 136.862C152.325 136.862 150.998 138.19 150.998 139.828C150.998 141.466 152.325 142.794 153.963 142.794Z" fill="#6C63FF"/>
<path opacity="0.5" d="M153.963 142.794C155.602 142.794 156.929 141.466 156.929 139.828C156.929 138.19 155.602 136.862 153.963 136.862C152.325 136.862 150.998 138.19 150.998 139.828C150.998 141.466 152.325 142.794 153.963 142.794Z" fill="white"/>
<path d="M135.426 155.399C137.474 155.399 139.134 153.739 139.134 151.691C139.134 149.644 137.474 147.984 135.426 147.984C133.379 147.984 131.719 149.644 131.719 151.691C131.719 153.739 133.379 155.399 135.426 155.399Z" fill="url(#paint5_linear)"/>
<path d="M153.963 143.535C156.011 143.535 157.671 141.875 157.671 139.828C157.671 137.78 156.011 136.12 153.963 136.12C151.916 136.12 150.256 137.78 150.256 139.828C150.256 141.875 151.916 143.535 153.963 143.535Z" fill="url(#paint6_linear)"/>
<path d="M176.507 133.066C178.555 133.066 180.215 131.406 180.215 129.358C180.215 127.311 178.555 125.651 176.507 125.651C174.46 125.651 172.8 127.311 172.8 129.358C172.8 131.406 174.46 133.066 176.507 133.066Z" fill="url(#paint7_linear)"/>
<path d="M196.969 155.399C199.017 155.399 200.677 153.739 200.677 151.691C200.677 149.644 199.017 147.984 196.969 147.984C194.922 147.984 193.262 149.644 193.262 151.691C193.262 153.739 194.922 155.399 196.969 155.399Z" fill="url(#paint8_linear)"/>
<path d="M218.472 145.018C220.52 145.018 222.179 143.358 222.179 141.31C222.179 139.263 220.52 137.603 218.472 137.603C216.425 137.603 214.765 139.263 214.765 141.31C214.765 143.358 216.425 145.018 218.472 145.018Z" fill="url(#paint9_linear)"/>
<path d="M135.426 154.657C137.064 154.657 138.392 153.329 138.392 151.691C138.392 150.053 137.064 148.725 135.426 148.725C133.788 148.725 132.46 150.053 132.46 151.691C132.46 153.329 133.788 154.657 135.426 154.657Z" fill="#6C63FF"/>
<path opacity="0.2" d="M135.426 154.657C137.064 154.657 138.392 153.329 138.392 151.691C138.392 150.053 137.064 148.725 135.426 148.725C133.788 148.725 132.46 150.053 132.46 151.691C132.46 153.329 133.788 154.657 135.426 154.657Z" fill="black"/>
<path d="M176.507 132.324C178.145 132.324 179.473 130.997 179.473 129.358C179.473 127.72 178.145 126.393 176.507 126.393C174.869 126.393 173.541 127.72 173.541 129.358C173.541 130.997 174.869 132.324 176.507 132.324Z" fill="#6C63FF"/>
<path opacity="0.2" d="M176.507 132.324C178.145 132.324 179.473 130.997 179.473 129.358C179.473 127.72 178.145 126.393 176.507 126.393C174.869 126.393 173.541 127.72 173.541 129.358C173.541 130.997 174.869 132.324 176.507 132.324Z" fill="black"/>
<path d="M196.969 154.657C198.607 154.657 199.935 153.329 199.935 151.691C199.935 150.053 198.607 148.725 196.969 148.725C195.331 148.725 194.003 150.053 194.003 151.691C194.003 153.329 195.331 154.657 196.969 154.657Z" fill="#6C63FF"/>
<path opacity="0.5" d="M196.969 154.657C198.607 154.657 199.935 153.329 199.935 151.691C199.935 150.053 198.607 148.725 196.969 148.725C195.331 148.725 194.003 150.053 194.003 151.691C194.003 153.329 195.331 154.657 196.969 154.657Z" fill="white"/>
<path d="M218.472 144.277C220.11 144.277 221.438 142.949 221.438 141.311C221.438 139.673 220.11 138.345 218.472 138.345C216.834 138.345 215.506 139.673 215.506 141.311C215.506 142.949 216.834 144.277 218.472 144.277Z" fill="#6C63FF"/>
<path opacity="0.2" d="M218.472 144.277C220.11 144.277 221.438 142.949 221.438 141.311C221.438 139.673 220.11 138.345 218.472 138.345C216.834 138.345 215.506 139.673 215.506 141.311C215.506 142.949 216.834 144.277 218.472 144.277Z" fill="black"/>
<path d="M248.219 194.748H107.162V199.319H248.219V194.748Z" fill="url(#paint10_linear)"/>
<path d="M248.219 201.278H107.162V205.85H248.219V201.278Z" fill="url(#paint11_linear)"/>
<path d="M248.219 207.809H107.162V212.38H248.219V207.809Z" fill="url(#paint12_linear)"/>
<path d="M248.219 214.339H107.162V218.911H248.219V214.339Z" fill="url(#paint13_linear)"/>
<path d="M247.566 195.401H107.815V198.666H247.566V195.401Z" fill="#E0E0E0"/>
<path d="M247.566 201.931H107.815V205.196H247.566V201.931Z" fill="#E0E0E0"/>
<path d="M247.566 208.462H107.815V211.727H247.566V208.462Z" fill="#E0E0E0"/>
<path d="M247.566 214.992H107.815V218.257H247.566V214.992Z" fill="#E0E0E0"/>
<path d="M323.454 111.566C323.454 111.566 324.163 113.932 320.141 116.062C316.119 118.191 314.935 126.236 319.668 128.602C324.4 130.968 325.82 134.044 323.454 136.174C321.087 138.303 316.828 143.982 322.507 145.402C328.186 146.821 328.896 149.661 327.239 150.844C325.583 152.027 331.025 148.714 331.025 148.714C331.025 148.714 331.972 154.393 336.941 152.973C341.909 151.554 355.87 124.58 348.771 120.794C341.673 117.008 323.454 111.566 323.454 111.566Z" fill="#2F2E41"/>
<path d="M341.787 312.162L340.249 326.52L346.915 330.622L353.068 329.596L349.992 312.162H341.787Z" fill="#9F616A"/>
<path d="M336.659 139.87C344.589 139.87 351.017 133.442 351.017 125.512C351.017 117.582 344.589 111.154 336.659 111.154C328.73 111.154 322.302 117.582 322.302 125.512C322.302 133.442 328.73 139.87 336.659 139.87Z" fill="#9F616A"/>
<path d="M331.788 132.434C331.788 132.434 330.506 154.227 328.968 154.227C327.43 154.227 346.915 153.202 346.915 153.202C346.915 153.202 338.711 138.844 342.813 134.229C346.915 129.614 331.788 132.434 331.788 132.434Z" fill="#9F616A"/>
<path d="M353.069 247.553L346.403 273.191L351.53 316.777L339.737 315.752L335.122 247.553H353.069Z" fill="#2F2E41"/>
<path opacity="0.2" d="M353.069 247.553L346.403 273.191L351.53 316.777L339.737 315.752L335.122 247.553H353.069Z" fill="black"/>
<path d="M342.813 323.956C342.813 323.956 342.3 320.88 337.173 323.956C332.045 327.033 310.508 336.776 321.789 338.827C333.07 340.878 356.145 336.263 356.145 334.725C356.145 333.186 356.658 323.443 354.607 324.469C352.556 325.495 345.89 332.161 342.813 323.956Z" fill="#2F2E41"/>
<path d="M349.479 320.367C349.479 320.367 357.683 333.186 358.196 336.775C358.709 340.365 366.401 328.571 366.401 328.571L359.222 315.239L349.479 320.367Z" fill="#9F616A"/>
<path d="M322.302 249.604L331.532 280.37C331.532 280.37 347.941 323.956 348.966 323.443C349.992 322.931 362.298 319.854 362.811 318.316C363.324 316.777 347.428 275.242 347.428 275.242L345.377 248.578L322.302 249.604Z" fill="#2F2E41"/>
<path d="M367.939 326.52C366.539 326.423 365.144 326.767 363.948 327.503C362.753 328.238 361.818 329.329 361.273 330.622C359.222 335.237 356.658 335.75 356.145 336.263C355.632 336.775 357.683 347.544 356.145 348.569C354.607 349.595 353.068 360.363 358.196 360.363C363.324 360.363 371.528 354.722 371.015 353.697C370.503 352.671 370.503 345.493 372.041 342.416C373.579 339.339 376.143 334.211 372.041 331.135C367.939 328.058 367.939 326.52 367.939 326.52Z" fill="#2F2E41"/>
<path d="M319.226 201.916L318.2 211.145C318.2 211.145 310.508 218.837 307.944 228.067C305.381 237.297 284.357 252.68 290.51 254.731C296.663 256.783 303.842 257.808 321.789 254.731C339.737 251.655 367.939 258.321 367.939 241.399C367.939 241.399 371.529 236.784 374.093 243.45C375.898 248.004 377.953 252.454 380.246 256.783C380.246 256.783 386.399 246.014 384.348 241.399C382.297 236.784 384.348 237.297 381.784 232.169C379.22 227.042 366.401 208.069 361.273 207.043C356.145 206.018 346.403 192.686 346.915 191.147C347.428 189.609 319.226 201.916 319.226 201.916Z" fill="#6C63FF"/>
<path d="M346.915 144.484C346.915 144.484 325.891 149.099 324.866 152.176C324.289 153.907 321.603 157.097 319.363 159.558C315.582 163.651 313.068 168.752 312.125 174.244C311.591 177.515 313.839 180.457 314.867 184.224C317.943 195.506 320.251 192.685 317.174 200.89C314.097 209.094 332.557 212.171 339.736 208.581C346.915 204.992 354.863 183.712 354.863 181.148C354.863 178.584 361.786 149.612 356.145 147.561C350.504 145.51 346.915 144.484 346.915 144.484Z" fill="#575A88"/>
<path d="M317.687 169.098L311.534 196.275L291.279 205.248C291.279 205.248 275.896 201.659 275.383 207.299C275.048 210.982 292.817 212.427 292.817 212.427L322.302 200.89L328.968 175.764L317.687 169.098Z" fill="#9F616A"/>
<path d="M324.866 158.842C324.866 158.842 312.047 166.534 315.123 170.636C318.2 174.738 325.892 181.404 327.943 181.404C329.994 181.404 331.532 169.098 331.532 165.508C331.532 161.919 324.866 158.842 324.866 158.842Z" fill="#575A88"/>
<path d="M337.693 106.868C337.693 106.868 338.479 109.489 334.023 111.848C329.567 114.207 328.256 123.119 333.499 125.74C338.741 128.362 340.314 131.769 337.693 134.128C335.072 136.487 330.353 142.778 336.644 144.351C342.935 145.924 343.721 149.069 341.887 150.38C340.052 151.69 346.081 148.021 346.081 148.021C346.081 148.021 347.129 154.311 352.634 152.739C358.138 151.166 363.63 122.578 357.494 115.214C351.789 108.368 337.693 106.868 337.693 106.868Z" fill="#2F2E41"/>
<path d="M336.018 104.17C336.019 100.329 347.508 103.089 352.434 108.451C355.845 112.164 361.026 117.75 356.685 121.687C352.343 125.625 364.126 130.787 367.287 132.352C370.447 133.917 376.686 138.702 371.052 141.913C365.419 145.124 365.509 148.365 367.63 149.132C369.75 149.899 362.955 147.991 362.955 147.991C362.955 147.991 363.642 154.332 357.917 154.301C352.192 154.271 335.768 122.809 339.692 114.065C343.34 105.933 336.018 104.17 336.018 104.17Z" fill="#2F2E41"/>
<path d="M338.507 103.328C323.143 102.403 321.601 113.968 321.601 113.968C321.707 120.66 332.335 117.399 335.287 118.397C338.849 115.835 345.713 110.988 350.623 107.529C347.058 105.019 342.86 103.563 338.507 103.328Z" fill="#2F2E41"/>
</g>
<rect x="25.8057" y="451.766" width="403.506" height="58.9842" rx="13.4055" fill="white"/>
<path d="M78.5386 467.724V490.084H74.8709V467.724H78.5386ZM92.2982 472.067C93.6924 472.067 94.9364 472.357 96.0303 472.936C97.1456 473.515 98.0143 474.373 98.6363 475.51C99.2584 476.647 99.5694 478.02 99.5694 479.628V490.084H95.9338V480.175C95.9338 478.588 95.537 477.376 94.7434 476.54C93.9498 475.682 92.8666 475.253 91.4939 475.253C90.1212 475.253 89.0273 475.682 88.2122 476.54C87.4186 477.376 87.0218 478.588 87.0218 480.175V490.084H83.3541V472.357H87.0218V474.384C87.6224 473.655 88.3838 473.086 89.3061 472.679C90.2499 472.271 91.2472 472.067 92.2982 472.067ZM108.527 475.349V485.162C108.527 485.827 108.677 486.309 108.977 486.61C109.299 486.889 109.835 487.028 110.586 487.028H112.838V490.084H109.942C108.291 490.084 107.025 489.698 106.146 488.926C105.267 488.154 104.827 486.899 104.827 485.162V475.349H102.736V472.357H104.827V467.949H108.527V472.357H112.838V475.349H108.527ZM119.886 474.931C120.422 474.03 121.13 473.333 122.01 472.84C122.911 472.325 123.972 472.067 125.195 472.067V475.864H124.262C122.825 475.864 121.731 476.229 120.98 476.958C120.251 477.687 119.886 478.953 119.886 480.754V490.084H116.219V472.357H119.886V474.931ZM136.256 490.374C134.583 490.374 133.07 489.999 131.719 489.248C130.368 488.476 129.306 487.403 128.534 486.031C127.762 484.636 127.376 483.028 127.376 481.205C127.376 479.403 127.773 477.805 128.566 476.411C129.36 475.017 130.443 473.944 131.816 473.194C133.188 472.443 134.722 472.067 136.417 472.067C138.111 472.067 139.645 472.443 141.017 473.194C142.39 473.944 143.473 475.017 144.267 476.411C145.06 477.805 145.457 479.403 145.457 481.205C145.457 483.006 145.05 484.604 144.235 485.998C143.42 487.393 142.304 488.476 140.889 489.248C139.494 489.999 137.95 490.374 136.256 490.374ZM136.256 487.189C137.199 487.189 138.079 486.964 138.894 486.513C139.73 486.063 140.406 485.387 140.921 484.486C141.436 483.585 141.693 482.492 141.693 481.205C141.693 479.918 141.446 478.835 140.953 477.955C140.46 477.054 139.805 476.379 138.99 475.928C138.175 475.478 137.296 475.253 136.352 475.253C135.408 475.253 134.529 475.478 133.714 475.928C132.92 476.379 132.288 477.054 131.816 477.955C131.344 478.835 131.108 479.918 131.108 481.205C131.108 483.114 131.591 484.594 132.556 485.645C133.542 486.674 134.776 487.189 136.256 487.189ZM161.719 475.349V485.162C161.719 485.827 161.87 486.309 162.17 486.61C162.492 486.889 163.028 487.028 163.779 487.028H166.031V490.084H163.135C161.484 490.084 160.218 489.698 159.339 488.926C158.459 488.154 158.02 486.899 158.02 485.162V475.349H155.928V472.357H158.02V467.949H161.719V472.357H166.031V475.349H161.719ZM177.101 490.374C175.428 490.374 173.915 489.999 172.564 489.248C171.213 488.476 170.151 487.403 169.379 486.031C168.607 484.636 168.221 483.028 168.221 481.205C168.221 479.403 168.618 477.805 169.411 476.411C170.205 475.017 171.288 473.944 172.661 473.194C174.033 472.443 175.567 472.067 177.261 472.067C178.956 472.067 180.489 472.443 181.862 473.194C183.235 473.944 184.318 475.017 185.112 476.411C185.905 477.805 186.302 479.403 186.302 481.205C186.302 483.006 185.895 484.604 185.08 485.998C184.264 487.393 183.149 488.476 181.734 489.248C180.339 489.999 178.795 490.374 177.101 490.374ZM177.101 487.189C178.044 487.189 178.924 486.964 179.739 486.513C180.575 486.063 181.251 485.387 181.766 484.486C182.28 483.585 182.538 482.492 182.538 481.205C182.538 479.918 182.291 478.835 181.798 477.955C181.305 477.054 180.65 476.379 179.835 475.928C179.02 475.478 178.141 475.253 177.197 475.253C176.253 475.253 175.374 475.478 174.559 475.928C173.765 476.379 173.133 477.054 172.661 477.955C172.189 478.835 171.953 479.918 171.953 481.205C171.953 483.114 172.435 484.594 173.401 485.645C174.387 486.674 175.621 487.189 177.101 487.189ZM202.564 475.349V485.162C202.564 485.827 202.715 486.309 203.015 486.61C203.337 486.889 203.873 487.028 204.623 487.028H206.876V490.084H203.98C202.328 490.084 201.063 489.698 200.184 488.926C199.304 488.154 198.864 486.899 198.864 485.162V475.349H196.773V472.357H198.864V467.949H202.564V472.357H206.876V475.349H202.564ZM219.425 472.067C220.777 472.067 221.978 472.357 223.029 472.936C224.101 473.515 224.938 474.373 225.538 475.51C226.16 476.647 226.471 478.02 226.471 479.628V490.084H222.836V480.175C222.836 478.588 222.439 477.376 221.645 476.54C220.852 475.682 219.769 475.253 218.396 475.253C217.023 475.253 215.929 475.682 215.114 476.54C214.321 477.376 213.924 478.588 213.924 480.175V490.084H210.256V466.276H213.924V474.416C214.546 473.665 215.329 473.086 216.272 472.679C217.238 472.271 218.289 472.067 219.425 472.067ZM247.397 480.786C247.397 481.451 247.354 482.052 247.269 482.588H233.724C233.831 484.004 234.356 485.141 235.3 485.998C236.244 486.856 237.402 487.285 238.775 487.285C240.748 487.285 242.142 486.46 242.957 484.808H246.915C246.378 486.438 245.403 487.779 243.987 488.83C242.593 489.859 240.855 490.374 238.775 490.374C237.08 490.374 235.558 489.999 234.206 489.248C232.876 488.476 231.825 487.403 231.053 486.031C230.303 484.636 229.927 483.028 229.927 481.205C229.927 479.382 230.292 477.784 231.021 476.411C231.772 475.017 232.812 473.944 234.142 473.194C235.493 472.443 237.038 472.067 238.775 472.067C240.448 472.067 241.939 472.432 243.247 473.161C244.555 473.891 245.574 474.92 246.303 476.25C247.033 477.558 247.397 479.071 247.397 480.786ZM243.569 479.628C243.547 478.277 243.065 477.194 242.121 476.379C241.177 475.564 240.008 475.156 238.614 475.156C237.349 475.156 236.265 475.564 235.365 476.379C234.464 477.172 233.927 478.255 233.756 479.628H243.569ZM283.172 472.357L277.671 490.084H273.81L270.239 476.99L266.668 490.084H262.807L257.273 472.357H261.005L264.705 486.61L268.469 472.357H272.298L275.901 486.545L279.569 472.357H283.172ZM302.161 480.786C302.161 481.451 302.118 482.052 302.032 482.588H288.487C288.595 484.004 289.12 485.141 290.064 485.998C291.008 486.856 292.166 487.285 293.538 487.285C295.512 487.285 296.906 486.46 297.721 484.808H301.678C301.142 486.438 300.166 487.779 298.751 488.83C297.356 489.859 295.619 490.374 293.538 490.374C291.844 490.374 290.321 489.999 288.97 489.248C287.64 488.476 286.589 487.403 285.817 486.031C285.066 484.636 284.691 483.028 284.691 481.205C284.691 479.382 285.055 477.784 285.785 476.411C286.535 475.017 287.576 473.944 288.906 473.194C290.257 472.443 291.801 472.067 293.538 472.067C295.211 472.067 296.702 472.432 298.011 473.161C299.319 473.891 300.338 474.92 301.067 476.25C301.796 477.558 302.161 479.071 302.161 480.786ZM298.332 479.628C298.311 478.277 297.828 477.194 296.884 476.379C295.941 475.564 294.772 475.156 293.378 475.156C292.112 475.156 291.029 475.564 290.128 476.379C289.227 477.172 288.691 478.255 288.519 479.628H298.332ZM309.438 474.995C310.06 474.137 310.907 473.44 311.98 472.904C313.074 472.346 314.286 472.067 315.615 472.067C317.181 472.067 318.597 472.443 319.862 473.194C321.128 473.944 322.125 475.017 322.854 476.411C323.584 477.784 323.948 479.36 323.948 481.14C323.948 482.921 323.584 484.519 322.854 485.934C322.125 487.328 321.117 488.422 319.83 489.216C318.565 489.988 317.16 490.374 315.615 490.374C314.243 490.374 313.02 490.106 311.948 489.57C310.897 489.033 310.06 488.347 309.438 487.511V490.084H305.77V466.276H309.438V474.995ZM320.216 481.14C320.216 479.918 319.959 478.867 319.444 477.987C318.951 477.086 318.286 476.411 317.449 475.96C316.634 475.489 315.755 475.253 314.811 475.253C313.889 475.253 313.009 475.489 312.173 475.96C311.358 476.432 310.693 477.119 310.178 478.02C309.685 478.92 309.438 479.982 309.438 481.205C309.438 482.427 309.685 483.5 310.178 484.422C310.693 485.323 311.358 486.009 312.173 486.481C313.009 486.953 313.889 487.189 314.811 487.189C315.755 487.189 316.634 486.953 317.449 486.481C318.286 485.988 318.951 485.28 319.444 484.358C319.959 483.435 320.216 482.363 320.216 481.14ZM334.01 490.374C332.616 490.374 331.361 490.127 330.246 489.634C329.152 489.119 328.283 488.433 327.64 487.575C326.996 486.696 326.653 485.72 326.61 484.647H330.406C330.471 485.398 330.825 486.031 331.468 486.545C332.133 487.039 332.959 487.285 333.946 487.285C334.975 487.285 335.769 487.092 336.326 486.706C336.905 486.299 337.195 485.784 337.195 485.162C337.195 484.497 336.873 484.004 336.23 483.682C335.608 483.36 334.61 483.006 333.238 482.62C331.908 482.256 330.825 481.902 329.988 481.559C329.152 481.215 328.422 480.69 327.8 479.982C327.2 479.274 326.9 478.341 326.9 477.183C326.9 476.239 327.178 475.381 327.736 474.609C328.294 473.816 329.087 473.194 330.117 472.743C331.168 472.293 332.369 472.067 333.72 472.067C335.737 472.067 337.356 472.582 338.578 473.612C339.823 474.62 340.487 476.003 340.573 477.762H336.905C336.841 476.969 336.519 476.336 335.94 475.864C335.361 475.392 334.578 475.156 333.592 475.156C332.626 475.156 331.886 475.338 331.372 475.703C330.857 476.068 330.6 476.55 330.6 477.151C330.6 477.623 330.771 478.02 331.114 478.341C331.457 478.663 331.876 478.92 332.369 479.113C332.862 479.285 333.592 479.51 334.557 479.789C335.844 480.132 336.895 480.486 337.71 480.851C338.546 481.194 339.265 481.709 339.865 482.395C340.466 483.081 340.777 483.993 340.798 485.13C340.798 486.138 340.52 487.039 339.962 487.832C339.404 488.626 338.611 489.248 337.581 489.698C336.573 490.149 335.383 490.374 334.01 490.374ZM346.628 470.008C345.963 470.008 345.405 469.783 344.955 469.333C344.504 468.882 344.279 468.325 344.279 467.66C344.279 466.995 344.504 466.437 344.955 465.987C345.405 465.536 345.963 465.311 346.628 465.311C347.271 465.311 347.818 465.536 348.268 465.987C348.719 466.437 348.944 466.995 348.944 467.66C348.944 468.325 348.719 468.882 348.268 469.333C347.818 469.783 347.271 470.008 346.628 470.008ZM348.429 472.357V490.084H344.762V472.357H348.429ZM357.524 475.349V485.162C357.524 485.827 357.674 486.309 357.974 486.61C358.296 486.889 358.832 487.028 359.583 487.028H361.835V490.084H358.939C357.288 490.084 356.022 489.698 355.143 488.926C354.264 488.154 353.824 486.899 353.824 485.162V475.349H351.733V472.357H353.824V467.949H357.524V472.357H361.835V475.349H357.524ZM381.463 480.786C381.463 481.451 381.42 482.052 381.334 482.588H367.789C367.897 484.004 368.422 485.141 369.366 485.998C370.31 486.856 371.468 487.285 372.84 487.285C374.814 487.285 376.208 486.46 377.023 484.808H380.98C380.444 486.438 379.468 487.779 378.053 488.83C376.658 489.859 374.921 490.374 372.84 490.374C371.146 490.374 369.623 489.999 368.272 489.248C366.942 488.476 365.891 487.403 365.119 486.031C364.368 484.636 363.993 483.028 363.993 481.205C363.993 479.382 364.357 477.784 365.087 476.411C365.837 475.017 366.878 473.944 368.208 473.194C369.559 472.443 371.103 472.067 372.84 472.067C374.513 472.067 376.004 472.432 377.313 473.161C378.621 473.891 379.64 474.92 380.369 476.25C381.098 477.558 381.463 479.071 381.463 480.786ZM377.634 479.628C377.613 478.277 377.13 477.194 376.186 476.379C375.243 475.564 374.074 475.156 372.68 475.156C371.414 475.156 370.331 475.564 369.43 476.379C368.529 477.172 367.993 478.255 367.821 479.628H377.634Z" fill="#1F536F"/>
<rect x="25.8057" y="530.858" width="403.506" height="121.99" rx="13.4055" fill="white"/>
<path d="M62.1295 551.974V553.561H58.0542V566.923H56.1024V553.561H52.0056V551.974H62.1295ZM70.3662 554.955C71.2527 554.955 72.0535 555.148 72.7684 555.534C73.4834 555.906 74.041 556.471 74.4414 557.228C74.8561 557.986 75.0634 558.909 75.0634 559.995V566.923H73.133V560.274C73.133 559.102 72.8399 558.208 72.2536 557.593C71.6674 556.964 70.8666 556.649 69.8514 556.649C68.8218 556.649 67.9996 556.971 67.3848 557.615C66.7842 558.258 66.4839 559.195 66.4839 560.424V566.923H64.5321V551.051H66.4839V556.842C66.87 556.242 67.3991 555.777 68.0711 555.448C68.7575 555.119 69.5225 554.955 70.3662 554.955ZM88.9762 560.596C88.9762 560.968 88.9547 561.361 88.9118 561.776H79.5173C79.5888 562.934 79.982 563.842 80.6969 564.5C81.4262 565.143 82.3056 565.465 83.3351 565.465C84.1788 565.465 84.8795 565.272 85.4371 564.886C86.0091 564.485 86.4095 563.956 86.6383 563.298H88.7402C88.4257 564.428 87.7965 565.35 86.8528 566.065C85.909 566.766 84.7365 567.116 83.3351 567.116C82.2198 567.116 81.2189 566.866 80.3323 566.366C79.4601 565.865 78.7737 565.157 78.2732 564.242C77.7728 563.313 77.5225 562.24 77.5225 561.025C77.5225 559.809 77.7656 558.744 78.2518 557.829C78.7379 556.914 79.4172 556.213 80.2894 555.727C81.176 555.227 82.1912 554.976 83.3351 554.976C84.4505 554.976 85.4371 555.219 86.2951 555.706C87.153 556.192 87.8108 556.864 88.2684 557.722C88.7402 558.565 88.9762 559.523 88.9762 560.596ZM86.96 560.188C86.96 559.445 86.7956 558.809 86.4667 558.279C86.1378 557.736 85.6874 557.329 85.1154 557.057C84.5577 556.771 83.9357 556.628 83.2493 556.628C82.2627 556.628 81.4191 556.942 80.7184 557.572C80.032 558.201 79.6388 559.073 79.5387 560.188H86.96ZM102.054 556.778H99.5873V566.923H97.6355V556.778H96.1126V555.169H97.6355V554.333C97.6355 553.017 97.9715 552.059 98.6436 551.459C99.3299 550.844 100.424 550.536 101.925 550.536V552.167C101.067 552.167 100.46 552.338 100.102 552.681C99.7589 553.01 99.5873 553.561 99.5873 554.333V555.169H102.054V556.778ZM105.338 553.26C104.966 553.26 104.651 553.132 104.394 552.874C104.137 552.617 104.008 552.302 104.008 551.931C104.008 551.559 104.137 551.244 104.394 550.987C104.651 550.729 104.966 550.601 105.338 550.601C105.695 550.601 105.996 550.729 106.239 550.987C106.496 551.244 106.625 551.559 106.625 551.931C106.625 552.302 106.496 552.617 106.239 552.874C105.996 553.132 105.695 553.26 105.338 553.26ZM106.282 555.169V566.923H104.33V555.169H106.282ZM111.56 557.078C111.903 556.406 112.389 555.884 113.018 555.513C113.662 555.141 114.441 554.955 115.356 554.955V556.971H114.842C112.654 556.971 111.56 558.158 111.56 560.532V566.923H109.608V555.169H111.56V557.078ZM121.771 567.116C120.87 567.116 120.062 566.966 119.347 566.666C118.632 566.351 118.067 565.922 117.652 565.379C117.238 564.821 117.009 564.185 116.966 563.47H118.982C119.039 564.056 119.311 564.535 119.797 564.907C120.298 565.279 120.948 565.465 121.749 565.465C122.493 565.465 123.079 565.3 123.508 564.971C123.937 564.643 124.151 564.228 124.151 563.727C124.151 563.213 123.923 562.834 123.465 562.591C123.007 562.333 122.3 562.083 121.342 561.84C120.469 561.611 119.754 561.382 119.197 561.154C118.653 560.911 118.181 560.56 117.781 560.103C117.395 559.631 117.202 559.016 117.202 558.258C117.202 557.657 117.381 557.107 117.738 556.606C118.096 556.106 118.603 555.713 119.261 555.427C119.919 555.126 120.67 554.976 121.513 554.976C122.814 554.976 123.865 555.305 124.666 555.963C125.467 556.621 125.896 557.522 125.953 558.666H124.001C123.958 558.051 123.708 557.557 123.251 557.186C122.807 556.814 122.207 556.628 121.449 556.628C120.748 556.628 120.191 556.778 119.776 557.078C119.361 557.379 119.154 557.772 119.154 558.258C119.154 558.644 119.275 558.966 119.518 559.223C119.776 559.466 120.09 559.666 120.462 559.824C120.848 559.967 121.377 560.131 122.049 560.317C122.893 560.546 123.579 560.775 124.109 561.003C124.638 561.218 125.088 561.547 125.46 561.99C125.846 562.433 126.046 563.013 126.06 563.727C126.06 564.371 125.882 564.95 125.524 565.465C125.167 565.98 124.659 566.387 124.001 566.687C123.358 566.973 122.614 567.116 121.771 567.116ZM131.197 556.778V563.706C131.197 564.278 131.318 564.686 131.561 564.929C131.804 565.157 132.226 565.272 132.827 565.272H134.264V566.923H132.505C131.418 566.923 130.603 566.673 130.06 566.173C129.516 565.672 129.245 564.85 129.245 563.706V556.778H127.722V555.169H129.245V552.209H131.197V555.169H134.264V556.778H131.197ZM143.355 553.26C142.983 553.26 142.669 553.132 142.411 552.874C142.154 552.617 142.025 552.302 142.025 551.931C142.025 551.559 142.154 551.244 142.411 550.987C142.669 550.729 142.983 550.601 143.355 550.601C143.712 550.601 144.013 550.729 144.256 550.987C144.513 551.244 144.642 551.559 144.642 551.931C144.642 552.302 144.513 552.617 144.256 552.874C144.013 553.132 143.712 553.26 143.355 553.26ZM144.299 555.169V566.923H142.347V555.169H144.299ZM153.352 554.955C154.782 554.955 155.94 555.391 156.827 556.263C157.713 557.121 158.157 558.365 158.157 559.995V566.923H156.226V560.274C156.226 559.102 155.933 558.208 155.347 557.593C154.761 556.964 153.96 556.649 152.945 556.649C151.915 556.649 151.093 556.971 150.478 557.615C149.877 558.258 149.577 559.195 149.577 560.424V566.923H147.625V555.169H149.577V556.842C149.963 556.242 150.485 555.777 151.143 555.448C151.815 555.119 152.551 554.955 153.352 554.955ZM163.726 556.778V563.706C163.726 564.278 163.847 564.686 164.09 564.929C164.334 565.157 164.755 565.272 165.356 565.272H166.793V566.923H165.034C163.947 566.923 163.132 566.673 162.589 566.173C162.046 565.672 161.774 564.85 161.774 563.706V556.778H160.251V555.169H161.774V552.209H163.726V555.169H166.793V556.778H163.726ZM179.882 560.596C179.882 560.968 179.861 561.361 179.818 561.776H170.423C170.495 562.934 170.888 563.842 171.603 564.5C172.332 565.143 173.212 565.465 174.241 565.465C175.085 565.465 175.786 565.272 176.343 564.886C176.915 564.485 177.316 563.956 177.544 563.298H179.646C179.332 564.428 178.703 565.35 177.759 566.065C176.815 566.766 175.643 567.116 174.241 567.116C173.126 567.116 172.125 566.866 171.238 566.366C170.366 565.865 169.68 565.157 169.179 564.242C168.679 563.313 168.429 562.24 168.429 561.025C168.429 559.809 168.672 558.744 169.158 557.829C169.644 556.914 170.323 556.213 171.196 555.727C172.082 555.227 173.097 554.976 174.241 554.976C175.357 554.976 176.343 555.219 177.201 555.706C178.059 556.192 178.717 556.864 179.174 557.722C179.646 558.565 179.882 559.523 179.882 560.596ZM177.866 560.188C177.866 559.445 177.702 558.809 177.373 558.279C177.044 557.736 176.593 557.329 176.022 557.057C175.464 556.771 174.842 556.628 174.155 556.628C173.169 556.628 172.325 556.942 171.625 557.572C170.938 558.201 170.545 559.073 170.445 560.188H177.866ZM184.411 557.078C184.754 556.406 185.24 555.884 185.869 555.513C186.513 555.141 187.292 554.955 188.207 554.955V556.971H187.692C185.504 556.971 184.411 558.158 184.411 560.532V566.923H182.459V555.169H184.411V557.078ZM189.731 561.003C189.731 559.802 189.974 558.751 190.46 557.85C190.946 556.935 191.611 556.228 192.455 555.727C193.313 555.227 194.264 554.976 195.308 554.976C196.337 554.976 197.231 555.198 197.989 555.641C198.746 556.085 199.311 556.642 199.683 557.314V555.169H201.656V566.923H199.683V564.736C199.297 565.422 198.718 565.994 197.946 566.451C197.188 566.895 196.301 567.116 195.286 567.116C194.242 567.116 193.298 566.859 192.455 566.344C191.611 565.829 190.946 565.107 190.46 564.178C189.974 563.248 189.731 562.19 189.731 561.003ZM199.683 561.025C199.683 560.138 199.504 559.366 199.147 558.708C198.789 558.051 198.303 557.55 197.688 557.207C197.088 556.85 196.423 556.671 195.694 556.671C194.964 556.671 194.299 556.842 193.699 557.186C193.098 557.529 192.619 558.029 192.262 558.687C191.904 559.345 191.726 560.117 191.726 561.003C191.726 561.904 191.904 562.691 192.262 563.363C192.619 564.021 193.098 564.528 193.699 564.886C194.299 565.229 194.964 565.4 195.694 565.4C196.423 565.4 197.088 565.229 197.688 564.886C198.303 564.528 198.789 564.021 199.147 563.363C199.504 562.691 199.683 561.911 199.683 561.025ZM204.226 561.025C204.226 559.809 204.469 558.751 204.955 557.85C205.441 556.935 206.113 556.228 206.971 555.727C207.843 555.227 208.837 554.976 209.952 554.976C211.397 554.976 212.583 555.327 213.513 556.027C214.457 556.728 215.079 557.7 215.379 558.944H213.277C213.077 558.229 212.684 557.665 212.097 557.25C211.525 556.835 210.81 556.628 209.952 556.628C208.837 556.628 207.936 557.014 207.25 557.786C206.563 558.544 206.22 559.624 206.22 561.025C206.22 562.441 206.563 563.534 207.25 564.307C207.936 565.079 208.837 565.465 209.952 565.465C210.81 565.465 211.525 565.265 212.097 564.864C212.669 564.464 213.062 563.892 213.277 563.148H215.379C215.064 564.349 214.435 565.315 213.491 566.044C212.548 566.759 211.368 567.116 209.952 567.116C208.837 567.116 207.843 566.866 206.971 566.366C206.113 565.865 205.441 565.157 204.955 564.242C204.469 563.327 204.226 562.255 204.226 561.025ZM220.364 556.778V563.706C220.364 564.278 220.486 564.686 220.729 564.929C220.972 565.157 221.394 565.272 221.994 565.272H223.431V566.923H221.672C220.586 566.923 219.771 566.673 219.227 566.173C218.684 565.672 218.412 564.85 218.412 563.706V556.778H216.889V555.169H218.412V552.209H220.364V555.169H223.431V556.778H220.364ZM226.804 553.26C226.432 553.26 226.118 553.132 225.861 552.874C225.603 552.617 225.474 552.302 225.474 551.931C225.474 551.559 225.603 551.244 225.861 550.987C226.118 550.729 226.432 550.601 226.804 550.601C227.162 550.601 227.462 550.729 227.705 550.987C227.963 551.244 228.091 551.559 228.091 551.931C228.091 552.302 227.963 552.617 227.705 552.874C227.462 553.132 227.162 553.26 226.804 553.26ZM227.748 555.169V566.923H225.796V555.169H227.748ZM236.201 567.116C235.1 567.116 234.099 566.866 233.198 566.366C232.311 565.865 231.611 565.157 231.096 564.242C230.596 563.313 230.345 562.24 230.345 561.025C230.345 559.824 230.603 558.766 231.118 557.85C231.647 556.921 232.362 556.213 233.262 555.727C234.163 555.227 235.171 554.976 236.287 554.976C237.402 554.976 238.41 555.227 239.311 555.727C240.212 556.213 240.92 556.914 241.434 557.829C241.963 558.744 242.228 559.809 242.228 561.025C242.228 562.24 241.956 563.313 241.413 564.242C240.884 565.157 240.162 565.865 239.247 566.366C238.331 566.866 237.316 567.116 236.201 567.116ZM236.201 565.4C236.902 565.4 237.559 565.236 238.174 564.907C238.789 564.578 239.282 564.085 239.654 563.427C240.04 562.769 240.233 561.969 240.233 561.025C240.233 560.081 240.047 559.28 239.676 558.623C239.304 557.965 238.818 557.479 238.217 557.164C237.616 556.835 236.966 556.671 236.265 556.671C235.55 556.671 234.892 556.835 234.292 557.164C233.706 557.479 233.234 557.965 232.876 558.623C232.519 559.28 232.34 560.081 232.34 561.025C232.34 561.983 232.512 562.791 232.855 563.449C233.212 564.106 233.684 564.6 234.27 564.929C234.857 565.243 235.5 565.4 236.201 565.4ZM250.521 554.955C251.951 554.955 253.109 555.391 253.996 556.263C254.882 557.121 255.326 558.365 255.326 559.995V566.923H253.395V560.274C253.395 559.102 253.102 558.208 252.516 557.593C251.93 556.964 251.129 556.649 250.114 556.649C249.084 556.649 248.262 556.971 247.647 557.615C247.046 558.258 246.746 559.195 246.746 560.424V566.923H244.794V555.169H246.746V556.842C247.132 556.242 247.654 555.777 248.312 555.448C248.984 555.119 249.72 554.955 250.521 554.955ZM266.184 557.357C266.585 556.657 267.171 556.085 267.943 555.641C268.715 555.198 269.594 554.976 270.581 554.976C271.639 554.976 272.59 555.227 273.434 555.727C274.277 556.228 274.942 556.935 275.429 557.85C275.915 558.751 276.158 559.802 276.158 561.003C276.158 562.19 275.915 563.248 275.429 564.178C274.942 565.107 274.27 565.829 273.412 566.344C272.569 566.859 271.625 567.116 270.581 567.116C269.566 567.116 268.672 566.895 267.9 566.451C267.142 566.008 266.57 565.443 266.184 564.757V566.923H264.232V551.051H266.184V557.357ZM274.163 561.003C274.163 560.117 273.984 559.345 273.627 558.687C273.269 558.029 272.783 557.529 272.168 557.186C271.568 556.842 270.903 556.671 270.174 556.671C269.459 556.671 268.794 556.85 268.179 557.207C267.578 557.55 267.092 558.058 266.72 558.73C266.363 559.388 266.184 560.153 266.184 561.025C266.184 561.911 266.363 562.691 266.72 563.363C267.092 564.021 267.578 564.528 268.179 564.886C268.794 565.229 269.459 565.4 270.174 565.4C270.903 565.4 271.568 565.229 272.168 564.886C272.783 564.528 273.269 564.021 273.627 563.363C273.984 562.691 274.163 561.904 274.163 561.003ZM289.451 560.596C289.451 560.968 289.43 561.361 289.387 561.776H279.992C280.064 562.934 280.457 563.842 281.172 564.5C281.901 565.143 282.781 565.465 283.81 565.465C284.654 565.465 285.355 565.272 285.912 564.886C286.484 564.485 286.885 563.956 287.114 563.298H289.215C288.901 564.428 288.272 565.35 287.328 566.065C286.384 566.766 285.212 567.116 283.81 567.116C282.695 567.116 281.694 566.866 280.808 566.366C279.935 565.865 279.249 565.157 278.748 564.242C278.248 563.313 277.998 562.24 277.998 561.025C277.998 559.809 278.241 558.744 278.727 557.829C279.213 556.914 279.892 556.213 280.765 555.727C281.651 555.227 282.666 554.976 283.81 554.976C284.926 554.976 285.912 555.219 286.77 555.706C287.628 556.192 288.286 556.864 288.744 557.722C289.215 558.565 289.451 559.523 289.451 560.596ZM287.435 560.188C287.435 559.445 287.271 558.809 286.942 558.279C286.613 557.736 286.163 557.329 285.591 557.057C285.033 556.771 284.411 556.628 283.725 556.628C282.738 556.628 281.894 556.942 281.194 557.572C280.507 558.201 280.114 559.073 280.014 560.188H287.435ZM294.409 556.778V563.706C294.409 564.278 294.53 564.686 294.773 564.929C295.016 565.157 295.438 565.272 296.039 565.272H297.476V566.923H295.717C294.63 566.923 293.815 566.673 293.272 566.173C292.728 565.672 292.457 564.85 292.457 563.706V556.778H290.934V555.169H292.457V552.209H294.409V555.169H297.476V556.778H294.409ZM315.498 555.169L311.831 566.923H309.814L306.983 557.593L304.152 566.923H302.136L298.447 555.169H300.441L303.144 565.036L306.061 555.169H308.056L310.908 565.057L313.568 555.169H315.498ZM328.16 560.596C328.16 560.968 328.138 561.361 328.095 561.776H318.701C318.772 562.934 319.166 563.842 319.881 564.5C320.61 565.143 321.489 565.465 322.519 565.465C323.362 565.465 324.063 565.272 324.621 564.886C325.193 564.485 325.593 563.956 325.822 563.298H327.924C327.609 564.428 326.98 565.35 326.036 566.065C325.093 566.766 323.92 567.116 322.519 567.116C321.403 567.116 320.403 566.866 319.516 566.366C318.644 565.865 317.957 565.157 317.457 564.242C316.956 563.313 316.706 562.24 316.706 561.025C316.706 559.809 316.949 558.744 317.435 557.829C317.922 556.914 318.601 556.213 319.473 555.727C320.36 555.227 321.375 554.976 322.519 554.976C323.634 554.976 324.621 555.219 325.479 555.706C326.337 556.192 326.994 556.864 327.452 557.722C327.924 558.565 328.16 559.523 328.16 560.596ZM326.144 560.188C326.144 559.445 325.979 558.809 325.65 558.279C325.321 557.736 324.871 557.329 324.299 557.057C323.741 556.771 323.119 556.628 322.433 556.628C321.446 556.628 320.603 556.942 319.902 557.572C319.216 558.201 318.822 559.073 318.722 560.188H326.144ZM341.461 560.596C341.461 560.968 341.439 561.361 341.396 561.776H332.002C332.073 562.934 332.466 563.842 333.181 564.5C333.911 565.143 334.79 565.465 335.82 565.465C336.663 565.465 337.364 565.272 337.922 564.886C338.494 564.485 338.894 563.956 339.123 563.298H341.225C340.91 564.428 340.281 565.35 339.337 566.065C338.393 566.766 337.221 567.116 335.82 567.116C334.704 567.116 333.703 566.866 332.817 566.366C331.944 565.865 331.258 565.157 330.758 564.242C330.257 563.313 330.007 562.24 330.007 561.025C330.007 559.809 330.25 558.744 330.736 557.829C331.222 556.914 331.902 556.213 332.774 555.727C333.66 555.227 334.676 554.976 335.82 554.976C336.935 554.976 337.922 555.219 338.78 555.706C339.637 556.192 340.295 556.864 340.753 557.722C341.225 558.565 341.461 559.523 341.461 560.596ZM339.444 560.188C339.444 559.445 339.28 558.809 338.951 558.279C338.622 557.736 338.172 557.329 337.6 557.057C337.042 556.771 336.42 556.628 335.734 556.628C334.747 556.628 333.903 556.942 333.203 557.572C332.516 558.201 332.123 559.073 332.023 560.188H339.444ZM349.764 554.955C351.194 554.955 352.352 555.391 353.239 556.263C354.125 557.121 354.568 558.365 354.568 559.995V566.923H352.638V560.274C352.638 559.102 352.345 558.208 351.759 557.593C351.172 556.964 350.372 556.649 349.356 556.649C348.327 556.649 347.505 556.971 346.89 557.615C346.289 558.258 345.989 559.195 345.989 560.424V566.923H344.037V555.169H345.989V556.842C346.375 556.242 346.897 555.777 347.555 555.448C348.227 555.119 348.963 554.955 349.764 554.955ZM365.856 556.778V563.706C365.856 564.278 365.977 564.686 366.22 564.929C366.464 565.157 366.885 565.272 367.486 565.272H368.923V566.923H367.164C366.077 566.923 365.262 566.673 364.719 566.173C364.176 565.672 363.904 564.85 363.904 563.706V556.778H362.381V555.169H363.904V552.209H365.856V555.169H368.923V556.778H365.856ZM377.122 554.955C378.009 554.955 378.809 555.148 379.524 555.534C380.239 555.906 380.797 556.471 381.197 557.228C381.612 557.986 381.819 558.909 381.819 559.995V566.923H379.889V560.274C379.889 559.102 379.596 558.208 379.009 557.593C378.423 556.964 377.622 556.649 376.607 556.649C375.578 556.649 374.755 556.971 374.141 557.615C373.54 558.258 373.24 559.195 373.24 560.424V566.923H371.288V551.051H373.24V556.842C373.626 556.242 374.155 555.777 374.827 555.448C375.513 555.119 376.278 554.955 377.122 554.955ZM395.732 560.596C395.732 560.968 395.711 561.361 395.668 561.776H386.273C386.345 562.934 386.738 563.842 387.453 564.5C388.182 565.143 389.061 565.465 390.091 565.465C390.935 565.465 391.635 565.272 392.193 564.886C392.765 564.485 393.165 563.956 393.394 563.298H395.496C395.181 564.428 394.552 565.35 393.609 566.065C392.665 566.766 391.492 567.116 390.091 567.116C388.976 567.116 387.975 566.866 387.088 566.366C386.216 565.865 385.529 565.157 385.029 564.242C384.529 563.313 384.278 562.24 384.278 561.025C384.278 559.809 384.521 558.744 385.008 557.829C385.494 556.914 386.173 556.213 387.045 555.727C387.932 555.227 388.947 554.976 390.091 554.976C391.206 554.976 392.193 555.219 393.051 555.706C393.909 556.192 394.567 556.864 395.024 557.722C395.496 558.565 395.732 559.523 395.732 560.596ZM393.716 560.188C393.716 559.445 393.551 558.809 393.222 558.279C392.894 557.736 392.443 557.329 391.871 557.057C391.314 556.771 390.692 556.628 390.005 556.628C389.019 556.628 388.175 556.942 387.474 557.572C386.788 558.201 386.395 559.073 386.295 560.188H393.716ZM57.089 599.116C56.1881 599.116 55.3802 598.966 54.6653 598.666C53.9503 598.351 53.3855 597.922 52.9708 597.379C52.5561 596.821 52.3274 596.185 52.2845 595.47H54.3007C54.3578 596.056 54.6295 596.535 55.1157 596.907C55.6162 597.279 56.2668 597.465 57.0675 597.465C57.8111 597.465 58.3974 597.3 58.8264 596.971C59.2553 596.643 59.4698 596.228 59.4698 595.727C59.4698 595.213 59.241 594.834 58.7835 594.591C58.3259 594.333 57.6181 594.083 56.66 593.84C55.7878 593.611 55.0728 593.382 54.5151 593.154C53.9718 592.911 53.4999 592.56 53.0995 592.103C52.7134 591.631 52.5204 591.016 52.5204 590.258C52.5204 589.657 52.6991 589.107 53.0566 588.606C53.4141 588.106 53.9217 587.713 54.5795 587.427C55.2372 587.126 55.988 586.976 56.8316 586.976C58.1328 586.976 59.1838 587.305 59.9846 587.963C60.7853 588.621 61.2143 589.522 61.2715 590.666H59.3197C59.2768 590.051 59.0265 589.557 58.569 589.186C58.1257 588.814 57.5251 588.628 56.7673 588.628C56.0666 588.628 55.5089 588.778 55.0943 589.078C54.6796 589.379 54.4722 589.772 54.4722 590.258C54.4722 590.644 54.5938 590.966 54.8369 591.223C55.0943 591.466 55.4088 591.666 55.7806 591.824C56.1667 591.967 56.6958 592.131 57.3678 592.317C58.2115 592.546 58.8978 592.775 59.4269 593.003C59.956 593.218 60.4064 593.547 60.7782 593.99C61.1643 594.433 61.3645 595.013 61.3788 595.727C61.3788 596.371 61.2 596.95 60.8425 597.465C60.4851 597.98 59.9774 598.387 59.3197 598.687C58.6762 598.973 57.9327 599.116 57.089 599.116ZM66.5149 588.778V595.706C66.5149 596.278 66.6365 596.686 66.8795 596.929C67.1226 597.157 67.5445 597.272 68.145 597.272H69.5821V598.923H67.8233C66.7366 598.923 65.9215 598.673 65.3781 598.173C64.8348 597.672 64.5631 596.85 64.5631 595.706V588.778H63.0402V587.169H64.5631V584.209H66.5149V587.169H69.5821V588.778H66.5149ZM82.3711 587.169V598.923H80.4193V597.186C80.0475 597.787 79.5256 598.258 78.8535 598.602C78.1958 598.93 77.4665 599.095 76.6657 599.095C75.7506 599.095 74.9284 598.909 74.1991 598.537C73.4699 598.151 72.8907 597.579 72.4618 596.821C72.0471 596.063 71.8398 595.141 71.8398 594.054V587.169H73.7701V593.797C73.7701 594.955 74.0633 595.849 74.6495 596.478C75.2358 597.093 76.0366 597.4 77.0518 597.4C78.0957 597.4 78.9179 597.079 79.5184 596.435C80.119 595.792 80.4193 594.855 80.4193 593.625V587.169H82.3711ZM84.9374 593.003C84.9374 591.802 85.1805 590.751 85.6667 589.85C86.1529 588.935 86.8178 588.228 87.6614 587.727C88.5194 587.227 89.4774 586.976 90.5356 586.976C91.4507 586.976 92.3015 587.191 93.088 587.62C93.8744 588.034 94.475 588.585 94.8897 589.271V583.051H96.863V598.923H94.8897V596.714C94.5036 597.415 93.9316 597.994 93.1738 598.451C92.4159 598.895 91.5294 599.116 90.5141 599.116C89.4703 599.116 88.5194 598.859 87.6614 598.344C86.8178 597.829 86.1529 597.107 85.6667 596.178C85.1805 595.248 84.9374 594.19 84.9374 593.003ZM94.8897 593.025C94.8897 592.138 94.711 591.366 94.3535 590.708C93.996 590.051 93.5098 589.55 92.895 589.207C92.2944 588.85 91.6295 588.671 90.9002 588.671C90.171 588.671 89.506 588.842 88.9055 589.186C88.3049 589.529 87.8259 590.029 87.4684 590.687C87.1109 591.345 86.9322 592.117 86.9322 593.003C86.9322 593.904 87.1109 594.691 87.4684 595.363C87.8259 596.021 88.3049 596.528 88.9055 596.886C89.506 597.229 90.171 597.4 90.9002 597.4C91.6295 597.4 92.2944 597.229 92.895 596.886C93.5098 596.528 93.996 596.021 94.3535 595.363C94.711 594.691 94.8897 593.911 94.8897 593.025ZM110.886 592.596C110.886 592.968 110.864 593.361 110.821 593.776H101.427C101.498 594.934 101.892 595.842 102.607 596.5C103.336 597.143 104.215 597.465 105.245 597.465C106.088 597.465 106.789 597.272 107.347 596.886C107.919 596.485 108.319 595.956 108.548 595.298H110.65C110.335 596.428 109.706 597.35 108.762 598.065C107.819 598.766 106.646 599.116 105.245 599.116C104.129 599.116 103.128 598.866 102.242 598.366C101.37 597.865 100.683 597.157 100.183 596.242C99.6824 595.313 99.4321 594.24 99.4321 593.025C99.4321 591.809 99.6752 590.744 100.161 589.829C100.648 588.914 101.327 588.213 102.199 587.727C103.086 587.227 104.101 586.976 105.245 586.976C106.36 586.976 107.347 587.219 108.205 587.706C109.063 588.192 109.72 588.864 110.178 589.722C110.65 590.565 110.886 591.523 110.886 592.596ZM108.87 592.188C108.87 591.445 108.705 590.809 108.376 590.279C108.047 589.736 107.597 589.329 107.025 589.057C106.467 588.771 105.845 588.628 105.159 588.628C104.172 588.628 103.329 588.942 102.628 589.572C101.942 590.201 101.548 591.073 101.448 592.188H108.87ZM119.189 586.955C120.619 586.955 121.777 587.391 122.664 588.263C123.55 589.121 123.994 590.365 123.994 591.995V598.923H122.063V592.274C122.063 591.102 121.77 590.208 121.184 589.593C120.597 588.964 119.797 588.649 118.781 588.649C117.752 588.649 116.93 588.971 116.315 589.615C115.714 590.258 115.414 591.195 115.414 592.424V598.923H113.462V587.169H115.414V588.842C115.8 588.242 116.322 587.777 116.98 587.448C117.652 587.119 118.388 586.955 119.189 586.955ZM129.563 588.778V595.706C129.563 596.278 129.684 596.686 129.927 596.929C130.17 597.157 130.592 597.272 131.193 597.272H132.63V598.923H130.871C129.784 598.923 128.969 598.673 128.426 598.173C127.883 597.672 127.611 596.85 127.611 595.706V588.778H126.088V587.169H127.611V584.209H129.563V587.169H132.63V588.778H129.563ZM139.984 593.003C139.984 591.802 140.227 590.751 140.713 589.85C141.199 588.935 141.864 588.228 142.708 587.727C143.566 587.227 144.517 586.976 145.561 586.976C146.59 586.976 147.484 587.198 148.242 587.641C148.999 588.085 149.564 588.642 149.936 589.314V587.169H151.909V598.923H149.936V596.736C149.55 597.422 148.971 597.994 148.199 598.451C147.441 598.895 146.554 599.116 145.539 599.116C144.495 599.116 143.551 598.859 142.708 598.344C141.864 597.829 141.199 597.107 140.713 596.178C140.227 595.248 139.984 594.19 139.984 593.003ZM149.936 593.025C149.936 592.138 149.757 591.366 149.4 590.708C149.042 590.051 148.556 589.55 147.941 589.207C147.341 588.85 146.676 588.671 145.947 588.671C145.217 588.671 144.552 588.842 143.952 589.186C143.351 589.529 142.872 590.029 142.515 590.687C142.157 591.345 141.979 592.117 141.979 593.003C141.979 593.904 142.157 594.691 142.515 595.363C142.872 596.021 143.351 596.528 143.952 596.886C144.552 597.229 145.217 597.4 145.947 597.4C146.676 597.4 147.341 597.229 147.941 596.886C148.556 596.528 149.042 596.021 149.4 595.363C149.757 594.691 149.936 593.911 149.936 593.025ZM160.935 586.955C162.365 586.955 163.523 587.391 164.409 588.263C165.296 589.121 165.739 590.365 165.739 591.995V598.923H163.809V592.274C163.809 591.102 163.516 590.208 162.929 589.593C162.343 588.964 161.542 588.649 160.527 588.649C159.498 588.649 158.675 588.971 158.06 589.615C157.46 590.258 157.16 591.195 157.16 592.424V598.923H155.208V587.169H157.16V588.842C157.546 588.242 158.068 587.777 158.725 587.448C159.397 587.119 160.134 586.955 160.935 586.955ZM168.198 593.003C168.198 591.802 168.441 590.751 168.927 589.85C169.414 588.935 170.079 588.228 170.922 587.727C171.78 587.227 172.738 586.976 173.796 586.976C174.712 586.976 175.562 587.191 176.349 587.62C177.135 588.034 177.736 588.585 178.15 589.271V583.051H180.124V598.923H178.15V596.714C177.764 597.415 177.192 597.994 176.435 598.451C175.677 598.895 174.79 599.116 173.775 599.116C172.731 599.116 171.78 598.859 170.922 598.344C170.079 597.829 169.414 597.107 168.927 596.178C168.441 595.248 168.198 594.19 168.198 593.003ZM178.15 593.025C178.15 592.138 177.972 591.366 177.614 590.708C177.257 590.051 176.771 589.55 176.156 589.207C175.555 588.85 174.89 588.671 174.161 588.671C173.432 588.671 172.767 588.842 172.166 589.186C171.566 589.529 171.087 590.029 170.729 590.687C170.372 591.345 170.193 592.117 170.193 593.003C170.193 593.904 170.372 594.691 170.729 595.363C171.087 596.021 171.566 596.528 172.166 596.886C172.767 597.229 173.432 597.4 174.161 597.4C174.89 597.4 175.555 597.229 176.156 596.886C176.771 596.528 177.257 596.021 177.614 595.363C177.972 594.691 178.15 593.911 178.15 593.025ZM191.521 588.778V595.706C191.521 596.278 191.643 596.686 191.886 596.929C192.129 597.157 192.551 597.272 193.151 597.272H194.588V598.923H192.83C191.743 598.923 190.928 598.673 190.385 598.173C189.841 597.672 189.569 596.85 189.569 595.706V588.778H188.047V587.169H189.569V584.209H191.521V587.169H194.588V588.778H191.521ZM202.787 586.955C203.674 586.955 204.475 587.148 205.19 587.534C205.905 587.906 206.462 588.471 206.863 589.228C207.277 589.986 207.485 590.909 207.485 591.995V598.923H205.554V592.274C205.554 591.102 205.261 590.208 204.675 589.593C204.089 588.964 203.288 588.649 202.273 588.649C201.243 588.649 200.421 588.971 199.806 589.615C199.206 590.258 198.905 591.195 198.905 592.424V598.923H196.953V583.051H198.905V588.842C199.291 588.242 199.82 587.777 200.492 587.448C201.179 587.119 201.944 586.955 202.787 586.955ZM221.397 592.596C221.397 592.968 221.376 593.361 221.333 593.776H211.939C212.01 594.934 212.403 595.842 213.118 596.5C213.848 597.143 214.727 597.465 215.756 597.465C216.6 597.465 217.301 597.272 217.858 596.886C218.43 596.485 218.831 595.956 219.06 595.298H221.162C220.847 596.428 220.218 597.35 219.274 598.065C218.33 598.766 217.158 599.116 215.756 599.116C214.641 599.116 213.64 598.866 212.754 598.366C211.881 597.865 211.195 597.157 210.695 596.242C210.194 595.313 209.944 594.24 209.944 593.025C209.944 591.809 210.187 590.744 210.673 589.829C211.159 588.914 211.838 588.213 212.711 587.727C213.597 587.227 214.613 586.976 215.756 586.976C216.872 586.976 217.858 587.219 218.716 587.706C219.574 588.192 220.232 588.864 220.69 589.722C221.162 590.565 221.397 591.523 221.397 592.596ZM219.381 592.188C219.381 591.445 219.217 590.809 218.888 590.279C218.559 589.736 218.109 589.329 217.537 589.057C216.979 588.771 216.357 588.628 215.671 588.628C214.684 588.628 213.84 588.942 213.14 589.572C212.453 590.201 212.06 591.073 211.96 592.188H219.381ZM230.7 585.26C230.328 585.26 230.014 585.132 229.757 584.874C229.499 584.617 229.37 584.302 229.37 583.931C229.37 583.559 229.499 583.244 229.757 582.987C230.014 582.729 230.328 582.601 230.7 582.601C231.058 582.601 231.358 582.729 231.601 582.987C231.858 583.244 231.987 583.559 231.987 583.931C231.987 584.302 231.858 584.617 231.601 584.874C231.358 585.132 231.058 585.26 230.7 585.26ZM231.644 587.169V598.923H229.692V587.169H231.644ZM240.697 586.955C242.127 586.955 243.286 587.391 244.172 588.263C245.059 589.121 245.502 590.365 245.502 591.995V598.923H243.572V592.274C243.572 591.102 243.278 590.208 242.692 589.593C242.106 588.964 241.305 588.649 240.29 588.649C239.26 588.649 238.438 588.971 237.823 589.615C237.223 590.258 236.922 591.195 236.922 592.424V598.923H234.971V587.169H236.922V588.842C237.308 588.242 237.83 587.777 238.488 587.448C239.16 587.119 239.897 586.955 240.697 586.955ZM251.071 588.778V595.706C251.071 596.278 251.193 596.686 251.436 596.929C251.679 597.157 252.101 597.272 252.701 597.272H254.138V598.923H252.379C251.293 598.923 250.478 598.673 249.934 598.173C249.391 597.672 249.119 596.85 249.119 595.706V588.778H247.596V587.169H249.119V584.209H251.071V587.169H254.138V588.778H251.071ZM267.228 592.596C267.228 592.968 267.206 593.361 267.163 593.776H257.769C257.84 594.934 258.233 595.842 258.948 596.5C259.678 597.143 260.557 597.465 261.587 597.465C262.43 597.465 263.131 597.272 263.689 596.886C264.261 596.485 264.661 595.956 264.89 595.298H266.992C266.677 596.428 266.048 597.35 265.104 598.065C264.16 598.766 262.988 599.116 261.587 599.116C260.471 599.116 259.47 598.866 258.584 598.366C257.711 597.865 257.025 597.157 256.525 596.242C256.024 595.313 255.774 594.24 255.774 593.025C255.774 591.809 256.017 590.744 256.503 589.829C256.989 588.914 257.669 588.213 258.541 587.727C259.427 587.227 260.443 586.976 261.587 586.976C262.702 586.976 263.689 587.219 264.546 587.706C265.404 588.192 266.062 588.864 266.52 589.722C266.992 590.565 267.228 591.523 267.228 592.596ZM265.211 592.188C265.211 591.445 265.047 590.809 264.718 590.279C264.389 589.736 263.939 589.329 263.367 589.057C262.809 588.771 262.187 588.628 261.501 588.628C260.514 588.628 259.67 588.942 258.97 589.572C258.283 590.201 257.89 591.073 257.79 592.188H265.211ZM271.756 589.078C272.099 588.406 272.585 587.884 273.214 587.513C273.858 587.141 274.637 586.955 275.552 586.955V588.971H275.037C272.85 588.971 271.756 590.158 271.756 592.532V598.923H269.804V587.169H271.756V589.078ZM282.588 588.778H280.122V598.923H278.17V588.778H276.647V587.169H278.17V586.333C278.17 585.017 278.506 584.059 279.178 583.459C279.864 582.844 280.958 582.536 282.46 582.536V584.167C281.602 584.167 280.994 584.338 280.637 584.681C280.293 585.01 280.122 585.561 280.122 586.333V587.169H282.588V588.778ZM284.135 593.003C284.135 591.802 284.378 590.751 284.864 589.85C285.35 588.935 286.015 588.228 286.859 587.727C287.717 587.227 288.668 586.976 289.712 586.976C290.741 586.976 291.635 587.198 292.393 587.641C293.151 588.085 293.715 588.642 294.087 589.314V587.169H296.061V598.923H294.087V596.736C293.701 597.422 293.122 597.994 292.35 598.451C291.592 598.895 290.705 599.116 289.69 599.116C288.646 599.116 287.703 598.859 286.859 598.344C286.015 597.829 285.35 597.107 284.864 596.178C284.378 595.248 284.135 594.19 284.135 593.003ZM294.087 593.025C294.087 592.138 293.908 591.366 293.551 590.708C293.194 590.051 292.707 589.55 292.092 589.207C291.492 588.85 290.827 588.671 290.098 588.671C289.368 588.671 288.704 588.842 288.103 589.186C287.502 589.529 287.023 590.029 286.666 590.687C286.308 591.345 286.13 592.117 286.13 593.003C286.13 593.904 286.308 594.691 286.666 595.363C287.023 596.021 287.502 596.528 288.103 596.886C288.704 597.229 289.368 597.4 290.098 597.4C290.827 597.4 291.492 597.229 292.092 596.886C292.707 596.528 293.194 596.021 293.551 595.363C293.908 594.691 294.087 593.911 294.087 593.025ZM298.63 593.025C298.63 591.809 298.873 590.751 299.359 589.85C299.845 588.935 300.517 588.228 301.375 587.727C302.247 587.227 303.241 586.976 304.357 586.976C305.801 586.976 306.988 587.327 307.917 588.027C308.861 588.728 309.483 589.7 309.783 590.944H307.681C307.481 590.229 307.088 589.665 306.501 589.25C305.929 588.835 305.214 588.628 304.357 588.628C303.241 588.628 302.34 589.014 301.654 589.786C300.968 590.544 300.624 591.624 300.624 593.025C300.624 594.441 300.968 595.534 301.654 596.307C302.34 597.079 303.241 597.465 304.357 597.465C305.214 597.465 305.929 597.265 306.501 596.864C307.073 596.464 307.467 595.892 307.681 595.148H309.783C309.468 596.349 308.839 597.315 307.896 598.044C306.952 598.759 305.772 599.116 304.357 599.116C303.241 599.116 302.247 598.866 301.375 598.366C300.517 597.865 299.845 597.157 299.359 596.242C298.873 595.327 298.63 594.255 298.63 593.025ZM323.112 592.596C323.112 592.968 323.09 593.361 323.047 593.776H313.653C313.724 594.934 314.118 595.842 314.833 596.5C315.562 597.143 316.441 597.465 317.471 597.465C318.314 597.465 319.015 597.272 319.573 596.886C320.145 596.485 320.545 595.956 320.774 595.298H322.876C322.561 596.428 321.932 597.35 320.988 598.065C320.045 598.766 318.872 599.116 317.471 599.116C316.355 599.116 315.354 598.866 314.468 598.366C313.596 597.865 312.909 597.157 312.409 596.242C311.908 595.313 311.658 594.24 311.658 593.025C311.658 591.809 311.901 590.744 312.387 589.829C312.874 588.914 313.553 588.213 314.425 587.727C315.312 587.227 316.327 586.976 317.471 586.976C318.586 586.976 319.573 587.219 320.431 587.706C321.289 588.192 321.946 588.864 322.404 589.722C322.876 590.565 323.112 591.523 323.112 592.596ZM321.096 592.188C321.096 591.445 320.931 590.809 320.602 590.279C320.273 589.736 319.823 589.329 319.251 589.057C318.693 588.771 318.071 588.628 317.385 588.628C316.398 588.628 315.555 588.942 314.854 589.572C314.168 590.201 313.774 591.073 313.674 592.188H321.096ZM326.31 599.052C325.938 599.052 325.624 598.923 325.366 598.666C325.109 598.409 324.98 598.094 324.98 597.722C324.98 597.35 325.109 597.036 325.366 596.778C325.624 596.521 325.938 596.392 326.31 596.392C326.668 596.392 326.968 596.521 327.211 596.778C327.468 597.036 327.597 597.35 327.597 597.722C327.597 598.094 327.468 598.409 327.211 598.666C326.968 598.923 326.668 599.052 326.31 599.052ZM64.4459 615.974V630.923H62.4941V624.146H54.8798V630.923H52.9279V615.974H54.8798V622.537H62.4941V615.974H64.4459ZM78.5031 624.596C78.5031 624.968 78.4817 625.361 78.4388 625.776H69.0442C69.1157 626.934 69.5089 627.842 70.2239 628.5C70.9531 629.143 71.8325 629.465 72.8621 629.465C73.7057 629.465 74.4064 629.272 74.9641 628.886C75.536 628.485 75.9364 627.956 76.1652 627.298H78.2672C77.9526 628.428 77.3234 629.35 76.3797 630.065C75.4359 630.766 74.2634 631.116 72.8621 631.116C71.7468 631.116 70.7458 630.866 69.8593 630.366C68.987 629.865 68.3006 629.157 67.8002 628.242C67.2997 627.313 67.0495 626.24 67.0495 625.025C67.0495 623.809 67.2925 622.744 67.7787 621.829C68.2649 620.914 68.9441 620.213 69.8164 619.727C70.7029 619.227 71.7182 618.976 72.8621 618.976C73.9774 618.976 74.9641 619.219 75.822 619.706C76.68 620.192 77.3377 620.864 77.7953 621.722C78.2672 622.565 78.5031 623.523 78.5031 624.596ZM76.4869 624.188C76.4869 623.445 76.3225 622.809 75.9936 622.279C75.6647 621.736 75.2143 621.329 74.6423 621.057C74.0847 620.771 73.4627 620.628 72.7763 620.628C71.7896 620.628 70.946 620.942 70.2453 621.572C69.559 622.201 69.1657 623.073 69.0656 624.188H76.4869ZM88.3721 610.719L82.4951 634.57H80.5647L86.4203 610.719H88.3721ZM95.4413 631.116C94.5405 631.116 93.7326 630.966 93.0176 630.666C92.3026 630.351 91.7378 629.922 91.3232 629.379C90.9085 628.821 90.6797 628.185 90.6368 627.47H92.653C92.7102 628.056 92.9819 628.535 93.468 628.907C93.9685 629.279 94.6191 629.465 95.4199 629.465C96.1634 629.465 96.7497 629.3 97.1787 628.971C97.6077 628.643 97.8221 628.228 97.8221 627.727C97.8221 627.213 97.5934 626.834 97.1358 626.591C96.6782 626.333 95.9704 626.083 95.0124 625.84C94.1401 625.611 93.4251 625.382 92.8675 625.154C92.3241 624.911 91.8522 624.56 91.4518 624.103C91.0658 623.631 90.8727 623.016 90.8727 622.258C90.8727 621.657 91.0515 621.107 91.4089 620.606C91.7664 620.106 92.2741 619.713 92.9318 619.427C93.5896 619.126 94.3403 618.976 95.1839 618.976C96.4852 618.976 97.5362 619.305 98.3369 619.963C99.1377 620.621 99.5666 621.522 99.6238 622.666H97.672C97.6291 622.051 97.3789 621.557 96.9213 621.186C96.478 620.814 95.8775 620.628 95.1196 620.628C94.4189 620.628 93.8613 620.778 93.4466 621.078C93.0319 621.379 92.8246 621.772 92.8246 622.258C92.8246 622.644 92.9461 622.966 93.1892 623.223C93.4466 623.466 93.7612 623.666 94.1329 623.824C94.519 623.967 95.0481 624.131 95.7202 624.317C96.5638 624.546 97.2502 624.775 97.7792 625.003C98.3083 625.218 98.7587 625.547 99.1305 625.99C99.5166 626.433 99.7168 627.013 99.7311 627.727C99.7311 628.371 99.5523 628.95 99.1949 629.465C98.8374 629.98 98.3298 630.387 97.672 630.687C97.0285 630.973 96.285 631.116 95.4413 631.116ZM108.321 618.955C109.207 618.955 110.008 619.148 110.723 619.534C111.438 619.906 111.995 620.471 112.396 621.228C112.81 621.986 113.018 622.909 113.018 623.995V630.923H111.087V624.274C111.087 623.102 110.794 622.208 110.208 621.593C109.622 620.964 108.821 620.649 107.806 620.649C106.776 620.649 105.954 620.971 105.339 621.615C104.739 622.258 104.438 623.195 104.438 624.424V630.923H102.486V615.051H104.438V620.842C104.824 620.242 105.353 619.777 106.025 619.448C106.712 619.119 107.477 618.955 108.321 618.955ZM126.931 624.596C126.931 624.968 126.909 625.361 126.866 625.776H117.472C117.543 626.934 117.936 627.842 118.651 628.5C119.381 629.143 120.26 629.465 121.289 629.465C122.133 629.465 122.834 629.272 123.391 628.886C123.963 628.485 124.364 627.956 124.593 627.298H126.695C126.38 628.428 125.751 629.35 124.807 630.065C123.863 630.766 122.691 631.116 121.289 631.116C120.174 631.116 119.173 630.866 118.287 630.366C117.414 629.865 116.728 629.157 116.228 628.242C115.727 627.313 115.477 626.24 115.477 625.025C115.477 623.809 115.72 622.744 116.206 621.829C116.692 620.914 117.372 620.213 118.244 619.727C119.13 619.227 120.146 618.976 121.289 618.976C122.405 618.976 123.391 619.219 124.249 619.706C125.107 620.192 125.765 620.864 126.223 621.722C126.695 622.565 126.931 623.523 126.931 624.596ZM124.914 624.188C124.914 623.445 124.75 622.809 124.421 622.279C124.092 621.736 123.642 621.329 123.07 621.057C122.512 620.771 121.89 620.628 121.204 620.628C120.217 620.628 119.373 620.942 118.673 621.572C117.986 622.201 117.593 623.073 117.493 624.188H124.914ZM140.073 618.976C141.088 618.976 141.974 619.198 142.732 619.641C143.504 620.085 144.076 620.642 144.448 621.314V619.169H146.421V631.181C146.421 632.253 146.193 633.204 145.735 634.033C145.278 634.877 144.62 635.535 143.762 636.007C142.918 636.479 141.932 636.715 140.802 636.715C139.258 636.715 137.971 636.35 136.941 635.621C135.912 634.891 135.304 633.898 135.118 632.639H137.048C137.263 633.354 137.706 633.926 138.378 634.355C139.05 634.798 139.858 635.02 140.802 635.02C141.874 635.02 142.747 634.684 143.419 634.012C144.105 633.34 144.448 632.396 144.448 631.181V628.714C144.062 629.4 143.49 629.972 142.732 630.43C141.974 630.888 141.088 631.116 140.073 631.116C139.029 631.116 138.078 630.859 137.22 630.344C136.376 629.829 135.711 629.107 135.225 628.178C134.739 627.248 134.496 626.19 134.496 625.003C134.496 623.802 134.739 622.751 135.225 621.85C135.711 620.935 136.376 620.228 137.22 619.727C138.078 619.227 139.029 618.976 140.073 618.976ZM144.448 625.025C144.448 624.138 144.269 623.366 143.912 622.708C143.554 622.051 143.068 621.55 142.453 621.207C141.853 620.85 141.188 620.671 140.459 620.671C139.729 620.671 139.065 620.842 138.464 621.186C137.863 621.529 137.384 622.029 137.027 622.687C136.669 623.345 136.491 624.117 136.491 625.003C136.491 625.904 136.669 626.691 137.027 627.363C137.384 628.021 137.863 628.528 138.464 628.886C139.065 629.229 139.729 629.4 140.459 629.4C141.188 629.4 141.853 629.229 142.453 628.886C143.068 628.528 143.554 628.021 143.912 627.363C144.269 626.691 144.448 625.911 144.448 625.025ZM160.444 624.596C160.444 624.968 160.423 625.361 160.38 625.776H150.985C151.057 626.934 151.45 627.842 152.165 628.5C152.894 629.143 153.774 629.465 154.803 629.465C155.647 629.465 156.348 629.272 156.905 628.886C157.477 628.485 157.878 627.956 158.106 627.298H160.208C159.894 628.428 159.265 629.35 158.321 630.065C157.377 630.766 156.205 631.116 154.803 631.116C153.688 631.116 152.687 630.866 151.8 630.366C150.928 629.865 150.242 629.157 149.741 628.242C149.241 627.313 148.991 626.24 148.991 625.025C148.991 623.809 149.234 622.744 149.72 621.829C150.206 620.914 150.885 620.213 151.758 619.727C152.644 619.227 153.659 618.976 154.803 618.976C155.919 618.976 156.905 619.219 157.763 619.706C158.621 620.192 159.279 620.864 159.737 621.722C160.208 622.565 160.444 623.523 160.444 624.596ZM158.428 624.188C158.428 623.445 158.264 622.809 157.935 622.279C157.606 621.736 157.156 621.329 156.584 621.057C156.026 620.771 155.404 620.628 154.717 620.628C153.731 620.628 152.887 620.942 152.187 621.572C151.5 622.201 151.107 623.073 151.007 624.188H158.428ZM165.402 620.778V627.706C165.402 628.278 165.523 628.686 165.766 628.929C166.009 629.157 166.431 629.272 167.032 629.272H168.469V630.923H166.71C165.623 630.923 164.808 630.673 164.265 630.173C163.721 629.672 163.45 628.85 163.45 627.706V620.778H161.927V619.169H163.45V616.209H165.402V619.169H168.469V620.778H165.402ZM174.995 631.116C174.094 631.116 173.286 630.966 172.571 630.666C171.856 630.351 171.291 629.922 170.876 629.379C170.462 628.821 170.233 628.185 170.19 627.47H172.206C172.264 628.056 172.535 628.535 173.021 628.907C173.522 629.279 174.172 629.465 174.973 629.465C175.717 629.465 176.303 629.3 176.732 628.971C177.161 628.643 177.375 628.228 177.375 627.727C177.375 627.213 177.147 626.834 176.689 626.591C176.232 626.333 175.524 626.083 174.566 625.84C173.693 625.611 172.978 625.382 172.421 625.154C171.877 624.911 171.406 624.56 171.005 624.103C170.619 623.631 170.426 623.016 170.426 622.258C170.426 621.657 170.605 621.107 170.962 620.606C171.32 620.106 171.827 619.713 172.485 619.427C173.143 619.126 173.894 618.976 174.737 618.976C176.039 618.976 177.089 619.305 177.89 619.963C178.691 620.621 179.12 621.522 179.177 622.666H177.225C177.182 622.051 176.932 621.557 176.475 621.186C176.031 620.814 175.431 620.628 174.673 620.628C173.972 620.628 173.415 620.778 173 621.078C172.585 621.379 172.378 621.772 172.378 622.258C172.378 622.644 172.499 622.966 172.743 623.223C173 623.466 173.315 623.666 173.686 623.824C174.072 623.967 174.601 624.131 175.273 624.317C176.117 624.546 176.804 624.775 177.333 625.003C177.862 625.218 178.312 625.547 178.684 625.99C179.07 626.433 179.27 627.013 179.284 627.727C179.284 628.371 179.106 628.95 178.748 629.465C178.391 629.98 177.883 630.387 177.225 630.687C176.582 630.973 175.838 631.116 174.995 631.116ZM191.919 631.116C191.018 631.116 190.21 630.966 189.495 630.666C188.78 630.351 188.216 629.922 187.801 629.379C187.386 628.821 187.157 628.185 187.115 627.47H189.131C189.188 628.056 189.46 628.535 189.946 628.907C190.446 629.279 191.097 629.465 191.898 629.465C192.641 629.465 193.227 629.3 193.656 628.971C194.085 628.643 194.3 628.228 194.3 627.727C194.3 627.213 194.071 626.834 193.614 626.591C193.156 626.333 192.448 626.083 191.49 625.84C190.618 625.611 189.903 625.382 189.345 625.154C188.802 624.911 188.33 624.56 187.93 624.103C187.544 623.631 187.351 623.016 187.351 622.258C187.351 621.657 187.529 621.107 187.887 620.606C188.244 620.106 188.752 619.713 189.41 619.427C190.067 619.126 190.818 618.976 191.662 618.976C192.963 618.976 194.014 619.305 194.815 619.963C195.615 620.621 196.044 621.522 196.102 622.666H194.15C194.107 622.051 193.857 621.557 193.399 621.186C192.956 620.814 192.355 620.628 191.597 620.628C190.897 620.628 190.339 620.778 189.924 621.078C189.51 621.379 189.302 621.772 189.302 622.258C189.302 622.644 189.424 622.966 189.667 623.223C189.924 623.466 190.239 623.666 190.611 623.824C190.997 623.967 191.526 624.131 192.198 624.317C193.042 624.546 193.728 624.775 194.257 625.003C194.786 625.218 195.237 625.547 195.608 625.99C195.994 626.433 196.195 627.013 196.209 627.727C196.209 628.371 196.03 628.95 195.673 629.465C195.315 629.98 194.808 630.387 194.15 630.687C193.506 630.973 192.763 631.116 191.919 631.116ZM204.09 631.116C202.989 631.116 201.988 630.866 201.088 630.366C200.201 629.865 199.5 629.157 198.986 628.242C198.485 627.313 198.235 626.24 198.235 625.025C198.235 623.824 198.492 622.766 199.007 621.85C199.536 620.921 200.251 620.213 201.152 619.727C202.053 619.227 203.061 618.976 204.176 618.976C205.292 618.976 206.3 619.227 207.201 619.727C208.101 620.213 208.809 620.914 209.324 621.829C209.853 622.744 210.118 623.809 210.118 625.025C210.118 626.24 209.846 627.313 209.303 628.242C208.773 629.157 208.051 629.865 207.136 630.366C206.221 630.866 205.206 631.116 204.09 631.116ZM204.09 629.4C204.791 629.4 205.449 629.236 206.064 628.907C206.679 628.578 207.172 628.085 207.544 627.427C207.93 626.769 208.123 625.969 208.123 625.025C208.123 624.081 207.937 623.28 207.565 622.623C207.193 621.965 206.707 621.479 206.107 621.164C205.506 620.835 204.855 620.671 204.155 620.671C203.44 620.671 202.782 620.835 202.182 621.164C201.595 621.479 201.123 621.965 200.766 622.623C200.408 623.28 200.23 624.081 200.23 625.025C200.23 625.983 200.401 626.791 200.744 627.449C201.102 628.106 201.574 628.6 202.16 628.929C202.746 629.243 203.39 629.4 204.09 629.4ZM226.819 618.955C227.734 618.955 228.549 619.148 229.264 619.534C229.979 619.906 230.544 620.471 230.958 621.228C231.373 621.986 231.58 622.909 231.58 623.995V630.923H229.65V624.274C229.65 623.102 229.357 622.208 228.771 621.593C228.199 620.964 227.419 620.649 226.433 620.649C225.417 620.649 224.609 620.978 224.009 621.636C223.408 622.279 223.108 623.216 223.108 624.446V630.923H221.178V624.274C221.178 623.102 220.885 622.208 220.298 621.593C219.726 620.964 218.947 620.649 217.96 620.649C216.945 620.649 216.137 620.978 215.537 621.636C214.936 622.279 214.636 623.216 214.636 624.446V630.923H212.684V619.169H214.636V620.864C215.022 620.249 215.537 619.777 216.18 619.448C216.838 619.119 217.56 618.955 218.346 618.955C219.333 618.955 220.205 619.177 220.963 619.62C221.721 620.063 222.286 620.714 222.658 621.572C222.987 620.742 223.53 620.099 224.288 619.641C225.046 619.184 225.889 618.955 226.819 618.955ZM245.506 624.596C245.506 624.968 245.485 625.361 245.442 625.776H236.048C236.119 626.934 236.512 627.842 237.227 628.5C237.956 629.143 238.836 629.465 239.865 629.465C240.709 629.465 241.41 629.272 241.967 628.886C242.539 628.485 242.94 627.956 243.169 627.298H245.271C244.956 628.428 244.327 629.35 243.383 630.065C242.439 630.766 241.267 631.116 239.865 631.116C238.75 631.116 237.749 630.866 236.863 630.366C235.99 629.865 235.304 629.157 234.804 628.242C234.303 627.313 234.053 626.24 234.053 625.025C234.053 623.809 234.296 622.744 234.782 621.829C235.268 620.914 235.947 620.213 236.82 619.727C237.706 619.227 238.722 618.976 239.865 618.976C240.981 618.976 241.967 619.219 242.825 619.706C243.683 620.192 244.341 620.864 244.799 621.722C245.271 622.565 245.506 623.523 245.506 624.596ZM243.49 624.188C243.49 623.445 243.326 622.809 242.997 622.279C242.668 621.736 242.218 621.329 241.646 621.057C241.088 620.771 240.466 620.628 239.78 620.628C238.793 620.628 237.949 620.942 237.249 621.572C236.562 622.201 236.169 623.073 236.069 624.188H243.49ZM254.809 617.26C254.437 617.26 254.123 617.132 253.865 616.874C253.608 616.617 253.479 616.302 253.479 615.931C253.479 615.559 253.608 615.244 253.865 614.987C254.123 614.729 254.437 614.601 254.809 614.601C255.167 614.601 255.467 614.729 255.71 614.987C255.967 615.244 256.096 615.559 256.096 615.931C256.096 616.302 255.967 616.617 255.71 616.874C255.467 617.132 255.167 617.26 254.809 617.26ZM255.753 619.169V630.923H253.801V619.169H255.753ZM264.806 618.955C266.236 618.955 267.395 619.391 268.281 620.263C269.168 621.121 269.611 622.365 269.611 623.995V630.923H267.681V624.274C267.681 623.102 267.387 622.208 266.801 621.593C266.215 620.964 265.414 620.649 264.399 620.649C263.369 620.649 262.547 620.971 261.932 621.615C261.332 622.258 261.031 623.195 261.031 624.424V630.923H259.08V619.169H261.031V620.842C261.417 620.242 261.939 619.777 262.597 619.448C263.269 619.119 264.006 618.955 264.806 618.955ZM276.96 631.116C276.059 631.116 275.252 630.966 274.537 630.666C273.822 630.351 273.257 629.922 272.842 629.379C272.427 628.821 272.199 628.185 272.156 627.47H274.172C274.229 628.056 274.501 628.535 274.987 628.907C275.488 629.279 276.138 629.465 276.939 629.465C277.682 629.465 278.269 629.3 278.698 628.971C279.127 628.643 279.341 628.228 279.341 627.727C279.341 627.213 279.112 626.834 278.655 626.591C278.197 626.333 277.489 626.083 276.531 625.84C275.659 625.611 274.944 625.382 274.386 625.154C273.843 624.911 273.371 624.56 272.971 624.103C272.585 623.631 272.392 623.016 272.392 622.258C272.392 621.657 272.57 621.107 272.928 620.606C273.285 620.106 273.793 619.713 274.451 619.427C275.109 619.126 275.859 618.976 276.703 618.976C278.004 618.976 279.055 619.305 279.856 619.963C280.657 620.621 281.086 621.522 281.143 622.666H279.191C279.148 622.051 278.898 621.557 278.44 621.186C277.997 620.814 277.396 620.628 276.639 620.628C275.938 620.628 275.38 620.778 274.966 621.078C274.551 621.379 274.344 621.772 274.344 622.258C274.344 622.644 274.465 622.966 274.708 623.223C274.966 623.466 275.28 623.666 275.652 623.824C276.038 623.967 276.567 624.131 277.239 624.317C278.083 624.546 278.769 624.775 279.298 625.003C279.827 625.218 280.278 625.547 280.65 625.99C281.036 626.433 281.236 627.013 281.25 627.727C281.25 628.371 281.071 628.95 280.714 629.465C280.356 629.98 279.849 630.387 279.191 630.687C278.548 630.973 277.804 631.116 276.96 631.116ZM286.386 620.778V627.706C286.386 628.278 286.508 628.686 286.751 628.929C286.994 629.157 287.416 629.272 288.016 629.272H289.453V630.923H287.695C286.608 630.923 285.793 630.673 285.249 630.173C284.706 629.672 284.434 628.85 284.434 627.706V620.778H282.912V619.169H284.434V616.209H286.386V619.169H289.453V620.778H286.386ZM293.77 621.078C294.113 620.406 294.6 619.884 295.229 619.513C295.872 619.141 296.651 618.955 297.567 618.955V620.971H297.052C294.864 620.971 293.77 622.158 293.77 624.532V630.923H291.818V619.169H293.77V621.078ZM310.244 619.169V630.923H308.292V629.186C307.92 629.787 307.398 630.258 306.726 630.602C306.068 630.93 305.339 631.095 304.538 631.095C303.623 631.095 302.801 630.909 302.072 630.537C301.343 630.151 300.763 629.579 300.335 628.821C299.92 628.063 299.712 627.141 299.712 626.054V619.169H301.643V625.797C301.643 626.955 301.936 627.849 302.522 628.478C303.109 629.093 303.909 629.4 304.925 629.4C305.968 629.4 306.791 629.079 307.391 628.435C307.992 627.792 308.292 626.855 308.292 625.625V619.169H310.244ZM312.81 625.025C312.81 623.809 313.053 622.751 313.539 621.85C314.026 620.935 314.698 620.228 315.556 619.727C316.428 619.227 317.422 618.976 318.537 618.976C319.981 618.976 321.168 619.327 322.098 620.027C323.041 620.728 323.663 621.7 323.964 622.944H321.862C321.661 622.229 321.268 621.665 320.682 621.25C320.11 620.835 319.395 620.628 318.537 620.628C317.422 620.628 316.521 621.014 315.834 621.786C315.148 622.544 314.805 623.624 314.805 625.025C314.805 626.441 315.148 627.534 315.834 628.307C316.521 629.079 317.422 629.465 318.537 629.465C319.395 629.465 320.11 629.265 320.682 628.864C321.254 628.464 321.647 627.892 321.862 627.148H323.964C323.649 628.349 323.02 629.315 322.076 630.044C321.132 630.759 319.953 631.116 318.537 631.116C317.422 631.116 316.428 630.866 315.556 630.366C314.698 629.865 314.026 629.157 313.539 628.242C313.053 627.327 312.81 626.255 312.81 625.025ZM328.949 620.778V627.706C328.949 628.278 329.07 628.686 329.313 628.929C329.556 629.157 329.978 629.272 330.579 629.272H332.016V630.923H330.257C329.17 630.923 328.355 630.673 327.812 630.173C327.269 629.672 326.997 628.85 326.997 627.706V620.778H325.474V619.169H326.997V616.209H328.949V619.169H332.016V620.778H328.949ZM335.389 617.26C335.017 617.26 334.703 617.132 334.445 616.874C334.188 616.617 334.059 616.302 334.059 615.931C334.059 615.559 334.188 615.244 334.445 614.987C334.703 614.729 335.017 614.601 335.389 614.601C335.746 614.601 336.047 614.729 336.29 614.987C336.547 615.244 336.676 615.559 336.676 615.931C336.676 616.302 336.547 616.617 336.29 616.874C336.047 617.132 335.746 617.26 335.389 617.26ZM336.333 619.169V630.923H334.381V619.169H336.333ZM344.786 631.116C343.684 631.116 342.684 630.866 341.783 630.366C340.896 629.865 340.195 629.157 339.681 628.242C339.18 627.313 338.93 626.24 338.93 625.025C338.93 623.824 339.187 622.766 339.702 621.85C340.231 620.921 340.946 620.213 341.847 619.727C342.748 619.227 343.756 618.976 344.871 618.976C345.987 618.976 346.995 619.227 347.896 619.727C348.796 620.213 349.504 620.914 350.019 621.829C350.548 622.744 350.813 623.809 350.813 625.025C350.813 626.24 350.541 627.313 349.998 628.242C349.469 629.157 348.746 629.865 347.831 630.366C346.916 630.866 345.901 631.116 344.786 631.116ZM344.786 629.4C345.486 629.4 346.144 629.236 346.759 628.907C347.374 628.578 347.867 628.085 348.239 627.427C348.625 626.769 348.818 625.969 348.818 625.025C348.818 624.081 348.632 623.28 348.26 622.623C347.888 621.965 347.402 621.479 346.802 621.164C346.201 620.835 345.551 620.671 344.85 620.671C344.135 620.671 343.477 620.835 342.877 621.164C342.29 621.479 341.818 621.965 341.461 622.623C341.103 623.28 340.925 624.081 340.925 625.025C340.925 625.983 341.096 626.791 341.44 627.449C341.797 628.106 342.269 628.6 342.855 628.929C343.441 629.243 344.085 629.4 344.786 629.4ZM359.106 618.955C360.536 618.955 361.694 619.391 362.58 620.263C363.467 621.121 363.91 622.365 363.91 623.995V630.923H361.98V624.274C361.98 623.102 361.687 622.208 361.101 621.593C360.514 620.964 359.713 620.649 358.698 620.649C357.669 620.649 356.847 620.971 356.232 621.615C355.631 622.258 355.331 623.195 355.331 624.424V630.923H353.379V619.169H355.331V620.842C355.717 620.242 356.239 619.777 356.897 619.448C357.569 619.119 358.305 618.955 359.106 618.955ZM371.26 631.116C370.359 631.116 369.551 630.966 368.836 630.666C368.121 630.351 367.556 629.922 367.142 629.379C366.727 628.821 366.498 628.185 366.455 627.47H368.471C368.529 628.056 368.8 628.535 369.286 628.907C369.787 629.279 370.438 629.465 371.238 629.465C371.982 629.465 372.568 629.3 372.997 628.971C373.426 628.643 373.641 628.228 373.641 627.727C373.641 627.213 373.412 626.834 372.954 626.591C372.497 626.333 371.789 626.083 370.831 625.84C369.958 625.611 369.244 625.382 368.686 625.154C368.142 624.911 367.671 624.56 367.27 624.103C366.884 623.631 366.691 623.016 366.691 622.258C366.691 621.657 366.87 621.107 367.227 620.606C367.585 620.106 368.092 619.713 368.75 619.427C369.408 619.126 370.159 618.976 371.002 618.976C372.304 618.976 373.355 619.305 374.155 619.963C374.956 620.621 375.385 621.522 375.442 622.666H373.49C373.447 622.051 373.197 621.557 372.74 621.186C372.296 620.814 371.696 620.628 370.938 620.628C370.237 620.628 369.68 620.778 369.265 621.078C368.85 621.379 368.643 621.772 368.643 622.258C368.643 622.644 368.764 622.966 369.008 623.223C369.265 623.466 369.58 623.666 369.951 623.824C370.337 623.967 370.866 624.131 371.539 624.317C372.382 624.546 373.069 624.775 373.598 625.003C374.127 625.218 374.577 625.547 374.949 625.99C375.335 626.433 375.535 627.013 375.549 627.727C375.549 628.371 375.371 628.95 375.013 629.465C374.656 629.98 374.148 630.387 373.49 630.687C372.847 630.973 372.103 631.116 371.26 631.116ZM378.927 631.052C378.555 631.052 378.24 630.923 377.983 630.666C377.726 630.409 377.597 630.094 377.597 629.722C377.597 629.35 377.726 629.036 377.983 628.778C378.24 628.521 378.555 628.392 378.927 628.392C379.284 628.392 379.585 628.521 379.828 628.778C380.085 629.036 380.214 629.35 380.214 629.722C380.214 630.094 380.085 630.409 379.828 630.666C379.585 630.923 379.284 631.052 378.927 631.052Z" fill="black" fill-opacity="0.8"/>
</g>
<defs>
<linearGradient id="paint0_linear" x1="175.078" y1="240.599" x2="175.078" y2="96" gradientUnits="userSpaceOnUse">
<stop stop-color="#808080" stop-opacity="0.25"/>
<stop offset="0.53514" stop-color="#808080" stop-opacity="0.12"/>
<stop offset="1" stop-color="#808080" stop-opacity="0.1"/>
</linearGradient>
<linearGradient id="paint1_linear" x1="161.507" y1="194.115" x2="161.507" y2="145.039" gradientUnits="userSpaceOnUse">
<stop stop-color="#808080" stop-opacity="0.25"/>
<stop offset="0.53514" stop-color="#808080" stop-opacity="0.12"/>
<stop offset="1" stop-color="#808080" stop-opacity="0.1"/>
</linearGradient>
<linearGradient id="paint2_linear" x1="222.048" y1="194.115" x2="222.048" y2="145.039" gradientUnits="userSpaceOnUse">
<stop stop-color="#808080" stop-opacity="0.25"/>
<stop offset="0.53514" stop-color="#808080" stop-opacity="0.12"/>
<stop offset="1" stop-color="#808080" stop-opacity="0.1"/>
</linearGradient>
<linearGradient id="paint3_linear" x1="282.589" y1="194.115" x2="282.589" y2="145.039" gradientUnits="userSpaceOnUse">
<stop stop-color="#808080" stop-opacity="0.25"/>
<stop offset="0.53514" stop-color="#808080" stop-opacity="0.12"/>
<stop offset="1" stop-color="#808080" stop-opacity="0.1"/>
</linearGradient>
<linearGradient id="paint4_linear" x1="50295.4" y1="17863.2" x2="50295.4" y2="4056.01" gradientUnits="userSpaceOnUse">
<stop stop-color="#808080" stop-opacity="0.25"/>
<stop offset="0.53514" stop-color="#808080" stop-opacity="0.12"/>
<stop offset="1" stop-color="#808080" stop-opacity="0.1"/>
</linearGradient>
<linearGradient id="paint5_linear" x1="1873.69" y1="1373.55" x2="1873.69" y2="1220.56" gradientUnits="userSpaceOnUse">
<stop stop-color="#808080" stop-opacity="0.25"/>
<stop offset="0.53514" stop-color="#808080" stop-opacity="0.12"/>
<stop offset="1" stop-color="#808080" stop-opacity="0.1"/>
</linearGradient>
<linearGradient id="paint6_linear" x1="2274.69" y1="1116.91" x2="2274.69" y2="963.918" gradientUnits="userSpaceOnUse">
<stop stop-color="#808080" stop-opacity="0.25"/>
<stop offset="0.53514" stop-color="#808080" stop-opacity="0.12"/>
<stop offset="1" stop-color="#808080" stop-opacity="0.1"/>
</linearGradient>
<linearGradient id="paint7_linear" x1="2762.38" y1="890.428" x2="2762.38" y2="737.439" gradientUnits="userSpaceOnUse">
<stop stop-color="#808080" stop-opacity="0.25"/>
<stop offset="0.53514" stop-color="#808080" stop-opacity="0.12"/>
<stop offset="1" stop-color="#808080" stop-opacity="0.1"/>
</linearGradient>
<linearGradient id="paint8_linear" x1="3205.04" y1="1373.55" x2="3205.04" y2="1220.56" gradientUnits="userSpaceOnUse">
<stop stop-color="#808080" stop-opacity="0.25"/>
<stop offset="0.53514" stop-color="#808080" stop-opacity="0.12"/>
<stop offset="1" stop-color="#808080" stop-opacity="0.1"/>
</linearGradient>
<linearGradient id="paint9_linear" x1="3670.21" y1="1148.99" x2="3670.21" y2="995.998" gradientUnits="userSpaceOnUse">
<stop stop-color="#808080" stop-opacity="0.25"/>
<stop offset="0.53514" stop-color="#808080" stop-opacity="0.12"/>
<stop offset="1" stop-color="#808080" stop-opacity="0.1"/>
</linearGradient>
<linearGradient id="paint10_linear" x1="49835.6" y1="1509.02" x2="49835.6" y2="1450.87" gradientUnits="userSpaceOnUse">
<stop stop-color="#808080" stop-opacity="0.25"/>
<stop offset="0.53514" stop-color="#808080" stop-opacity="0.12"/>
<stop offset="1" stop-color="#808080" stop-opacity="0.1"/>
</linearGradient>
<linearGradient id="paint11_linear" x1="49835.6" y1="1598.62" x2="49835.6" y2="1540.47" gradientUnits="userSpaceOnUse">
<stop stop-color="#808080" stop-opacity="0.25"/>
<stop offset="0.53514" stop-color="#808080" stop-opacity="0.12"/>
<stop offset="1" stop-color="#808080" stop-opacity="0.1"/>
</linearGradient>
<linearGradient id="paint12_linear" x1="49835.6" y1="1688.22" x2="49835.6" y2="1630.07" gradientUnits="userSpaceOnUse">
<stop stop-color="#808080" stop-opacity="0.25"/>
<stop offset="0.53514" stop-color="#808080" stop-opacity="0.12"/>
<stop offset="1" stop-color="#808080" stop-opacity="0.1"/>
</linearGradient>
<linearGradient id="paint13_linear" x1="49835.6" y1="1777.82" x2="49835.6" y2="1719.68" gradientUnits="userSpaceOnUse">
<stop stop-color="#808080" stop-opacity="0.25"/>
<stop offset="0.53514" stop-color="#808080" stop-opacity="0.12"/>
<stop offset="1" stop-color="#808080" stop-opacity="0.1"/>
</linearGradient>
<clipPath id="clip0">
<rect width="455.787" height="681" fill="white" transform="translate(0.334961)"/>
</clipPath>
<clipPath id="clip1">
<rect width="333.766" height="264.363" fill="white" transform="translate(51 96)"/>
</clipPath>
</defs>
</svg>
