<svg width="457" height="681" viewBox="0 0 457 681" fill="none" xmlns="http://www.w3.org/2000/svg">
<g clip-path="url(#clip0)">
<rect x="0.547852" width="455.787" height="681" rx="26.811" fill="black" fill-opacity="0.5"/>
<rect x="26.0186" y="26.811" width="402.165" height="402.165" fill="white"/>
<g clip-path="url(#clip1)">
<path d="M250.569 390.505C325.82 390.505 386.822 379.728 386.822 366.434C386.822 353.14 325.82 342.363 250.569 342.363C175.319 342.363 114.316 353.14 114.316 366.434C114.316 379.728 175.319 390.505 250.569 390.505Z" fill="#3F3D56"/>
<path d="M159.893 210.582C168.554 197.709 172.314 182.158 170.492 166.75C168.671 151.341 161.388 137.096 149.964 126.597C138.54 116.098 123.732 110.04 108.225 109.523C92.7179 109.005 77.5389 114.062 65.4405 123.776C53.342 133.49 45.1253 147.218 42.2803 162.471C39.4354 177.723 42.1505 193.49 49.9335 206.913C57.7164 220.335 70.0517 230.524 84.7025 235.631C99.3533 240.739 115.349 240.427 129.79 234.753C130.726 238.094 132.476 241.151 134.884 243.651C137.292 246.15 140.281 248.013 143.585 249.074C146.89 250.134 150.405 250.359 153.818 249.727C157.23 249.096 160.432 247.628 163.138 245.456C165.844 243.283 167.969 240.473 169.323 237.278C170.677 234.083 171.217 230.601 170.896 227.146C170.574 223.691 169.401 220.369 167.481 217.478C165.56 214.588 162.954 212.218 159.893 210.582Z" fill="#6C63FF"/>
<path d="M144.583 161.392H67.4038V167.485H144.583V161.392Z" fill="white"/>
<path d="M144.583 171.547H67.4038V177.64H144.583V171.547Z" fill="white"/>
<path d="M144.583 181.702H67.4038V187.795H144.583V181.702Z" fill="white"/>
<path d="M297.963 162.32C289.302 149.447 285.542 133.896 287.364 118.487C289.185 103.079 296.468 88.8338 307.892 78.3348C319.316 67.8358 334.124 61.7783 349.631 61.2607C365.138 60.7432 380.317 65.7999 392.416 75.5139C404.514 85.2279 412.731 98.9559 415.576 114.208C418.421 129.461 415.705 145.228 407.923 158.65C400.14 172.073 387.804 182.262 373.153 187.369C358.503 192.477 342.507 192.165 328.066 186.49C327.13 189.832 325.38 192.889 322.972 195.388C320.565 197.888 317.575 199.751 314.271 200.812C310.966 201.872 307.451 202.097 304.038 201.465C300.626 200.834 297.424 199.366 294.718 197.193C292.012 195.021 289.887 192.211 288.533 189.016C287.179 185.82 286.639 182.339 286.96 178.884C287.282 175.429 288.455 172.107 290.375 169.216C292.296 166.326 294.902 163.956 297.963 162.32Z" fill="#6C63FF"/>
<path d="M313.273 119.223L390.452 119.223V113.13L313.273 113.13V119.223Z" fill="white"/>
<path d="M313.273 129.378H390.452V123.285L313.273 123.285V129.378Z" fill="white"/>
<path d="M313.273 139.533H390.452V133.44H313.273V139.533Z" fill="white"/>
<path d="M185.297 339.906C180.462 332.719 178.363 324.037 179.38 315.435C180.397 306.833 184.463 298.88 190.841 293.018C197.219 287.157 205.486 283.775 214.143 283.486C222.8 283.197 231.275 286.02 238.029 291.443C244.784 296.867 249.371 304.531 250.959 313.046C252.547 321.561 251.032 330.364 246.686 337.857C242.341 345.351 235.455 351.039 227.275 353.891C219.096 356.742 210.166 356.568 202.104 353.4C201.581 355.266 200.604 356.972 199.26 358.368C197.916 359.763 196.247 360.803 194.402 361.395C192.557 361.987 190.594 362.113 188.689 361.76C186.784 361.408 184.996 360.588 183.486 359.375C181.975 358.162 180.789 356.594 180.033 354.81C179.277 353.026 178.975 351.082 179.155 349.153C179.334 347.224 179.989 345.37 181.061 343.756C182.133 342.142 183.589 340.819 185.297 339.906Z" fill="#6C63FF"/>
<path d="M201.126 323.052C203.441 323.052 205.318 321.176 205.318 318.861C205.318 316.546 203.441 314.669 201.126 314.669C198.811 314.669 196.934 316.546 196.934 318.861C196.934 321.176 198.811 323.052 201.126 323.052Z" fill="white"/>
<path d="M215.427 323.052C217.742 323.052 219.619 321.176 219.619 318.861C219.619 316.546 217.742 314.669 215.427 314.669C213.112 314.669 211.235 316.546 211.235 318.861C211.235 321.176 213.112 323.052 215.427 323.052Z" fill="white"/>
<path d="M229.728 323.052C232.043 323.052 233.92 321.176 233.92 318.861C233.92 316.546 232.043 314.669 229.728 314.669C227.413 314.669 225.537 316.546 225.537 318.861C225.537 321.176 227.413 323.052 229.728 323.052Z" fill="white"/>
<path d="M219.625 188.821C219.625 188.821 238.328 189.329 241.417 190.453C244.505 191.577 245.887 199.613 245.887 199.613L231.365 204.177L220.504 203.562L212.33 204.14L216.894 192.186L219.625 188.821Z" fill="#2F2E41"/>
<path d="M220.431 182.684C220.431 182.684 221.662 187.436 218.931 190.801C216.2 194.167 230.671 206.158 230.671 206.158L238.306 204.846C238.306 204.846 236.623 190.243 238.883 186.545C241.143 182.847 220.431 182.684 220.431 182.684Z" fill="#9F616A"/>
<path opacity="0.1" d="M220.431 182.684C220.431 182.684 221.662 187.436 218.931 190.801C216.2 194.167 230.671 206.158 230.671 206.158L238.306 204.846C238.306 204.846 236.623 190.243 238.883 186.545C241.143 182.847 220.431 182.684 220.431 182.684Z" fill="black"/>
<path d="M271.204 321.639L254.359 343.977L265.855 350.689L281.676 324.803L271.204 321.639Z" fill="#9F616A"/>
<path d="M259.388 344.354C259.388 344.354 253.185 337.147 253.462 338.754C253.738 340.361 249.048 353.991 253.412 355.309C257.775 356.628 295.193 360.125 295.708 355.899C296.223 351.674 284.545 348.717 284.545 348.717C284.545 348.717 277.608 342.05 276.07 342.728C274.531 343.406 259.388 344.354 259.388 344.354Z" fill="#2F2E41"/>
<path d="M267.425 342.973L280.879 365.894L291.037 360.012L277.47 341.246L267.425 342.973Z" fill="#9F616A"/>
<path d="M288.664 288.44L284.671 294.09C284.671 294.09 265.635 320.528 267.657 322.663C269.678 324.797 278.097 332.865 282.379 331.301C286.661 329.738 301.873 302.717 301.873 302.717L297.905 286.852L288.664 288.44Z" fill="#2F2E41"/>
<path d="M206.664 283.091C206.664 283.091 210.927 291.046 221.732 293.739C232.536 296.433 243.825 301.939 244.226 301.87C244.628 301.8 245.765 301.191 246.041 302.799C246.317 304.406 249.28 307.206 249.28 307.206C249.28 307.206 261.215 347.763 265.773 347.807C270.331 347.851 279.699 344.586 279.893 343.312C280.088 342.037 265.937 300.62 265.798 299.816L264.141 290.173C264.141 290.173 282.856 293.162 284.602 293.689C286.347 294.216 301.873 302.717 301.873 302.717C301.873 302.717 317.7 291.309 302.896 279.789C288.092 268.268 262.647 259.818 262.647 259.818L253.518 257.25L245.562 256.775L244.391 252.283L225.549 253.37L205.885 261.714L206.664 283.091Z" fill="#2F2E41"/>
<path d="M231.532 192.144C239.638 192.144 246.209 185.573 246.209 177.467C246.209 169.361 239.638 162.79 231.532 162.79C223.426 162.79 216.854 169.361 216.854 177.467C216.854 185.573 223.426 192.144 231.532 192.144Z" fill="#9F616A"/>
<path d="M218.253 189.263L220.018 188.96C220.018 188.96 223.207 201.236 233.07 203.264C233.07 203.264 237.936 197.434 237.729 196.45C237.521 195.466 241.583 190.218 243.743 193.156C245.902 196.094 243.215 247.852 245.03 248.781C246.844 249.71 250.737 250.696 247.604 254.13C244.471 257.564 232.028 262.185 229.272 260.59C226.515 258.996 220.884 245.485 218.448 240.939C216.012 236.394 212.113 220.931 212.113 220.931C212.113 220.931 207.134 203.998 210.198 200.162C213.262 196.326 218.253 189.263 218.253 189.263Z" fill="#D0CDE1"/>
<path d="M232.3 252.982C231.972 256.588 231.41 260.168 230.618 263.701C229.899 266.575 229.061 268.31 228.104 268.236C225.664 268.054 224.554 271.633 223.982 275.76C223.371 280.138 223.371 285.132 223.036 286.897C222.592 289.229 219.752 291.009 214.078 290.486C210.698 290.102 207.381 289.289 204.207 288.066C196.546 285.28 196.772 262.69 198.054 245.927C198.838 235.653 200.017 227.562 200.017 227.562C200.017 227.562 197.689 220.62 196.945 215.863C196.797 214.995 196.723 214.115 196.723 213.235C196.837 209.079 204.424 197.848 209.009 190.852C213.599 183.856 219.861 188.988 219.861 188.988L217.682 195.565C217.682 195.565 221.059 200.776 221.083 205.736C221.108 210.696 229.169 214.275 232.063 216.676C233.882 218.185 233.838 238.325 232.3 252.982Z" fill="#2F2E41"/>
<path d="M238.673 191.338C238.673 191.338 239.202 191.964 241.624 191.659C244.528 191.293 248.522 192.298 249.45 195.071C251.151 200.156 255.948 220.843 255.948 220.843C255.948 220.843 257.944 244.493 258.842 249.716C259.74 254.94 259.294 259.567 260.179 262.31C261.065 265.054 251.44 257.194 247.893 258.217C244.346 259.24 242.067 245.981 242.512 241.354C242.958 236.727 243.335 231.698 242.104 226.945C240.874 222.193 243.055 209.614 242.974 206.733C242.892 203.851 235.152 196.588 238.673 191.338Z" fill="#2F2E41"/>
<path d="M249.058 264.842C249.058 264.842 264.598 273.32 266.085 285.387C267.573 297.454 245.3 273.703 245.3 273.703L249.058 264.842Z" fill="#9F616A"/>
<path d="M257.929 256.285C257.929 256.285 262.691 280.287 270.109 279.012C277.527 277.737 265.965 254.904 265.965 254.904L257.929 256.285Z" fill="#9F616A"/>
<path d="M283.334 360.922C283.334 360.922 279.535 365.298 278.594 364.633C277.652 363.967 275.486 373.027 277.438 374.759C279.391 376.492 286.912 379.336 286.994 382.218C287.076 385.1 307.247 384.528 307.969 381.508C308.691 378.488 305.439 371.601 303.154 370.339C300.869 369.077 292.419 357.463 292.419 357.463C292.419 357.463 285.801 358.43 283.334 360.922Z" fill="#2F2E41"/>
<path opacity="0.1" d="M246.583 279.521C242.979 276.977 232.916 276.346 223.983 275.76C220.063 275.508 216.361 275.262 213.516 274.862C210.775 274.483 208.309 271.978 206.12 268.246C202.802 262.591 200.12 254.111 198.055 245.927C198.839 235.652 200.017 227.562 200.017 227.562C200.017 227.562 197.69 220.62 196.945 215.862C197.47 215.132 198.146 214.523 198.927 214.078C208.403 210.01 217.45 250.039 218.599 256.32C218.619 256.423 218.633 256.522 218.648 256.606C219.205 259.84 225.225 262.606 230.619 263.7C233.942 264.376 237.033 264.42 238.458 263.543C242.2 261.245 253.707 270.44 254.58 270.701C255.452 270.968 251.76 283.185 246.583 279.521Z" fill="black"/>
<path d="M198.929 211.614C198.929 211.614 192.042 214.866 195.068 230.065C198.094 245.265 204.19 271.106 213.513 272.399C222.837 273.693 241.401 273.397 246.581 277.058C251.76 280.718 255.452 268.5 254.579 268.237C253.707 267.973 242.198 258.782 238.457 261.08C234.715 263.377 219.547 259.366 218.649 254.142C217.751 248.919 208.56 207.476 198.929 211.614Z" fill="#2F2E41"/>
<path d="M248.558 204.325L256.127 221.888C256.127 221.888 256.889 221.508 257.775 224.252C258.66 226.995 259.074 229.406 260.625 231.208C262.176 233.01 269.075 258.713 269.283 259.918C269.49 261.124 259.753 265.279 257.577 261.93C255.401 258.581 248.558 204.325 248.558 204.325Z" fill="#2F2E41"/>
<path d="M223.181 177.262C223.744 177.112 223.826 176.365 223.845 175.784C223.946 172.667 225.822 169.47 228.805 168.563C229.95 168.249 231.148 168.183 232.32 168.369C233.993 168.592 235.609 169.131 237.081 169.957C237.858 170.394 238.62 170.92 239.501 171.054C240.083 171.142 242.603 171.874 243.182 171.978C244.456 172.204 245.64 173.344 246.863 172.92C248.032 172.514 248.291 171 248.32 169.762C248.384 166.942 246.243 163.039 244.358 160.942C242.927 159.35 240.773 158.615 238.667 158.233C236.207 157.838 233.713 157.686 231.223 157.78C227.853 157.84 224.389 158.1 221.35 159.559C218.311 161.017 215.758 163.919 215.612 167.287C215.582 167.989 215.654 168.693 215.595 169.393C215.452 171.1 214.545 172.642 214.12 174.301C213.816 175.519 213.771 176.786 213.987 178.022C214.203 179.259 214.675 180.436 215.374 181.478C216.502 183.138 218.275 184.639 218.21 186.645L220.655 184.111C221.021 183.832 221.279 183.437 221.388 182.99C221.497 182.544 221.449 182.073 221.253 181.658L220.387 178.281C220.164 177.678 220.138 177.02 220.312 176.402C221.24 174.109 222.243 177.513 223.181 177.262Z" fill="#2F2E41"/>
<path d="M334.329 346.127C334.228 345.961 331.838 341.97 331.009 333.684C330.249 326.082 330.738 313.268 337.384 295.393C349.974 261.53 334.482 234.208 334.324 233.936L335.088 233.492C335.128 233.561 339.126 240.527 341.487 251.62C344.607 266.326 343.471 281.617 338.212 295.701C325.644 329.506 334.987 345.508 335.083 345.666L334.329 346.127Z" fill="#3F3D56"/>
<path d="M329.406 231.948C332.577 231.948 335.148 229.377 335.148 226.206C335.148 223.035 332.577 220.464 329.406 220.464C326.235 220.464 323.665 223.035 323.665 226.206C323.665 229.377 326.235 231.948 329.406 231.948Z" fill="#6C63FF"/>
<path d="M347.515 253.147C350.686 253.147 353.256 250.577 353.256 247.406C353.256 244.235 350.686 241.664 347.515 241.664C344.344 241.664 341.773 244.235 341.773 247.406C341.773 250.577 344.344 253.147 347.515 253.147Z" fill="#3F3D56"/>
<path d="M335.148 267.281C338.319 267.281 340.889 264.71 340.889 261.539C340.889 258.368 338.319 255.797 335.148 255.797C331.977 255.797 329.406 258.368 329.406 261.539C329.406 264.71 331.977 267.281 335.148 267.281Z" fill="#6C63FF"/>
<path d="M350.164 279.205C353.335 279.205 355.906 276.635 355.906 273.464C355.906 270.293 353.335 267.722 350.164 267.722C346.993 267.722 344.423 270.293 344.423 273.464C344.423 276.635 346.993 279.205 350.164 279.205Z" fill="#6C63FF"/>
<path d="M330.731 297.755C333.902 297.755 336.473 295.185 336.473 292.014C336.473 288.843 333.902 286.272 330.731 286.272C327.56 286.272 324.99 288.843 324.99 292.014C324.99 295.185 327.56 297.755 330.731 297.755Z" fill="#3F3D56"/>
<path d="M337.798 346.338C337.798 346.338 332.056 332.205 349.281 321.605L337.798 346.338Z" fill="#3F3D56"/>
<path d="M330.737 346.082C330.737 346.082 328.124 331.052 307.899 331.181L330.737 346.082Z" fill="#3F3D56"/>
</g>
<rect x="26.0186" y="451.766" width="403.506" height="58.9842" rx="13.4055" fill="white"/>
<path d="M127.624 467.724L120.996 490.084H116.845L112.148 473.161L107.161 490.084L103.043 490.117L96.7051 467.724H100.598L105.231 485.934L110.25 467.724H114.368L119.033 485.838L123.698 467.724H127.624ZM139.818 472.067C141.169 472.067 142.37 472.357 143.421 472.936C144.494 473.515 145.33 474.373 145.931 475.51C146.553 476.647 146.864 478.02 146.864 479.628V490.084H143.228V480.175C143.228 478.588 142.832 477.376 142.038 476.54C141.244 475.682 140.161 475.253 138.788 475.253C137.416 475.253 136.322 475.682 135.507 476.54C134.713 477.376 134.316 478.588 134.316 480.175V490.084H130.649V466.276H134.316V474.416C134.938 473.665 135.721 473.086 136.665 472.679C137.63 472.271 138.681 472.067 139.818 472.067ZM150.32 481.14C150.32 479.36 150.684 477.784 151.414 476.411C152.164 475.038 153.172 473.976 154.438 473.226C155.725 472.454 157.14 472.067 158.685 472.067C160.079 472.067 161.291 472.346 162.32 472.904C163.371 473.44 164.208 474.116 164.83 474.931V472.357H168.53V490.084H164.83V487.446C164.208 488.283 163.361 488.98 162.288 489.538C161.216 490.095 159.993 490.374 158.62 490.374C157.098 490.374 155.703 489.988 154.438 489.216C153.172 488.422 152.164 487.328 151.414 485.934C150.684 484.519 150.32 482.921 150.32 481.14ZM164.83 481.205C164.83 479.982 164.572 478.92 164.058 478.02C163.564 477.119 162.91 476.432 162.095 475.96C161.28 475.489 160.401 475.253 159.457 475.253C158.513 475.253 157.634 475.489 156.819 475.96C156.004 476.411 155.339 477.086 154.824 477.987C154.331 478.867 154.084 479.918 154.084 481.14C154.084 482.363 154.331 483.435 154.824 484.358C155.339 485.28 156.004 485.988 156.819 486.481C157.655 486.953 158.535 487.189 159.457 487.189C160.401 487.189 161.28 486.953 162.095 486.481C162.91 486.009 163.564 485.323 164.058 484.422C164.572 483.5 164.83 482.427 164.83 481.205ZM177.626 475.349V485.162C177.626 485.827 177.776 486.309 178.077 486.61C178.398 486.889 178.935 487.028 179.685 487.028H181.937V490.084H179.042C177.39 490.084 176.125 489.698 175.245 488.926C174.366 488.154 173.926 486.899 173.926 485.162V475.349H171.835V472.357H173.926V467.949H177.626V472.357H181.937V475.349H177.626ZM197.954 475.349V485.162C197.954 485.827 198.105 486.309 198.405 486.61C198.727 486.889 199.263 487.028 200.014 487.028H202.266V490.084H199.37C197.719 490.084 196.453 489.698 195.574 488.926C194.694 488.154 194.255 486.899 194.255 485.162V475.349H192.163V472.357H194.255V467.949H197.954V472.357H202.266V475.349H197.954ZM213.336 490.374C211.663 490.374 210.15 489.999 208.799 489.248C207.448 488.476 206.386 487.403 205.614 486.031C204.842 484.636 204.456 483.028 204.456 481.205C204.456 479.403 204.853 477.805 205.646 476.411C206.44 475.017 207.523 473.944 208.896 473.194C210.268 472.443 211.802 472.067 213.496 472.067C215.191 472.067 216.724 472.443 218.097 473.194C219.47 473.944 220.553 475.017 221.347 476.411C222.14 477.805 222.537 479.403 222.537 481.205C222.537 483.006 222.13 484.604 221.314 485.998C220.499 487.393 219.384 488.476 217.968 489.248C216.574 489.999 215.03 490.374 213.336 490.374ZM213.336 487.189C214.279 487.189 215.159 486.964 215.974 486.513C216.81 486.063 217.486 485.387 218.001 484.486C218.515 483.585 218.773 482.492 218.773 481.205C218.773 479.918 218.526 478.835 218.033 477.955C217.539 477.054 216.885 476.379 216.07 475.928C215.255 475.478 214.376 475.253 213.432 475.253C212.488 475.253 211.609 475.478 210.794 475.928C210 476.379 209.367 477.054 208.896 477.955C208.424 478.835 208.188 479.918 208.188 481.205C208.188 483.114 208.67 484.594 209.636 485.645C210.622 486.674 211.856 487.189 213.336 487.189ZM233.298 481.14C233.298 479.36 233.662 477.784 234.392 476.411C235.142 475.038 236.15 473.976 237.416 473.226C238.703 472.454 240.129 472.067 241.695 472.067C242.853 472.067 243.99 472.325 245.105 472.84C246.242 473.333 247.143 473.998 247.808 474.834V466.276H251.508V490.084H247.808V487.414C247.207 488.272 246.371 488.98 245.298 489.538C244.247 490.095 243.036 490.374 241.663 490.374C240.118 490.374 238.703 489.988 237.416 489.216C236.15 488.422 235.142 487.328 234.392 485.934C233.662 484.519 233.298 482.921 233.298 481.14ZM247.808 481.205C247.808 479.982 247.55 478.92 247.036 478.02C246.542 477.119 245.888 476.432 245.073 475.96C244.258 475.489 243.379 475.253 242.435 475.253C241.491 475.253 240.612 475.489 239.797 475.96C238.982 476.411 238.317 477.086 237.802 477.987C237.309 478.867 237.062 479.918 237.062 481.14C237.062 482.363 237.309 483.435 237.802 484.358C238.317 485.28 238.982 485.988 239.797 486.481C240.633 486.953 241.513 487.189 242.435 487.189C243.379 487.189 244.258 486.953 245.073 486.481C245.888 486.009 246.542 485.323 247.036 484.422C247.55 483.5 247.808 482.427 247.808 481.205ZM264.015 490.374C262.342 490.374 260.829 489.999 259.478 489.248C258.127 488.476 257.065 487.403 256.293 486.031C255.521 484.636 255.135 483.028 255.135 481.205C255.135 479.403 255.532 477.805 256.325 476.411C257.119 475.017 258.202 473.944 259.575 473.194C260.947 472.443 262.481 472.067 264.176 472.067C265.87 472.067 267.404 472.443 268.776 473.194C270.149 473.944 271.232 475.017 272.026 476.411C272.819 477.805 273.216 479.403 273.216 481.205C273.216 483.006 272.809 484.604 271.994 485.998C271.179 487.393 270.063 488.476 268.648 489.248C267.253 489.999 265.709 490.374 264.015 490.374ZM264.015 487.189C264.958 487.189 265.838 486.964 266.653 486.513C267.489 486.063 268.165 485.387 268.68 484.486C269.195 483.585 269.452 482.492 269.452 481.205C269.452 479.918 269.205 478.835 268.712 477.955C268.219 477.054 267.564 476.379 266.749 475.928C265.934 475.478 265.055 475.253 264.111 475.253C263.167 475.253 262.288 475.478 261.473 475.928C260.679 476.379 260.047 477.054 259.575 477.955C259.103 478.835 258.867 479.918 258.867 481.205C258.867 483.114 259.35 484.594 260.315 485.645C261.301 486.674 262.535 487.189 264.015 487.189ZM283.977 481.14C283.977 479.36 284.342 477.784 285.071 476.411C285.821 475.038 286.83 473.976 288.095 473.226C289.382 472.454 290.798 472.067 292.342 472.067C293.736 472.067 294.948 472.346 295.977 472.904C297.028 473.44 297.865 474.116 298.487 474.931V472.357H302.187V490.084H298.487V487.446C297.865 488.283 297.018 488.98 295.945 489.538C294.873 490.095 293.65 490.374 292.278 490.374C290.755 490.374 289.361 489.988 288.095 489.216C286.83 488.422 285.821 487.328 285.071 485.934C284.342 484.519 283.977 482.921 283.977 481.14ZM298.487 481.205C298.487 479.982 298.23 478.92 297.715 478.02C297.222 477.119 296.567 476.432 295.752 475.96C294.937 475.489 294.058 475.253 293.114 475.253C292.17 475.253 291.291 475.489 290.476 475.96C289.661 476.411 288.996 477.086 288.481 477.987C287.988 478.867 287.741 479.918 287.741 481.14C287.741 482.363 287.988 483.435 288.481 484.358C288.996 485.28 289.661 485.988 290.476 486.481C291.312 486.953 292.192 487.189 293.114 487.189C294.058 487.189 294.937 486.953 295.752 486.481C296.567 486.009 297.222 485.323 297.715 484.422C298.23 483.5 298.487 482.427 298.487 481.205ZM314.436 475.349H311.155V490.084H307.455V475.349H305.364V472.357H307.455V471.102C307.455 469.065 307.991 467.585 309.063 466.662C310.157 465.719 311.863 465.247 314.179 465.247V468.303C313.064 468.303 312.281 468.518 311.83 468.947C311.38 469.354 311.155 470.073 311.155 471.102V472.357H314.436V475.349ZM321.966 475.349V485.162C321.966 485.827 322.116 486.309 322.416 486.61C322.738 486.889 323.274 487.028 324.025 487.028H326.277V490.084H323.382C321.73 490.084 320.465 489.698 319.585 488.926C318.706 488.154 318.266 486.899 318.266 485.162V475.349H316.175V472.357H318.266V467.949H321.966V472.357H326.277V475.349H321.966ZM345.905 480.786C345.905 481.451 345.862 482.052 345.776 482.588H332.231C332.339 484.004 332.864 485.141 333.808 485.998C334.752 486.856 335.91 487.285 337.283 487.285C339.256 487.285 340.65 486.46 341.465 484.808H345.422C344.886 486.438 343.91 487.779 342.495 488.83C341.101 489.859 339.363 490.374 337.283 490.374C335.588 490.374 334.065 489.999 332.714 489.248C331.384 488.476 330.333 487.403 329.561 486.031C328.81 484.636 328.435 483.028 328.435 481.205C328.435 479.382 328.8 477.784 329.529 476.411C330.28 475.017 331.32 473.944 332.65 473.194C334.001 472.443 335.545 472.067 337.283 472.067C338.956 472.067 340.446 472.432 341.755 473.161C343.063 473.891 344.082 474.92 344.811 476.25C345.54 477.558 345.905 479.071 345.905 480.786ZM342.076 479.628C342.055 478.277 341.572 477.194 340.629 476.379C339.685 475.564 338.516 475.156 337.122 475.156C335.856 475.156 334.773 475.564 333.872 476.379C332.971 477.172 332.435 478.255 332.264 479.628H342.076ZM353.182 474.931C353.718 474.03 354.426 473.333 355.306 472.84C356.207 472.325 357.268 472.067 358.491 472.067V475.864H357.558C356.121 475.864 355.027 476.229 354.276 476.958C353.547 477.687 353.182 478.953 353.182 480.754V490.084H349.514V472.357H353.182V474.931Z" fill="#1F536F"/>
<rect x="26.0186" y="530.858" width="403.506" height="121.99" rx="13.4055" fill="white"/>
<path d="M62.3424 551.974V553.561H58.2671V566.923H56.3152V553.561H52.2185V551.974H62.3424ZM70.579 554.955C71.4656 554.955 72.2663 555.148 72.9813 555.534C73.6963 555.906 74.2539 556.471 74.6543 557.228C75.069 557.986 75.2763 558.909 75.2763 559.995V566.923H73.3459V560.274C73.3459 559.102 73.0528 558.208 72.4665 557.593C71.8803 556.964 71.0795 556.649 70.0643 556.649C69.0347 556.649 68.2125 556.971 67.5977 557.615C66.9971 558.258 66.6968 559.195 66.6968 560.424V566.923H64.745V551.051H66.6968V556.842C67.0829 556.242 67.612 555.777 68.284 555.448C68.9704 555.119 69.7354 554.955 70.579 554.955ZM89.1891 560.596C89.1891 560.968 89.1676 561.361 89.1247 561.776H79.7301C79.8016 562.934 80.1949 563.842 80.9098 564.5C81.6391 565.143 82.5185 565.465 83.548 565.465C84.3917 565.465 85.0924 565.272 85.65 564.886C86.222 564.485 86.6224 563.956 86.8512 563.298H88.9531C88.6386 564.428 88.0094 565.35 87.0656 566.065C86.1219 566.766 84.9494 567.116 83.548 567.116C82.4327 567.116 81.4318 566.866 80.5452 566.366C79.6729 565.865 78.9866 565.157 78.4861 564.242C77.9856 563.313 77.7354 562.24 77.7354 561.025C77.7354 559.809 77.9785 558.744 78.4647 557.829C78.9508 556.914 79.6301 556.213 80.5023 555.727C81.3889 555.227 82.4041 554.976 83.548 554.976C84.6634 554.976 85.65 555.219 86.508 555.706C87.3659 556.192 88.0237 556.864 88.4813 557.722C88.9531 558.565 89.1891 559.523 89.1891 560.596ZM87.1729 560.188C87.1729 559.445 87.0084 558.809 86.6796 558.279C86.3507 557.736 85.9003 557.329 85.3283 557.057C84.7706 556.771 84.1486 556.628 83.4622 556.628C82.4756 556.628 81.6319 556.942 80.9313 557.572C80.2449 558.201 79.8517 559.073 79.7516 560.188H87.1729ZM101.645 567.116C100.744 567.116 99.9361 566.966 99.2211 566.666C98.5061 566.351 97.9413 565.922 97.5266 565.379C97.112 564.821 96.8832 564.185 96.8403 563.47H98.8565C98.9137 564.056 99.1853 564.535 99.6715 564.907C100.172 565.279 100.823 565.465 101.623 565.465C102.367 565.465 102.953 565.3 103.382 564.971C103.811 564.643 104.026 564.228 104.026 563.727C104.026 563.213 103.797 562.834 103.339 562.591C102.882 562.333 102.174 562.083 101.216 561.84C100.344 561.611 99.6286 561.382 99.0709 561.154C98.5276 560.911 98.0557 560.56 97.6553 560.103C97.2692 559.631 97.0762 559.016 97.0762 558.258C97.0762 557.657 97.2549 557.107 97.6124 556.606C97.9699 556.106 98.4775 555.713 99.1353 555.427C99.7931 555.126 100.544 554.976 101.387 554.976C102.689 554.976 103.74 555.305 104.54 555.963C105.341 556.621 105.77 557.522 105.827 558.666H103.875C103.833 558.051 103.582 557.557 103.125 557.186C102.681 556.814 102.081 556.628 101.323 556.628C100.622 556.628 100.065 556.778 99.6501 557.078C99.2354 557.379 99.0281 557.772 99.0281 558.258C99.0281 558.644 99.1496 558.966 99.3927 559.223C99.6501 559.466 99.9646 559.666 100.336 559.824C100.723 559.967 101.252 560.131 101.924 560.317C102.767 560.546 103.454 560.775 103.983 561.003C104.512 561.218 104.962 561.547 105.334 561.99C105.72 562.433 105.92 563.013 105.935 563.727C105.935 564.371 105.756 564.95 105.398 565.465C105.041 565.98 104.533 566.387 103.875 566.687C103.232 566.973 102.488 567.116 101.645 567.116ZM111.071 556.778V563.706C111.071 564.278 111.192 564.686 111.435 564.929C111.678 565.157 112.1 565.272 112.701 565.272H114.138V566.923H112.379C111.292 566.923 110.477 566.673 109.934 566.173C109.391 565.672 109.119 564.85 109.119 563.706V556.778H107.596V555.169H109.119V552.209H111.071V555.169H114.138V556.778H111.071ZM126.927 555.169V566.923H124.975V565.186C124.603 565.787 124.081 566.258 123.409 566.602C122.752 566.93 122.022 567.095 121.222 567.095C120.306 567.095 119.484 566.909 118.755 566.537C118.026 566.151 117.447 565.579 117.018 564.821C116.603 564.063 116.396 563.141 116.396 562.054V555.169H118.326V561.797C118.326 562.955 118.619 563.849 119.205 564.478C119.792 565.093 120.592 565.4 121.608 565.4C122.651 565.4 123.474 565.079 124.074 564.435C124.675 563.792 124.975 562.855 124.975 561.625V555.169H126.927ZM129.493 561.003C129.493 559.802 129.736 558.751 130.223 557.85C130.709 556.935 131.374 556.228 132.217 555.727C133.075 555.227 134.033 554.976 135.091 554.976C136.007 554.976 136.857 555.191 137.644 555.62C138.43 556.034 139.031 556.585 139.445 557.271V551.051H141.419V566.923H139.445V564.714C139.059 565.415 138.487 565.994 137.73 566.451C136.972 566.895 136.085 567.116 135.07 567.116C134.026 567.116 133.075 566.859 132.217 566.344C131.374 565.829 130.709 565.107 130.223 564.178C129.736 563.248 129.493 562.19 129.493 561.003ZM139.445 561.025C139.445 560.138 139.267 559.366 138.909 558.708C138.552 558.051 138.066 557.55 137.451 557.207C136.85 556.85 136.185 556.671 135.456 556.671C134.727 556.671 134.062 556.842 133.461 557.186C132.861 557.529 132.382 558.029 132.024 558.687C131.667 559.345 131.488 560.117 131.488 561.003C131.488 561.904 131.667 562.691 132.024 563.363C132.382 564.021 132.861 564.528 133.461 564.886C134.062 565.229 134.727 565.4 135.456 565.4C136.185 565.4 136.85 565.229 137.451 564.886C138.066 564.528 138.552 564.021 138.909 563.363C139.267 562.691 139.445 561.911 139.445 561.025ZM155.442 560.596C155.442 560.968 155.42 561.361 155.377 561.776H145.983C146.054 562.934 146.447 563.842 147.162 564.5C147.892 565.143 148.771 565.465 149.801 565.465C150.644 565.465 151.345 565.272 151.903 564.886C152.475 564.485 152.875 563.956 153.104 563.298H155.206C154.891 564.428 154.262 565.35 153.318 566.065C152.374 566.766 151.202 567.116 149.801 567.116C148.685 567.116 147.684 566.866 146.798 566.366C145.926 565.865 145.239 565.157 144.739 564.242C144.238 563.313 143.988 562.24 143.988 561.025C143.988 559.809 144.231 558.744 144.717 557.829C145.203 556.914 145.883 556.213 146.755 555.727C147.641 555.227 148.657 554.976 149.801 554.976C150.916 554.976 151.903 555.219 152.761 555.706C153.618 556.192 154.276 556.864 154.734 557.722C155.206 558.565 155.442 559.523 155.442 560.596ZM153.425 560.188C153.425 559.445 153.261 558.809 152.932 558.279C152.603 557.736 152.153 557.329 151.581 557.057C151.023 556.771 150.401 556.628 149.715 556.628C148.728 556.628 147.884 556.942 147.184 557.572C146.497 558.201 146.104 559.073 146.004 560.188H153.425ZM163.745 554.955C165.175 554.955 166.333 555.391 167.22 556.263C168.106 557.121 168.549 558.365 168.549 559.995V566.923H166.619V560.274C166.619 559.102 166.326 558.208 165.74 557.593C165.153 556.964 164.353 556.649 163.337 556.649C162.308 556.649 161.486 556.971 160.871 557.615C160.27 558.258 159.97 559.195 159.97 560.424V566.923H158.018V555.169H159.97V556.842C160.356 556.242 160.878 555.777 161.536 555.448C162.208 555.119 162.944 554.955 163.745 554.955ZM174.119 556.778V563.706C174.119 564.278 174.24 564.686 174.483 564.929C174.726 565.157 175.148 565.272 175.749 565.272H177.186V566.923H175.427C174.34 566.923 173.525 566.673 172.982 566.173C172.438 565.672 172.167 564.85 172.167 563.706V556.778H170.644V555.169H172.167V552.209H174.119V555.169H177.186V556.778H174.119ZM190.395 567.116C189.294 567.116 188.293 566.866 187.392 566.366C186.506 565.865 185.805 565.157 185.29 564.242C184.79 563.313 184.54 562.24 184.54 561.025C184.54 559.824 184.797 558.766 185.312 557.85C185.841 556.921 186.556 556.213 187.457 555.727C188.358 555.227 189.366 554.976 190.481 554.976C191.596 554.976 192.604 555.227 193.505 555.727C194.406 556.213 195.114 556.914 195.629 557.829C196.158 558.744 196.422 559.809 196.422 561.025C196.422 562.24 196.151 563.313 195.607 564.242C195.078 565.157 194.356 565.865 193.441 566.366C192.526 566.866 191.51 567.116 190.395 567.116ZM190.395 565.4C191.096 565.4 191.754 565.236 192.368 564.907C192.983 564.578 193.477 564.085 193.848 563.427C194.234 562.769 194.428 561.969 194.428 561.025C194.428 560.081 194.242 559.28 193.87 558.623C193.498 557.965 193.012 557.479 192.411 557.164C191.811 556.835 191.16 556.671 190.459 556.671C189.745 556.671 189.087 556.835 188.486 557.164C187.9 557.479 187.428 557.965 187.071 558.623C186.713 559.28 186.534 560.081 186.534 561.025C186.534 561.983 186.706 562.791 187.049 563.449C187.407 564.106 187.878 564.6 188.465 564.929C189.051 565.243 189.694 565.4 190.395 565.4ZM204.715 554.955C206.145 554.955 207.304 555.391 208.19 556.263C209.077 557.121 209.52 558.365 209.52 559.995V566.923H207.59V560.274C207.59 559.102 207.296 558.208 206.71 557.593C206.124 556.964 205.323 556.649 204.308 556.649C203.278 556.649 202.456 556.971 201.841 557.615C201.241 558.258 200.94 559.195 200.94 560.424V566.923H198.989V555.169H200.94V556.842C201.327 556.242 201.848 555.777 202.506 555.448C203.178 555.119 203.915 554.955 204.715 554.955ZM214.66 551.051V566.923H212.708V551.051H214.66ZM228.111 555.169L221.032 572.457H219.016L221.333 566.795L216.593 555.169H218.759L222.448 564.693L226.094 555.169H228.111ZM242.354 566.923L237.743 561.733V566.923H235.791V551.051H237.743V560.381L242.268 555.169H244.992L239.459 561.025L245.014 566.923H242.354ZM252.556 554.955C253.986 554.955 255.144 555.391 256.031 556.263C256.918 557.121 257.361 558.365 257.361 559.995V566.923H255.43V560.274C255.43 559.102 255.137 558.208 254.551 557.593C253.965 556.964 253.164 556.649 252.149 556.649C251.119 556.649 250.297 556.971 249.682 557.615C249.082 558.258 248.781 559.195 248.781 560.424V566.923H246.83V555.169H248.781V556.842C249.167 556.242 249.689 555.777 250.347 555.448C251.019 555.119 251.756 554.955 252.556 554.955ZM265.675 567.116C264.574 567.116 263.574 566.866 262.673 566.366C261.786 565.865 261.085 565.157 260.571 564.242C260.07 563.313 259.82 562.24 259.82 561.025C259.82 559.824 260.077 558.766 260.592 557.85C261.121 556.921 261.836 556.213 262.737 555.727C263.638 555.227 264.646 554.976 265.761 554.976C266.877 554.976 267.885 555.227 268.786 555.727C269.686 556.213 270.394 556.914 270.909 557.829C271.438 558.744 271.703 559.809 271.703 561.025C271.703 562.24 271.431 563.313 270.888 564.242C270.358 565.157 269.636 565.865 268.721 566.366C267.806 566.866 266.791 567.116 265.675 567.116ZM265.675 565.4C266.376 565.4 267.034 565.236 267.649 564.907C268.264 564.578 268.757 564.085 269.129 563.427C269.515 562.769 269.708 561.969 269.708 561.025C269.708 560.081 269.522 559.28 269.15 558.623C268.778 557.965 268.292 557.479 267.692 557.164C267.091 556.835 266.44 556.671 265.74 556.671C265.025 556.671 264.367 556.835 263.767 557.164C263.18 557.479 262.708 557.965 262.351 558.623C261.993 559.28 261.815 560.081 261.815 561.025C261.815 561.983 261.986 562.791 262.329 563.449C262.687 564.106 263.159 564.6 263.745 564.929C264.331 565.243 264.975 565.4 265.675 565.4ZM289.927 555.169L286.259 566.923H284.243L281.411 557.593L278.58 566.923H276.564L272.875 555.169H274.869L277.572 565.036L280.489 555.169H282.484L285.337 565.057L287.996 555.169H289.927ZM296.025 567.116C295.124 567.116 294.316 566.966 293.601 566.666C292.886 566.351 292.321 565.922 291.907 565.379C291.492 564.821 291.263 564.185 291.22 563.47H293.236C293.294 564.056 293.565 564.535 294.051 564.907C294.552 565.279 295.203 565.465 296.003 565.465C296.747 565.465 297.333 565.3 297.762 564.971C298.191 564.643 298.406 564.228 298.406 563.727C298.406 563.213 298.177 562.834 297.719 562.591C297.262 562.333 296.554 562.083 295.596 561.84C294.723 561.611 294.009 561.382 293.451 561.154C292.907 560.911 292.436 560.56 292.035 560.103C291.649 559.631 291.456 559.016 291.456 558.258C291.456 557.657 291.635 557.107 291.992 556.606C292.35 556.106 292.857 555.713 293.515 555.427C294.173 555.126 294.924 554.976 295.767 554.976C297.069 554.976 298.12 555.305 298.92 555.963C299.721 556.621 300.15 557.522 300.207 558.666H298.255C298.213 558.051 297.962 557.557 297.505 557.186C297.061 556.814 296.461 556.628 295.703 556.628C295.002 556.628 294.445 556.778 294.03 557.078C293.615 557.379 293.408 557.772 293.408 558.258C293.408 558.644 293.53 558.966 293.773 559.223C294.03 559.466 294.345 559.666 294.716 559.824C295.102 559.967 295.631 560.131 296.304 560.317C297.147 560.546 297.834 560.775 298.363 561.003C298.892 561.218 299.342 561.547 299.714 561.99C300.1 562.433 300.3 563.013 300.314 563.727C300.314 564.371 300.136 564.95 299.778 565.465C299.421 565.98 298.913 566.387 298.255 566.687C297.612 566.973 296.868 567.116 296.025 567.116ZM311.169 556.778V563.706C311.169 564.278 311.29 564.686 311.534 564.929C311.777 565.157 312.198 565.272 312.799 565.272H314.236V566.923H312.477C311.391 566.923 310.576 566.673 310.032 566.173C309.489 565.672 309.217 564.85 309.217 563.706V556.778H307.694V555.169H309.217V552.209H311.169V555.169H314.236V556.778H311.169ZM322.435 554.955C323.322 554.955 324.122 555.148 324.837 555.534C325.552 555.906 326.11 556.471 326.51 557.228C326.925 557.986 327.132 558.909 327.132 559.995V566.923H325.202V560.274C325.202 559.102 324.909 558.208 324.323 557.593C323.736 556.964 322.936 556.649 321.92 556.649C320.891 556.649 320.069 556.971 319.454 557.615C318.853 558.258 318.553 559.195 318.553 560.424V566.923H316.601V551.051H318.553V556.842C318.939 556.242 319.468 555.777 320.14 555.448C320.826 555.119 321.591 554.955 322.435 554.955ZM329.591 561.003C329.591 559.802 329.835 558.751 330.321 557.85C330.807 556.935 331.472 556.228 332.315 555.727C333.173 555.227 334.124 554.976 335.168 554.976C336.198 554.976 337.091 555.198 337.849 555.641C338.607 556.085 339.172 556.642 339.544 557.314V555.169H341.517V566.923H339.544V564.736C339.158 565.422 338.579 565.994 337.806 566.451C337.048 566.895 336.162 567.116 335.147 567.116C334.103 567.116 333.159 566.859 332.315 566.344C331.472 565.829 330.807 565.107 330.321 564.178C329.835 563.248 329.591 562.19 329.591 561.003ZM339.544 561.025C339.544 560.138 339.365 559.366 339.007 558.708C338.65 558.051 338.164 557.55 337.549 557.207C336.948 556.85 336.283 556.671 335.554 556.671C334.825 556.671 334.16 556.842 333.559 557.186C332.959 557.529 332.48 558.029 332.122 558.687C331.765 559.345 331.586 560.117 331.586 561.003C331.586 561.904 331.765 562.691 332.122 563.363C332.48 564.021 332.959 564.528 333.559 564.886C334.16 565.229 334.825 565.4 335.554 565.4C336.283 565.4 336.948 565.229 337.549 564.886C338.164 564.528 338.65 564.021 339.007 563.363C339.365 562.691 339.544 561.911 339.544 561.025ZM347.196 556.778V563.706C347.196 564.278 347.318 564.686 347.561 564.929C347.804 565.157 348.226 565.272 348.826 565.272H350.263V566.923H348.505C347.418 566.923 346.603 566.673 346.059 566.173C345.516 565.672 345.244 564.85 345.244 563.706V556.778H343.722V555.169H345.244V552.209H347.196V555.169H350.263V556.778H347.196ZM364.181 554.955C365.067 554.955 365.868 555.148 366.583 555.534C367.298 555.906 367.856 556.471 368.256 557.228C368.671 557.986 368.878 558.909 368.878 559.995V566.923H366.948V560.274C366.948 559.102 366.654 558.208 366.068 557.593C365.482 556.964 364.681 556.649 363.666 556.649C362.636 556.649 361.814 556.971 361.199 557.615C360.599 558.258 360.298 559.195 360.298 560.424V566.923H358.347V551.051H360.298V556.842C360.685 556.242 361.214 555.777 361.886 555.448C362.572 555.119 363.337 554.955 364.181 554.955ZM382.791 560.596C382.791 560.968 382.769 561.361 382.726 561.776H373.332C373.403 562.934 373.797 563.842 374.511 564.5C375.241 565.143 376.12 565.465 377.15 565.465C377.993 565.465 378.694 565.272 379.252 564.886C379.824 564.485 380.224 563.956 380.453 563.298H382.555C382.24 564.428 381.611 565.35 380.667 566.065C379.724 566.766 378.551 567.116 377.15 567.116C376.034 567.116 375.033 566.866 374.147 566.366C373.275 565.865 372.588 565.157 372.088 564.242C371.587 563.313 371.337 562.24 371.337 561.025C371.337 559.809 371.58 558.744 372.066 557.829C372.552 556.914 373.232 556.213 374.104 555.727C374.991 555.227 376.006 554.976 377.15 554.976C378.265 554.976 379.252 555.219 380.11 555.706C380.968 556.192 381.625 556.864 382.083 557.722C382.555 558.565 382.791 559.523 382.791 560.596ZM380.775 560.188C380.775 559.445 380.61 558.809 380.281 558.279C379.952 557.736 379.502 557.329 378.93 557.057C378.372 556.771 377.75 556.628 377.064 556.628C376.077 556.628 375.234 556.942 374.533 557.572C373.847 558.201 373.453 559.073 373.353 560.188H380.775ZM58.8677 586.955C60.2976 586.955 61.4558 587.391 62.3424 588.263C63.2289 589.121 63.6722 590.365 63.6722 591.995V598.923H61.7418V592.274C61.7418 591.102 61.4487 590.208 60.8624 589.593C60.2761 588.964 59.4754 588.649 58.4601 588.649C57.4306 588.649 56.6084 588.971 55.9935 589.615C55.3929 590.258 55.0927 591.195 55.0927 592.424V598.923H53.1408V587.169H55.0927V588.842C55.4787 588.242 56.0007 587.777 56.6584 587.448C57.3305 587.119 58.0669 586.955 58.8677 586.955ZM77.5849 592.596C77.5849 592.968 77.5635 593.361 77.5206 593.776H68.126C68.1975 594.934 68.5907 595.842 69.3057 596.5C70.0349 597.143 70.9143 597.465 71.9439 597.465C72.7875 597.465 73.4882 597.272 74.0459 596.886C74.6178 596.485 75.0182 595.956 75.247 595.298H77.349C77.0344 596.428 76.4052 597.35 75.4615 598.065C74.5177 598.766 73.3452 599.116 71.9439 599.116C70.8286 599.116 69.8276 598.866 68.9411 598.366C68.0688 597.865 67.3824 597.157 66.882 596.242C66.3815 595.313 66.1313 594.24 66.1313 593.025C66.1313 591.809 66.3743 590.744 66.8605 589.829C67.3467 588.914 68.0259 588.213 68.8982 587.727C69.7847 587.227 70.8 586.976 71.9439 586.976C73.0592 586.976 74.0459 587.219 74.9038 587.706C75.7618 588.192 76.4195 588.864 76.8771 589.722C77.349 590.565 77.5849 591.523 77.5849 592.596ZM75.5687 592.188C75.5687 591.445 75.4043 590.809 75.0754 590.279C74.7465 589.736 74.2961 589.329 73.7241 589.057C73.1665 588.771 72.5445 588.628 71.8581 588.628C70.8714 588.628 70.0278 588.942 69.3271 589.572C68.6408 590.201 68.2475 591.073 68.1474 592.188H75.5687ZM90.8857 592.596C90.8857 592.968 90.8643 593.361 90.8214 593.776H81.4268C81.4983 594.934 81.8915 595.842 82.6065 596.5C83.3357 597.143 84.2151 597.465 85.2447 597.465C86.0883 597.465 86.789 597.272 87.3467 596.886C87.9186 596.485 88.319 595.956 88.5478 595.298H90.6498C90.3352 596.428 89.706 597.35 88.7623 598.065C87.8185 598.766 86.646 599.116 85.2447 599.116C84.1293 599.116 83.1284 598.866 82.2418 598.366C81.3696 597.865 80.6832 597.157 80.1828 596.242C79.6823 595.313 79.432 594.24 79.432 593.025C79.432 591.809 79.6751 590.744 80.1613 589.829C80.6475 588.914 81.3267 588.213 82.1989 587.727C83.0855 587.227 84.1007 586.976 85.2447 586.976C86.36 586.976 87.3467 587.219 88.2046 587.706C89.0626 588.192 89.7203 588.864 90.1779 589.722C90.6498 590.565 90.8857 591.523 90.8857 592.596ZM88.8695 592.188C88.8695 591.445 88.7051 590.809 88.3762 590.279C88.0473 589.736 87.5969 589.329 87.0249 589.057C86.4673 588.771 85.8452 588.628 85.1589 588.628C84.1722 588.628 83.3286 588.942 82.6279 589.572C81.9416 590.201 81.5483 591.073 81.4482 592.188H88.8695ZM92.7328 593.003C92.7328 591.802 92.9759 590.751 93.4621 589.85C93.9483 588.935 94.6132 588.228 95.4568 587.727C96.3148 587.227 97.2728 586.976 98.331 586.976C99.2461 586.976 100.097 587.191 100.883 587.62C101.67 588.034 102.27 588.585 102.685 589.271V583.051H104.658V598.923H102.685V596.714C102.299 597.415 101.727 597.994 100.969 598.451C100.211 598.895 99.3248 599.116 98.3095 599.116C97.2657 599.116 96.3148 598.859 95.4568 598.344C94.6132 597.829 93.9483 597.107 93.4621 596.178C92.9759 595.248 92.7328 594.19 92.7328 593.003ZM102.685 593.025C102.685 592.138 102.506 591.366 102.149 590.708C101.791 590.051 101.305 589.55 100.69 589.207C100.09 588.85 99.4249 588.671 98.6956 588.671C97.9663 588.671 97.3014 588.842 96.7009 589.186C96.1003 589.529 95.6213 590.029 95.2638 590.687C94.9063 591.345 94.7276 592.117 94.7276 593.003C94.7276 593.904 94.9063 594.691 95.2638 595.363C95.6213 596.021 96.1003 596.528 96.7009 596.886C97.3014 597.229 97.9663 597.4 98.6956 597.4C99.4249 597.4 100.09 597.229 100.69 596.886C101.305 596.528 101.791 596.021 102.149 595.363C102.506 594.691 102.685 593.911 102.685 593.025ZM112.118 599.116C111.217 599.116 110.409 598.966 109.694 598.666C108.979 598.351 108.414 597.922 108 597.379C107.585 596.821 107.356 596.185 107.313 595.47H109.33C109.387 596.056 109.658 596.535 110.145 596.907C110.645 597.279 111.296 597.465 112.096 597.465C112.84 597.465 113.426 597.3 113.855 596.971C114.284 596.643 114.499 596.228 114.499 595.727C114.499 595.213 114.27 594.834 113.812 594.591C113.355 594.333 112.647 594.083 111.689 593.84C110.817 593.611 110.102 593.382 109.544 593.154C109.001 592.911 108.529 592.56 108.128 592.103C107.742 591.631 107.549 591.016 107.549 590.258C107.549 589.657 107.728 589.107 108.085 588.606C108.443 588.106 108.951 587.713 109.608 587.427C110.266 587.126 111.017 586.976 111.86 586.976C113.162 586.976 114.213 587.305 115.013 587.963C115.814 588.621 116.243 589.522 116.3 590.666H114.349C114.306 590.051 114.055 589.557 113.598 589.186C113.155 588.814 112.554 588.628 111.796 588.628C111.095 588.628 110.538 588.778 110.123 589.078C109.708 589.379 109.501 589.772 109.501 590.258C109.501 590.644 109.623 590.966 109.866 591.223C110.123 591.466 110.438 591.666 110.809 591.824C111.196 591.967 111.725 592.131 112.397 592.317C113.24 592.546 113.927 592.775 114.456 593.003C114.985 593.218 115.435 593.547 115.807 593.99C116.193 594.433 116.393 595.013 116.408 595.727C116.408 596.371 116.229 596.95 115.871 597.465C115.514 597.98 115.006 598.387 114.349 598.687C113.705 598.973 112.962 599.116 112.118 599.116ZM127.262 588.778V595.706C127.262 596.278 127.384 596.686 127.627 596.929C127.87 597.157 128.292 597.272 128.892 597.272H130.329V598.923H128.57C127.484 598.923 126.669 598.673 126.125 598.173C125.582 597.672 125.31 596.85 125.31 595.706V588.778H123.787V587.169H125.31V584.209H127.262V587.169H130.329V588.778H127.262ZM137.82 599.116C136.719 599.116 135.718 598.866 134.818 598.366C133.931 597.865 133.23 597.157 132.716 596.242C132.215 595.313 131.965 594.24 131.965 593.025C131.965 591.824 132.222 590.766 132.737 589.85C133.266 588.921 133.981 588.213 134.882 587.727C135.783 587.227 136.791 586.976 137.906 586.976C139.022 586.976 140.03 587.227 140.93 587.727C141.831 588.213 142.539 588.914 143.054 589.829C143.583 590.744 143.848 591.809 143.848 593.025C143.848 594.24 143.576 595.313 143.032 596.242C142.503 597.157 141.781 597.865 140.866 598.366C139.951 598.866 138.936 599.116 137.82 599.116ZM137.82 597.4C138.521 597.4 139.179 597.236 139.794 596.907C140.409 596.578 140.902 596.085 141.274 595.427C141.66 594.769 141.853 593.969 141.853 593.025C141.853 592.081 141.667 591.28 141.295 590.623C140.923 589.965 140.437 589.479 139.837 589.164C139.236 588.835 138.585 588.671 137.885 588.671C137.17 588.671 136.512 588.835 135.911 589.164C135.325 589.479 134.853 589.965 134.496 590.623C134.138 591.28 133.96 592.081 133.96 593.025C133.96 593.983 134.131 594.791 134.474 595.449C134.832 596.106 135.304 596.6 135.89 596.929C136.476 597.243 137.12 597.4 137.82 597.4ZM151.403 593.025C151.403 591.809 151.646 590.751 152.132 589.85C152.618 588.935 153.29 588.228 154.148 587.727C155.021 587.227 156.014 586.976 157.13 586.976C158.574 586.976 159.761 587.327 160.69 588.027C161.634 588.728 162.256 589.7 162.556 590.944H160.454C160.254 590.229 159.861 589.665 159.275 589.25C158.703 588.835 157.988 588.628 157.13 588.628C156.014 588.628 155.114 589.014 154.427 589.786C153.741 590.544 153.398 591.624 153.398 593.025C153.398 594.441 153.741 595.534 154.427 596.307C155.114 597.079 156.014 597.465 157.13 597.465C157.988 597.465 158.703 597.265 159.275 596.864C159.847 596.464 160.24 595.892 160.454 595.148H162.556C162.242 596.349 161.613 597.315 160.669 598.044C159.725 598.759 158.545 599.116 157.13 599.116C156.014 599.116 155.021 598.866 154.148 598.366C153.29 597.865 152.618 597.157 152.132 596.242C151.646 595.327 151.403 594.255 151.403 593.025ZM167.112 589.078C167.456 588.406 167.942 587.884 168.571 587.513C169.214 587.141 169.994 586.955 170.909 586.955V588.971H170.394C168.206 588.971 167.112 590.158 167.112 592.532V598.923H165.161V587.169H167.112V589.078ZM183.886 592.596C183.886 592.968 183.865 593.361 183.822 593.776H174.428C174.499 594.934 174.892 595.842 175.607 596.5C176.336 597.143 177.216 597.465 178.245 597.465C179.089 597.465 179.79 597.272 180.347 596.886C180.919 596.485 181.32 595.956 181.549 595.298H183.651C183.336 596.428 182.707 597.35 181.763 598.065C180.819 598.766 179.647 599.116 178.245 599.116C177.13 599.116 176.129 598.866 175.243 598.366C174.37 597.865 173.684 597.157 173.183 596.242C172.683 595.313 172.433 594.24 172.433 593.025C172.433 591.809 172.676 590.744 173.162 589.829C173.648 588.914 174.327 588.213 175.2 587.727C176.086 587.227 177.101 586.976 178.245 586.976C179.361 586.976 180.347 587.219 181.205 587.706C182.063 588.192 182.721 588.864 183.179 589.722C183.651 590.565 183.886 591.523 183.886 592.596ZM181.87 592.188C181.87 591.445 181.706 590.809 181.377 590.279C181.048 589.736 180.598 589.329 180.026 589.057C179.468 588.771 178.846 588.628 178.16 588.628C177.173 588.628 176.329 588.942 175.629 589.572C174.942 590.201 174.549 591.073 174.449 592.188H181.87ZM185.734 593.003C185.734 591.802 185.977 590.751 186.463 589.85C186.949 588.935 187.614 588.228 188.458 587.727C189.316 587.227 190.266 586.976 191.31 586.976C192.34 586.976 193.234 587.198 193.991 587.641C194.749 588.085 195.314 588.642 195.686 589.314V587.169H197.659V598.923H195.686V596.736C195.3 597.422 194.721 597.994 193.948 598.451C193.191 598.895 192.304 599.116 191.289 599.116C190.245 599.116 189.301 598.859 188.458 598.344C187.614 597.829 186.949 597.107 186.463 596.178C185.977 595.248 185.734 594.19 185.734 593.003ZM195.686 593.025C195.686 592.138 195.507 591.366 195.15 590.708C194.792 590.051 194.306 589.55 193.691 589.207C193.091 588.85 192.426 588.671 191.696 588.671C190.967 588.671 190.302 588.842 189.702 589.186C189.101 589.529 188.622 590.029 188.265 590.687C187.907 591.345 187.728 592.117 187.728 593.003C187.728 593.904 187.907 594.691 188.265 595.363C188.622 596.021 189.101 596.528 189.702 596.886C190.302 597.229 190.967 597.4 191.696 597.4C192.426 597.4 193.091 597.229 193.691 596.886C194.306 596.528 194.792 596.021 195.15 595.363C195.507 594.691 195.686 593.911 195.686 593.025ZM203.338 588.778V595.706C203.338 596.278 203.46 596.686 203.703 596.929C203.946 597.157 204.368 597.272 204.968 597.272H206.406V598.923H204.647C203.56 598.923 202.745 598.673 202.202 598.173C201.658 597.672 201.387 596.85 201.387 595.706V588.778H199.864V587.169H201.387V584.209H203.338V587.169H206.406V588.778H203.338ZM219.495 592.596C219.495 592.968 219.473 593.361 219.43 593.776H210.036C210.107 594.934 210.501 595.842 211.216 596.5C211.945 597.143 212.824 597.465 213.854 597.465C214.697 597.465 215.398 597.272 215.956 596.886C216.528 596.485 216.928 595.956 217.157 595.298H219.259C218.944 596.428 218.315 597.35 217.371 598.065C216.428 598.766 215.255 599.116 213.854 599.116C212.738 599.116 211.738 598.866 210.851 598.366C209.979 597.865 209.292 597.157 208.792 596.242C208.291 595.313 208.041 594.24 208.041 593.025C208.041 591.809 208.284 590.744 208.77 589.829C209.257 588.914 209.936 588.213 210.808 587.727C211.695 587.227 212.71 586.976 213.854 586.976C214.969 586.976 215.956 587.219 216.814 587.706C217.672 588.192 218.329 588.864 218.787 589.722C219.259 590.565 219.495 591.523 219.495 592.596ZM217.479 592.188C217.479 591.445 217.314 590.809 216.985 590.279C216.656 589.736 216.206 589.329 215.634 589.057C215.076 588.771 214.454 588.628 213.768 588.628C212.781 588.628 211.938 588.942 211.237 589.572C210.551 590.201 210.157 591.073 210.057 592.188H217.479ZM227.06 593.003C227.06 591.802 227.303 590.751 227.789 589.85C228.276 588.935 228.941 588.228 229.784 587.727C230.642 587.227 231.593 586.976 232.637 586.976C233.666 586.976 234.56 587.198 235.318 587.641C236.076 588.085 236.641 588.642 237.012 589.314V587.169H238.986V598.923H237.012V596.736C236.626 597.422 236.047 597.994 235.275 598.451C234.517 598.895 233.631 599.116 232.615 599.116C231.572 599.116 230.628 598.859 229.784 598.344C228.941 597.829 228.276 597.107 227.789 596.178C227.303 595.248 227.06 594.19 227.06 593.003ZM237.012 593.025C237.012 592.138 236.834 591.366 236.476 590.708C236.119 590.051 235.633 589.55 235.018 589.207C234.417 588.85 233.752 588.671 233.023 588.671C232.294 588.671 231.629 588.842 231.028 589.186C230.428 589.529 229.949 590.029 229.591 590.687C229.234 591.345 229.055 592.117 229.055 593.003C229.055 593.904 229.234 594.691 229.591 595.363C229.949 596.021 230.428 596.528 231.028 596.886C231.629 597.229 232.294 597.4 233.023 597.4C233.752 597.4 234.417 597.229 235.018 596.886C235.633 596.528 236.119 596.021 236.476 595.363C236.834 594.691 237.012 593.911 237.012 593.025ZM248.011 586.955C249.441 586.955 250.599 587.391 251.486 588.263C252.372 589.121 252.816 590.365 252.816 591.995V598.923H250.885V592.274C250.885 591.102 250.592 590.208 250.006 589.593C249.42 588.964 248.619 588.649 247.604 588.649C246.574 588.649 245.752 588.971 245.137 589.615C244.536 590.258 244.236 591.195 244.236 592.424V598.923H242.284V587.169H244.236V588.842C244.622 588.242 245.144 587.777 245.802 587.448C246.474 587.119 247.21 586.955 248.011 586.955ZM260.993 593.003C260.993 591.802 261.236 590.751 261.722 589.85C262.208 588.935 262.873 588.228 263.717 587.727C264.575 587.227 265.526 586.976 266.57 586.976C267.599 586.976 268.493 587.198 269.251 587.641C270.009 588.085 270.573 588.642 270.945 589.314V587.169H272.918V598.923H270.945V596.736C270.559 597.422 269.98 597.994 269.208 598.451C268.45 598.895 267.563 599.116 266.548 599.116C265.504 599.116 264.561 598.859 263.717 598.344C262.873 597.829 262.208 597.107 261.722 596.178C261.236 595.248 260.993 594.19 260.993 593.003ZM270.945 593.025C270.945 592.138 270.766 591.366 270.409 590.708C270.051 590.051 269.565 589.55 268.95 589.207C268.35 588.85 267.685 588.671 266.956 588.671C266.226 588.671 265.562 588.842 264.961 589.186C264.36 589.529 263.881 590.029 263.524 590.687C263.166 591.345 262.988 592.117 262.988 593.003C262.988 593.904 263.166 594.691 263.524 595.363C263.881 596.021 264.36 596.528 264.961 596.886C265.562 597.229 266.226 597.4 266.956 597.4C267.685 597.4 268.35 597.229 268.95 596.886C269.565 596.528 270.051 596.021 270.409 595.363C270.766 594.691 270.945 593.911 270.945 593.025ZM275.488 593.025C275.488 591.809 275.731 590.751 276.217 589.85C276.703 588.935 277.375 588.228 278.233 587.727C279.105 587.227 280.099 586.976 281.214 586.976C282.659 586.976 283.846 587.327 284.775 588.027C285.719 588.728 286.341 589.7 286.641 590.944H284.539C284.339 590.229 283.946 589.665 283.359 589.25C282.787 588.835 282.072 588.628 281.214 588.628C280.099 588.628 279.198 589.014 278.512 589.786C277.826 590.544 277.482 591.624 277.482 593.025C277.482 594.441 277.826 595.534 278.512 596.307C279.198 597.079 280.099 597.465 281.214 597.465C282.072 597.465 282.787 597.265 283.359 596.864C283.931 596.464 284.325 595.892 284.539 595.148H286.641C286.326 596.349 285.697 597.315 284.754 598.044C283.81 598.759 282.63 599.116 281.214 599.116C280.099 599.116 279.105 598.866 278.233 598.366C277.375 597.865 276.703 597.157 276.217 596.242C275.731 595.327 275.488 594.255 275.488 593.025ZM288.516 593.025C288.516 591.809 288.759 590.751 289.245 589.85C289.732 588.935 290.404 588.228 291.262 587.727C292.134 587.227 293.128 586.976 294.243 586.976C295.687 586.976 296.874 587.327 297.803 588.027C298.747 588.728 299.369 589.7 299.67 590.944H297.568C297.367 590.229 296.974 589.665 296.388 589.25C295.816 588.835 295.101 588.628 294.243 588.628C293.128 588.628 292.227 589.014 291.54 589.786C290.854 590.544 290.511 591.624 290.511 593.025C290.511 594.441 290.854 595.534 291.54 596.307C292.227 597.079 293.128 597.465 294.243 597.465C295.101 597.465 295.816 597.265 296.388 596.864C296.96 596.464 297.353 595.892 297.568 595.148H299.67C299.355 596.349 298.726 597.315 297.782 598.044C296.838 598.759 295.659 599.116 294.243 599.116C293.128 599.116 292.134 598.866 291.262 598.366C290.404 597.865 289.732 597.157 289.245 596.242C288.759 595.327 288.516 594.255 288.516 593.025ZM307.4 599.116C306.299 599.116 305.298 598.866 304.397 598.366C303.511 597.865 302.81 597.157 302.295 596.242C301.795 595.313 301.545 594.24 301.545 593.025C301.545 591.824 301.802 590.766 302.317 589.85C302.846 588.921 303.561 588.213 304.462 587.727C305.363 587.227 306.371 586.976 307.486 586.976C308.601 586.976 309.609 587.227 310.51 587.727C311.411 588.213 312.119 588.914 312.634 589.829C313.163 590.744 313.427 591.809 313.427 593.025C313.427 594.24 313.156 595.313 312.612 596.242C312.083 597.157 311.361 597.865 310.446 598.366C309.531 598.866 308.515 599.116 307.4 599.116ZM307.4 597.4C308.101 597.4 308.759 597.236 309.373 596.907C309.988 596.578 310.482 596.085 310.853 595.427C311.239 594.769 311.433 593.969 311.433 593.025C311.433 592.081 311.247 591.28 310.875 590.623C310.503 589.965 310.017 589.479 309.416 589.164C308.816 588.835 308.165 588.671 307.464 588.671C306.75 588.671 306.092 588.835 305.491 589.164C304.905 589.479 304.433 589.965 304.076 590.623C303.718 591.28 303.539 592.081 303.539 593.025C303.539 593.983 303.711 594.791 304.054 595.449C304.412 596.106 304.883 596.6 305.47 596.929C306.056 597.243 306.699 597.4 307.4 597.4ZM326.418 587.169V598.923H324.466V597.186C324.094 597.787 323.572 598.258 322.9 598.602C322.242 598.93 321.513 599.095 320.712 599.095C319.797 599.095 318.975 598.909 318.246 598.537C317.516 598.151 316.937 597.579 316.508 596.821C316.094 596.063 315.886 595.141 315.886 594.054V587.169H317.817V593.797C317.817 594.955 318.11 595.849 318.696 596.478C319.282 597.093 320.083 597.4 321.098 597.4C322.142 597.4 322.964 597.079 323.565 596.435C324.166 595.792 324.466 594.855 324.466 593.625V587.169H326.418ZM335.44 586.955C336.87 586.955 338.028 587.391 338.915 588.263C339.801 589.121 340.245 590.365 340.245 591.995V598.923H338.314V592.274C338.314 591.102 338.021 590.208 337.435 589.593C336.849 588.964 336.048 588.649 335.033 588.649C334.003 588.649 333.181 588.971 332.566 589.615C331.965 590.258 331.665 591.195 331.665 592.424V598.923H329.713V587.169H331.665V588.842C332.051 588.242 332.573 587.777 333.231 587.448C333.903 587.119 334.639 586.955 335.44 586.955ZM345.814 588.778V595.706C345.814 596.278 345.935 596.686 346.178 596.929C346.421 597.157 346.843 597.272 347.444 597.272H348.881V598.923H347.122C346.035 598.923 345.22 598.673 344.677 598.173C344.134 597.672 343.862 596.85 343.862 595.706V588.778H342.339V587.169H343.862V584.209H345.814V587.169H348.881V588.778H345.814ZM357.972 585.26C357.6 585.26 357.286 585.132 357.028 584.874C356.771 584.617 356.642 584.302 356.642 583.931C356.642 583.559 356.771 583.244 357.028 582.987C357.286 582.729 357.6 582.601 357.972 582.601C358.33 582.601 358.63 582.729 358.873 582.987C359.13 583.244 359.259 583.559 359.259 583.931C359.259 584.302 359.13 584.617 358.873 584.874C358.63 585.132 358.33 585.26 357.972 585.26ZM358.916 587.169V598.923H356.964V587.169H358.916ZM367.969 586.955C369.399 586.955 370.558 587.391 371.444 588.263C372.331 589.121 372.774 590.365 372.774 591.995V598.923H370.844V592.274C370.844 591.102 370.55 590.208 369.964 589.593C369.378 588.964 368.577 588.649 367.562 588.649C366.532 588.649 365.71 588.971 365.095 589.615C364.495 590.258 364.194 591.195 364.194 592.424V598.923H362.243V587.169H364.194V588.842C364.581 588.242 365.102 587.777 365.76 587.448C366.432 587.119 367.169 586.955 367.969 586.955ZM55.5216 620.778V627.706C55.5216 628.278 55.6432 628.686 55.8863 628.929C56.1294 629.157 56.5512 629.272 57.1517 629.272H58.5888V630.923H56.83C55.7433 630.923 54.9282 630.673 54.3848 630.173C53.8415 629.672 53.5698 628.85 53.5698 627.706V620.778H52.0469V619.169H53.5698V616.209H55.5216V619.169H58.5888V620.778H55.5216ZM66.7878 618.955C67.6743 618.955 68.4751 619.148 69.1901 619.534C69.905 619.906 70.4627 620.471 70.8631 621.228C71.2777 621.986 71.4851 622.909 71.4851 623.995V630.923H69.5547V624.274C69.5547 623.102 69.2616 622.208 68.6753 621.593C68.089 620.964 67.2883 620.649 66.273 620.649C65.2435 620.649 64.4213 620.971 63.8064 621.615C63.2058 622.258 62.9056 623.195 62.9056 624.424V630.923H60.9537V615.051H62.9056V620.842C63.2916 620.242 63.8207 619.777 64.4928 619.448C65.1791 619.119 65.9441 618.955 66.7878 618.955ZM85.3978 624.596C85.3978 624.968 85.3764 625.361 85.3335 625.776H75.9389C76.0104 626.934 76.4036 627.842 77.1186 628.5C77.8478 629.143 78.7272 629.465 79.7568 629.465C80.6004 629.465 81.3011 629.272 81.8588 628.886C82.4307 628.485 82.8311 627.956 83.0599 627.298H85.1619C84.8473 628.428 84.2181 629.35 83.2744 630.065C82.3306 630.766 81.1581 631.116 79.7568 631.116C78.6415 631.116 77.6405 630.866 76.754 630.366C75.8817 629.865 75.1953 629.157 74.6949 628.242C74.1944 627.313 73.9442 626.24 73.9442 625.025C73.9442 623.809 74.1872 622.744 74.6734 621.829C75.1596 620.914 75.8388 620.213 76.7111 619.727C77.5976 619.227 78.6129 618.976 79.7568 618.976C80.8721 618.976 81.8588 619.219 82.7167 619.706C83.5747 620.192 84.2324 620.864 84.69 621.722C85.1619 622.565 85.3978 623.523 85.3978 624.596ZM83.3816 624.188C83.3816 623.445 83.2172 622.809 82.8883 622.279C82.5594 621.736 82.109 621.329 81.537 621.057C80.9794 620.771 80.3574 620.628 79.671 620.628C78.6843 620.628 77.8407 620.942 77.14 621.572C76.4537 622.201 76.0604 623.073 75.9603 624.188H83.3816ZM92.9632 625.003C92.9632 623.802 93.2063 622.751 93.6925 621.85C94.1787 620.935 94.8436 620.228 95.6872 619.727C96.5452 619.227 97.4961 618.976 98.5399 618.976C99.5695 618.976 100.463 619.198 101.221 619.641C101.979 620.085 102.544 620.642 102.915 621.314V619.169H104.889V630.923H102.915V628.736C102.529 629.422 101.95 629.994 101.178 630.451C100.42 630.895 99.5337 631.116 98.5185 631.116C97.4746 631.116 96.5309 630.859 95.6872 630.344C94.8436 629.829 94.1787 629.107 93.6925 628.178C93.2063 627.248 92.9632 626.19 92.9632 625.003ZM102.915 625.025C102.915 624.138 102.737 623.366 102.379 622.708C102.022 622.051 101.536 621.55 100.921 621.207C100.32 620.85 99.6553 620.671 98.926 620.671C98.1967 620.671 97.5318 620.842 96.9313 621.186C96.3307 621.529 95.8517 622.029 95.4942 622.687C95.1367 623.345 94.958 624.117 94.958 625.003C94.958 625.904 95.1367 626.691 95.4942 627.363C95.8517 628.021 96.3307 628.528 96.9313 628.886C97.5318 629.229 98.1967 629.4 98.926 629.4C99.6553 629.4 100.32 629.229 100.921 628.886C101.536 628.528 102.022 628.021 102.379 627.363C102.737 626.691 102.915 625.911 102.915 625.025ZM107.458 625.025C107.458 623.809 107.701 622.751 108.187 621.85C108.673 620.935 109.345 620.228 110.203 619.727C111.076 619.227 112.069 618.976 113.185 618.976C114.629 618.976 115.816 619.327 116.745 620.027C117.689 620.728 118.311 621.7 118.611 622.944H116.509C116.309 622.229 115.916 621.665 115.33 621.25C114.758 620.835 114.043 620.628 113.185 620.628C112.069 620.628 111.169 621.014 110.482 621.786C109.796 622.544 109.453 623.624 109.453 625.025C109.453 626.441 109.796 627.534 110.482 628.307C111.169 629.079 112.069 629.465 113.185 629.465C114.043 629.465 114.758 629.265 115.33 628.864C115.902 628.464 116.295 627.892 116.509 627.148H118.611C118.297 628.349 117.668 629.315 116.724 630.044C115.78 630.759 114.6 631.116 113.185 631.116C112.069 631.116 111.076 630.866 110.203 630.366C109.345 629.865 108.673 629.157 108.187 628.242C107.701 627.327 107.458 626.255 107.458 625.025ZM120.486 625.003C120.486 623.802 120.73 622.751 121.216 621.85C121.702 620.935 122.367 620.228 123.21 619.727C124.068 619.227 125.019 618.976 126.063 618.976C127.093 618.976 127.986 619.198 128.744 619.641C129.502 620.085 130.067 620.642 130.439 621.314V619.169H132.412V630.923H130.439V628.736C130.053 629.422 129.473 629.994 128.701 630.451C127.943 630.895 127.057 631.116 126.042 631.116C124.998 631.116 124.054 630.859 123.21 630.344C122.367 629.829 121.702 629.107 121.216 628.178C120.73 627.248 120.486 626.19 120.486 625.003ZM130.439 625.025C130.439 624.138 130.26 623.366 129.902 622.708C129.545 622.051 129.059 621.55 128.444 621.207C127.843 620.85 127.178 620.671 126.449 620.671C125.72 620.671 125.055 620.842 124.454 621.186C123.854 621.529 123.375 622.029 123.017 622.687C122.66 623.345 122.481 624.117 122.481 625.003C122.481 625.904 122.66 626.691 123.017 627.363C123.375 628.021 123.854 628.528 124.454 628.886C125.055 629.229 125.72 629.4 126.449 629.4C127.178 629.4 127.843 629.229 128.444 628.886C129.059 628.528 129.545 628.021 129.902 627.363C130.26 626.691 130.439 625.911 130.439 625.025ZM134.981 625.003C134.981 623.802 135.224 622.751 135.71 621.85C136.197 620.935 136.861 620.228 137.705 619.727C138.563 619.227 139.521 618.976 140.579 618.976C141.494 618.976 142.345 619.191 143.132 619.62C143.918 620.034 144.519 620.585 144.933 621.271V615.051H146.907V630.923H144.933V628.714C144.547 629.415 143.975 629.994 143.217 630.451C142.46 630.895 141.573 631.116 140.558 631.116C139.514 631.116 138.563 630.859 137.705 630.344C136.861 629.829 136.197 629.107 135.71 628.178C135.224 627.248 134.981 626.19 134.981 625.003ZM144.933 625.025C144.933 624.138 144.755 623.366 144.397 622.708C144.04 622.051 143.554 621.55 142.939 621.207C142.338 620.85 141.673 620.671 140.944 620.671C140.215 620.671 139.55 620.842 138.949 621.186C138.349 621.529 137.87 622.029 137.512 622.687C137.155 623.345 136.976 624.117 136.976 625.003C136.976 625.904 137.155 626.691 137.512 627.363C137.87 628.021 138.349 628.528 138.949 628.886C139.55 629.229 140.215 629.4 140.944 629.4C141.673 629.4 142.338 629.229 142.939 628.886C143.554 628.528 144.04 628.021 144.397 627.363C144.755 626.691 144.933 625.911 144.933 625.025ZM160.93 624.596C160.93 624.968 160.908 625.361 160.865 625.776H151.471C151.542 626.934 151.935 627.842 152.65 628.5C153.38 629.143 154.259 629.465 155.288 629.465C156.132 629.465 156.833 629.272 157.39 628.886C157.962 628.485 158.363 627.956 158.592 627.298H160.694C160.379 628.428 159.75 629.35 158.806 630.065C157.862 630.766 156.69 631.116 155.288 631.116C154.173 631.116 153.172 630.866 152.286 630.366C151.413 629.865 150.727 629.157 150.227 628.242C149.726 627.313 149.476 626.24 149.476 625.025C149.476 623.809 149.719 622.744 150.205 621.829C150.691 620.914 151.37 620.213 152.243 619.727C153.129 619.227 154.145 618.976 155.288 618.976C156.404 618.976 157.39 619.219 158.248 619.706C159.106 620.192 159.764 620.864 160.222 621.722C160.694 622.565 160.93 623.523 160.93 624.596ZM158.913 624.188C158.913 623.445 158.749 622.809 158.42 622.279C158.091 621.736 157.641 621.329 157.069 621.057C156.511 620.771 155.889 620.628 155.203 620.628C154.216 620.628 153.372 620.942 152.672 621.572C151.985 622.201 151.592 623.073 151.492 624.188H158.913ZM177.641 618.955C178.556 618.955 179.371 619.148 180.086 619.534C180.801 619.906 181.366 620.471 181.78 621.228C182.195 621.986 182.402 622.909 182.402 623.995V630.923H180.472V624.274C180.472 623.102 180.179 622.208 179.592 621.593C179.021 620.964 178.241 620.649 177.255 620.649C176.239 620.649 175.431 620.978 174.831 621.636C174.23 622.279 173.93 623.216 173.93 624.446V630.923H172V624.274C172 623.102 171.706 622.208 171.12 621.593C170.548 620.964 169.769 620.649 168.782 620.649C167.767 620.649 166.959 620.978 166.359 621.636C165.758 622.279 165.458 623.216 165.458 624.446V630.923H163.506V619.169H165.458V620.864C165.844 620.249 166.359 619.777 167.002 619.448C167.66 619.119 168.382 618.955 169.168 618.955C170.155 618.955 171.027 619.177 171.785 619.62C172.543 620.063 173.108 620.714 173.48 621.572C173.808 620.742 174.352 620.099 175.11 619.641C175.868 619.184 176.711 618.955 177.641 618.955ZM186.612 617.26C186.24 617.26 185.926 617.132 185.668 616.874C185.411 616.617 185.282 616.302 185.282 615.931C185.282 615.559 185.411 615.244 185.668 614.987C185.926 614.729 186.24 614.601 186.612 614.601C186.97 614.601 187.27 614.729 187.513 614.987C187.77 615.244 187.899 615.559 187.899 615.931C187.899 616.302 187.77 616.617 187.513 616.874C187.27 617.132 186.97 617.26 186.612 617.26ZM187.556 619.169V630.923H185.604V619.169H187.556ZM190.153 625.025C190.153 623.809 190.396 622.751 190.882 621.85C191.369 620.935 192.041 620.228 192.899 619.727C193.771 619.227 194.765 618.976 195.88 618.976C197.324 618.976 198.511 619.327 199.441 620.027C200.384 620.728 201.006 621.7 201.307 622.944H199.205C199.004 622.229 198.611 621.665 198.025 621.25C197.453 620.835 196.738 620.628 195.88 620.628C194.765 620.628 193.864 621.014 193.177 621.786C192.491 622.544 192.148 623.624 192.148 625.025C192.148 626.441 192.491 627.534 193.177 628.307C193.864 629.079 194.765 629.465 195.88 629.465C196.738 629.465 197.453 629.265 198.025 628.864C198.597 628.464 198.99 627.892 199.205 627.148H201.307C200.992 628.349 200.363 629.315 199.419 630.044C198.475 630.759 197.296 631.116 195.88 631.116C194.765 631.116 193.771 630.866 192.899 630.366C192.041 629.865 191.369 629.157 190.882 628.242C190.396 627.327 190.153 626.255 190.153 625.025ZM208.9 625.003C208.9 623.802 209.143 622.751 209.629 621.85C210.115 620.935 210.78 620.228 211.624 619.727C212.482 619.227 213.44 618.976 214.498 618.976C215.413 618.976 216.264 619.191 217.051 619.62C217.837 620.034 218.438 620.585 218.852 621.271V615.051H220.826V630.923H218.852V628.714C218.466 629.415 217.894 629.994 217.136 630.451C216.378 630.895 215.492 631.116 214.477 631.116C213.433 631.116 212.482 630.859 211.624 630.344C210.78 629.829 210.115 629.107 209.629 628.178C209.143 627.248 208.9 626.19 208.9 625.003ZM218.852 625.025C218.852 624.138 218.673 623.366 218.316 622.708C217.959 622.051 217.472 621.55 216.857 621.207C216.257 620.85 215.592 620.671 214.863 620.671C214.133 620.671 213.469 620.842 212.868 621.186C212.267 621.529 211.788 622.029 211.431 622.687C211.073 623.345 210.895 624.117 210.895 625.003C210.895 625.904 211.073 626.691 211.431 627.363C211.788 628.021 212.267 628.528 212.868 628.886C213.469 629.229 214.133 629.4 214.863 629.4C215.592 629.4 216.257 629.229 216.857 628.886C217.472 628.528 217.959 628.021 218.316 627.363C218.673 626.691 218.852 625.911 218.852 625.025ZM225.132 617.26C224.76 617.26 224.446 617.132 224.188 616.874C223.931 616.617 223.802 616.302 223.802 615.931C223.802 615.559 223.931 615.244 224.188 614.987C224.446 614.729 224.76 614.601 225.132 614.601C225.49 614.601 225.79 614.729 226.033 614.987C226.29 615.244 226.419 615.559 226.419 615.931C226.419 616.302 226.29 616.617 226.033 616.874C225.79 617.132 225.49 617.26 225.132 617.26ZM226.076 619.169V630.923H224.124V619.169H226.076ZM234.25 618.976C235.265 618.976 236.152 619.198 236.909 619.641C237.682 620.085 238.254 620.642 238.625 621.314V619.169H240.599V631.181C240.599 632.253 240.37 633.204 239.912 634.033C239.455 634.877 238.797 635.535 237.939 636.007C237.095 636.479 236.109 636.715 234.979 636.715C233.435 636.715 232.148 636.35 231.118 635.621C230.089 634.891 229.481 633.898 229.295 632.639H231.226C231.44 633.354 231.883 633.926 232.555 634.355C233.227 634.798 234.035 635.02 234.979 635.02C236.051 635.02 236.924 634.684 237.596 634.012C238.282 633.34 238.625 632.396 238.625 631.181V628.714C238.239 629.4 237.667 629.972 236.909 630.43C236.152 630.888 235.265 631.116 234.25 631.116C233.206 631.116 232.255 630.859 231.397 630.344C230.553 629.829 229.889 629.107 229.402 628.178C228.916 627.248 228.673 626.19 228.673 625.003C228.673 623.802 228.916 622.751 229.402 621.85C229.889 620.935 230.553 620.228 231.397 619.727C232.255 619.227 233.206 618.976 234.25 618.976ZM238.625 625.025C238.625 624.138 238.447 623.366 238.089 622.708C237.732 622.051 237.245 621.55 236.631 621.207C236.03 620.85 235.365 620.671 234.636 620.671C233.907 620.671 233.242 620.842 232.641 621.186C232.041 621.529 231.562 622.029 231.204 622.687C230.847 623.345 230.668 624.117 230.668 625.003C230.668 625.904 230.847 626.691 231.204 627.363C231.562 628.021 232.041 628.528 232.641 628.886C233.242 629.229 233.907 629.4 234.636 629.4C235.365 629.4 236.03 629.229 236.631 628.886C237.245 628.528 237.732 628.021 238.089 627.363C238.447 626.691 238.625 625.911 238.625 625.025ZM244.905 617.26C244.533 617.26 244.219 617.132 243.961 616.874C243.704 616.617 243.575 616.302 243.575 615.931C243.575 615.559 243.704 615.244 243.961 614.987C244.219 614.729 244.533 614.601 244.905 614.601C245.263 614.601 245.563 614.729 245.806 614.987C246.063 615.244 246.192 615.559 246.192 615.931C246.192 616.302 246.063 616.617 245.806 616.874C245.563 617.132 245.263 617.26 244.905 617.26ZM245.849 619.169V630.923H243.897V619.169H245.849ZM251.556 620.778V627.706C251.556 628.278 251.678 628.686 251.921 628.929C252.164 629.157 252.586 629.272 253.186 629.272H254.623V630.923H252.865C251.778 630.923 250.963 630.673 250.42 630.173C249.876 629.672 249.604 628.85 249.604 627.706V620.778H248.082V619.169H249.604V616.209H251.556V619.169H254.623V620.778H251.556ZM256.259 625.003C256.259 623.802 256.502 622.751 256.988 621.85C257.475 620.935 258.139 620.228 258.983 619.727C259.841 619.227 260.792 618.976 261.836 618.976C262.865 618.976 263.759 619.198 264.517 619.641C265.275 620.085 265.84 620.642 266.211 621.314V619.169H268.185V630.923H266.211V628.736C265.825 629.422 265.246 629.994 264.474 630.451C263.716 630.895 262.83 631.116 261.814 631.116C260.771 631.116 259.827 630.859 258.983 630.344C258.139 629.829 257.475 629.107 256.988 628.178C256.502 627.248 256.259 626.19 256.259 625.003ZM266.211 625.025C266.211 624.138 266.033 623.366 265.675 622.708C265.318 622.051 264.831 621.55 264.217 621.207C263.616 620.85 262.951 620.671 262.222 620.671C261.493 620.671 260.828 620.842 260.227 621.186C259.627 621.529 259.148 622.029 258.79 622.687C258.433 623.345 258.254 624.117 258.254 625.003C258.254 625.904 258.433 626.691 258.79 627.363C259.148 628.021 259.627 628.528 260.227 628.886C260.828 629.229 261.493 629.4 262.222 629.4C262.951 629.4 263.616 629.229 264.217 628.886C264.831 628.528 265.318 628.021 265.675 627.363C266.033 626.691 266.211 625.911 266.211 625.025ZM273.435 615.051V630.923H271.483V615.051H273.435ZM286.641 631.116C285.74 631.116 284.932 630.966 284.217 630.666C283.502 630.351 282.937 629.922 282.523 629.379C282.108 628.821 281.879 628.185 281.836 627.47H283.853C283.91 628.056 284.181 628.535 284.668 628.907C285.168 629.279 285.819 629.465 286.619 629.465C287.363 629.465 287.949 629.3 288.378 628.971C288.807 628.643 289.022 628.228 289.022 627.727C289.022 627.213 288.793 626.834 288.335 626.591C287.878 626.333 287.17 626.083 286.212 625.84C285.34 625.611 284.625 625.382 284.067 625.154C283.524 624.911 283.052 624.56 282.651 624.103C282.265 623.631 282.072 623.016 282.072 622.258C282.072 621.657 282.251 621.107 282.608 620.606C282.966 620.106 283.474 619.713 284.131 619.427C284.789 619.126 285.54 618.976 286.383 618.976C287.685 618.976 288.736 619.305 289.536 619.963C290.337 620.621 290.766 621.522 290.823 622.666H288.872C288.829 622.051 288.578 621.557 288.121 621.186C287.678 620.814 287.077 620.628 286.319 620.628C285.618 620.628 285.061 620.778 284.646 621.078C284.231 621.379 284.024 621.772 284.024 622.258C284.024 622.644 284.146 622.966 284.389 623.223C284.646 623.466 284.961 623.666 285.332 623.824C285.719 623.967 286.248 624.131 286.92 624.317C287.763 624.546 288.45 624.775 288.979 625.003C289.508 625.218 289.958 625.547 290.33 625.99C290.716 626.433 290.916 627.013 290.931 627.727C290.931 628.371 290.752 628.95 290.394 629.465C290.037 629.98 289.529 630.387 288.872 630.687C288.228 630.973 287.485 631.116 286.641 631.116ZM303.81 619.169L296.732 636.457H294.716L297.032 630.795L292.292 619.169H294.458L298.147 628.693L301.794 619.169H303.81ZM309.933 631.116C309.032 631.116 308.224 630.966 307.509 630.666C306.794 630.351 306.229 629.922 305.815 629.379C305.4 628.821 305.171 628.185 305.128 627.47H307.145C307.202 628.056 307.473 628.535 307.96 628.907C308.46 629.279 309.111 629.465 309.911 629.465C310.655 629.465 311.241 629.3 311.67 628.971C312.099 628.643 312.314 628.228 312.314 627.727C312.314 627.213 312.085 626.834 311.627 626.591C311.17 626.333 310.462 626.083 309.504 625.84C308.632 625.611 307.917 625.382 307.359 625.154C306.816 624.911 306.344 624.56 305.943 624.103C305.557 623.631 305.364 623.016 305.364 622.258C305.364 621.657 305.543 621.107 305.901 620.606C306.258 620.106 306.766 619.713 307.423 619.427C308.081 619.126 308.832 618.976 309.676 618.976C310.977 618.976 312.028 619.305 312.829 619.963C313.629 620.621 314.058 621.522 314.115 622.666H312.164C312.121 622.051 311.87 621.557 311.413 621.186C310.97 620.814 310.369 620.628 309.611 620.628C308.911 620.628 308.353 620.778 307.938 621.078C307.524 621.379 307.316 621.772 307.316 622.258C307.316 622.644 307.438 622.966 307.681 623.223C307.938 623.466 308.253 623.666 308.625 623.824C309.011 623.967 309.54 624.131 310.212 624.317C311.055 624.546 311.742 624.775 312.271 625.003C312.8 625.218 313.25 625.547 313.622 625.99C314.008 626.433 314.208 627.013 314.223 627.727C314.223 628.371 314.044 628.95 313.686 629.465C313.329 629.98 312.821 630.387 312.164 630.687C311.52 630.973 310.777 631.116 309.933 631.116ZM319.359 620.778V627.706C319.359 628.278 319.48 628.686 319.723 628.929C319.967 629.157 320.388 629.272 320.989 629.272H322.426V630.923H320.667C319.58 630.923 318.765 630.673 318.222 630.173C317.679 629.672 317.407 628.85 317.407 627.706V620.778H315.884V619.169H317.407V616.209H319.359V619.169H322.426V620.778H319.359ZM335.515 624.596C335.515 624.968 335.494 625.361 335.451 625.776H326.056C326.128 626.934 326.521 627.842 327.236 628.5C327.965 629.143 328.845 629.465 329.874 629.465C330.718 629.465 331.419 629.272 331.976 628.886C332.548 628.485 332.949 627.956 333.177 627.298H335.279C334.965 628.428 334.336 629.35 333.392 630.065C332.448 630.766 331.276 631.116 329.874 631.116C328.759 631.116 327.758 630.866 326.871 630.366C325.999 629.865 325.313 629.157 324.812 628.242C324.312 627.313 324.062 626.24 324.062 625.025C324.062 623.809 324.305 622.744 324.791 621.829C325.277 620.914 325.956 620.213 326.829 619.727C327.715 619.227 328.73 618.976 329.874 618.976C330.99 618.976 331.976 619.219 332.834 619.706C333.692 620.192 334.35 620.864 334.808 621.722C335.279 622.565 335.515 623.523 335.515 624.596ZM333.499 624.188C333.499 623.445 333.335 622.809 333.006 622.279C332.677 621.736 332.227 621.329 331.655 621.057C331.097 620.771 330.475 620.628 329.789 620.628C328.802 620.628 327.958 620.942 327.258 621.572C326.571 622.201 326.178 623.073 326.078 624.188H333.499ZM352.226 618.955C353.142 618.955 353.957 619.148 354.672 619.534C355.387 619.906 355.951 620.471 356.366 621.228C356.781 621.986 356.988 622.909 356.988 623.995V630.923H355.058V624.274C355.058 623.102 354.765 622.208 354.178 621.593C353.606 620.964 352.827 620.649 351.84 620.649C350.825 620.649 350.017 620.978 349.417 621.636C348.816 622.279 348.516 623.216 348.516 624.446V630.923H346.585V624.274C346.585 623.102 346.292 622.208 345.706 621.593C345.134 620.964 344.355 620.649 343.368 620.649C342.353 620.649 341.545 620.978 340.944 621.636C340.344 622.279 340.044 623.216 340.044 624.446V630.923H338.092V619.169H340.044V620.864C340.43 620.249 340.944 619.777 341.588 619.448C342.246 619.119 342.968 618.955 343.754 618.955C344.741 618.955 345.613 619.177 346.371 619.62C347.129 620.063 347.694 620.714 348.065 621.572C348.394 620.742 348.938 620.099 349.696 619.641C350.453 619.184 351.297 618.955 352.226 618.955ZM360.812 631.052C360.44 631.052 360.126 630.923 359.868 630.666C359.611 630.409 359.482 630.094 359.482 629.722C359.482 629.35 359.611 629.036 359.868 628.778C360.126 628.521 360.44 628.392 360.812 628.392C361.169 628.392 361.47 628.521 361.713 628.778C361.97 629.036 362.099 629.35 362.099 629.722C362.099 630.094 361.97 630.409 361.713 630.666C361.47 630.923 361.169 631.052 360.812 631.052Z" fill="black" fill-opacity="0.8"/>
</g>
<defs>
<clipPath id="clip0">
<rect width="455.787" height="681" fill="white" transform="translate(0.547852)"/>
</clipPath>
<clipPath id="clip1">
<rect width="375.855" height="329.504" fill="white" transform="translate(41.0005 61)"/>
</clipPath>
</defs>
</svg>
