<svg width="457" height="681" viewBox="0 0 457 681" fill="none" xmlns="http://www.w3.org/2000/svg">
<g clip-path="url(#clip0)">
<rect x="0.547852" width="455.548" height="680.642" rx="26.7969" fill="black" fill-opacity="0.5"/>
<rect x="26.0049" y="26.7969" width="401.954" height="401.954" fill="white"/>
<g clip-path="url(#clip1)">
<path d="M428.358 132.298H325.06V320.731H428.358V132.298Z" fill="#E6E6E6"/>
<path d="M334.708 311.082H418.709V141.946H334.708V311.082Z" fill="white"/>
<path d="M391.517 178.222H366.985V180.5H391.517V178.222Z" fill="#E6E6E6"/>
<path d="M409.743 186.103H366.985V188.381H409.743V186.103Z" fill="#E6E6E6"/>
<path d="M409.701 193.984H366.985V196.263H409.701V193.984Z" fill="#E6E6E6"/>
<path d="M361.901 178.256H343.675V196.482H361.901V178.256Z" fill="#E6E6E6"/>
<path d="M391.517 217.385H366.985V219.663H391.517V217.385Z" fill="#E6E6E6"/>
<path d="M409.743 225.266H366.985V227.544H409.743V225.266Z" fill="#E6E6E6"/>
<path d="M409.701 233.146H366.985V235.425H409.701V233.146Z" fill="#E6E6E6"/>
<path d="M361.901 217.418H343.675V235.644H361.901V217.418Z" fill="#E6E6E6"/>
<path d="M391.517 256.547H366.985V258.825H391.517V256.547Z" fill="#E6E6E6"/>
<path d="M409.743 264.428H366.985V266.706H409.743V264.428Z" fill="#E6E6E6"/>
<path d="M409.701 272.309H366.985V274.587H409.701V272.309Z" fill="#E6E6E6"/>
<path d="M361.901 256.581H343.675V274.806H361.901V256.581Z" fill="#E6E6E6"/>
<path d="M140.032 132.298H36.7339V320.731H140.032V132.298Z" fill="#E6E6E6"/>
<path d="M46.3828 311.082H130.383V141.946H46.3828V311.082Z" fill="white"/>
<path d="M103.191 178.222H78.6587V180.5H103.191V178.222Z" fill="#E6E6E6"/>
<path d="M121.416 186.103H78.6587V188.381H121.416V186.103Z" fill="#E6E6E6"/>
<path d="M121.374 193.984H78.6587V196.263H121.374V193.984Z" fill="#E6E6E6"/>
<path d="M73.5745 178.256H55.3491V196.482H73.5745V178.256Z" fill="#E6E6E6"/>
<path d="M103.191 217.385H78.6587V219.663H103.191V217.385Z" fill="#E6E6E6"/>
<path d="M121.416 225.266H78.6587V227.544H121.416V225.266Z" fill="#E6E6E6"/>
<path d="M121.374 233.146H78.6587V235.425H121.374V233.146Z" fill="#E6E6E6"/>
<path d="M73.5745 217.418H55.3491V235.644H73.5745V217.418Z" fill="#E6E6E6"/>
<path d="M103.191 256.547H78.6587V258.825H103.191V256.547Z" fill="#E6E6E6"/>
<path d="M121.416 264.428H78.6587V266.706H121.416V264.428Z" fill="#E6E6E6"/>
<path d="M121.374 272.309H78.6587V274.587H121.374V272.309Z" fill="#E6E6E6"/>
<path d="M73.5745 256.581H55.3491V274.806H73.5745V256.581Z" fill="#E6E6E6"/>
<path d="M228 336C337.352 336 426 331.523 426 326C426 320.477 337.352 316 228 316C118.648 316 30 320.477 30 326C30 331.523 118.648 336 228 336Z" fill="#E6E6E6"/>
<path d="M302.863 71H162.229V327.542H302.863V71Z" fill="#3F3D56"/>
<path d="M168.306 321.015H296.785V77.5269H168.306V321.015Z" fill="white"/>
<path d="M252.706 133.524H219.307V136.626H252.706V133.524Z" fill="#6C63FF"/>
<path d="M277.519 144.253H219.307V147.355H277.519V144.253Z" fill="#E6E6E6"/>
<path d="M277.462 154.983H219.307V158.085H277.462V154.983Z" fill="#E6E6E6"/>
<path d="M212.385 133.57H187.572V158.383H212.385V133.57Z" fill="#6C63FF"/>
<path d="M252.706 186.841H219.307V189.943H252.706V186.841Z" fill="#6C63FF"/>
<path d="M277.519 197.571H219.307V200.672H277.519V197.571Z" fill="#E6E6E6"/>
<path d="M277.462 208.3H219.307V211.402H277.462V208.3Z" fill="#E6E6E6"/>
<path d="M212.385 186.888H187.572V211.701H212.385V186.888Z" fill="#6C63FF"/>
<path d="M252.706 240.159H219.307V243.261H252.706V240.159Z" fill="#6C63FF"/>
<path d="M277.519 250.888H219.307V253.99H277.519V250.888Z" fill="#E6E6E6"/>
<path d="M277.462 261.618H219.307V264.719H277.462V261.618Z" fill="#E6E6E6"/>
<path d="M212.385 240.205H187.572V265.018H212.385V240.205Z" fill="#6C63FF"/>
<path d="M181.181 252.907L179.478 260.285C179.478 260.285 180.046 277.312 175.505 275.609C170.965 273.907 172.1 259.15 172.1 259.15L176.073 251.771L181.181 252.907Z" fill="#FFB8B8"/>
<path d="M155.924 172.028C162.193 172.028 167.275 166.945 167.275 160.676C167.275 154.407 162.193 149.325 155.924 149.325C149.654 149.325 144.572 154.407 144.572 160.676C144.572 166.945 149.654 172.028 155.924 172.028Z" fill="#FFB8B8"/>
<path d="M147.126 163.798L145.991 180.257L160.18 181.96C160.18 181.96 160.18 168.338 161.316 166.636C162.451 164.933 147.126 163.798 147.126 163.798Z" fill="#FFB8B8"/>
<path d="M178.627 185.082L160.247 177.298C160.247 177.298 151.467 170.524 146.317 175.532L144.005 178.838C144.005 178.838 123.572 186.784 123.572 193.028L131.518 224.244C131.518 224.244 126.978 241.839 133.789 242.974L170.681 246.379C170.681 246.379 175.789 240.136 171.248 232.19L172.951 213.46L178.627 185.082Z" fill="#575A89"/>
<path d="M166.14 185.649L178.627 185.082C178.627 185.082 182.6 186.217 185.438 197.001C188.275 207.784 188.843 225.379 188.843 225.379L182.032 257.163L173.519 256.028L176.924 225.379L171.248 204.947L166.14 185.649Z" fill="#575A89"/>
<path d="M130.383 189.055L124.227 190.972C124.227 190.972 119.032 198.703 119.032 202.676C119.032 206.649 116.761 236.731 116.761 236.731L131.518 261.136L136.059 249.217L126.978 233.893L134.356 215.163L130.383 189.055Z" fill="#575A89"/>
<path d="M172.383 245.244L131.577 241.654C131.577 241.654 127.545 267.379 128.113 277.596C128.681 287.812 129.248 303.704 129.248 303.704L124.708 372.948L142.302 370.677L144.572 313.353L151.951 282.136L160.464 321.866L166.14 372.948L181.465 371.245L176.356 309.38C176.356 309.38 180.897 253.758 172.383 245.244Z" fill="#2F2E41"/>
<path d="M178.059 368.407L183.167 370.11C183.167 370.11 193.951 367.272 191.113 374.651C188.275 382.029 180.329 380.894 180.329 380.894C180.329 380.894 170.681 388.272 166.708 382.596L168.978 370.678L178.059 368.407Z" fill="#2F2E41"/>
<path d="M136.626 368.407L141.734 370.11C141.734 370.11 152.518 367.272 149.68 374.651C146.843 382.029 138.897 380.894 138.897 380.894C138.897 380.894 129.248 388.272 125.275 382.596L127.545 370.678L136.626 368.407Z" fill="#2F2E41"/>
<path d="M147.127 170.609C147.127 170.609 135.208 162.095 141.451 151.879C145.782 144.791 154.757 145.352 159.848 146.361C161.22 146.614 162.509 147.197 163.605 148.059C164.701 148.922 165.571 150.038 166.14 151.311C166.991 153.298 166.991 155.284 163.586 155.284C156.775 155.284 160.181 160.392 160.181 160.392C160.181 160.392 155.64 161.528 156.775 165.501C157.91 169.474 147.127 170.609 147.127 170.609Z" fill="#2F2E41"/>
</g>
<rect x="26.0049" y="451.528" width="403.294" height="58.9532" rx="13.3985" fill="white"/>
<path d="M205.058 489.849H201.392L190.362 473.16V489.849H186.696V467.468H190.362L201.392 484.125V467.468H205.058V489.849ZM226.11 480.555C226.11 481.22 226.068 481.82 225.982 482.356H212.444C212.551 483.771 213.076 484.907 214.02 485.765C214.963 486.622 216.121 487.051 217.493 487.051C219.465 487.051 220.858 486.226 221.673 484.575H225.628C225.092 486.204 224.117 487.544 222.702 488.595C221.308 489.624 219.572 490.138 217.493 490.138C215.799 490.138 214.277 489.763 212.926 489.013C211.597 488.241 210.547 487.169 209.775 485.797C209.025 484.403 208.65 482.796 208.65 480.973C208.65 479.151 209.014 477.554 209.743 476.182C210.493 474.789 211.533 473.717 212.862 472.967C214.213 472.216 215.756 471.841 217.493 471.841C219.165 471.841 220.655 472.206 221.962 472.934C223.27 473.663 224.288 474.692 225.017 476.021C225.746 477.329 226.11 478.84 226.11 480.555ZM222.284 479.398C222.262 478.047 221.78 476.965 220.837 476.15C219.894 475.335 218.725 474.928 217.332 474.928C216.067 474.928 214.984 475.335 214.084 476.15C213.184 476.943 212.648 478.026 212.476 479.398H222.284ZM253.514 472.131L248.015 489.849H244.156L240.587 476.761L237.017 489.849H233.159L227.628 472.131H231.358L235.056 486.376L238.818 472.131H242.645L246.246 486.311L249.912 472.131H253.514ZM262.685 490.138C261.291 490.138 260.037 489.892 258.922 489.398C257.829 488.884 256.961 488.198 256.318 487.34C255.674 486.462 255.331 485.486 255.289 484.414H259.083C259.147 485.165 259.501 485.797 260.144 486.311C260.809 486.805 261.634 487.051 262.62 487.051C263.649 487.051 264.442 486.858 265 486.472C265.579 486.065 265.868 485.55 265.868 484.929C265.868 484.264 265.546 483.771 264.903 483.45C264.282 483.128 263.285 482.774 261.913 482.388C260.584 482.024 259.501 481.67 258.665 481.327C257.829 480.984 257.1 480.459 256.478 479.752C255.878 479.044 255.578 478.112 255.578 476.954C255.578 476.011 255.857 475.153 256.414 474.381C256.971 473.588 257.765 472.967 258.794 472.516C259.844 472.066 261.045 471.841 262.395 471.841C264.41 471.841 266.029 472.356 267.251 473.385C268.494 474.392 269.159 475.775 269.244 477.533H265.579C265.514 476.74 265.193 476.107 264.614 475.636C264.035 475.164 263.253 474.928 262.266 474.928C261.302 474.928 260.562 475.11 260.048 475.475C259.533 475.839 259.276 476.322 259.276 476.922C259.276 477.393 259.447 477.79 259.79 478.112C260.133 478.433 260.551 478.69 261.045 478.883C261.538 479.055 262.266 479.28 263.231 479.559C264.517 479.902 265.568 480.255 266.382 480.62C267.219 480.963 267.937 481.477 268.537 482.163C269.137 482.849 269.448 483.76 269.469 484.897C269.469 485.904 269.191 486.805 268.633 487.598C268.076 488.391 267.283 489.013 266.254 489.463C265.246 489.913 264.057 490.138 262.685 490.138Z" fill="#1F536F"/>
<rect x="26.0049" y="530.579" width="403.294" height="121.926" rx="13.3985" fill="white"/>
<path d="M64.8604 566.638H62.9096L55.0634 554.74V566.638H53.1126V551.674H55.0634L62.9096 563.551V551.674H64.8604V566.638ZM73.3094 566.831C72.209 566.831 71.2086 566.581 70.3082 566.08C69.4221 565.58 68.7218 564.873 68.2073 563.958C67.7071 563.029 67.457 561.957 67.457 560.742C67.457 559.542 67.7142 558.484 68.2287 557.57C68.7575 556.641 69.4721 555.933 70.3725 555.447C71.2729 554.947 72.2804 554.697 73.3952 554.697C74.5099 554.697 75.5175 554.947 76.4179 555.447C77.3183 555.933 78.0257 556.634 78.5402 557.548C79.069 558.463 79.3334 559.528 79.3334 560.742C79.3334 561.957 79.0619 563.029 78.5188 563.958C77.99 564.873 77.2682 565.58 76.3536 566.08C75.4389 566.581 74.4242 566.831 73.3094 566.831ZM73.3094 565.116C74.0097 565.116 74.6672 564.951 75.2817 564.623C75.8962 564.294 76.3893 563.801 76.7609 563.143C77.1468 562.486 77.3397 561.686 77.3397 560.742C77.3397 559.799 77.1539 558.999 76.7823 558.341C76.4107 557.684 75.9248 557.198 75.3246 556.884C74.7243 556.555 74.0741 556.391 73.3738 556.391C72.6592 556.391 72.0018 556.555 71.4015 556.884C70.8155 557.198 70.3439 557.684 69.9866 558.341C69.6293 558.999 69.4507 559.799 69.4507 560.742C69.4507 561.7 69.6222 562.507 69.9652 563.165C70.3225 563.822 70.7941 564.315 71.3801 564.644C71.966 564.958 72.6092 565.116 73.3094 565.116ZM84.2779 556.498V563.422C84.2779 563.994 84.3994 564.401 84.6424 564.644C84.8853 564.873 85.3069 564.987 85.9072 564.987H87.3435V566.638H85.5856C84.4994 566.638 83.6848 566.388 83.1417 565.887C82.5987 565.387 82.3271 564.565 82.3271 563.422V556.498H80.805V554.89H82.3271V551.932H84.2779V554.89H87.3435V556.498H84.2779ZM90.7147 552.982C90.3431 552.982 90.0287 552.853 89.7715 552.596C89.5142 552.339 89.3856 552.024 89.3856 551.653C89.3856 551.281 89.5142 550.967 89.7715 550.71C90.0287 550.452 90.3431 550.324 90.7147 550.324C91.072 550.324 91.3721 550.452 91.6151 550.71C91.8723 550.967 92.001 551.281 92.001 551.653C92.001 552.024 91.8723 552.339 91.6151 552.596C91.3721 552.853 91.072 552.982 90.7147 552.982ZM91.658 554.89V566.638H89.7072V554.89H91.658ZM99.7634 556.498H97.2981V566.638H95.3472V556.498H93.8252V554.89H95.3472V554.054C95.3472 552.739 95.6831 551.781 96.3548 551.181C97.0408 550.567 98.1341 550.259 99.6347 550.259V551.889C98.7772 551.889 98.1698 552.06 97.8126 552.403C97.4696 552.732 97.2981 553.282 97.2981 554.054V554.89H99.7634V556.498ZM103.045 552.982C102.674 552.982 102.359 552.853 102.102 552.596C101.845 552.339 101.716 552.024 101.716 551.653C101.716 551.281 101.845 550.967 102.102 550.71C102.359 550.452 102.674 550.324 103.045 550.324C103.403 550.324 103.703 550.452 103.946 550.71C104.203 550.967 104.332 551.281 104.332 551.653C104.332 552.024 104.203 552.339 103.946 552.596C103.703 552.853 103.403 552.982 103.045 552.982ZM103.989 554.89V566.638H102.038V554.89H103.989ZM106.585 560.742C106.585 559.528 106.828 558.47 107.314 557.57C107.799 556.655 108.471 555.948 109.329 555.447C110.2 554.947 111.194 554.697 112.309 554.697C113.752 554.697 114.938 555.047 115.867 555.747C116.81 556.448 117.432 557.42 117.732 558.663H115.631C115.431 557.948 115.038 557.384 114.452 556.969C113.881 556.555 113.166 556.348 112.309 556.348C111.194 556.348 110.293 556.734 109.607 557.505C108.921 558.263 108.578 559.342 108.578 560.742C108.578 562.157 108.921 563.251 109.607 564.022C110.293 564.794 111.194 565.18 112.309 565.18C113.166 565.18 113.881 564.98 114.452 564.58C115.024 564.18 115.417 563.608 115.631 562.865H117.732C117.418 564.065 116.789 565.03 115.846 565.759C114.902 566.473 113.723 566.831 112.309 566.831C111.194 566.831 110.2 566.581 109.329 566.08C108.471 565.58 107.799 564.873 107.314 563.958C106.828 563.043 106.585 561.971 106.585 560.742ZM119.606 560.721C119.606 559.52 119.849 558.47 120.335 557.57C120.821 556.655 121.486 555.948 122.329 555.447C123.186 554.947 124.137 554.697 125.18 554.697C126.209 554.697 127.102 554.919 127.86 555.362C128.617 555.805 129.182 556.362 129.553 557.034V554.89H131.526V566.638H129.553V564.451C129.167 565.137 128.589 565.709 127.817 566.166C127.059 566.609 126.173 566.831 125.159 566.831C124.115 566.831 123.172 566.573 122.329 566.059C121.486 565.544 120.821 564.823 120.335 563.894C119.849 562.965 119.606 561.907 119.606 560.721ZM129.553 560.742C129.553 559.856 129.375 559.085 129.017 558.427C128.66 557.77 128.174 557.269 127.56 556.926C126.959 556.569 126.295 556.391 125.566 556.391C124.837 556.391 124.173 556.562 123.572 556.905C122.972 557.248 122.493 557.748 122.136 558.406C121.779 559.063 121.6 559.835 121.6 560.721C121.6 561.621 121.779 562.407 122.136 563.079C122.493 563.736 122.972 564.244 123.572 564.601C124.173 564.944 124.837 565.116 125.566 565.116C126.295 565.116 126.959 564.944 127.56 564.601C128.174 564.244 128.66 563.736 129.017 563.079C129.375 562.407 129.553 561.628 129.553 560.742ZM137.202 556.498V563.422C137.202 563.994 137.323 564.401 137.566 564.644C137.809 564.873 138.231 564.987 138.831 564.987H140.267V566.638H138.51C137.423 566.638 136.609 566.388 136.066 565.887C135.523 565.387 135.251 564.565 135.251 563.422V556.498H133.729V554.89H135.251V551.932H137.202V554.89H140.267V556.498H137.202ZM143.639 552.982C143.267 552.982 142.953 552.853 142.695 552.596C142.438 552.339 142.31 552.024 142.31 551.653C142.31 551.281 142.438 550.967 142.695 550.71C142.953 550.452 143.267 550.324 143.639 550.324C143.996 550.324 144.296 550.452 144.539 550.71C144.796 550.967 144.925 551.281 144.925 551.653C144.925 552.024 144.796 552.339 144.539 552.596C144.296 552.853 143.996 552.982 143.639 552.982ZM144.582 554.89V566.638H142.631V554.89H144.582ZM153.03 566.831C151.93 566.831 150.929 566.581 150.029 566.08C149.143 565.58 148.443 564.873 147.928 563.958C147.428 563.029 147.178 561.957 147.178 560.742C147.178 559.542 147.435 558.484 147.95 557.57C148.478 556.641 149.193 555.933 150.093 555.447C150.994 554.947 152.001 554.697 153.116 554.697C154.231 554.697 155.238 554.947 156.139 555.447C157.039 555.933 157.747 556.634 158.261 557.548C158.79 558.463 159.054 559.528 159.054 560.742C159.054 561.957 158.783 563.029 158.24 563.958C157.711 564.873 156.989 565.58 156.074 566.08C155.16 566.581 154.145 566.831 153.03 566.831ZM153.03 565.116C153.731 565.116 154.388 564.951 155.003 564.623C155.617 564.294 156.11 563.801 156.482 563.143C156.868 562.486 157.061 561.686 157.061 560.742C157.061 559.799 156.875 558.999 156.503 558.341C156.132 557.684 155.646 557.198 155.045 556.884C154.445 556.555 153.795 556.391 153.095 556.391C152.38 556.391 151.723 556.555 151.122 556.884C150.536 557.198 150.065 557.684 149.707 558.341C149.35 558.999 149.172 559.799 149.172 560.742C149.172 561.7 149.343 562.507 149.686 563.165C150.043 563.822 150.515 564.315 151.101 564.644C151.687 564.958 152.33 565.116 153.03 565.116ZM167.343 554.676C168.772 554.676 169.93 555.111 170.816 555.983C171.702 556.841 172.145 558.084 172.145 559.713V566.638H170.216V559.992C170.216 558.82 169.923 557.927 169.337 557.312C168.751 556.684 167.95 556.369 166.936 556.369C165.907 556.369 165.085 556.691 164.47 557.334C163.87 557.977 163.57 558.913 163.57 560.142V566.638H161.619V554.89H163.57V556.562C163.956 555.962 164.478 555.497 165.135 555.169C165.807 554.84 166.543 554.676 167.343 554.676ZM179.491 566.831C178.59 566.831 177.783 566.681 177.068 566.38C176.354 566.066 175.789 565.637 175.375 565.094C174.96 564.537 174.731 563.901 174.689 563.186H176.704C176.761 563.772 177.032 564.251 177.518 564.623C178.019 564.994 178.669 565.18 179.469 565.18C180.212 565.18 180.798 565.016 181.227 564.687C181.656 564.358 181.87 563.944 181.87 563.444C181.87 562.929 181.641 562.55 181.184 562.307C180.727 562.05 180.019 561.8 179.062 561.557C178.19 561.328 177.475 561.1 176.918 560.871C176.375 560.628 175.903 560.278 175.503 559.821C175.117 559.349 174.924 558.734 174.924 557.977C174.924 557.377 175.103 556.826 175.46 556.326C175.818 555.826 176.325 555.433 176.982 555.147C177.64 554.847 178.39 554.697 179.233 554.697C180.534 554.697 181.584 555.026 182.385 555.683C183.185 556.341 183.614 557.241 183.671 558.384H181.72C181.677 557.77 181.427 557.277 180.97 556.905C180.527 556.533 179.926 556.348 179.169 556.348C178.469 556.348 177.911 556.498 177.497 556.798C177.082 557.098 176.875 557.491 176.875 557.977C176.875 558.363 176.997 558.684 177.24 558.942C177.497 559.185 177.811 559.385 178.183 559.542C178.569 559.685 179.098 559.849 179.769 560.035C180.612 560.264 181.298 560.492 181.827 560.721C182.356 560.935 182.806 561.264 183.178 561.707C183.564 562.15 183.764 562.729 183.778 563.444C183.778 564.087 183.599 564.665 183.242 565.18C182.885 565.694 182.378 566.102 181.72 566.402C181.077 566.688 180.334 566.831 179.491 566.831ZM191.518 560.721C191.518 559.52 191.761 558.47 192.247 557.57C192.733 556.655 193.398 555.948 194.241 555.447C195.098 554.947 196.049 554.697 197.092 554.697C198.121 554.697 199.014 554.919 199.772 555.362C200.529 555.805 201.094 556.362 201.465 557.034V554.89H203.438V566.638H201.465V564.451C201.08 565.137 200.501 565.709 199.729 566.166C198.971 566.609 198.085 566.831 197.071 566.831C196.027 566.831 195.084 566.573 194.241 566.059C193.398 565.544 192.733 564.823 192.247 563.894C191.761 562.965 191.518 561.907 191.518 560.721ZM201.465 560.742C201.465 559.856 201.287 559.085 200.929 558.427C200.572 557.77 200.086 557.269 199.472 556.926C198.871 556.569 198.207 556.391 197.478 556.391C196.749 556.391 196.085 556.562 195.484 556.905C194.884 557.248 194.405 557.748 194.048 558.406C193.691 559.063 193.512 559.835 193.512 560.721C193.512 561.621 193.691 562.407 194.048 563.079C194.405 563.736 194.884 564.244 195.484 564.601C196.085 564.944 196.749 565.116 197.478 565.116C198.207 565.116 198.871 564.944 199.472 564.601C200.086 564.244 200.572 563.736 200.929 563.079C201.287 562.407 201.465 561.628 201.465 560.742ZM208.685 557.077C209.085 556.376 209.671 555.805 210.443 555.362C211.215 554.919 212.094 554.697 213.08 554.697C214.137 554.697 215.088 554.947 215.931 555.447C216.774 555.948 217.439 556.655 217.925 557.57C218.411 558.47 218.654 559.52 218.654 560.721C218.654 561.907 218.411 562.965 217.925 563.894C217.439 564.823 216.767 565.544 215.91 566.059C215.066 566.573 214.123 566.831 213.08 566.831C212.065 566.831 211.172 566.609 210.4 566.166C209.643 565.723 209.071 565.159 208.685 564.473V566.638H206.734V550.774H208.685V557.077ZM216.66 560.721C216.66 559.835 216.481 559.063 216.124 558.406C215.767 557.748 215.281 557.248 214.666 556.905C214.066 556.562 213.401 556.391 212.673 556.391C211.958 556.391 211.293 556.569 210.679 556.926C210.079 557.269 209.593 557.777 209.221 558.449C208.864 559.106 208.685 559.871 208.685 560.742C208.685 561.628 208.864 562.407 209.221 563.079C209.593 563.736 210.079 564.244 210.679 564.601C211.293 564.944 211.958 565.116 212.673 565.116C213.401 565.116 214.066 564.944 214.666 564.601C215.281 564.244 215.767 563.736 216.124 563.079C216.481 562.407 216.66 561.621 216.66 560.721ZM226.345 566.831C225.245 566.831 224.244 566.581 223.344 566.08C222.458 565.58 221.757 564.873 221.243 563.958C220.743 563.029 220.493 561.957 220.493 560.742C220.493 559.542 220.75 558.484 221.264 557.57C221.793 556.641 222.508 555.933 223.408 555.447C224.308 554.947 225.316 554.697 226.431 554.697C227.546 554.697 228.553 554.947 229.453 555.447C230.354 555.933 231.061 556.634 231.576 557.548C232.105 558.463 232.369 559.528 232.369 560.742C232.369 561.957 232.097 563.029 231.554 563.958C231.026 564.873 230.304 565.58 229.389 566.08C228.474 566.581 227.46 566.831 226.345 566.831ZM226.345 565.116C227.045 565.116 227.703 564.951 228.317 564.623C228.932 564.294 229.425 563.801 229.796 563.143C230.182 562.486 230.375 561.686 230.375 560.742C230.375 559.799 230.189 558.999 229.818 558.341C229.446 557.684 228.96 557.198 228.36 556.884C227.76 556.555 227.11 556.391 226.409 556.391C225.695 556.391 225.037 556.555 224.437 556.884C223.851 557.198 223.379 557.684 223.022 558.341C222.665 558.999 222.486 559.799 222.486 560.742C222.486 561.7 222.658 562.507 223.001 563.165C223.358 563.822 223.83 564.315 224.416 564.644C225.002 564.958 225.645 565.116 226.345 565.116ZM245.353 554.89V566.638H243.402V564.901C243.03 565.502 242.509 565.973 241.837 566.316C241.179 566.645 240.451 566.809 239.65 566.809C238.735 566.809 237.914 566.623 237.185 566.252C236.456 565.866 235.877 565.294 235.448 564.537C235.034 563.779 234.827 562.858 234.827 561.771V554.89H236.756V561.514C236.756 562.672 237.049 563.565 237.635 564.194C238.221 564.808 239.021 565.116 240.036 565.116C241.079 565.116 241.901 564.794 242.501 564.151C243.102 563.508 243.402 562.572 243.402 561.343V554.89H245.353ZM251.026 556.498V563.422C251.026 563.994 251.147 564.401 251.39 564.644C251.633 564.873 252.055 564.987 252.655 564.987H254.092V566.638H252.334C251.247 566.638 250.433 566.388 249.89 565.887C249.347 565.387 249.075 564.565 249.075 563.422V556.498H247.553V554.89H249.075V551.932H251.026V554.89H254.092V556.498H251.026ZM268.001 554.676C268.888 554.676 269.688 554.868 270.402 555.254C271.117 555.626 271.674 556.19 272.075 556.948C272.489 557.705 272.696 558.627 272.696 559.713V566.638H270.767V559.992C270.767 558.82 270.474 557.927 269.888 557.312C269.302 556.684 268.502 556.369 267.487 556.369C266.458 556.369 265.636 556.691 265.022 557.334C264.421 557.977 264.121 558.913 264.121 560.142V566.638H262.17V550.774H264.121V556.562C264.507 555.962 265.036 555.497 265.708 555.169C266.394 554.84 267.158 554.676 268.001 554.676ZM276.891 552.982C276.519 552.982 276.205 552.853 275.947 552.596C275.69 552.339 275.561 552.024 275.561 551.653C275.561 551.281 275.69 550.967 275.947 550.71C276.205 550.452 276.519 550.324 276.891 550.324C277.248 550.324 277.548 550.452 277.791 550.71C278.048 550.967 278.177 551.281 278.177 551.653C278.177 552.024 278.048 552.339 277.791 552.596C277.548 552.853 277.248 552.982 276.891 552.982ZM277.834 554.89V566.638H275.883V554.89H277.834ZM285.317 566.831C284.417 566.831 283.61 566.681 282.895 566.38C282.18 566.066 281.616 565.637 281.201 565.094C280.787 564.537 280.558 563.901 280.515 563.186H282.531C282.588 563.772 282.859 564.251 283.345 564.623C283.845 564.994 284.496 565.18 285.296 565.18C286.039 565.18 286.625 565.016 287.054 564.687C287.483 564.358 287.697 563.944 287.697 563.444C287.697 562.929 287.468 562.55 287.011 562.307C286.554 562.05 285.846 561.8 284.889 561.557C284.017 561.328 283.302 561.1 282.745 560.871C282.202 560.628 281.73 560.278 281.33 559.821C280.944 559.349 280.751 558.734 280.751 557.977C280.751 557.377 280.93 556.826 281.287 556.326C281.645 555.826 282.152 555.433 282.809 555.147C283.467 554.847 284.217 554.697 285.06 554.697C286.361 554.697 287.411 555.026 288.212 555.683C289.012 556.341 289.441 557.241 289.498 558.384H287.547C287.504 557.77 287.254 557.277 286.797 556.905C286.354 556.533 285.753 556.348 284.996 556.348C284.296 556.348 283.738 556.498 283.324 556.798C282.909 557.098 282.702 557.491 282.702 557.977C282.702 558.363 282.824 558.684 283.067 558.942C283.324 559.185 283.638 559.385 284.01 559.542C284.396 559.685 284.924 559.849 285.596 560.035C286.439 560.264 287.125 560.492 287.654 560.721C288.183 560.935 288.633 561.264 289.005 561.707C289.391 562.15 289.591 562.729 289.605 563.444C289.605 564.087 289.426 564.665 289.069 565.18C288.712 565.694 288.204 566.102 287.547 566.402C286.904 566.688 286.161 566.831 285.317 566.831ZM299.648 546.444L293.774 570.282H291.844L297.697 546.444H299.648ZM308.385 554.676C309.271 554.676 310.072 554.868 310.786 555.254C311.501 555.626 312.058 556.19 312.458 556.948C312.873 557.705 313.08 558.627 313.08 559.713V566.638H311.151V559.992C311.151 558.82 310.858 557.927 310.272 557.312C309.686 556.684 308.885 556.369 307.871 556.369C306.842 556.369 306.02 556.691 305.405 557.334C304.805 557.977 304.505 558.913 304.505 560.142V566.638H302.554V550.774H304.505V556.562C304.891 555.962 305.42 555.497 306.091 555.169C306.777 554.84 307.542 554.676 308.385 554.676ZM326.986 560.314C326.986 560.685 326.964 561.078 326.921 561.493H317.532C317.603 562.65 317.996 563.558 318.711 564.215C319.44 564.858 320.318 565.18 321.347 565.18C322.191 565.18 322.891 564.987 323.448 564.601C324.02 564.201 324.42 563.672 324.649 563.015H326.75C326.435 564.144 325.806 565.066 324.863 565.78C323.92 566.48 322.748 566.831 321.347 566.831C320.233 566.831 319.232 566.581 318.346 566.08C317.474 565.58 316.788 564.873 316.288 563.958C315.788 563.029 315.538 561.957 315.538 560.742C315.538 559.528 315.781 558.463 316.267 557.548C316.753 556.634 317.432 555.933 318.303 555.447C319.189 554.947 320.204 554.697 321.347 554.697C322.462 554.697 323.448 554.94 324.306 555.426C325.163 555.912 325.821 556.583 326.278 557.441C326.75 558.284 326.986 559.242 326.986 560.314ZM324.97 559.906C324.97 559.163 324.806 558.527 324.477 557.998C324.149 557.455 323.698 557.048 323.127 556.776C322.569 556.491 321.948 556.348 321.262 556.348C320.276 556.348 319.432 556.662 318.732 557.291C318.046 557.92 317.653 558.792 317.553 559.906H324.97ZM331.511 556.798C331.854 556.126 332.34 555.605 332.969 555.233C333.612 554.861 334.391 554.676 335.306 554.676V556.691H334.791C332.605 556.691 331.511 557.877 331.511 560.249V566.638H329.561V554.89H331.511V556.798ZM52.3837 592.742C52.3837 591.528 52.6267 590.47 53.1126 589.57C53.5985 588.655 54.2702 587.948 55.1277 587.447C55.9995 586.947 56.9928 586.697 58.1076 586.697C59.551 586.697 60.7372 587.047 61.6662 587.747C62.6094 588.448 63.2311 589.42 63.5312 590.663H61.4304C61.2303 589.948 60.8373 589.384 60.2513 588.969C59.6796 588.555 58.9651 588.348 58.1076 588.348C56.9928 588.348 56.0924 588.734 55.4064 589.505C54.7204 590.263 54.3774 591.342 54.3774 592.742C54.3774 594.157 54.7204 595.251 55.4064 596.022C56.0924 596.794 56.9928 597.18 58.1076 597.18C58.9651 597.18 59.6796 596.98 60.2513 596.58C60.823 596.18 61.216 595.608 61.4304 594.865H63.5312C63.2168 596.065 62.588 597.03 61.6447 597.759C60.7015 598.473 59.5224 598.831 58.1076 598.831C56.9928 598.831 55.9995 598.581 55.1277 598.08C54.2702 597.58 53.5985 596.873 53.1126 595.958C52.6267 595.043 52.3837 593.971 52.3837 592.742ZM68.0851 582.774V598.638H66.1342V582.774H68.0851ZM70.681 592.721C70.681 591.52 70.924 590.47 71.4099 589.57C71.8958 588.655 72.5604 587.948 73.4036 587.447C74.2611 586.947 75.2115 586.697 76.2548 586.697C77.2838 586.697 78.177 586.919 78.9345 587.362C79.6919 587.805 80.2564 588.362 80.628 589.034V586.89H82.6003V598.638H80.628V596.451C80.2421 597.137 79.6633 597.709 78.8916 598.166C78.1341 598.609 77.248 598.831 76.2333 598.831C75.19 598.831 74.2468 598.573 73.4036 598.059C72.5604 597.544 71.8958 596.823 71.4099 595.894C70.924 594.965 70.681 593.907 70.681 592.721ZM80.628 592.742C80.628 591.856 80.4494 591.085 80.0921 590.427C79.7348 589.77 79.2489 589.269 78.6343 588.926C78.0341 588.569 77.3695 588.391 76.6406 588.391C75.9118 588.391 75.2472 588.562 74.6469 588.905C74.0467 589.248 73.5679 589.748 73.2106 590.406C72.8533 591.063 72.6747 591.835 72.6747 592.721C72.6747 593.621 72.8533 594.407 73.2106 595.079C73.5679 595.736 74.0467 596.244 74.6469 596.601C75.2472 596.944 75.9118 597.116 76.6406 597.116C77.3695 597.116 78.0341 596.944 78.6343 596.601C79.2489 596.244 79.7348 595.736 80.0921 595.079C80.4494 594.407 80.628 593.628 80.628 592.742ZM90.0558 598.831C89.1555 598.831 88.348 598.681 87.6334 598.38C86.9188 598.066 86.3543 597.637 85.9398 597.094C85.5254 596.537 85.2967 595.901 85.2538 595.186H87.269C87.3261 595.772 87.5977 596.251 88.0836 596.623C88.5838 596.994 89.2341 597.18 90.0344 597.18C90.7776 597.18 91.3635 597.016 91.7923 596.687C92.221 596.358 92.4354 595.944 92.4354 595.444C92.4354 594.929 92.2067 594.55 91.7494 594.307C91.2921 594.05 90.5846 593.8 89.6271 593.557C88.7553 593.328 88.0407 593.1 87.4833 592.871C86.9403 592.628 86.4686 592.278 86.0685 591.821C85.6826 591.349 85.4897 590.734 85.4897 589.977C85.4897 589.377 85.6683 588.826 86.0256 588.326C86.3829 587.826 86.8902 587.433 87.5477 587.147C88.2051 586.847 88.9554 586.697 89.7986 586.697C91.0991 586.697 92.1496 587.026 92.9499 587.683C93.7502 588.341 94.179 589.241 94.2362 590.384H92.2854C92.2425 589.77 91.9924 589.277 91.535 588.905C91.092 588.533 90.4917 588.348 89.7343 588.348C89.034 588.348 88.4766 588.498 88.0622 588.798C87.6477 589.098 87.4405 589.491 87.4405 589.977C87.4405 590.363 87.5619 590.684 87.8049 590.942C88.0622 591.185 88.3766 591.385 88.7482 591.542C89.134 591.685 89.6628 591.849 90.3345 592.035C91.1777 592.264 91.8637 592.492 92.3925 592.721C92.9213 592.935 93.3715 593.264 93.7431 593.707C94.129 594.15 94.3291 594.729 94.3434 595.444C94.3434 596.087 94.1647 596.665 93.8074 597.18C93.4501 597.694 92.9428 598.102 92.2854 598.402C91.6422 598.688 90.8991 598.831 90.0558 598.831ZM101.256 598.831C100.356 598.831 99.5483 598.681 98.8337 598.38C98.1191 598.066 97.5546 597.637 97.1401 597.094C96.7257 596.537 96.497 595.901 96.4541 595.186H98.4692C98.5264 595.772 98.798 596.251 99.2839 596.623C99.7841 596.994 100.434 597.18 101.235 597.18C101.978 597.18 102.564 597.016 102.993 596.687C103.421 596.358 103.636 595.944 103.636 595.444C103.636 594.929 103.407 594.55 102.95 594.307C102.492 594.05 101.785 593.8 100.827 593.557C99.9556 593.328 99.241 593.1 98.6836 592.871C98.1405 592.628 97.6689 592.278 97.2687 591.821C96.8829 591.349 96.6899 590.734 96.6899 589.977C96.6899 589.377 96.8686 588.826 97.2259 588.326C97.5832 587.826 98.0905 587.433 98.7479 587.147C99.4053 586.847 100.156 586.697 100.999 586.697C102.299 586.697 103.35 587.026 104.15 587.683C104.951 588.341 105.379 589.241 105.436 590.384H103.486C103.443 589.77 103.193 589.277 102.735 588.905C102.292 588.533 101.692 588.348 100.935 588.348C100.234 588.348 99.6769 588.498 99.2624 588.798C98.848 589.098 98.6407 589.491 98.6407 589.977C98.6407 590.363 98.7622 590.684 99.0052 590.942C99.2624 591.185 99.5768 591.385 99.9484 591.542C100.334 591.685 100.863 591.849 101.535 592.035C102.378 592.264 103.064 592.492 103.593 592.721C104.122 592.935 104.572 593.264 104.943 593.707C105.329 594.15 105.529 594.729 105.544 595.444C105.544 596.087 105.365 596.665 105.008 597.18C104.65 597.694 104.143 598.102 103.486 598.402C102.842 598.688 102.099 598.831 101.256 598.831ZM119.016 592.314C119.016 592.685 118.995 593.078 118.952 593.493H109.562C109.634 594.65 110.027 595.558 110.741 596.215C111.47 596.858 112.349 597.18 113.378 597.18C114.221 597.18 114.922 596.987 115.479 596.601C116.051 596.201 116.451 595.672 116.68 595.015H118.78C118.466 596.144 117.837 597.066 116.894 597.78C115.951 598.48 114.779 598.831 113.378 598.831C112.263 598.831 111.263 598.581 110.377 598.08C109.505 597.58 108.819 596.873 108.319 595.958C107.819 595.029 107.569 593.957 107.569 592.742C107.569 591.528 107.812 590.463 108.298 589.548C108.783 588.634 109.462 587.933 110.334 587.447C111.22 586.947 112.235 586.697 113.378 586.697C114.493 586.697 115.479 586.94 116.337 587.426C117.194 587.912 117.852 588.583 118.309 589.441C118.78 590.284 119.016 591.242 119.016 592.314ZM117.001 591.906C117.001 591.163 116.837 590.527 116.508 589.998C116.179 589.455 115.729 589.048 115.158 588.776C114.6 588.491 113.978 588.348 113.292 588.348C112.306 588.348 111.463 588.662 110.763 589.291C110.077 589.92 109.684 590.792 109.584 591.906H117.001ZM125.75 598.831C124.85 598.831 124.042 598.681 123.328 598.38C122.613 598.066 122.049 597.637 121.634 597.094C121.22 596.537 120.991 595.901 120.948 595.186H122.963C123.02 595.772 123.292 596.251 123.778 596.623C124.278 596.994 124.928 597.18 125.729 597.18C126.472 597.18 127.058 597.016 127.487 596.687C127.915 596.358 128.13 595.944 128.13 595.444C128.13 594.929 127.901 594.55 127.444 594.307C126.986 594.05 126.279 593.8 125.321 593.557C124.45 593.328 123.735 593.1 123.178 592.871C122.635 592.628 122.163 592.278 121.763 591.821C121.377 591.349 121.184 590.734 121.184 589.977C121.184 589.377 121.363 588.826 121.72 588.326C122.077 587.826 122.585 587.433 123.242 587.147C123.899 586.847 124.65 586.697 125.493 586.697C126.793 586.697 127.844 587.026 128.644 587.683C129.445 588.341 129.873 589.241 129.931 590.384H127.98C127.937 589.77 127.687 589.277 127.229 588.905C126.786 588.533 126.186 588.348 125.429 588.348C124.728 588.348 124.171 588.498 123.756 588.798C123.342 589.098 123.135 589.491 123.135 589.977C123.135 590.363 123.256 590.684 123.499 590.942C123.756 591.185 124.071 591.385 124.442 591.542C124.828 591.685 125.357 591.849 126.029 592.035C126.872 592.264 127.558 592.492 128.087 592.721C128.616 592.935 129.066 593.264 129.437 593.707C129.823 594.15 130.023 594.729 130.038 595.444C130.038 596.087 129.859 596.665 129.502 597.18C129.144 597.694 128.637 598.102 127.98 598.402C127.337 598.688 126.593 598.831 125.75 598.831ZM137.778 592.721C137.778 591.52 138.021 590.47 138.507 589.57C138.993 588.655 139.657 587.948 140.501 587.447C141.358 586.947 142.308 586.697 143.352 586.697C144.381 586.697 145.274 586.919 146.031 587.362C146.789 587.805 147.353 588.362 147.725 589.034V586.89H149.697V598.638H147.725V596.451C147.339 597.137 146.76 597.709 145.989 598.166C145.231 598.609 144.345 598.831 143.33 598.831C142.287 598.831 141.344 598.573 140.501 598.059C139.657 597.544 138.993 596.823 138.507 595.894C138.021 594.965 137.778 593.907 137.778 592.721ZM147.725 592.742C147.725 591.856 147.546 591.085 147.189 590.427C146.832 589.77 146.346 589.269 145.731 588.926C145.131 588.569 144.466 588.391 143.738 588.391C143.009 588.391 142.344 588.562 141.744 588.905C141.144 589.248 140.665 589.748 140.308 590.406C139.95 591.063 139.772 591.835 139.772 592.721C139.772 593.621 139.95 594.407 140.308 595.079C140.665 595.736 141.144 596.244 141.744 596.601C142.344 596.944 143.009 597.116 143.738 597.116C144.466 597.116 145.131 596.944 145.731 596.601C146.346 596.244 146.832 595.736 147.189 595.079C147.546 594.407 147.725 593.628 147.725 592.742ZM158.718 586.676C160.147 586.676 161.305 587.111 162.191 587.983C163.077 588.841 163.52 590.084 163.52 591.713V598.638H161.59V591.992C161.59 590.82 161.297 589.927 160.711 589.312C160.125 588.684 159.325 588.369 158.31 588.369C157.281 588.369 156.46 588.691 155.845 589.334C155.245 589.977 154.945 590.913 154.945 592.142V598.638H152.994V586.89H154.945V588.562C155.331 587.962 155.852 587.497 156.51 587.169C157.181 586.84 157.917 586.676 158.718 586.676ZM165.978 592.721C165.978 591.52 166.221 590.47 166.706 589.57C167.192 588.655 167.857 587.948 168.7 587.447C169.558 586.947 170.515 586.697 171.573 586.697C172.487 586.697 173.338 586.911 174.124 587.34C174.91 587.755 175.51 588.305 175.925 588.991V582.774H177.897V598.638H175.925V596.43C175.539 597.13 174.967 597.709 174.21 598.166C173.452 598.609 172.566 598.831 171.551 598.831C170.508 598.831 169.558 598.573 168.7 598.059C167.857 597.544 167.192 596.823 166.706 595.894C166.221 594.965 165.978 593.907 165.978 592.721ZM175.925 592.742C175.925 591.856 175.746 591.085 175.389 590.427C175.031 589.77 174.545 589.269 173.931 588.926C173.331 588.569 172.666 588.391 171.937 588.391C171.208 588.391 170.544 588.562 169.944 588.905C169.343 589.248 168.864 589.748 168.507 590.406C168.15 591.063 167.971 591.835 167.971 592.721C167.971 593.621 168.15 594.407 168.507 595.079C168.864 595.736 169.343 596.244 169.944 596.601C170.544 596.944 171.208 597.116 171.937 597.116C172.666 597.116 173.331 596.944 173.931 596.601C174.545 596.244 175.031 595.736 175.389 595.079C175.746 594.407 175.925 593.628 175.925 592.742ZM191.068 598.831C190.167 598.831 189.36 598.681 188.645 598.38C187.931 598.066 187.366 597.637 186.952 597.094C186.537 596.537 186.309 595.901 186.266 595.186H188.281C188.338 595.772 188.61 596.251 189.095 596.623C189.596 596.994 190.246 597.18 191.046 597.18C191.789 597.18 192.375 597.016 192.804 596.687C193.233 596.358 193.447 595.944 193.447 595.444C193.447 594.929 193.219 594.55 192.761 594.307C192.304 594.05 191.596 593.8 190.639 593.557C189.767 593.328 189.053 593.1 188.495 592.871C187.952 592.628 187.48 592.278 187.08 591.821C186.694 591.349 186.501 590.734 186.501 589.977C186.501 589.377 186.68 588.826 187.037 588.326C187.395 587.826 187.902 587.433 188.559 587.147C189.217 586.847 189.967 586.697 190.81 586.697C192.111 586.697 193.161 587.026 193.962 587.683C194.762 588.341 195.191 589.241 195.248 590.384H193.297C193.254 589.77 193.004 589.277 192.547 588.905C192.104 588.533 191.504 588.348 190.746 588.348C190.046 588.348 189.488 588.498 189.074 588.798C188.66 589.098 188.452 589.491 188.452 589.977C188.452 590.363 188.574 590.684 188.817 590.942C189.074 591.185 189.388 591.385 189.76 591.542C190.146 591.685 190.675 591.849 191.346 592.035C192.19 592.264 192.876 592.492 193.404 592.721C193.933 592.935 194.383 593.264 194.755 593.707C195.141 594.15 195.341 594.729 195.355 595.444C195.355 596.087 195.177 596.665 194.819 597.18C194.462 597.694 193.955 598.102 193.297 598.402C192.654 598.688 191.911 598.831 191.068 598.831ZM203.233 598.831C202.132 598.831 201.132 598.581 200.231 598.08C199.345 597.58 198.645 596.873 198.131 595.958C197.63 595.029 197.38 593.957 197.38 592.742C197.38 591.542 197.637 590.484 198.152 589.57C198.681 588.641 199.395 587.933 200.296 587.447C201.196 586.947 202.204 586.697 203.318 586.697C204.433 586.697 205.441 586.947 206.341 587.447C207.241 587.933 207.949 588.634 208.463 589.548C208.992 590.463 209.257 591.528 209.257 592.742C209.257 593.957 208.985 595.029 208.442 595.958C207.913 596.873 207.191 597.58 206.277 598.08C205.362 598.581 204.347 598.831 203.233 598.831ZM203.233 597.116C203.933 597.116 204.59 596.951 205.205 596.623C205.819 596.294 206.313 595.801 206.684 595.143C207.07 594.486 207.263 593.686 207.263 592.742C207.263 591.799 207.077 590.999 206.706 590.341C206.334 589.684 205.848 589.198 205.248 588.884C204.648 588.555 203.997 588.391 203.297 588.391C202.582 588.391 201.925 588.555 201.325 588.884C200.739 589.198 200.267 589.684 199.91 590.341C199.553 590.999 199.374 591.799 199.374 592.742C199.374 593.7 199.545 594.507 199.888 595.165C200.246 595.822 200.717 596.315 201.303 596.644C201.889 596.958 202.532 597.116 203.233 597.116ZM225.949 586.676C226.864 586.676 227.678 586.868 228.393 587.254C229.107 587.626 229.672 588.19 230.086 588.948C230.501 589.705 230.708 590.627 230.708 591.713V598.638H228.779V591.992C228.779 590.82 228.486 589.927 227.9 589.312C227.328 588.684 226.549 588.369 225.563 588.369C224.548 588.369 223.741 588.698 223.141 589.355C222.54 589.998 222.24 590.934 222.24 592.164V598.638H220.311V591.992C220.311 590.82 220.018 589.927 219.432 589.312C218.86 588.684 218.081 588.369 217.095 588.369C216.08 588.369 215.273 588.698 214.673 589.355C214.073 589.998 213.772 590.934 213.772 592.164V598.638H211.822V586.89H213.772V588.583C214.158 587.969 214.673 587.497 215.316 587.169C215.973 586.84 216.695 586.676 217.481 586.676C218.467 586.676 219.339 586.897 220.096 587.34C220.854 587.783 221.418 588.433 221.79 589.291C222.119 588.462 222.662 587.819 223.419 587.362C224.177 586.904 225.02 586.676 225.949 586.676ZM244.627 592.314C244.627 592.685 244.605 593.078 244.563 593.493H235.173C235.244 594.65 235.637 595.558 236.352 596.215C237.081 596.858 237.96 597.18 238.989 597.18C239.832 597.18 240.532 596.987 241.09 596.601C241.661 596.201 242.062 595.672 242.29 595.015H244.391C244.077 596.144 243.448 597.066 242.505 597.78C241.561 598.48 240.389 598.831 238.989 598.831C237.874 598.831 236.874 598.581 235.988 598.08C235.116 597.58 234.43 596.873 233.93 595.958C233.429 595.029 233.179 593.957 233.179 592.742C233.179 591.528 233.422 590.463 233.908 589.548C234.394 588.634 235.073 587.933 235.945 587.447C236.831 586.947 237.845 586.697 238.989 586.697C240.104 586.697 241.09 586.94 241.947 587.426C242.805 587.912 243.462 588.583 243.919 589.441C244.391 590.284 244.627 591.242 244.627 592.314ZM242.612 591.906C242.612 591.163 242.447 590.527 242.119 589.998C241.79 589.455 241.34 589.048 240.768 588.776C240.211 588.491 239.589 588.348 238.903 588.348C237.917 588.348 237.074 588.662 236.373 589.291C235.687 589.92 235.294 590.792 235.194 591.906H242.612ZM258.641 586.676C260.07 586.676 261.228 587.111 262.114 587.983C263 588.841 263.443 590.084 263.443 591.713V598.638H261.514V591.992C261.514 590.82 261.221 589.927 260.635 589.312C260.049 588.684 259.248 588.369 258.234 588.369C257.205 588.369 256.383 588.691 255.768 589.334C255.168 589.977 254.868 590.913 254.868 592.142V598.638H252.917V586.89H254.868V588.562C255.254 587.962 255.775 587.497 256.433 587.169C257.105 586.84 257.841 586.676 258.641 586.676ZM277.348 592.314C277.348 592.685 277.327 593.078 277.284 593.493H267.894C267.966 594.65 268.359 595.558 269.074 596.215C269.802 596.858 270.681 597.18 271.71 597.18C272.554 597.18 273.254 596.987 273.811 596.601C274.383 596.201 274.783 595.672 275.012 595.015H277.113C276.798 596.144 276.169 597.066 275.226 597.78C274.283 598.48 273.111 598.831 271.71 598.831C270.596 598.831 269.595 598.581 268.709 598.08C267.837 597.58 267.151 596.873 266.651 595.958C266.151 595.029 265.901 593.957 265.901 592.742C265.901 591.528 266.144 590.463 266.63 589.548C267.116 588.634 267.794 587.933 268.666 587.447C269.552 586.947 270.567 586.697 271.71 586.697C272.825 586.697 273.811 586.94 274.669 587.426C275.526 587.912 276.184 588.583 276.641 589.441C277.113 590.284 277.348 591.242 277.348 592.314ZM275.333 591.906C275.333 591.163 275.169 590.527 274.84 589.998C274.512 589.455 274.061 589.048 273.49 588.776C272.932 588.491 272.311 588.348 271.625 588.348C270.638 588.348 269.795 588.662 269.095 589.291C268.409 589.92 268.016 590.792 267.916 591.906H275.333ZM295.573 586.89L291.907 598.638H289.892L287.062 589.312L284.232 598.638H282.217L278.53 586.89H280.524L283.225 596.751L286.14 586.89H288.134L290.985 596.773L293.643 586.89H295.573ZM301.668 598.831C300.767 598.831 299.96 598.681 299.245 598.38C298.531 598.066 297.966 597.637 297.552 597.094C297.137 596.537 296.909 595.901 296.866 595.186H298.881C298.938 595.772 299.21 596.251 299.696 596.623C300.196 596.994 300.846 597.18 301.646 597.18C302.39 597.18 302.975 597.016 303.404 596.687C303.833 596.358 304.047 595.944 304.047 595.444C304.047 594.929 303.819 594.55 303.361 594.307C302.904 594.05 302.197 593.8 301.239 593.557C300.367 593.328 299.653 593.1 299.095 592.871C298.552 592.628 298.081 592.278 297.68 591.821C297.295 591.349 297.102 590.734 297.102 589.977C297.102 589.377 297.28 588.826 297.638 588.326C297.995 587.826 298.502 587.433 299.16 587.147C299.817 586.847 300.567 586.697 301.411 586.697C302.711 586.697 303.762 587.026 304.562 587.683C305.362 588.341 305.791 589.241 305.848 590.384H303.897C303.854 589.77 303.604 589.277 303.147 588.905C302.704 588.533 302.104 588.348 301.346 588.348C300.646 588.348 300.089 588.498 299.674 588.798C299.26 589.098 299.052 589.491 299.052 589.977C299.052 590.363 299.174 590.684 299.417 590.942C299.674 591.185 299.989 591.385 300.36 591.542C300.746 591.685 301.275 591.849 301.946 592.035C302.79 592.264 303.476 592.492 304.004 592.721C304.533 592.935 304.983 593.264 305.355 593.707C305.741 594.15 305.941 594.729 305.955 595.444C305.955 596.087 305.777 596.665 305.419 597.18C305.062 597.694 304.555 598.102 303.897 598.402C303.254 598.688 302.511 598.831 301.668 598.831ZM313.696 592.721C313.696 591.52 313.939 590.47 314.424 589.57C314.91 588.655 315.575 587.948 316.418 587.447C317.276 586.947 318.226 586.697 319.269 586.697C320.298 586.697 321.192 586.919 321.949 587.362C322.706 587.805 323.271 588.362 323.643 589.034V586.89H325.615V598.638H323.643V596.451C323.257 597.137 322.678 597.709 321.906 598.166C321.149 598.609 320.263 598.831 319.248 598.831C318.205 598.831 317.261 598.573 316.418 598.059C315.575 597.544 314.91 596.823 314.424 595.894C313.939 594.965 313.696 593.907 313.696 592.721ZM323.643 592.742C323.643 591.856 323.464 591.085 323.107 590.427C322.749 589.77 322.263 589.269 321.649 588.926C321.049 588.569 320.384 588.391 319.655 588.391C318.926 588.391 318.262 588.562 317.662 588.905C317.061 589.248 316.583 589.748 316.225 590.406C315.868 591.063 315.689 591.835 315.689 592.721C315.689 593.621 315.868 594.407 316.225 595.079C316.583 595.736 317.061 596.244 317.662 596.601C318.262 596.944 318.926 597.116 319.655 597.116C320.384 597.116 321.049 596.944 321.649 596.601C322.263 596.244 322.749 595.736 323.107 595.079C323.464 594.407 323.643 593.628 323.643 592.742ZM330.862 589.077C331.263 588.376 331.848 587.805 332.62 587.362C333.392 586.919 334.271 586.697 335.257 586.697C336.315 586.697 337.265 586.947 338.108 587.447C338.951 587.948 339.616 588.655 340.102 589.57C340.588 590.47 340.831 591.52 340.831 592.721C340.831 593.907 340.588 594.965 340.102 595.894C339.616 596.823 338.944 597.544 338.087 598.059C337.244 598.573 336.3 598.831 335.257 598.831C334.242 598.831 333.349 598.609 332.577 598.166C331.82 597.723 331.248 597.159 330.862 596.473V598.638H328.912V582.774H330.862V589.077ZM338.837 592.721C338.837 591.835 338.658 591.063 338.301 590.406C337.944 589.748 337.458 589.248 336.843 588.905C336.243 588.562 335.579 588.391 334.85 588.391C334.135 588.391 333.471 588.569 332.856 588.926C332.256 589.269 331.77 589.777 331.398 590.449C331.041 591.106 330.862 591.871 330.862 592.742C330.862 593.628 331.041 594.407 331.398 595.079C331.77 595.736 332.256 596.244 332.856 596.601C333.471 596.944 334.135 597.116 334.85 597.116C335.579 597.116 336.243 596.944 336.843 596.601C337.458 596.244 337.944 595.736 338.301 595.079C338.658 594.407 338.837 593.621 338.837 592.721ZM348.522 598.831C347.422 598.831 346.421 598.581 345.521 598.08C344.635 597.58 343.935 596.873 343.42 595.958C342.92 595.029 342.67 593.957 342.67 592.742C342.67 591.542 342.927 590.484 343.442 589.57C343.97 588.641 344.685 587.933 345.585 587.447C346.486 586.947 347.493 586.697 348.608 586.697C349.723 586.697 350.73 586.947 351.631 587.447C352.531 587.933 353.238 588.634 353.753 589.548C354.282 590.463 354.546 591.528 354.546 592.742C354.546 593.957 354.275 595.029 353.732 595.958C353.203 596.873 352.481 597.58 351.566 598.08C350.652 598.581 349.637 598.831 348.522 598.831ZM348.522 597.116C349.223 597.116 349.88 596.951 350.494 596.623C351.109 596.294 351.602 595.801 351.974 595.143C352.36 594.486 352.552 593.686 352.552 592.742C352.552 591.799 352.367 590.999 351.995 590.341C351.624 589.684 351.138 589.198 350.537 588.884C349.937 588.555 349.287 588.391 348.587 588.391C347.872 588.391 347.215 588.555 346.614 588.884C346.028 589.198 345.557 589.684 345.199 590.341C344.842 590.999 344.663 591.799 344.663 592.742C344.663 593.7 344.835 594.507 345.178 595.165C345.535 595.822 346.007 596.315 346.593 596.644C347.179 596.958 347.822 597.116 348.522 597.116ZM367.53 586.89V598.638H365.579V596.901C365.207 597.502 364.686 597.973 364.014 598.316C363.357 598.645 362.628 598.809 361.827 598.809C360.913 598.809 360.091 598.623 359.362 598.252C358.633 597.866 358.054 597.294 357.626 596.537C357.211 595.779 357.004 594.858 357.004 593.771V586.89H358.933V593.514C358.933 594.672 359.226 595.565 359.812 596.194C360.398 596.808 361.199 597.116 362.213 597.116C363.257 597.116 364.078 596.794 364.679 596.151C365.279 595.508 365.579 594.572 365.579 593.343V586.89H367.53ZM373.203 588.498V595.422C373.203 595.994 373.325 596.401 373.568 596.644C373.811 596.873 374.232 596.987 374.832 596.987H376.269V598.638H374.511C373.425 598.638 372.61 598.388 372.067 597.887C371.524 597.387 371.252 596.565 371.252 595.422V588.498H369.73V586.89H371.252V583.932H373.203V586.89H376.269V588.498H373.203ZM55.4922 620.498V627.422C55.4922 627.994 55.6137 628.401 55.8566 628.644C56.0996 628.873 56.5212 628.987 57.1214 628.987H58.5577V630.638H56.7999C55.7137 630.638 54.8991 630.388 54.356 629.887C53.8129 629.387 53.5414 628.565 53.5414 627.422V620.498H52.0193V618.89H53.5414V615.932H55.4922V618.89H58.5577V620.498H55.4922ZM66.7524 618.676C67.6385 618.676 68.4388 618.868 69.1534 619.254C69.868 619.626 70.4254 620.19 70.8255 620.948C71.24 621.705 71.4472 622.627 71.4472 623.713V630.638H69.5178V623.992C69.5178 622.82 69.2249 621.927 68.6389 621.312C68.0529 620.684 67.2526 620.369 66.2379 620.369C65.2089 620.369 64.3871 620.691 63.7726 621.334C63.1723 621.977 62.8722 622.913 62.8722 624.142V630.638H60.9214V614.774H62.8722V620.562C63.2581 619.962 63.7869 619.497 64.4586 619.169C65.1446 618.84 65.9092 618.676 66.7524 618.676ZM85.3527 624.314C85.3527 624.685 85.3312 625.078 85.2883 625.493H75.8987C75.9702 626.65 76.3632 627.558 77.0778 628.215C77.8066 628.858 78.6856 629.18 79.7146 629.18C80.5578 629.18 81.2581 628.987 81.8155 628.601C82.3871 628.201 82.7873 627.672 83.016 627.015H85.1168C84.8024 628.144 84.1736 629.066 83.2303 629.78C82.2871 630.48 81.1152 630.831 79.7146 630.831C78.5998 630.831 77.5994 630.581 76.7133 630.08C75.8415 629.58 75.1555 628.873 74.6553 627.958C74.1551 627.029 73.905 625.957 73.905 624.742C73.905 623.528 74.148 622.463 74.6339 621.548C75.1198 620.634 75.7987 619.933 76.6704 619.447C77.5565 618.947 78.5712 618.697 79.7146 618.697C80.8293 618.697 81.8155 618.94 82.673 619.426C83.5305 619.912 84.1879 620.583 84.6452 621.441C85.1168 622.284 85.3527 623.242 85.3527 624.314ZM83.3375 623.906C83.3375 623.163 83.1732 622.527 82.8445 621.998C82.5158 621.455 82.0656 621.048 81.4939 620.776C80.9365 620.491 80.3148 620.348 79.6288 620.348C78.6427 620.348 77.7995 620.662 77.0992 621.291C76.4132 621.92 76.0202 622.792 75.9201 623.906H83.3375ZM104.062 618.89V630.638H102.111V628.901C101.739 629.502 101.218 629.973 100.546 630.316C99.8884 630.645 99.1595 630.809 98.3592 630.809C97.4445 630.809 96.6228 630.623 95.8939 630.252C95.165 629.866 94.5862 629.294 94.1575 628.537C93.743 627.779 93.5358 626.858 93.5358 625.771V618.89H95.4651V625.514C95.4651 626.672 95.7581 627.565 96.3441 628.194C96.93 628.808 97.7304 629.116 98.7451 629.116C99.7884 629.116 100.61 628.794 101.21 628.151C101.811 627.508 102.111 626.572 102.111 625.343V618.89H104.062ZM113.079 618.676C114.508 618.676 115.666 619.111 116.552 619.983C117.438 620.841 117.881 622.084 117.881 623.713V630.638H115.952V623.992C115.952 622.82 115.659 621.927 115.073 621.312C114.487 620.684 113.687 620.369 112.672 620.369C111.643 620.369 110.821 620.691 110.207 621.334C109.606 621.977 109.306 622.913 109.306 624.142V630.638H107.355V618.89H109.306V620.562C109.692 619.962 110.214 619.497 110.871 619.169C111.543 618.84 112.279 618.676 113.079 618.676ZM122.075 616.982C121.704 616.982 121.389 616.853 121.132 616.596C120.875 616.339 120.746 616.024 120.746 615.653C120.746 615.281 120.875 614.967 121.132 614.71C121.389 614.452 121.704 614.324 122.075 614.324C122.433 614.324 122.733 614.452 122.976 614.71C123.233 614.967 123.362 615.281 123.362 615.653C123.362 616.024 123.233 616.339 122.976 616.596C122.733 616.853 122.433 616.982 122.075 616.982ZM123.019 618.89V630.638H121.068V618.89H123.019ZM130.717 628.837L134.361 618.89H136.441L131.832 630.638H129.559L124.95 618.89H127.051L130.717 628.837ZM149.079 624.314C149.079 624.685 149.058 625.078 149.015 625.493H139.625C139.697 626.65 140.09 627.558 140.804 628.215C141.533 628.858 142.412 629.18 143.441 629.18C144.284 629.18 144.985 628.987 145.542 628.601C146.114 628.201 146.514 627.672 146.742 627.015H148.843C148.529 628.144 147.9 629.066 146.957 629.78C146.014 630.48 144.842 630.831 143.441 630.831C142.326 630.831 141.326 630.581 140.44 630.08C139.568 629.58 138.882 628.873 138.382 627.958C137.882 627.029 137.631 625.957 137.631 624.742C137.631 623.528 137.874 622.463 138.36 621.548C138.846 620.634 139.525 619.933 140.397 619.447C141.283 618.947 142.298 618.697 143.441 618.697C144.556 618.697 145.542 618.94 146.399 619.426C147.257 619.912 147.914 620.583 148.372 621.441C148.843 622.284 149.079 623.242 149.079 624.314ZM147.064 623.906C147.064 623.163 146.9 622.527 146.571 621.998C146.242 621.455 145.792 621.048 145.22 620.776C144.663 620.491 144.041 620.348 143.355 620.348C142.369 620.348 141.526 620.662 140.826 621.291C140.14 621.92 139.747 622.792 139.647 623.906H147.064ZM153.605 620.798C153.948 620.126 154.434 619.605 155.063 619.233C155.706 618.861 156.485 618.676 157.399 618.676V620.691H156.885C154.698 620.691 153.605 621.877 153.605 624.249V630.638H151.654V618.89H153.605V620.798ZM163.81 630.831C162.91 630.831 162.102 630.681 161.388 630.38C160.673 630.066 160.109 629.637 159.694 629.094C159.28 628.537 159.051 627.901 159.008 627.186H161.023C161.08 627.772 161.352 628.251 161.838 628.623C162.338 628.994 162.988 629.18 163.789 629.18C164.532 629.18 165.118 629.016 165.547 628.687C165.975 628.358 166.19 627.944 166.19 627.444C166.19 626.929 165.961 626.55 165.504 626.307C165.046 626.05 164.339 625.8 163.381 625.557C162.51 625.328 161.795 625.1 161.238 624.871C160.695 624.628 160.223 624.278 159.823 623.821C159.437 623.349 159.244 622.734 159.244 621.977C159.244 621.377 159.423 620.826 159.78 620.326C160.137 619.826 160.645 619.433 161.302 619.147C161.959 618.847 162.71 618.697 163.553 618.697C164.853 618.697 165.904 619.026 166.704 619.683C167.505 620.341 167.933 621.241 167.991 622.384H166.04C165.997 621.77 165.747 621.277 165.289 620.905C164.846 620.533 164.246 620.348 163.489 620.348C162.788 620.348 162.231 620.498 161.816 620.798C161.402 621.098 161.195 621.491 161.195 621.977C161.195 622.363 161.316 622.684 161.559 622.942C161.817 623.185 162.131 623.385 162.503 623.542C162.888 623.685 163.417 623.849 164.089 624.035C164.932 624.264 165.618 624.492 166.147 624.721C166.676 624.935 167.126 625.264 167.497 625.707C167.883 626.15 168.083 626.729 168.098 627.444C168.098 628.087 167.919 628.665 167.562 629.18C167.204 629.694 166.697 630.102 166.04 630.402C165.397 630.688 164.653 630.831 163.81 630.831ZM171.859 616.982C171.488 616.982 171.173 616.853 170.916 616.596C170.659 616.339 170.53 616.024 170.53 615.653C170.53 615.281 170.659 614.967 170.916 614.71C171.173 614.452 171.488 614.324 171.859 614.324C172.216 614.324 172.517 614.452 172.76 614.71C173.017 614.967 173.145 615.281 173.145 615.653C173.145 616.024 173.017 616.339 172.76 616.596C172.517 616.853 172.216 616.982 171.859 616.982ZM172.802 618.89V630.638H170.852V618.89H172.802ZM178.507 620.498V627.422C178.507 627.994 178.628 628.401 178.871 628.644C179.114 628.873 179.536 628.987 180.136 628.987H181.572V630.638H179.814C178.728 630.638 177.914 630.388 177.371 629.887C176.828 629.387 176.556 628.565 176.556 627.422V620.498H175.034V618.89H176.556V615.932H178.507V618.89H181.572V620.498H178.507ZM194.055 618.89L186.98 636.169H184.965L187.28 630.509L182.543 618.89H184.708L188.395 628.408L192.039 618.89H194.055ZM196.637 630.766C196.266 630.766 195.951 630.638 195.694 630.38C195.437 630.123 195.308 629.809 195.308 629.437C195.308 629.066 195.437 628.751 195.694 628.494C195.951 628.237 196.266 628.108 196.637 628.108C196.995 628.108 197.295 628.237 197.538 628.494C197.795 628.751 197.924 629.066 197.924 629.437C197.924 629.809 197.795 630.123 197.538 630.38C197.295 630.638 196.995 630.766 196.637 630.766Z" fill="black" fill-opacity="0.8"/>
</g>
<defs>
<clipPath id="clip0">
<rect width="455.548" height="680.642" fill="white" transform="translate(0.547852)"/>
</clipPath>
<clipPath id="clip1">
<rect width="504.006" height="313.742" fill="white" transform="translate(-24 71)"/>
</clipPath>
</defs>
</svg>
