<svg width="715" height="688" viewBox="0 0 715 688" fill="none" xmlns="http://www.w3.org/2000/svg">
<g clip-path="url(#clip0)">
<rect width="715" height="688" fill="url(#paint0_linear)"/>
<path d="M316.611 354.662L343.556 401.331L370.5 448H262.723L289.667 401.331L316.611 354.662Z" fill="#1E21B2"/>
<path d="M163.5 263H50.5V376H163.5V263Z" fill="#E6E6E6"/>
<path d="M244.5 191C284.541 191 317 158.541 317 118.5C317 78.4594 284.541 46 244.5 46C204.459 46 172 78.4594 172 118.5C172 158.541 204.459 191 244.5 191Z" fill="#1E21B2"/>
<path d="M309.75 239.556C309.75 237.183 310.454 234.862 311.772 232.889C313.091 230.916 314.965 229.378 317.158 228.469C319.35 227.561 321.763 227.323 324.091 227.786C326.419 228.25 328.557 229.392 330.235 231.071C331.914 232.749 333.056 234.887 333.519 237.215C333.982 239.543 333.745 241.955 332.837 244.148C331.928 246.341 330.39 248.215 328.417 249.534C326.443 250.852 324.123 251.556 321.75 251.556C318.567 251.556 315.515 250.292 313.265 248.041C311.014 245.791 309.75 242.738 309.75 239.556ZM311.75 239.556C311.75 241.534 312.336 243.467 313.435 245.112C314.534 246.756 316.096 248.038 317.923 248.795C319.75 249.552 321.761 249.75 323.701 249.364C325.641 248.978 327.423 248.026 328.821 246.627C330.22 245.228 331.172 243.447 331.558 241.507C331.944 239.567 331.746 237.556 330.989 235.729C330.232 233.902 328.95 232.34 327.306 231.241C325.661 230.142 323.728 229.556 321.75 229.556C319.098 229.556 316.554 230.609 314.679 232.485C312.804 234.36 311.75 236.904 311.75 239.556V239.556Z" fill="#E6E6E6"/>
<path d="M206.436 448.293L188.772 429.355L207.71 411.691L225.374 430.629L206.436 448.293ZM191.588 429.453L206.534 445.477L222.558 430.531L207.612 414.507L191.588 429.453Z" fill="#E6E6E6"/>
<path d="M60.5501 178.887L46.1741 163.474L61.5911 149.1L75.9671 164.513L60.5501 178.887ZM48.4651 163.554L60.6341 176.6L73.6761 164.435L61.5111 151.393L48.4651 163.554Z" fill="#E6E6E6"/>
<path d="M262.5 200C242.722 200 223.388 194.135 206.943 183.147C190.498 172.159 177.681 156.541 170.112 138.268C162.543 119.996 160.563 99.8891 164.422 80.491C168.28 61.0929 177.804 43.2746 191.789 29.2894C205.775 15.3041 223.593 5.78004 242.991 1.92152C262.389 -1.93701 282.496 0.0433283 300.768 7.61209C319.041 15.1809 334.659 27.9981 345.647 44.443C356.635 60.8879 362.5 80.2219 362.5 100C362.5 126.522 351.964 151.957 333.211 170.711C314.457 189.464 289.022 200 262.5 200V200ZM262.5 2.00005C243.117 2.00005 224.17 7.74764 208.054 18.516C191.938 29.2844 179.377 44.5899 171.96 62.4971C164.542 80.4042 162.602 100.109 166.383 119.119C170.164 138.129 179.498 155.591 193.204 169.297C206.909 183.002 224.371 192.336 243.381 196.117C262.391 199.898 282.096 197.958 300.003 190.54C317.91 183.123 333.216 170.562 343.984 154.446C354.752 138.33 360.5 119.383 360.5 100C360.5 74.0088 350.175 49.0821 331.796 30.7036C313.418 12.325 288.491 2.00005 262.5 2.00005V2.00005Z" fill="#3F3D56"/>
<path d="M200.941 177.804L175.108 231.567L176.911 232.433L202.743 178.67L200.941 177.804Z" fill="#3F3D56"/>
<path d="M194.977 303.118L194.025 304.877L307.813 366.458L308.765 364.699L194.977 303.118Z" fill="#3F3D56"/>
<path d="M195.5 377H49.5V231H195.5V377ZM51.5 375H193.5V233H51.5V375Z" fill="#3F3D56"/>
<path d="M412.01 449H260.991L336.5 318.214L412.01 449ZM264.455 447H408.545L336.5 322.214L264.455 447Z" fill="#3F3D56"/>
<path d="M715 686H0V688H715V686Z" fill="#E6E6E6"/>
<path d="M206.302 623.631C211.39 625.419 216.854 625.868 222.165 624.932C227.477 623.996 232.458 621.708 236.629 618.289C247.251 609.373 250.582 594.689 253.291 581.089L261.306 540.861L244.526 552.415C232.458 560.724 220.119 569.3 211.764 581.335C203.409 593.37 199.764 609.8 206.475 622.823" fill="#2885DB"/>
<path d="M208.893 675.135C206.781 659.748 204.608 644.162 206.093 628.61C207.409 614.798 211.623 601.31 220.202 590.246C224.756 584.386 230.297 579.364 236.576 575.408C238.213 574.375 239.72 576.969 238.09 577.998C227.225 584.864 218.821 595.004 214.09 606.954C208.865 620.243 208.026 634.73 208.926 648.847C209.47 657.384 210.626 665.865 211.787 674.336C211.879 674.719 211.821 675.123 211.627 675.465C211.432 675.808 211.115 676.064 210.739 676.181C210.355 676.284 209.946 676.232 209.601 676.036C209.256 675.84 209.002 675.515 208.894 675.133L208.893 675.135Z" fill="#F2F2F2"/>
<path d="M348.694 653.941C351.164 656.859 354.345 659.092 357.929 660.424C361.513 661.756 365.379 662.143 369.156 661.547C378.849 659.903 386.156 652.115 392.685 644.769L412.01 623.041L397.61 624.091C387.251 624.846 376.63 625.666 367.21 630.031C357.79 634.396 349.664 643.131 349.101 653.507" fill="#2885DB"/>
<path d="M332.11 684.241C335.51 676.066 338.931 667.777 344.143 660.558C348.771 654.146 354.732 648.728 362.143 645.758C366.071 644.189 370.243 643.318 374.471 643.183C375.571 643.147 375.571 644.857 374.471 644.893C367.15 645.137 360.096 647.7 354.325 652.212C347.925 657.24 343.337 664.121 339.71 671.321C337.517 675.675 335.639 680.178 333.77 684.678C333.705 684.893 333.56 685.075 333.366 685.187C333.171 685.299 332.942 685.334 332.723 685.283C332.505 685.223 332.319 685.08 332.205 684.884C332.092 684.688 332.061 684.455 332.118 684.236L332.11 684.241Z" fill="#F2F2F2"/>
<path d="M224.095 650.445C226.277 653.762 229.277 656.462 232.805 658.284C236.333 660.105 240.271 660.987 244.239 660.845C254.439 660.361 262.939 653.245 270.59 646.487L293.225 626.502L278.245 625.785C267.472 625.269 256.421 624.785 246.16 628.111C235.899 631.437 226.436 639.429 224.56 650.05" fill="#2885DB"/>
<path d="M202.923 683.98C213.091 665.989 224.884 645.994 245.958 639.603C251.817 637.832 257.961 637.198 264.058 637.734C265.98 637.9 265.5 640.862 263.582 640.697C253.361 639.848 243.16 642.547 234.696 648.339C226.551 653.883 220.209 661.591 214.842 669.764C211.554 674.771 208.609 679.99 205.664 685.202C204.723 686.868 201.971 685.665 202.923 683.98Z" fill="#F2F2F2"/>
<path d="M23.483 652.114C27.1653 653.408 31.1189 653.732 34.9629 653.055C38.8068 652.378 42.4117 650.723 45.43 648.248C53.117 641.796 55.53 631.167 57.488 621.324L63.288 592.212L51.145 600.574C42.412 606.587 33.483 612.793 27.436 621.503C21.389 630.213 18.75 642.103 23.608 651.527" fill="#2885DB"/>
<path d="M24.5211 687.36C23.2921 678.407 22.0281 669.34 22.8901 660.291C23.6561 652.255 26.1071 644.406 31.0991 637.97C33.7486 634.56 36.9726 631.639 40.6261 629.337C41.5791 628.737 42.4551 630.246 41.5071 630.844C35.1858 634.839 30.2966 640.738 27.5441 647.691C24.5041 655.423 24.0161 663.852 24.5441 672.065C24.8611 677.032 25.5321 681.965 26.2091 686.895C26.2636 687.118 26.2308 687.353 26.1174 687.553C26.004 687.753 25.8186 687.901 25.5991 687.969C25.3758 688.029 25.1378 687.999 24.9367 687.885C24.7356 687.77 24.5877 687.581 24.5251 687.359L24.5211 687.36Z" fill="#F2F2F2"/>
<path d="M114.976 687.45C114.712 687.019 108.491 676.632 106.335 655.062C104.357 635.273 105.629 601.918 122.927 555.39C155.699 467.246 115.375 396.126 114.963 395.418L116.952 394.264C117.052 394.444 127.462 412.576 133.608 441.45C141.73 479.73 138.772 519.532 125.082 556.192C92.3659 644.186 116.689 685.841 116.938 686.252L114.976 687.45Z" fill="#3F3D56"/>
<path d="M149.297 445.425C157.551 445.425 164.242 438.734 164.242 430.48C164.242 422.226 157.551 415.535 149.297 415.535C141.043 415.535 134.352 422.226 134.352 430.48C134.352 438.734 141.043 445.425 149.297 445.425Z" fill="#1E21B2"/>
<path d="M105.61 561.539C113.864 561.539 120.555 554.848 120.555 546.594C120.555 538.34 113.864 531.649 105.61 531.649C97.3561 531.649 90.665 538.34 90.665 546.594C90.665 554.848 97.3561 561.539 105.61 561.539Z" fill="#1E21B2"/>
<path d="M122.613 687.002C122.613 687.002 109.86 655.611 148.118 632.068L122.613 687.002Z" fill="#2885DB"/>
<path d="M106.929 686.431C106.929 686.431 103.039 664.057 72.929 664.249L106.929 686.431Z" fill="#2885DB"/>
<path d="M141.75 504.364C141.75 501.991 142.454 499.671 143.772 497.697C145.091 495.724 146.965 494.186 149.158 493.277C151.351 492.369 153.763 492.132 156.091 492.595C158.419 493.058 160.557 494.201 162.235 495.879C163.914 497.557 165.056 499.695 165.519 502.023C165.982 504.351 165.745 506.764 164.837 508.956C163.928 511.149 162.39 513.023 160.417 514.342C158.443 515.66 156.123 516.364 153.75 516.364C150.567 516.364 147.515 515.1 145.265 512.849C143.014 510.599 141.75 507.547 141.75 504.364V504.364ZM143.75 504.364C143.75 506.342 144.336 508.275 145.435 509.92C146.534 511.564 148.096 512.846 149.923 513.603C151.75 514.36 153.761 514.558 155.701 514.172C157.641 513.786 159.423 512.834 160.821 511.435C162.22 510.037 163.172 508.255 163.558 506.315C163.944 504.375 163.746 502.364 162.989 500.537C162.232 498.71 160.95 497.148 159.306 496.049C157.661 494.951 155.728 494.364 153.75 494.364C151.098 494.364 148.554 495.418 146.679 497.293C144.804 499.168 143.75 501.712 143.75 504.364Z" fill="#E6E6E6"/>
<path d="M105.61 467.324C105.61 464.951 106.314 462.631 107.632 460.657C108.951 458.684 110.825 457.146 113.018 456.237C115.21 455.329 117.623 455.092 119.951 455.555C122.279 456.018 124.417 457.16 126.095 458.839C127.773 460.517 128.916 462.655 129.379 464.983C129.842 467.311 129.605 469.723 128.696 471.916C127.788 474.109 126.25 475.983 124.277 477.302C122.303 478.62 119.983 479.324 117.61 479.324C114.427 479.324 111.375 478.06 109.125 475.809C106.874 473.559 105.61 470.507 105.61 467.324V467.324ZM107.61 467.324C107.61 469.302 108.196 471.235 109.295 472.88C110.394 474.524 111.956 475.806 113.783 476.563C115.61 477.32 117.621 477.518 119.561 477.132C121.501 476.746 123.282 475.794 124.681 474.395C126.079 472.997 127.032 471.215 127.418 469.275C127.804 467.335 127.606 465.324 126.849 463.497C126.092 461.67 124.81 460.108 123.166 459.009C121.521 457.91 119.588 457.324 117.61 457.324C114.958 457.324 112.414 458.378 110.539 460.253C108.663 462.128 107.61 464.672 107.61 467.324Z" fill="#E6E6E6"/>
<path d="M637.914 438.617C636.421 439.689 634.71 440.417 632.903 440.749C631.095 441.082 629.237 441.01 627.461 440.539V440.539C624.273 439.691 621.552 437.612 619.897 434.758C618.243 431.905 617.789 428.51 618.637 425.322C618.68 425.16 618.726 424.999 618.776 424.839C618.96 424.256 619.189 423.687 619.46 423.139L595.008 313.357C594.634 312.104 594.51 310.79 594.644 309.489C594.777 308.188 595.166 306.926 595.787 305.775C596.409 304.625 597.251 303.608 598.265 302.783C599.279 301.957 600.446 301.34 601.699 300.966C602.952 300.591 604.267 300.468 605.568 300.601C606.869 300.735 608.13 301.124 609.281 301.745C610.432 302.366 611.449 303.208 612.274 304.223C613.099 305.237 613.717 306.404 614.091 307.657C614.111 307.726 614.131 307.794 614.15 307.863L637.232 417.975C638.966 419.054 640.408 420.543 641.429 422.312C642.45 424.08 643.02 426.073 643.087 428.114C643.155 430.155 642.718 432.181 641.816 434.014C640.914 435.846 639.574 437.427 637.915 438.618L637.914 438.617Z" fill="#9F616A"/>
<path d="M670.386 674.144H657.124L650.814 622.989H670.388L670.386 674.144Z" fill="#A0616A"/>
<path d="M673.768 687H631.005V686.459C631.005 682.045 632.759 677.812 635.88 674.69C639.001 671.569 643.234 669.815 647.648 669.815H673.768V687Z" fill="#2F2E41"/>
<path d="M537.425 673.726L524.807 669.643L534.547 619.03L553.171 625.055L537.425 673.726Z" fill="#A0616A"/>
<path d="M536.687 687.001L496.003 673.839L496.169 673.324C497.528 669.124 500.499 665.636 504.43 663.627C508.36 661.618 512.928 661.252 517.128 662.61V662.61L541.978 670.649L536.687 687.001Z" fill="#2F2E41"/>
<path d="M596.923 283.732C609.28 283.732 619.298 273.714 619.298 261.357C619.298 249 609.28 238.982 596.923 238.982C584.565 238.982 574.548 249 574.548 261.357C574.548 273.714 584.565 283.732 596.923 283.732Z" fill="#9F616A"/>
<path d="M627.001 348.336C630.112 336.779 615.864 300.536 614.701 295.936C609.146 294.654 596.275 297.112 588.362 295.483C577.112 304.883 568.162 318.311 561.979 324.683C555.548 331.308 551.402 335.799 558.047 351.305C566.102 370.1 564.312 389.789 564.312 389.789L569.682 437.223C569.682 437.223 547.307 499.872 549.097 541.937L528.511 644.858C528.511 644.858 534.776 655.598 547.306 650.228C547.306 650.228 576.841 597.428 574.156 558.939L606.376 487.339C606.376 487.339 628.751 555.358 635.016 561.623L651.126 658.282C651.126 658.282 666.341 662.757 673.501 658.282C673.501 658.282 676.186 565.203 660.971 549.988C660.971 549.988 645.756 485.549 649.336 468.544C652.916 451.539 653.811 425.585 626.961 402.315C626.961 402.315 627.231 402.438 618.906 387.1L627.001 348.336Z" fill="#2F2E41"/>
<path d="M608.595 226.773C607.34 226.776 606.088 226.9 604.858 227.145C602.634 226.066 600.195 225.504 597.723 225.501H597.075C584.589 225.501 574.468 236.801 574.468 250.736H578.652L579.328 245.593L580.318 250.736H583.803C582.719 254.863 582.174 259.112 582.184 263.379V289.065H588.509L592.171 279.548L591.255 289.065H631.913L635.242 280.413L634.41 289.065H638.988V268.896C638.987 245.632 625.38 226.773 608.595 226.773Z" fill="#2F2E41"/>
<path d="M561.943 451.33C560.126 451.603 558.271 451.469 556.511 450.94C554.751 450.411 553.13 449.499 551.765 448.269C550.552 447.175 549.566 445.853 548.864 444.378C548.162 442.903 547.758 441.305 547.673 439.673C547.589 438.042 547.827 436.41 548.373 434.871C548.92 433.332 549.764 431.915 550.858 430.702C550.971 430.577 551.087 430.453 551.206 430.332C551.637 429.897 552.1 429.496 552.592 429.132L580.943 320.296C581.181 319.01 581.67 317.784 582.382 316.687C583.094 315.59 584.015 314.644 585.093 313.903C586.171 313.162 587.384 312.641 588.663 312.369C589.942 312.097 591.262 312.079 592.548 312.318C593.834 312.556 595.06 313.045 596.157 313.757C597.254 314.469 598.199 315.39 598.94 316.468C599.681 317.545 600.202 318.758 600.475 320.037C600.747 321.316 600.764 322.636 600.526 323.922C600.512 323.997 600.497 324.072 600.482 324.146L570.755 432.652C571.805 434.403 572.408 436.386 572.51 438.425C572.611 440.465 572.209 442.498 571.337 444.344C570.466 446.191 569.153 447.795 567.514 449.013C565.876 450.231 563.962 451.027 561.943 451.33V451.33Z" fill="#9F616A"/>
</g>
<defs>
<linearGradient id="paint0_linear" x1="358" y1="327" x2="715" y2="688" gradientUnits="userSpaceOnUse">
<stop stop-color="white" stop-opacity="0"/>
<stop offset="1" stop-color="#2885DB"/>
</linearGradient>
<clipPath id="clip0">
<rect width="715" height="688" fill="white"/>
</clipPath>
</defs>
</svg>
